# Blender 5.2.0 LTS
# www.blender.org
mtllib Hendrik1charactersmall34obj.mtl
o Plane
v -0.005541 -0.836824 0.151089
v -0.013018 -0.369848 0.053834
v -0.005541 -0.836824 0.064728
v -0.013018 -0.369848 0.161984
v 0.132906 -0.836824 0.151089
v 0.132906 -0.836824 0.064728
v -0.005541 -0.760016 0.151089
v -0.005541 -0.760016 0.064728
v 0.053734 -0.760016 0.151089
v 0.053734 -0.760016 0.064728
v 0.061212 -0.369848 0.161984
v 0.061212 -0.369848 0.053834
v -0.007033 -0.248261 0.062554
v -0.007033 -0.248261 0.153263
v 0.055226 -0.248261 0.153263
v 0.055226 -0.248261 0.062554
v -0.021913 -0.081930 0.040875
v -0.021913 -0.081930 0.174942
v 0.070106 -0.081930 0.174942
v 0.070106 -0.081930 0.040875
v -0.025900 0.328261 0.035066
v -0.025900 0.328261 0.180752
v 0.074093 0.328261 0.180752
v 0.074093 0.328261 0.035066
v -0.025900 0.363524 0.035066
v -0.025900 0.419925 0.180752
v 0.074093 0.419925 0.180752
v 0.074093 0.363524 0.035066
v -0.037208 0.507084 0.094449
v -0.022113 0.507084 0.180752
v 0.067385 0.507084 0.180752
v 0.074093 0.507084 0.094449
v -0.025900 0.363524 0.000000
v 0.074093 0.363524 0.000000
v -0.037208 0.507084 0.000000
v 0.082527 0.507084 0.000000
v -0.057626 0.767300 0.094449
v -0.022113 0.767300 0.209402
v 0.090829 0.767300 0.094449
v 0.067385 0.767300 0.209402
v -0.057626 0.767300 0.000000
v 0.090829 0.767300 0.000000
v -0.016747 1.135090 0.062677
v -0.016747 1.135090 0.127871
v 0.052834 1.135090 0.061675
v 0.048710 1.135090 0.127871
v -0.016747 1.135090 0.000000
v 0.073475 1.114403 0.000000
v -0.053550 0.951195 0.000000
v -0.053550 0.951195 0.094449
v -0.039251 0.951195 0.227873
v 0.068320 0.951195 0.227873
v 0.090829 0.951195 0.094449
v 0.090829 0.951195 0.000000
v 0.059123 1.077978 0.310569
v -0.016970 1.077978 0.310569
v -0.018833 0.951195 0.329441
v 0.059795 0.951195 0.329441
v -0.006121 0.302924 0.244294
v 0.047082 0.302924 0.244294
v -0.006121 0.302924 0.313019
v 0.047082 0.302924 0.313019
v -0.015796 0.120892 0.231796
v 0.056758 0.120892 0.231796
v -0.015796 0.120892 0.325518
v 0.056758 0.120892 0.325518
v 0.066045 0.268074 0.219799
v 0.066045 0.155742 0.219799
v 0.066045 0.155742 0.337514
v 0.066045 0.268074 0.337514
v -0.025083 0.268074 0.219799
v -0.025083 0.155742 0.219799
v -0.025083 0.268074 0.337514
v -0.025083 0.155742 0.337514
v 0.055557 0.661955 0.323967
v 0.057032 0.570562 0.325873
v -0.016071 0.570562 0.325873
v -0.014596 0.661955 0.323967
v -0.014596 0.661955 0.233346
v -0.016071 0.570562 0.231441
v 0.057032 0.570562 0.231441
v 0.055557 0.661955 0.233346
v -0.037388 1.114403 0.094449
v -0.037388 1.114403 0.209402
v 0.073475 1.114403 0.094449
v 0.067648 1.114403 0.209402
v -0.037388 1.114403 0.000000
v 0.052834 1.135090 0.000000
v -0.016747 1.257719 0.057820
v 0.052834 1.257719 0.056896
v -0.016747 1.257719 0.000000
v 0.052834 1.257719 0.000000
v 0.019851 1.717751 0.000000
v 0.019851 1.152921 0.000000
v 0.046167 1.158547 -0.018537
v 0.048335 1.717751 0.000000
v 0.165858 1.717751 0.000000
v 0.163053 1.388823 0.000000
v 0.154744 1.333843 0.000000
v 0.141251 1.283171 0.000000
v 0.123093 1.238762 0.000000
v 0.100968 1.202311 0.000000
v 0.075725 1.175228 0.000000
v 0.048335 1.158547 0.000000
v 0.046167 1.717751 0.018537
v 0.154744 1.717751 0.095019
v 0.152152 1.388823 0.093194
v 0.144476 1.333843 0.087786
v 0.132010 1.283171 0.079006
v 0.115235 1.238762 0.067189
v 0.094793 1.202311 0.052790
v 0.071472 1.175228 0.036362
v 0.046167 1.158547 0.018537
v 0.039992 1.717751 0.034253
v 0.123093 1.717751 0.175573
v 0.121110 1.388823 0.172199
v 0.115235 1.333843 0.162208
v 0.105694 1.283171 0.145983
v 0.092854 1.238762 0.124149
v 0.077209 1.202311 0.097543
v 0.059360 1.175228 0.067189
v 0.039992 1.158547 0.034253
v 0.030751 1.717751 0.044753
v 0.075725 1.717751 0.229397
v 0.074652 1.388823 0.224989
v 0.071472 1.333843 0.211935
v 0.066309 1.283171 0.190736
v 0.059360 1.238762 0.162208
v 0.050893 1.202311 0.127446
v 0.041233 1.175228 0.087786
v 0.030751 1.158547 0.044753
v 0.019851 1.717751 0.048440
v 0.019851 1.717751 0.248297
v 0.019851 1.388823 0.243526
v 0.019851 1.333843 0.229397
v 0.019851 1.283171 0.206452
v 0.019851 1.238762 0.175573
v 0.019851 1.202311 0.137947
v 0.019851 1.175228 0.095019
v 0.019851 1.158547 0.048440
v 0.008950 1.717751 0.044753
v -0.036024 1.717751 0.229397
v -0.034950 1.388823 0.224989
v -0.031771 1.333843 0.211935
v -0.026607 1.283171 0.190736
v -0.019658 1.238762 0.162208
v -0.011191 1.202311 0.127446
v -0.001531 1.175228 0.087786
v 0.008950 1.158547 0.044753
v -0.000291 1.717751 0.034253
v -0.083392 1.717751 0.175573
v -0.081408 1.388823 0.172199
v -0.075533 1.333843 0.162208
v -0.065992 1.283171 0.145983
v -0.053153 1.238762 0.124149
v -0.037508 1.202311 0.097543
v -0.019658 1.175228 0.067189
v -0.000291 1.158547 0.034253
v -0.115042 1.717751 0.095019
v -0.112450 1.388823 0.093193
v -0.104774 1.333843 0.087786
v -0.092309 1.283171 0.079006
v -0.075533 1.238762 0.067189
v -0.055092 1.202311 0.052790
v -0.031770 1.175228 0.036362
v -0.006465 1.158547 0.018537
v -0.008634 1.717751 0.000000
v -0.126156 1.717751 0.000000
v -0.123351 1.388823 0.000000
v -0.115042 1.333843 0.000000
v -0.101550 1.283171 0.000000
v -0.083392 1.238762 0.000000
v -0.061266 1.202311 0.000000
v -0.036024 1.175228 0.000000
v -0.008634 1.158547 0.000000
v -0.005541 -0.836824 -0.151089
v -0.013018 -0.369848 -0.053834
v -0.005541 -0.836824 -0.064728
v -0.013018 -0.369848 -0.161983
v 0.132906 -0.836824 -0.151089
v 0.132906 -0.836824 -0.064728
v -0.005541 -0.760016 -0.151089
v -0.005541 -0.760016 -0.064728
v 0.053734 -0.760016 -0.151089
v 0.053734 -0.760016 -0.064728
v 0.061212 -0.369848 -0.161983
v 0.061212 -0.369848 -0.053834
v -0.007033 -0.248261 -0.062554
v -0.007033 -0.248261 -0.153263
v 0.055226 -0.248261 -0.153263
v 0.055226 -0.248261 -0.062554
v -0.021913 -0.081930 -0.040875
v -0.021913 -0.081930 -0.174942
v 0.070106 -0.081930 -0.174942
v 0.070106 -0.081930 -0.040875
v -0.025900 0.328261 -0.035066
v -0.025900 0.328261 -0.180752
v 0.074093 0.328261 -0.180752
v 0.074093 0.328261 -0.035066
v -0.025900 0.363524 -0.035066
v -0.025900 0.419925 -0.180752
v 0.074093 0.419925 -0.180752
v 0.074093 0.363524 -0.035066
v -0.037208 0.507084 -0.094449
v -0.022113 0.507084 -0.180752
v 0.067385 0.507084 -0.180752
v 0.074093 0.507084 -0.094449
v -0.057626 0.767300 -0.094449
v -0.022113 0.767300 -0.209402
v 0.090829 0.767300 -0.094449
v 0.067385 0.767300 -0.209402
v -0.016747 1.135090 -0.062676
v -0.016747 1.135090 -0.127870
v 0.052834 1.135090 -0.061674
v 0.048710 1.135090 -0.127870
v -0.053550 0.951195 -0.094449
v -0.039251 0.951195 -0.227872
v 0.068320 0.951195 -0.227872
v 0.090829 0.951195 -0.094449
v 0.059123 1.077978 -0.310569
v -0.016970 1.077978 -0.310569
v -0.018833 0.951195 -0.329440
v 0.059795 0.951195 -0.329440
v -0.006121 0.302924 -0.244294
v 0.047082 0.302924 -0.244294
v -0.006121 0.302924 -0.313019
v 0.047082 0.302924 -0.313019
v -0.015796 0.120892 -0.231795
v 0.056758 0.120892 -0.231795
v -0.015796 0.120892 -0.325518
v 0.056758 0.120892 -0.325518
v 0.066045 0.268074 -0.219799
v 0.066045 0.155742 -0.219799
v 0.066045 0.155742 -0.337514
v 0.066045 0.268074 -0.337514
v -0.025083 0.268074 -0.219799
v -0.025083 0.155742 -0.219799
v -0.025083 0.268074 -0.337514
v -0.025083 0.155742 -0.337514
v 0.055557 0.661955 -0.323967
v 0.057032 0.570562 -0.325872
v -0.016071 0.570562 -0.325872
v -0.014596 0.661955 -0.323967
v -0.014596 0.661955 -0.233346
v -0.016071 0.570562 -0.231441
v 0.057032 0.570562 -0.231441
v 0.055557 0.661955 -0.233346
v -0.037388 1.114403 -0.094449
v -0.037388 1.114403 -0.209402
v 0.073475 1.114403 -0.094449
v 0.067648 1.114403 -0.209402
v -0.016747 1.257719 -0.057820
v 0.052834 1.257719 -0.056896
v 0.046167 1.717751 -0.018537
v 0.154744 1.717751 -0.095019
v 0.152152 1.388823 -0.093193
v 0.144476 1.333843 -0.087786
v 0.132010 1.283171 -0.079006
v 0.115235 1.238762 -0.067189
v 0.094793 1.202311 -0.052790
v 0.071472 1.175228 -0.036362
v 0.039992 1.717751 -0.034252
v 0.123093 1.717751 -0.175573
v 0.121110 1.388823 -0.172199
v 0.115235 1.333843 -0.162208
v 0.105694 1.283171 -0.145983
v 0.092854 1.238762 -0.124149
v 0.077209 1.202311 -0.097543
v 0.059360 1.175228 -0.067189
v 0.039992 1.158547 -0.034252
v 0.030751 1.717751 -0.044753
v 0.075725 1.717751 -0.229397
v 0.074652 1.388823 -0.224989
v 0.071472 1.333843 -0.211935
v 0.066309 1.283171 -0.190736
v 0.059360 1.238762 -0.162208
v 0.050893 1.202311 -0.127446
v 0.041233 1.175228 -0.087786
v 0.030751 1.158547 -0.044753
v 0.019851 1.717751 -0.048440
v 0.019851 1.717751 -0.248297
v 0.019851 1.388823 -0.243526
v 0.019851 1.333843 -0.229397
v 0.019851 1.283171 -0.206451
v 0.019851 1.238762 -0.175573
v 0.019851 1.202311 -0.137947
v 0.019851 1.175228 -0.095019
v 0.019851 1.158547 -0.048440
v 0.008950 1.717751 -0.044753
v -0.036024 1.717751 -0.229397
v -0.034950 1.388823 -0.224989
v -0.031771 1.333843 -0.211935
v -0.026607 1.283171 -0.190736
v -0.019658 1.238762 -0.162208
v -0.011191 1.202311 -0.127446
v -0.001531 1.175228 -0.087786
v 0.008950 1.158547 -0.044753
v -0.000291 1.717751 -0.034252
v -0.083392 1.717751 -0.175573
v -0.081408 1.388823 -0.172199
v -0.075533 1.333843 -0.162208
v -0.065992 1.283171 -0.145983
v -0.053153 1.238762 -0.124148
v -0.037508 1.202311 -0.097543
v -0.019658 1.175228 -0.067189
v -0.000291 1.158547 -0.034252
v -0.006465 1.717751 -0.018537
v -0.115042 1.717751 -0.095019
v -0.112450 1.388823 -0.093193
v -0.104774 1.333843 -0.087786
v -0.092309 1.283171 -0.079005
v -0.075533 1.238762 -0.067189
v -0.055092 1.202311 -0.052790
v -0.031770 1.175228 -0.036362
v -0.006465 1.158547 -0.018537
v -0.006465 1.717751 0.018537
vn -0.6963 -0.7177 -0.0000
vn -0.0000 -0.0000 -1.0000
vn 1.0000 -0.0000 -0.0000
vn -0.0000 0.0279 0.9996
vn -0.0000 1.0000 -0.0000
vn -0.0000 -0.0000 1.0000
vn -0.0000 -0.0715 -0.9974
vn 0.9998 0.0192 -0.0000
vn -0.0000 0.0279 -0.9996
vn -0.9998 0.0192 -0.0000
vn -0.0000 0.1292 0.9916
vn 0.9988 -0.0492 -0.0000
vn -0.9988 -0.0492 -0.0000
vn -0.0000 -0.0715 0.9974
vn -0.0000 0.0142 -0.9999
vn 0.9960 0.0891 -0.0000
vn -0.0000 0.1292 -0.9916
vn -0.9960 0.0891 -0.0000
vn -1.0000 -0.0000 -0.0000
vn -1.0000 0.0097 -0.0000
vn -0.0000 0.0142 0.9999
vn 1.0000 0.0097 -0.0000
vn 0.9685 0.0514 -0.2435
vn 0.9956 0.0524 -0.0775
vn -0.9995 -0.0231 -0.0233
vn -0.0000 -0.9409 -0.3388
vn 0.9969 0.0785 -0.0000
vn -0.9970 0.0427 -0.0649
vn -0.9979 0.0480 -0.0445
vn 0.9951 -0.0985 -0.0000
vn 0.9969 0.0782 -0.0000
vn -0.0000 0.1094 -0.9940
vn -0.9882 0.0399 -0.1481
vn -0.0059 -0.4984 -0.8669
vn -0.9917 -0.0612 -0.1131
vn -0.9944 -0.1057 -0.0000
vn 0.9966 -0.0583 -0.0574
vn 0.9795 0.0447 -0.1964
vn -0.9832 0.0116 -0.1819
vn 0.9998 -0.0222 -0.0000
vn -0.0000 0.0999 -0.9950
vn -0.0000 -0.1472 -0.9891
vn -0.9961 -0.0158 -0.0866
vn -0.0000 0.0480 -0.9988
vn 0.9782 -0.0388 -0.2040
vn -0.9663 0.2575 -0.0000
vn -0.0000 0.0480 0.9988
vn -0.9993 0.0372 -0.0000
vn 0.9993 0.0372 -0.0000
vn -0.0000 0.3255 0.9455
vn 0.9663 0.2575 -0.0000
vn -0.0000 0.3255 -0.9455
vn -0.0000 -0.5750 -0.8181
vn 0.8784 -0.4779 -0.0000
vn -0.0000 -0.5750 0.8181
vn -0.8784 -0.4779 -0.0000
vn 0.9932 0.0496 -0.1055
vn 0.9999 -0.0161 -0.0000
vn -0.9986 0.0293 -0.0443
vn -0.9999 -0.0161 -0.0000
vn -0.0000 0.0189 0.9998
vn -0.0000 -0.0208 0.9998
vn -0.0000 0.0189 -0.9998
vn -0.0000 -0.0208 -0.9998
vn 0.7079 -0.7063 -0.0000
vn -0.6694 -0.7420 -0.0368
vn -0.0000 -0.9693 -0.2459
vn -0.7079 -0.7063 -0.0000
vn -0.0000 -1.0000 -0.0000
vn -0.9981 -0.0024 -0.0622
vn 0.1937 -0.9808 -0.0227
vn 0.9202 -0.3763 0.1076
vn 0.8506 -0.5163 0.0995
vn 0.7289 -0.6793 0.0853
vn 0.5192 -0.8525 0.0607
vn 0.1937 -0.9808 0.0227
vn 0.9932 -0.0085 0.1162
vn 0.9822 -0.1484 0.1149
vn 0.9602 -0.2557 0.1123
vn 0.1648 -0.9842 0.0648
vn 0.9307 -0.0094 0.3657
vn 0.9182 -0.1637 0.3608
vn 0.8933 -0.2806 0.3510
vn 0.8491 -0.4095 0.3336
vn 0.7745 -0.5545 0.3043
vn 0.6505 -0.7152 0.2556
vn 0.4515 -0.8745 0.1774
vn 0.6600 -0.4764 0.5808
vn 0.5849 -0.6268 0.5148
vn 0.4723 -0.7772 0.4157
vn 0.3135 -0.9087 0.2759
vn 0.1107 -0.9891 0.0974
vn 0.7506 -0.0113 0.6606
vn 0.7361 -0.1964 0.6478
vn 0.7079 -0.3328 0.6230
vn 0.0390 -0.9926 0.1153
vn 0.3204 -0.0137 0.9472
vn 0.3113 -0.2365 0.9204
vn 0.2945 -0.3942 0.8706
vn 0.2676 -0.5501 0.7911
vn 0.2291 -0.6991 0.6773
vn 0.1776 -0.8323 0.5251
vn 0.1133 -0.9354 0.3350
vn -0.2291 -0.6991 0.6773
vn -0.1776 -0.8323 0.5251
vn -0.1133 -0.9354 0.3350
vn -0.0389 -0.9926 0.1153
vn -0.3204 -0.0137 0.9472
vn -0.3113 -0.2365 0.9204
vn -0.2945 -0.3942 0.8706
vn -0.2676 -0.5501 0.7911
vn -0.7506 -0.0113 0.6606
vn -0.7361 -0.1964 0.6478
vn -0.7079 -0.3328 0.6230
vn -0.6600 -0.4764 0.5809
vn -0.5849 -0.6268 0.5148
vn -0.4723 -0.7772 0.4157
vn -0.3135 -0.9087 0.2759
vn -0.1107 -0.9891 0.0974
vn -0.7745 -0.5545 0.3043
vn -0.6505 -0.7152 0.2556
vn -0.4515 -0.8745 0.1774
vn -0.1648 -0.9842 0.0648
vn -0.9307 -0.0094 0.3657
vn -0.9182 -0.1637 0.3608
vn -0.8933 -0.2806 0.3510
vn -0.8491 -0.4095 0.3336
vn -0.9822 -0.1484 0.1149
vn -0.9602 -0.2557 0.1123
vn -0.9202 -0.3763 0.1076
vn -0.8506 -0.5163 0.0995
vn -0.7289 -0.6793 0.0853
vn -0.5192 -0.8525 0.0607
vn -0.1937 -0.9808 0.0227
vn -0.9932 -0.0085 0.1162
vn 0.9685 0.0514 0.2435
vn 0.9956 0.0524 0.0775
vn -0.9995 -0.0231 0.0233
vn -0.0000 -0.9409 0.3388
vn -0.9970 0.0427 0.0649
vn -0.9979 0.0480 0.0445
vn -0.0000 0.1094 0.9940
vn -0.9882 0.0399 0.1481
vn -0.0059 -0.4984 0.8669
vn -0.9917 -0.0612 0.1131
vn 0.9966 -0.0583 0.0574
vn 0.9795 0.0447 0.1964
vn -0.9832 0.0116 0.1819
vn -0.0000 0.0999 0.9950
vn -0.0000 -0.1472 0.9891
vn -0.9961 -0.0158 0.0866
vn 0.9782 -0.0388 0.2040
vn 0.8784 -0.4780 -0.0000
vn -0.8784 -0.4780 -0.0000
vn 0.9932 0.0496 0.1055
vn -0.9986 0.0293 0.0443
vn -0.6694 -0.7420 0.0368
vn -0.0000 -0.9693 0.2459
vn -0.9981 -0.0024 0.0622
vn 0.9202 -0.3763 -0.1076
vn 0.8506 -0.5163 -0.0995
vn 0.7289 -0.6793 -0.0853
vn 0.5192 -0.8525 -0.0607
vn 0.9932 -0.0085 -0.1162
vn 0.9822 -0.1484 -0.1149
vn 0.9602 -0.2557 -0.1123
vn 0.1649 -0.9842 -0.0648
vn 0.9307 -0.0094 -0.3657
vn 0.9182 -0.1637 -0.3608
vn 0.8933 -0.2806 -0.3510
vn 0.8491 -0.4095 -0.3336
vn 0.7745 -0.5545 -0.3043
vn 0.6505 -0.7152 -0.2556
vn 0.4515 -0.8745 -0.1774
vn 0.6600 -0.4764 -0.5809
vn 0.5849 -0.6268 -0.5148
vn 0.4724 -0.7772 -0.4157
vn 0.3135 -0.9086 -0.2759
vn 0.1106 -0.9891 -0.0974
vn 0.7506 -0.0113 -0.6606
vn 0.7361 -0.1964 -0.6478
vn 0.7079 -0.3328 -0.6230
vn 0.0390 -0.9926 -0.1153
vn 0.3204 -0.0137 -0.9472
vn 0.3113 -0.2365 -0.9204
vn 0.2945 -0.3942 -0.8706
vn 0.2676 -0.5501 -0.7911
vn 0.2291 -0.6991 -0.6773
vn 0.1776 -0.8323 -0.5251
vn 0.1133 -0.9354 -0.3350
vn -0.2291 -0.6991 -0.6773
vn -0.1776 -0.8323 -0.5251
vn -0.1133 -0.9354 -0.3350
vn -0.0389 -0.9926 -0.1153
vn -0.3204 -0.0137 -0.9472
vn -0.3113 -0.2365 -0.9204
vn -0.2945 -0.3942 -0.8706
vn -0.2676 -0.5501 -0.7911
vn -0.7506 -0.0113 -0.6606
vn -0.7361 -0.1964 -0.6478
vn -0.7079 -0.3328 -0.6230
vn -0.6600 -0.4764 -0.5809
vn -0.5849 -0.6268 -0.5148
vn -0.4723 -0.7772 -0.4157
vn -0.3135 -0.9086 -0.2759
vn -0.0001 1.0000 -0.0000
vn -0.1107 -0.9891 -0.0974
vn -0.7745 -0.5545 -0.3043
vn -0.6505 -0.7152 -0.2556
vn -0.4515 -0.8745 -0.1774
vn 0.0001 1.0000 -0.0000
vn -0.1648 -0.9842 -0.0648
vn -0.9307 -0.0094 -0.3657
vn -0.9182 -0.1637 -0.3608
vn -0.8933 -0.2806 -0.3510
vn -0.8491 -0.4095 -0.3336
vn -0.9822 -0.1484 -0.1149
vn -0.9602 -0.2557 -0.1123
vn -0.9202 -0.3763 -0.1076
vn -0.8506 -0.5163 -0.0995
vn -0.7289 -0.6793 -0.0853
vn -0.5192 -0.8525 -0.0607
vn -0.1937 -0.9808 -0.0227
vn -0.9932 -0.0085 -0.1162
vt 0.072654 0.161897
vt 0.072654 0.108697
vt 0.038745 0.108697
vt 0.038745 0.161897
vt 0.648523 0.372147
vt 0.556165 0.376170
vt 0.557277 0.401695
vt 0.596819 0.399972
vt 0.227425 0.321788
vt 0.193515 0.321788
vt 0.193515 0.347337
vt 0.227425 0.347337
vt 0.832128 0.597161
vt 0.792586 0.595439
vt 0.781953 0.724830
vt 0.831471 0.726987
vt 0.250642 0.229342
vt 0.250642 0.321788
vt 0.284552 0.321788
vt 0.284552 0.229342
vt 0.833240 0.571637
vt 0.740882 0.567614
vt 0.607453 0.529364
vt 0.557934 0.531521
vt 0.563688 0.571791
vt 0.605221 0.569982
vt 0.189238 0.477156
vt 0.231703 0.477156
vt 0.446229 0.461991
vt 0.472137 0.461991
vt 0.475406 0.362858
vt 0.442960 0.362858
vt 0.825717 0.767258
vt 0.784184 0.765449
vt 0.771854 0.820194
vt 0.833240 0.822868
vt 0.192662 0.517576
vt 0.228279 0.517576
vt 0.366631 0.517774
vt 0.402248 0.517774
vt 0.617551 0.624727
vt 0.556165 0.627401
vt 0.559441 0.763803
vt 0.626147 0.760897
vt 0.184150 0.572969
vt 0.236791 0.572969
vt 0.358119 0.573025
vt 0.410760 0.573025
vt 0.413041 0.709450
vt 0.355838 0.709450
vt 0.355838 0.739940
vt 0.413041 0.721179
vt 0.763258 0.956364
vt 0.829964 0.959269
vt 0.181868 0.709433
vt 0.239072 0.709433
vt 0.874352 0.192552
vt 0.874352 0.259321
vt 0.888121 0.259321
vt 0.888121 0.192552
vt 0.762748 0.968082
vt 0.829454 0.970987
vt 0.181868 0.721163
vt 0.239072 0.739924
vt 0.560768 0.794263
vt 0.627474 0.791358
vt 0.239072 0.768902
vt 0.205185 0.768965
vt 0.205185 0.855609
vt 0.250322 0.855462
vt 0.564556 0.823118
vt 0.624260 0.820517
vt 0.355838 0.768969
vt 0.389725 0.768934
vt 0.176622 0.117621
vt 0.246752 0.117621
vt 0.241221 0.077897
vt 0.190415 0.077897
vt 0.168100 0.721163
vt 0.168100 0.768965
vt 0.426810 0.768889
vt 0.426810 0.721179
vt 0.389725 0.855403
vt 0.426810 0.855403
vt 0.205185 0.916764
vt 0.168100 0.916764
vt 0.168100 0.970987
vt 0.205185 0.970987
vt 0.168100 0.855609
vt 0.568316 0.909462
vt 0.628021 0.906861
vt 0.344588 0.855528
vt 0.833240 0.215613
vt 0.833240 0.259321
vt 0.874348 0.259321
vt 0.874352 0.212859
vt 0.529488 0.297343
vt 0.529488 0.273127
vt 0.488696 0.275003
vt 0.488696 0.297343
vt 0.389725 0.916574
vt 0.337336 0.916694
vt 0.344588 0.970987
vt 0.389725 0.970956
vt 0.426810 0.916574
vt 0.426810 0.970956
vt 0.257574 0.916705
vt 0.250322 0.970987
vt 0.559541 0.970987
vt 0.631303 0.967861
vt 0.961745 0.769395
vt 0.909243 0.769395
vt 0.910487 0.811653
vt 0.961297 0.811653
vt 0.297455 0.916740
vt 0.304865 0.958916
vt 0.911087 0.642802
vt 0.959901 0.642802
vt 0.953257 0.553835
vt 0.917731 0.553835
vt 0.290045 0.958786
vt 0.297455 0.916620
vt 0.488696 0.160769
vt 0.534917 0.160769
vt 0.530207 0.149226
vt 0.493407 0.149226
vt 0.840777 0.685059
vt 0.889591 0.685059
vt 0.882947 0.596093
vt 0.847421 0.596093
vt 0.298856 0.790140
vt 0.335935 0.790140
vt 0.330888 0.701165
vt 0.303903 0.701165
vt 0.258975 0.789993
vt 0.296054 0.789993
vt 0.291007 0.700923
vt 0.264022 0.700923
vt 0.143364 0.161897
vt 0.143364 0.113450
vt 0.106564 0.113450
vt 0.106564 0.161897
vt 0.834760 0.547024
vt 0.895609 0.547024
vt 0.889408 0.535487
vt 0.840961 0.535487
vt 0.488696 0.209767
vt 0.534917 0.209767
vt 0.530207 0.198136
vt 0.493407 0.198136
vt 0.905069 0.504766
vt 0.965919 0.504766
vt 0.959717 0.493229
vt 0.911270 0.493229
vt 0.965919 0.542132
vt 0.905069 0.542132
vt 0.541995 0.291713
vt 0.541995 0.264728
vt 0.529488 0.255110
vt 0.529488 0.301331
vt 0.488696 0.247135
vt 0.534917 0.247135
vt 0.895609 0.584390
vt 0.834760 0.584390
vt 0.529488 0.310948
vt 0.529488 0.337934
vt 0.542302 0.347551
vt 0.542302 0.301331
vt 0.488696 0.198136
vt 0.534917 0.198136
vt 0.295306 0.820388
vt 0.259723 0.820388
vt 0.335186 0.820548
vt 0.299604 0.820548
vt 0.833240 0.811653
vt 0.905069 0.811653
vt 0.888606 0.715467
vt 0.841762 0.715467
vt 0.958916 0.673210
vt 0.912072 0.673210
vt 0.190312 0.175232
vt 0.190312 0.149634
vt 0.176622 0.162757
vt 0.234017 0.149634
vt 0.236770 0.175626
vt 0.250642 0.162757
vt 0.190312 0.199843
vt 0.176622 0.199843
vt 0.236770 0.199842
vt 0.250642 0.199842
vt 0.694405 0.132827
vt 0.694042 0.179284
vt 0.716745 0.179284
vt 0.716745 0.132827
vt 0.734834 0.372147
vt 0.734834 0.346549
vt 0.694042 0.344642
vt 0.734834 0.321939
vt 0.694042 0.321939
vt 0.529466 0.247135
vt 0.808120 0.096553
vt 0.792331 0.085991
vt 0.789491 0.092847
vt 0.902179 0.815778
vt 0.902179 0.829715
vt 0.931594 0.829752
vt 0.927194 0.815809
vt 0.755214 0.086028
vt 0.740883 0.083177
vt 0.740882 0.110076
vt 0.755213 0.107163
vt 0.771627 0.089294
vt 0.771626 0.103851
vt 0.789491 0.100268
vt 0.411730 0.255641
vt 0.393076 0.251931
vt 0.408890 0.262498
vt 0.902179 0.862954
vt 0.902179 0.966693
vt 0.937556 0.966737
vt 0.936877 0.862996
vt 0.403643 0.267745
vt 0.447240 0.332994
vt 0.474139 0.306095
vt 0.902179 0.845645
vt 0.934863 0.845685
vt 0.792330 0.107125
vt 0.967547 0.966861
vt 0.966291 0.863119
vt 0.396786 0.270585
vt 0.412096 0.347551
vt 0.962572 0.845800
vt 0.956531 0.829855
vt 0.948401 0.815897
vt 0.751174 0.134927
vt 0.763299 0.126688
vt 0.777196 0.117300
vt 0.576356 0.212257
vt 0.567783 0.227129
vt 0.594082 0.227332
vt 0.598722 0.212430
vt 0.770192 0.153947
vt 0.778242 0.141632
vt 0.787489 0.127594
vt 0.797577 0.112372
vt 0.557490 0.262390
vt 0.556165 0.371817
vt 0.587794 0.372061
vt 0.588511 0.262630
vt 0.389365 0.270585
vt 0.374055 0.347551
vt 0.561412 0.244057
vt 0.590634 0.244283
vt 0.804433 0.115212
vt 0.625104 0.372147
vt 0.625104 0.262714
vt 0.382508 0.267745
vt 0.338911 0.332994
vt 0.625104 0.244362
vt 0.625104 0.227403
vt 0.625104 0.212490
vt 0.795040 0.164241
vt 0.797765 0.149719
vt 0.800937 0.133165
vt 0.821936 0.164241
vt 0.818897 0.149719
vt 0.815493 0.133165
vt 0.811854 0.115212
vt 0.662413 0.372061
vt 0.661696 0.262630
vt 0.377261 0.262498
vt 0.312012 0.306096
vt 0.659573 0.244283
vt 0.656125 0.227332
vt 0.651485 0.212430
vt 0.694042 0.371817
vt 0.692718 0.262390
vt 0.374421 0.255641
vt 0.297455 0.270951
vt 0.688794 0.244057
vt 0.682424 0.227129
vt 0.673851 0.212257
vt 0.846786 0.153947
vt 0.838421 0.141632
vt 0.828941 0.127594
vt 0.818709 0.112372
vt 0.865805 0.134927
vt 0.853365 0.126688
vt 0.839234 0.117300
vt 0.823957 0.107125
vt 0.557489 0.102603
vt 0.556165 0.212029
vt 0.587794 0.212198
vt 0.588511 0.102768
vt 0.374421 0.248220
vt 0.297455 0.232911
vt 0.561412 0.084283
vt 0.590634 0.084439
vt 0.567783 0.067377
vt 0.594082 0.067518
vt 0.576356 0.052536
vt 0.598722 0.052655
vt 0.625104 0.102827
vt 0.625104 0.084494
vt 0.625104 0.067567
vt 0.625104 0.052697
vt 0.876098 0.110076
vt 0.861452 0.107162
vt 0.844805 0.103851
vt 0.826797 0.100268
vt 0.625104 0.212257
vt 0.488696 0.270951
vt 0.488696 0.232911
vt 0.411730 0.248220
vt 0.106564 0.161897
vt 0.106564 0.108697
vt 0.648523 0.372147
vt 0.700227 0.399972
vt 0.739770 0.401695
vt 0.740882 0.376170
vt 0.108775 0.321788
vt 0.108775 0.347337
vt 0.142684 0.347337
vt 0.142684 0.321788
vt 0.741993 0.193788
vt 0.742650 0.323614
vt 0.792169 0.321457
vt 0.781536 0.192065
vt 0.727952 0.179284
vt 0.694042 0.179284
vt 0.694042 0.271730
vt 0.727952 0.271730
vt 0.833240 0.164241
vt 0.740882 0.168263
vt 0.689594 0.529364
vt 0.691825 0.569982
vt 0.733358 0.571791
vt 0.739113 0.531521
vt 0.104497 0.477156
vt 0.146962 0.477156
vt 0.407391 0.461991
vt 0.410659 0.362858
vt 0.378214 0.362858
vt 0.381482 0.461991
vt 0.748405 0.363884
vt 0.740882 0.419494
vt 0.802268 0.416821
vt 0.789938 0.362076
vt 0.107921 0.517576
vt 0.143538 0.517576
vt 0.451372 0.517774
vt 0.486989 0.517774
vt 0.679496 0.624727
vt 0.670900 0.760897
vt 0.737606 0.763803
vt 0.740882 0.627401
vt 0.099408 0.572969
vt 0.152050 0.572969
vt 0.442860 0.573025
vt 0.495501 0.573025
vt 0.440579 0.709450
vt 0.440579 0.721179
vt 0.497782 0.739940
vt 0.497782 0.709450
vt 0.744158 0.555896
vt 0.810864 0.552991
vt 0.097128 0.709433
vt 0.154331 0.709433
vt 0.901890 0.192552
vt 0.901890 0.259321
vt 0.744668 0.567614
vt 0.811374 0.564708
vt 0.097128 0.739924
vt 0.154331 0.721163
vt 0.669573 0.791358
vt 0.736279 0.794263
vt 0.097128 0.768902
vt 0.085878 0.855462
vt 0.131014 0.855609
vt 0.131014 0.768965
vt 0.672787 0.820517
vt 0.732491 0.823118
vt 0.463895 0.768934
vt 0.497782 0.768969
vt 0.176622 0.282064
vt 0.190415 0.321788
vt 0.241221 0.321788
vt 0.246752 0.282064
vt 0.463895 0.855403
vt 0.131014 0.916764
vt 0.131014 0.970987
vt 0.669026 0.906861
vt 0.728730 0.909462
vt 0.509032 0.855528
vt 0.833240 0.210105
vt 0.874352 0.212859
vt 0.874348 0.166397
vt 0.833240 0.166397
vt 0.488696 0.319683
vt 0.529488 0.321560
vt 0.463895 0.916574
vt 0.463895 0.970956
vt 0.509032 0.970987
vt 0.516284 0.916694
vt 0.078625 0.916705
vt 0.085878 0.970987
vt 0.665744 0.967861
vt 0.737505 0.970987
vt 0.909243 0.450972
vt 0.909691 0.493229
vt 0.960501 0.493229
vt 0.961745 0.450972
vt 0.548755 0.958916
vt 0.556165 0.916740
vt 0.959901 0.324378
vt 0.953257 0.235412
vt 0.917731 0.235412
vt 0.911087 0.324378
vt 0.038745 0.916620
vt 0.046155 0.958786
vt 0.296864 0.142976
vt 0.292153 0.131433
vt 0.255353 0.131433
vt 0.250642 0.142976
vt 0.897532 0.408893
vt 0.890888 0.319927
vt 0.855362 0.319927
vt 0.848719 0.408893
vt 0.554764 0.790140
vt 0.549717 0.701165
vt 0.522732 0.701165
vt 0.517685 0.790140
vt 0.077224 0.789993
vt 0.072178 0.700923
vt 0.045193 0.700923
vt 0.040146 0.789993
vt 0.297455 0.156310
vt 0.334255 0.156310
vt 0.334255 0.107863
vt 0.297455 0.107863
vt 0.903550 0.270858
vt 0.897349 0.259321
vt 0.848902 0.259321
vt 0.842700 0.270858
vt 0.296863 0.191974
vt 0.292153 0.180343
vt 0.255353 0.180343
vt 0.250642 0.191974
vt 0.965918 0.186343
vt 0.959717 0.174806
vt 0.911270 0.174806
vt 0.905069 0.186343
vt 0.965918 0.223709
vt 0.905069 0.223709
vt 0.297060 0.285184
vt 0.284552 0.275567
vt 0.297060 0.312170
vt 0.296863 0.229342
vt 0.903550 0.308224
vt 0.842700 0.308224
vt 0.542302 0.337934
vt 0.555116 0.347551
vt 0.555116 0.301331
vt 0.542302 0.310948
vt 0.296864 0.180343
vt 0.250642 0.180343
vt 0.076476 0.820388
vt 0.040894 0.820388
vt 0.554016 0.820548
vt 0.518433 0.820548
vt 0.905069 0.535487
vt 0.896547 0.439301
vt 0.849703 0.439301
vt 0.833240 0.535487
vt 0.958916 0.354786
vt 0.912072 0.354786
vt 0.190312 0.224452
vt 0.176622 0.236928
vt 0.190312 0.250051
vt 0.234017 0.250051
vt 0.250642 0.236928
vt 0.236770 0.224059
vt 0.739085 0.132827
vt 0.739448 0.179284
vt 0.734834 0.271730
vt 0.694042 0.299236
vt 0.734834 0.297329
vt 0.529466 0.347552
vt 0.877163 0.815809
vt 0.872764 0.829752
vt 0.763301 0.066503
vt 0.751176 0.058327
vt 0.777198 0.075844
vt 0.867481 0.862996
vt 0.866802 0.966737
vt 0.474139 0.197766
vt 0.408890 0.241364
vt 0.869494 0.845685
vt 0.797578 0.080743
vt 0.838066 0.863119
vt 0.836810 0.966861
vt 0.447240 0.170867
vt 0.403643 0.236116
vt 0.841786 0.845800
vt 0.847827 0.829855
vt 0.855956 0.815897
vt 0.778245 0.051559
vt 0.770195 0.039306
vt 0.787491 0.065551
vt 0.156430 0.161897
vt 0.134065 0.162070
vt 0.138705 0.176972
vt 0.165004 0.176769
vt 0.797768 0.043472
vt 0.795045 0.029013
vt 0.800939 0.059980
vt 0.804434 0.077903
vt 0.175298 0.212031
vt 0.144276 0.212270
vt 0.144993 0.321702
vt 0.176622 0.321457
vt 0.412096 0.156310
vt 0.396786 0.233276
vt 0.171374 0.193697
vt 0.142153 0.193923
vt 0.811855 0.077903
vt 0.107683 0.212354
vt 0.107683 0.321788
vt 0.374055 0.156310
vt 0.389365 0.233276
vt 0.107683 0.194002
vt 0.107684 0.177044
vt 0.107684 0.162131
vt 0.818901 0.043472
vt 0.821941 0.029013
vt 0.815495 0.059980
vt 0.838424 0.051559
vt 0.846789 0.039306
vt 0.828943 0.065551
vt 0.818710 0.080743
vt 0.071091 0.212270
vt 0.070374 0.321702
vt 0.338911 0.170867
vt 0.382508 0.236116
vt 0.073214 0.193923
vt 0.076662 0.176972
vt 0.081302 0.162070
vt 0.040069 0.212031
vt 0.038745 0.321457
vt 0.312012 0.197766
vt 0.377261 0.241364
vt 0.043992 0.193697
vt 0.050363 0.176769
vt 0.058936 0.161897
vt 0.853367 0.066503
vt 0.865807 0.058327
vt 0.839236 0.075844
vt 0.823958 0.085991
vt 0.861453 0.086028
vt 0.876099 0.083177
vt 0.844806 0.089293
vt 0.826797 0.092847
vt 0.692718 0.102603
vt 0.661696 0.102769
vt 0.662413 0.212198
vt 0.694042 0.212029
vt 0.688794 0.084283
vt 0.659573 0.084439
vt 0.682424 0.067377
vt 0.656125 0.067518
vt 0.673851 0.052536
vt 0.651485 0.052655
s 0
usemtl Material.001
f 10/1/1 6/2/1 5/3/1 9/4/1
f 5/5/2 1/6/2 7/7/2 9/8/2
f 1/9/3 3/10/3 8/11/3 7/12/3
f 8/13/4 10/14/4 12/15/4 2/16/4
f 1/17/5 5/18/5 6/19/5 3/20/5
f 10/14/6 8/13/6 3/21/6 6/22/6
f 11/23/7 4/24/7 14/25/7 15/26/7
f 7/12/8 8/11/8 2/27/8 4/28/8
f 9/8/9 7/7/9 4/24/9 11/23/9
f 10/29/10 9/30/10 11/31/10 12/32/10
f 13/33/11 16/34/11 20/35/11 17/36/11
f 4/28/12 2/27/12 13/37/12 14/38/12
f 12/32/13 11/31/13 15/39/13 16/40/13
f 2/16/14 12/15/14 16/34/14 13/33/14
f 19/41/15 18/42/15 22/43/15 23/44/15
f 14/38/16 13/37/16 17/45/16 18/46/16
f 15/26/17 14/25/17 18/42/17 19/41/17
f 16/40/18 15/39/18 19/47/18 20/48/18
f 24/49/19 23/50/19 27/51/19 28/52/19
f 20/48/20 19/47/20 23/50/20 24/49/20
f 17/36/21 20/35/21 24/53/21 21/54/21
f 18/46/22 17/45/22 21/55/22 22/56/22
f 25/57/5 28/58/5 34/59/5 33/60/5
f 21/54/6 24/53/6 28/61/6 25/62/6
f 22/56/3 21/55/3 25/63/3 26/64/3
f 23/44/2 22/43/2 26/65/2 27/66/2
f 30/67/23 29/68/23 37/69/23 38/70/23
f 26/64/24 25/63/24 29/68/24 30/67/24
f 27/66/2 26/65/2 30/71/2 31/72/2
f 28/52/25 27/51/25 31/73/25 32/74/25
f 84/75/26 86/76/26 55/77/26 56/78/26
f 29/68/27 25/63/27 33/79/27 35/80/27
f 28/52/28 32/74/28 36/81/28 34/82/28
f 36/81/29 32/74/29 39/83/29 42/84/29
f 50/85/30 49/86/30 87/87/30 83/88/30
f 29/68/31 35/80/31 41/89/31 37/69/31
f 31/72/32 30/71/32 38/90/32 40/91/32
f 32/74/33 31/73/33 40/92/33 39/83/33
f 46/93/34 44/94/34 89/95/34 90/96/34
f 88/97/19 45/98/19 90/99/19 92/100/19
f 53/101/35 52/102/35 86/103/35 85/104/35
f 54/105/36 53/101/36 85/104/36 48/106/36
f 51/107/37 50/85/37 83/88/37 84/108/37
f 38/70/38 37/69/38 50/85/38 51/107/38
f 42/84/19 39/83/19 53/101/19 54/105/19
f 39/83/39 40/92/39 52/102/39 53/101/39
f 37/69/40 41/89/40 49/86/40 50/85/40
f 40/91/41 38/90/41 51/109/41 52/110/41
f 58/111/42 57/112/42 56/113/42 55/114/42
f 86/103/43 52/102/43 58/115/43 55/116/43
f 77/117/44 76/118/44 62/119/44 61/120/44
f 51/107/45 84/108/45 56/121/45 57/122/45
f 69/123/46 68/124/46 64/125/46 66/126/46
f 81/127/47 80/128/47 59/129/47 60/130/47
f 76/131/48 81/132/48 60/133/48 62/134/48
f 80/135/49 77/136/49 61/137/49 59/138/49
f 64/139/5 63/140/5 65/141/5 66/142/5
f 68/143/50 72/144/50 63/145/50 64/146/50
f 72/147/51 74/148/51 65/149/51 63/150/51
f 74/151/52 69/152/52 66/153/52 65/154/52
f 61/120/53 62/119/53 70/155/53 73/156/53
f 73/156/2 70/155/2 69/152/2 74/151/2
f 59/157/54 61/158/54 73/159/54 71/160/54
f 71/161/3 73/162/3 74/148/3 72/147/3
f 60/130/55 59/129/55 71/163/55 67/164/55
f 67/164/6 71/163/6 72/144/6 68/143/6
f 62/165/56 60/166/56 67/167/56 70/168/56
f 70/169/19 67/170/19 68/124/19 69/123/19
f 51/107/57 57/122/57 78/171/57 79/172/57
f 79/172/58 78/171/58 77/136/58 80/135/58
f 58/115/59 52/102/59 82/173/59 75/174/59
f 75/174/60 82/173/60 81/132/60 76/131/60
f 52/175/61 51/176/61 79/177/61 82/178/61
f 82/178/62 79/177/62 80/128/62 81/127/62
f 57/112/63 58/111/63 75/179/63 78/180/63
f 78/180/64 75/179/64 76/118/64 77/117/64
f 43/181/65 44/182/65 84/75/65 83/183/65
f 46/184/66 45/185/66 85/186/66 86/76/66
f 44/182/67 46/184/67 86/76/67 84/75/67
f 47/187/65 43/181/65 83/183/65 87/188/65
f 45/185/68 88/189/68 48/190/68 85/186/68
f 90/191/69 89/192/69 91/193/69 92/194/69
f 44/195/3 43/196/3 89/197/3
f 43/196/3 47/198/3 91/199/3 89/197/3
f 45/98/70 46/200/70 90/99/70
f 94/201/71 95/202/71 104/203/71
f 101/204/72 100/205/72 109/206/72 110/207/72
f 102/208/73 101/209/73 110/210/73 111/211/73
f 103/212/74 102/208/74 111/211/74 112/213/74
f 104/203/75 103/212/75 112/213/75 113/214/75
f 96/215/5 93/216/5 105/217/5
f 94/201/76 104/203/76 113/214/76
f 98/218/77 97/219/77 106/220/77 107/221/77
f 114/222/5 115/223/5 106/224/5 105/217/5
f 99/225/78 98/218/78 107/221/78 108/226/78
f 100/205/79 99/225/79 108/226/79 109/206/79
f 105/217/5 93/216/5 114/222/5
f 94/201/80 113/214/80 122/227/80
f 107/221/81 106/220/81 115/228/81 116/229/81
f 123/230/5 124/231/5 115/223/5 114/222/5
f 108/226/82 107/221/82 116/229/82 117/232/82
f 109/206/83 108/226/83 117/232/83 118/233/83
f 110/207/84 109/206/84 118/233/84 119/234/84
f 111/211/85 110/210/85 119/235/85 120/236/85
f 112/213/86 111/211/86 120/236/86 121/237/86
f 113/214/87 112/213/87 121/237/87 122/227/87
f 119/238/88 118/239/88 127/240/88 128/241/88
f 120/236/89 119/235/89 128/242/89 129/243/89
f 121/237/90 120/236/90 129/243/90 130/244/90
f 122/227/91 121/237/91 130/244/91 131/245/91
f 114/222/5 93/216/5 123/230/5
f 94/201/92 122/227/92 131/245/92
f 116/246/93 115/247/93 124/248/93 125/249/93
f 132/250/5 133/251/5 124/231/5 123/230/5
f 117/252/94 116/246/94 125/249/94 126/253/94
f 118/239/95 117/252/95 126/253/95 127/240/95
f 123/230/5 93/216/5 132/250/5
f 94/201/96 131/245/96 140/254/96
f 125/249/97 124/248/97 133/255/97 134/256/97
f 141/257/5 142/258/5 133/251/5 132/250/5
f 126/253/98 125/249/98 134/256/98 135/259/98
f 127/240/99 126/253/99 135/259/99 136/260/99
f 128/241/100 127/240/100 136/260/100 137/261/100
f 129/243/101 128/242/101 137/262/101 138/263/101
f 130/244/102 129/243/102 138/263/102 139/264/102
f 131/245/103 130/244/103 139/264/103 140/254/103
f 138/263/104 137/262/104 146/265/104 147/266/104
f 139/264/105 138/263/105 147/266/105 148/267/105
f 140/254/106 139/264/106 148/267/106 149/268/106
f 132/250/5 93/216/5 141/257/5
f 94/201/107 140/254/107 149/268/107
f 134/256/108 133/255/108 142/269/108 143/270/108
f 150/271/5 151/272/5 142/258/5 141/257/5
f 135/259/109 134/256/109 143/270/109 144/273/109
f 136/260/110 135/259/110 144/273/110 145/274/110
f 137/261/111 136/260/111 145/274/111 146/275/111
f 143/270/112 142/269/112 151/276/112 152/277/112
f 316/278/5 159/279/5 151/272/5 150/271/5
f 144/273/113 143/270/113 152/277/113 153/280/113
f 145/274/114 144/273/114 153/280/114 154/281/114
f 146/275/115 145/274/115 154/281/115 155/282/115
f 147/266/116 146/265/116 155/283/116 156/284/116
f 148/267/117 147/266/117 156/284/117 157/285/117
f 149/268/118 148/267/118 157/285/118 158/286/118
f 141/257/5 93/216/5 150/271/5
f 94/201/119 149/268/119 158/286/119
f 156/284/120 155/283/120 163/287/120 164/288/120
f 157/285/121 156/284/121 164/288/121 165/289/121
f 158/286/122 157/285/122 165/289/122 166/290/122
f 150/271/5 93/216/5 316/278/5
f 94/201/123 158/286/123 166/290/123
f 152/291/124 151/292/124 159/293/124 160/294/124
f 167/295/5 168/296/5 159/279/5 316/278/5
f 153/297/125 152/291/125 160/294/125 161/298/125
f 154/299/126 153/297/126 161/298/126 162/300/126
f 155/301/127 154/299/127 162/300/127 163/302/127
f 161/298/128 160/294/128 169/303/128 170/304/128
f 162/300/129 161/298/129 170/304/129 171/305/129
f 163/302/130 162/300/130 171/305/130 172/306/130
f 164/288/131 163/287/131 172/307/131 173/308/131
f 165/289/132 164/288/132 173/308/132 174/309/132
f 166/290/133 165/289/133 174/309/133 175/310/133
f 94/201/134 166/290/134 175/310/134
f 160/294/135 159/293/135 168/311/135 169/303/135
f 96/215/5 97/312/5 255/313/5 254/314/5
f 185/1/1 184/315/1 180/316/1 181/2/1
f 180/317/6 184/318/6 182/319/6 176/320/6
f 176/321/3 182/322/3 183/323/3 178/324/3
f 183/325/9 177/326/9 187/327/9 185/328/9
f 176/329/5 178/330/5 181/331/5 180/332/5
f 185/328/2 181/333/2 178/334/2 183/325/2
f 186/335/14 190/336/14 189/337/14 179/338/14
f 182/322/8 179/339/8 177/340/8 183/323/8
f 184/318/4 186/335/4 179/338/4 182/319/4
f 185/341/10 187/342/10 186/343/10 184/344/10
f 188/345/17 192/346/17 195/347/17 191/348/17
f 179/339/12 189/349/12 188/350/12 177/340/12
f 187/342/13 191/351/13 190/352/13 186/343/13
f 177/326/7 188/345/7 191/348/7 187/327/7
f 194/353/21 198/354/21 197/355/21 193/356/21
f 189/349/16 193/357/16 192/358/16 188/350/16
f 190/336/11 194/353/11 193/356/11 189/337/11
f 191/351/18 195/359/18 194/360/18 190/352/18
f 199/361/19 203/362/19 202/363/19 198/364/19
f 195/359/20 199/361/20 198/364/20 194/360/20
f 192/346/15 196/365/15 199/366/15 195/347/15
f 193/357/22 197/367/22 196/368/22 192/358/22
f 200/369/5 33/60/5 34/59/5 203/370/5
f 196/365/2 200/371/2 203/372/2 199/366/2
f 197/367/3 201/373/3 200/374/3 196/368/3
f 198/354/6 202/375/6 201/376/6 197/355/6
f 205/377/136 209/378/136 208/379/136 204/380/136
f 201/373/137 205/377/137 204/380/137 200/374/137
f 202/375/6 206/381/6 205/382/6 201/376/6
f 203/362/138 207/383/138 206/384/138 202/363/138
f 249/385/139 221/386/139 220/387/139 251/388/139
f 204/380/27 35/80/27 33/79/27 200/374/27
f 203/362/140 34/82/140 36/81/140 207/383/140
f 36/81/141 42/84/141 210/389/141 207/383/141
f 216/390/30 248/391/30 87/87/30 49/86/30
f 204/380/31 208/379/31 41/89/31 35/80/31
f 206/381/142 211/392/142 209/393/142 205/382/142
f 207/383/143 210/389/143 211/394/143 206/384/143
f 215/395/144 253/396/144 252/397/144 213/398/144
f 88/97/19 92/100/19 253/399/19 214/400/19
f 219/401/145 250/402/145 251/403/145 218/404/145
f 54/105/36 48/106/36 250/402/36 219/401/36
f 217/405/146 249/406/146 248/391/146 216/390/146
f 209/378/147 217/405/147 216/390/147 208/379/147
f 42/84/19 54/105/19 219/401/19 210/389/19
f 210/389/148 219/401/148 218/404/148 211/394/148
f 208/379/40 216/390/40 49/86/40 41/89/40
f 211/392/149 218/407/149 217/408/149 209/393/149
f 223/409/150 220/410/150 221/411/150 222/412/150
f 251/403/151 220/413/151 223/414/151 218/404/151
f 242/415/47 226/416/47 227/417/47 241/418/47
f 217/405/152 222/419/152 221/420/152 249/406/152
f 234/421/46 231/422/46 229/423/46 233/424/46
f 246/425/44 225/426/44 224/427/44 245/428/44
f 241/429/48 227/430/48 225/431/48 246/432/48
f 245/433/49 224/434/49 226/435/49 242/436/49
f 229/437/5 231/438/5 230/439/5 228/440/5
f 233/441/52 229/442/52 228/443/52 237/444/52
f 237/445/51 228/446/51 230/447/51 239/448/51
f 239/449/50 230/450/50 231/451/50 234/452/50
f 226/416/55 238/453/55 235/454/55 227/417/55
f 238/453/6 239/449/6 234/452/6 235/454/6
f 224/455/153 236/456/153 238/19/153 226/457/153
f 236/458/3 237/445/3 239/448/3 238/17/3
f 225/426/53 232/459/53 236/460/53 224/427/53
f 232/459/2 233/441/2 237/444/2 236/460/2
f 227/461/154 235/462/154 232/463/154 225/464/154
f 235/465/19 234/421/19 233/424/19 232/466/19
f 217/405/155 244/467/155 243/468/155 222/419/155
f 244/467/58 245/433/58 242/436/58 243/468/58
f 223/414/156 240/469/156 247/470/156 218/404/156
f 240/469/60 241/429/60 246/432/60 247/470/60
f 218/471/63 247/472/63 244/473/63 217/474/63
f 247/472/64 246/425/64 245/428/64 244/473/64
f 222/412/61 243/475/61 240/476/61 223/409/61
f 243/475/62 242/415/62 241/418/62 240/476/62
f 212/477/65 248/478/65 249/385/65 213/479/65
f 215/480/157 251/388/157 250/481/157 214/482/157
f 213/479/158 249/385/158 251/388/158 215/480/158
f 47/187/65 87/188/65 248/478/65 212/477/65
f 214/482/68 250/481/68 48/190/68 88/189/68
f 253/483/69 92/194/69 91/193/69 252/484/69
f 213/485/3 252/486/3 212/487/3
f 212/487/3 252/486/3 91/199/3 47/198/3
f 214/400/159 253/399/159 215/488/159
f 101/204/160 259/489/160 258/490/160 100/205/160
f 102/208/161 260/491/161 259/492/161 101/209/161
f 103/212/162 261/493/162 260/491/162 102/208/162
f 104/203/163 95/202/163 261/493/163 103/212/163
f 96/215/5 254/314/5 93/216/5
f 98/218/164 256/494/164 255/495/164 97/219/164
f 254/314/5 255/313/5 263/496/5 262/497/5
f 99/225/165 257/498/165 256/494/165 98/218/165
f 100/205/166 258/490/166 257/498/166 99/225/166
f 254/314/5 262/497/5 93/216/5
f 94/201/167 270/499/167 95/202/167
f 256/494/168 264/500/168 263/501/168 255/495/168
f 262/497/5 263/496/5 272/502/5 271/503/5
f 257/498/169 265/504/169 264/500/169 256/494/169
f 258/490/170 266/505/170 265/504/170 257/498/170
f 259/489/171 267/506/171 266/505/171 258/490/171
f 260/491/172 268/507/172 267/508/172 259/492/172
f 261/493/173 269/509/173 268/507/173 260/491/173
f 95/202/174 270/499/174 269/509/174 261/493/174
f 267/510/175 276/511/175 275/512/175 266/513/175
f 268/507/176 277/514/176 276/515/176 267/508/176
f 269/509/177 278/516/177 277/514/177 268/507/177
f 270/499/178 279/517/178 278/516/178 269/509/178
f 262/497/5 271/503/5 93/216/5
f 94/201/179 279/517/179 270/499/179
f 264/518/180 273/519/180 272/520/180 263/521/180
f 271/503/5 272/502/5 281/522/5 280/523/5
f 265/524/181 274/525/181 273/519/181 264/518/181
f 266/513/182 275/512/182 274/525/182 265/524/182
f 271/503/5 280/523/5 93/216/5
f 94/201/183 288/526/183 279/517/183
f 273/519/184 282/527/184 281/528/184 272/520/184
f 280/523/5 281/522/5 290/529/5 289/530/5
f 274/525/185 283/531/185 282/527/185 273/519/185
f 275/512/186 284/532/186 283/531/186 274/525/186
f 276/511/187 285/533/187 284/532/187 275/512/187
f 277/514/188 286/534/188 285/535/188 276/515/188
f 278/516/189 287/536/189 286/534/189 277/514/189
f 279/517/190 288/526/190 287/536/190 278/516/190
f 286/534/191 295/537/191 294/538/191 285/535/191
f 287/536/192 296/539/192 295/537/192 286/534/192
f 288/526/193 297/540/193 296/539/193 287/536/193
f 280/523/5 289/530/5 93/216/5
f 94/201/194 297/540/194 288/526/194
f 282/527/195 291/541/195 290/542/195 281/528/195
f 289/530/5 290/529/5 299/543/5 298/544/5
f 283/531/196 292/545/196 291/541/196 282/527/196
f 284/532/197 293/546/197 292/545/197 283/531/197
f 285/533/198 294/547/198 293/546/198 284/532/198
f 291/541/199 300/548/199 299/549/199 290/542/199
f 298/544/5 299/543/5 308/550/5 307/551/5
f 292/545/200 301/552/200 300/548/200 291/541/200
f 293/546/201 302/553/201 301/552/201 292/545/201
f 294/547/202 303/554/202 302/553/202 293/546/202
f 295/537/203 304/555/203 303/556/203 294/538/203
f 296/539/204 305/557/204 304/555/204 295/537/204
f 297/540/205 306/558/205 305/557/205 296/539/205
f 289/530/206 298/544/206 93/216/206
f 94/201/207 306/558/207 297/540/207
f 304/555/208 313/559/208 312/560/208 303/556/208
f 305/557/209 314/561/209 313/559/209 304/555/209
f 105/217/5 106/224/5 97/312/5 96/215/5
f 306/558/210 315/562/210 314/561/210 305/557/210
f 298/544/211 307/551/211 93/216/211
f 94/201/212 315/562/212 306/558/212
f 300/563/213 309/564/213 308/565/213 299/566/213
f 307/551/5 308/550/5 168/296/5 167/295/5
f 301/567/214 310/568/214 309/564/214 300/563/214
f 302/569/215 311/570/215 310/568/215 301/567/215
f 303/571/216 312/572/216 311/570/216 302/569/216
f 310/568/217 170/304/217 169/303/217 309/564/217
f 311/570/218 171/305/218 170/304/218 310/568/218
f 312/572/219 172/306/219 171/305/219 311/570/219
f 313/559/220 173/308/220 172/307/220 312/560/220
f 314/561/221 174/309/221 173/308/221 313/559/221
f 315/562/222 175/310/222 174/309/222 314/561/222
f 307/551/5 167/295/5 93/216/5
f 94/201/223 175/310/223 315/562/223
f 309/564/224 169/303/224 168/311/224 308/565/224
f 167/295/5 316/278/5 93/216/5
