# Blender 5.2.0 LTS
# www.blender.org
mtllib Hendrik1charactersmall2.mtl
o Plane
v 0.003656 0.029209 0.058583
v -0.001274 0.182605 0.020873
v 0.003656 0.029209 0.025097
v -0.001274 0.182605 0.062807
v 0.094945 0.029209 0.058583
v 0.094945 0.029209 0.025097
v 0.003656 0.054440 0.058583
v 0.003656 0.054440 0.025097
v 0.042741 0.054440 0.058583
v 0.042741 0.054440 0.025097
v 0.047671 0.182605 0.062807
v 0.047671 0.182605 0.020873
v 0.002672 0.222545 0.024255
v 0.002672 0.222545 0.059426
v 0.043725 0.222545 0.059426
v 0.043725 0.222545 0.024255
v -0.007139 0.277183 0.015849
v -0.007139 0.277183 0.067831
v 0.053536 0.277183 0.067831
v 0.053536 0.277183 0.015849
v -0.009768 0.411926 0.013596
v -0.009768 0.411926 0.070084
v 0.056165 0.411926 0.070084
v 0.056165 0.411926 0.013596
v -0.009768 0.423509 0.013596
v -0.009768 0.442036 0.070084
v 0.056165 0.442036 0.070084
v 0.056165 0.423509 0.013596
v -0.017224 0.470667 0.036621
v -0.007271 0.470667 0.070084
v 0.051742 0.470667 0.070084
v 0.056165 0.470667 0.036621
v -0.009768 0.423509 0.000000
v 0.056165 0.423509 0.000000
v -0.017224 0.470667 0.000000
v 0.061726 0.470667 0.000000
v -0.030688 0.556145 0.036621
v -0.007271 0.556145 0.081193
v 0.067200 0.556145 0.036621
v 0.051742 0.556145 0.081193
v -0.030688 0.556145 0.000000
v 0.067200 0.556145 0.000000
v -0.003733 0.676959 0.024302
v -0.003733 0.676959 0.049580
v 0.042147 0.676959 0.023913
v 0.039428 0.676959 0.049580
v -0.003733 0.676959 0.000000
v 0.055757 0.670163 0.000000
v -0.028000 0.616552 0.000000
v -0.028000 0.616552 0.036621
v -0.018572 0.616552 0.088354
v 0.052358 0.616552 0.088354
v 0.067200 0.616552 0.036621
v 0.067200 0.616552 0.000000
v 0.046294 0.658198 0.120419
v -0.003880 0.658198 0.120419
v -0.005109 0.616552 0.127736
v 0.046737 0.616552 0.127736
v 0.003273 0.403603 0.094721
v 0.038355 0.403603 0.094721
v 0.003273 0.403603 0.121369
v 0.038355 0.403603 0.121369
v -0.003106 0.343807 0.089875
v 0.044734 0.343807 0.089875
v -0.003106 0.343807 0.126215
v 0.044734 0.343807 0.126215
v 0.050858 0.392156 0.085224
v 0.050858 0.355255 0.085224
v 0.050858 0.355255 0.130866
v 0.050858 0.392156 0.130866
v -0.009230 0.392156 0.085224
v -0.009230 0.355255 0.085224
v -0.009230 0.392156 0.130866
v -0.009230 0.355255 0.130866
v 0.043943 0.521540 0.125613
v 0.044915 0.491519 0.126352
v -0.003287 0.491519 0.126352
v -0.002315 0.521540 0.125613
v -0.002315 0.521540 0.090477
v -0.003287 0.491519 0.089738
v 0.044915 0.491519 0.089738
v 0.043943 0.521540 0.090477
v -0.017343 0.670163 0.036621
v -0.017343 0.670163 0.081193
v 0.055757 0.670163 0.036621
v 0.051915 0.670163 0.081193
v -0.017343 0.670163 0.000000
v 0.042147 0.676959 0.000000
v -0.003733 0.717241 0.022419
v 0.042147 0.717241 0.022061
v -0.003733 0.717241 0.000000
v 0.042147 0.717241 0.000000
v 0.020399 0.868356 0.000000
v 0.020399 0.682816 0.000000
v 0.037751 0.684665 -0.007188
v 0.039181 0.868356 0.000000
v 0.116672 0.868356 0.000000
v 0.114823 0.760307 0.000000
v 0.109344 0.742247 0.000000
v 0.100447 0.725602 0.000000
v 0.088474 0.711014 0.000000
v 0.073886 0.699040 0.000000
v 0.057241 0.690144 0.000000
v 0.039181 0.684665 0.000000
v 0.037751 0.868356 0.007188
v 0.109344 0.868356 0.036842
v 0.107635 0.760307 0.036134
v 0.102573 0.742247 0.034038
v 0.094354 0.725602 0.030633
v 0.083292 0.711014 0.026052
v 0.069814 0.699040 0.020469
v 0.054437 0.690144 0.014099
v 0.037751 0.684665 0.007188
v 0.033680 0.868356 0.013281
v 0.088474 0.868356 0.068076
v 0.087166 0.760307 0.066768
v 0.083292 0.742247 0.062894
v 0.077002 0.725602 0.056603
v 0.068536 0.711014 0.048137
v 0.058220 0.699040 0.037821
v 0.046450 0.690144 0.026052
v 0.033680 0.684665 0.013281
v 0.027586 0.868356 0.017352
v 0.057241 0.868356 0.088945
v 0.056533 0.760307 0.087236
v 0.054437 0.742247 0.082175
v 0.051032 0.725602 0.073955
v 0.046450 0.711014 0.062894
v 0.040867 0.699040 0.049415
v 0.034498 0.690144 0.034038
v 0.027586 0.684665 0.017352
v 0.020399 0.868356 0.018782
v 0.020399 0.868356 0.096274
v 0.020399 0.760307 0.094424
v 0.020399 0.742247 0.088945
v 0.020399 0.725602 0.080049
v 0.020399 0.711014 0.068076
v 0.020399 0.699040 0.053487
v 0.020399 0.690144 0.036842
v 0.020399 0.684665 0.018782
v 0.013211 0.868356 0.017352
v -0.016444 0.868356 0.088945
v -0.015736 0.760307 0.087236
v -0.013639 0.742247 0.082175
v -0.010235 0.725602 0.073955
v -0.005653 0.711014 0.062894
v -0.000070 0.699040 0.049415
v 0.006300 0.690144 0.034038
v 0.013211 0.684665 0.017352
v 0.007118 0.868356 0.013281
v -0.047677 0.868356 0.068076
v -0.046369 0.760307 0.066768
v -0.042495 0.742247 0.062894
v -0.036204 0.725602 0.056603
v -0.027738 0.711014 0.048137
v -0.017422 0.699040 0.037821
v -0.005653 0.690144 0.026052
v 0.007118 0.684665 0.013281
v -0.068547 0.868356 0.036842
v -0.066837 0.760307 0.036134
v -0.061776 0.742247 0.034038
v -0.053556 0.725602 0.030633
v -0.042495 0.711014 0.026051
v -0.029017 0.699040 0.020469
v -0.013639 0.690144 0.014099
v 0.003046 0.684665 0.007188
v 0.001617 0.868356 0.000000
v -0.075875 0.868356 0.000000
v -0.074025 0.760307 0.000000
v -0.068546 0.742247 0.000000
v -0.059650 0.725602 0.000000
v -0.047677 0.711014 0.000000
v -0.033088 0.699040 0.000000
v -0.016444 0.690144 0.000000
v 0.001617 0.684665 0.000000
v 0.003656 0.029209 -0.058583
v -0.001274 0.182605 -0.020873
v 0.003656 0.029209 -0.025097
v -0.001274 0.182605 -0.062807
v 0.094945 0.029209 -0.058583
v 0.094945 0.029209 -0.025097
v 0.003656 0.054440 -0.058583
v 0.003656 0.054440 -0.025097
v 0.042741 0.054440 -0.058583
v 0.042741 0.054440 -0.025097
v 0.047671 0.182605 -0.062807
v 0.047671 0.182605 -0.020873
v 0.002672 0.222545 -0.024254
v 0.002672 0.222545 -0.059425
v 0.043725 0.222545 -0.059425
v 0.043725 0.222545 -0.024254
v -0.007139 0.277183 -0.015849
v -0.007139 0.277183 -0.067831
v 0.053536 0.277183 -0.067831
v 0.053536 0.277183 -0.015849
v -0.009768 0.411926 -0.013596
v -0.009768 0.411926 -0.070084
v 0.056165 0.411926 -0.070084
v 0.056165 0.411926 -0.013596
v -0.009768 0.423509 -0.013596
v -0.009768 0.442036 -0.070084
v 0.056165 0.442036 -0.070084
v 0.056165 0.423509 -0.013596
v -0.017224 0.470667 -0.036621
v -0.007271 0.470667 -0.070084
v 0.051742 0.470667 -0.070084
v 0.056165 0.470667 -0.036621
v -0.030688 0.556145 -0.036621
v -0.007271 0.556145 -0.081192
v 0.067200 0.556145 -0.036621
v 0.051742 0.556145 -0.081192
v -0.003733 0.676959 -0.024302
v -0.003733 0.676959 -0.049580
v 0.042147 0.676959 -0.023913
v 0.039428 0.676959 -0.049580
v -0.028000 0.616552 -0.036621
v -0.018572 0.616552 -0.088354
v 0.052358 0.616552 -0.088354
v 0.067200 0.616552 -0.036621
v 0.046294 0.658198 -0.120418
v -0.003880 0.658198 -0.120418
v -0.005109 0.616552 -0.127736
v 0.046737 0.616552 -0.127736
v 0.003273 0.403603 -0.094721
v 0.038355 0.403603 -0.094721
v 0.003273 0.403603 -0.121369
v 0.038355 0.403603 -0.121369
v -0.003106 0.343807 -0.089875
v 0.044734 0.343807 -0.089875
v -0.003106 0.343807 -0.126215
v 0.044734 0.343807 -0.126215
v 0.050858 0.392156 -0.085224
v 0.050858 0.355255 -0.085224
v 0.050858 0.355255 -0.130866
v 0.050858 0.392156 -0.130866
v -0.009230 0.392156 -0.085224
v -0.009230 0.355255 -0.085224
v -0.009230 0.392156 -0.130866
v -0.009230 0.355255 -0.130866
v 0.043943 0.521540 -0.125613
v 0.044915 0.491519 -0.126352
v -0.003287 0.491519 -0.126352
v -0.002315 0.521540 -0.125613
v -0.002315 0.521540 -0.090477
v -0.003287 0.491519 -0.089738
v 0.044915 0.491519 -0.089738
v 0.043943 0.521540 -0.090477
v -0.017343 0.670163 -0.036621
v -0.017343 0.670163 -0.081192
v 0.055757 0.670163 -0.036621
v 0.051915 0.670163 -0.081192
v -0.003733 0.717241 -0.022419
v 0.042147 0.717241 -0.022060
v 0.037751 0.868356 -0.007188
v 0.109344 0.868356 -0.036842
v 0.107635 0.760307 -0.036134
v 0.102573 0.742247 -0.034038
v 0.094354 0.725602 -0.030633
v 0.083292 0.711014 -0.026051
v 0.069814 0.699040 -0.020468
v 0.054437 0.690144 -0.014099
v 0.033680 0.868356 -0.013281
v 0.088474 0.868356 -0.068076
v 0.087166 0.760307 -0.066768
v 0.083292 0.742247 -0.062894
v 0.077002 0.725602 -0.056603
v 0.068536 0.711014 -0.048137
v 0.058220 0.699040 -0.037821
v 0.046450 0.690144 -0.026051
v 0.033680 0.684665 -0.013281
v 0.027586 0.868356 -0.017352
v 0.057241 0.868356 -0.088945
v 0.056533 0.760307 -0.087236
v 0.054437 0.742247 -0.082175
v 0.051032 0.725602 -0.073955
v 0.046450 0.711014 -0.062894
v 0.040867 0.699040 -0.049415
v 0.034498 0.690144 -0.034038
v 0.027586 0.684665 -0.017352
v 0.020399 0.868356 -0.018782
v 0.020399 0.868356 -0.096274
v 0.020399 0.760307 -0.094424
v 0.020399 0.742247 -0.088945
v 0.020399 0.725602 -0.080048
v 0.020399 0.711014 -0.068076
v 0.020399 0.699040 -0.053487
v 0.020399 0.690144 -0.036842
v 0.020399 0.684665 -0.018782
v 0.013211 0.868356 -0.017352
v -0.016444 0.868356 -0.088945
v -0.015736 0.760307 -0.087236
v -0.013639 0.742247 -0.082175
v -0.010235 0.725602 -0.073955
v -0.005653 0.711014 -0.062894
v -0.000070 0.699040 -0.049415
v 0.006300 0.690144 -0.034038
v 0.013211 0.684665 -0.017352
v 0.007118 0.868356 -0.013281
v -0.047677 0.868356 -0.068076
v -0.046369 0.760307 -0.066768
v -0.042495 0.742247 -0.062894
v -0.036204 0.725602 -0.056603
v -0.027738 0.711014 -0.048137
v -0.017422 0.699040 -0.037821
v -0.005653 0.690144 -0.026051
v 0.007118 0.684665 -0.013281
v 0.003046 0.868356 -0.007188
v -0.068547 0.868356 -0.036842
v -0.066837 0.760307 -0.036134
v -0.061776 0.742247 -0.034038
v -0.053556 0.725602 -0.030633
v -0.042495 0.711014 -0.026051
v -0.029017 0.699040 -0.020468
v -0.013639 0.690144 -0.014099
v 0.003046 0.684665 -0.007188
v 0.003046 0.868356 0.007188
vn -0.4351 -0.9004 -0.0000
vn -0.0000 -0.0000 -1.0000
vn 1.0000 -0.0000 -0.0000
vn -0.0000 0.0329 0.9995
vn -0.0000 1.0000 -0.0000
vn -0.0000 -0.0000 1.0000
vn -0.0000 -0.0844 -0.9964
vn 0.9993 0.0384 -0.0000
vn -0.0000 0.0329 -0.9995
vn -0.9993 0.0384 -0.0000
vn -0.0000 0.1521 0.9884
vn 0.9952 -0.0983 -0.0000
vn -0.9952 -0.0983 -0.0000
vn -0.0000 -0.0844 0.9964
vn -0.0000 0.0167 -0.9999
vn 0.9843 0.1767 -0.0000
vn -0.0000 0.1521 -0.9884
vn -0.9843 0.1767 -0.0000
vn -1.0000 -0.0000 -0.0000
vn -0.9998 0.0195 -0.0000
vn -0.0000 0.0167 0.9999
vn 0.9998 0.0195 -0.0000
vn 0.9151 0.0975 -0.3913
vn 0.9860 0.1042 -0.1306
vn -0.9981 -0.0462 -0.0396
vn -0.0000 -0.9565 -0.2918
vn 0.9877 0.1562 -0.0000
vn -0.9903 0.0852 -0.1097
vn -0.9925 0.0959 -0.0754
vn 0.9808 -0.1950 -0.0000
vn 0.9878 0.1556 -0.0000
vn -0.0000 0.1289 -0.9917
vn -0.9661 0.0784 -0.2461
vn -0.0033 -0.5615 -0.8275
vn -0.9745 -0.1207 -0.1891
vn -0.9780 -0.2087 -0.0000
vn 0.9885 -0.1160 -0.0968
vn 0.9429 0.0863 -0.3216
vn -0.9537 0.0227 -0.3001
vn 0.9990 -0.0444 -0.0000
vn -0.0000 0.1177 -0.9930
vn -0.0000 -0.1731 -0.9849
vn -0.9888 -0.0314 -0.1462
vn -0.0000 0.0566 -0.9984
vn 0.9398 -0.0749 -0.3333
vn -0.8818 0.4717 -0.0000
vn -0.0000 0.0566 0.9984
vn -0.9972 0.0744 -0.0000
vn 0.9972 0.0744 -0.0000
vn -0.0000 0.3764 0.9264
vn 0.8818 0.4717 -0.0000
vn -0.0000 0.3764 -0.9264
vn -0.0000 -0.6385 -0.7696
vn 0.6753 -0.7376 -0.0000
vn -0.0000 -0.6385 0.7696
vn -0.6753 -0.7376 -0.0000
vn 0.9793 0.0982 -0.1769
vn 0.9995 -0.0324 -0.0000
vn -0.9954 0.0587 -0.0751
vn -0.9995 -0.0324 -0.0000
vn -0.0000 0.0223 0.9998
vn -0.0000 -0.0246 0.9997
vn -0.0000 0.0223 -0.9998
vn -0.0000 -0.0246 -0.9997
vn 0.4467 -0.8947 -0.0000
vn -0.4097 -0.9114 -0.0383
vn -0.0000 -0.9777 -0.2102
vn 0.4468 -0.8946 -0.0000
vn -0.4468 -0.8946 -0.0000
vn -0.0000 -1.0000 -0.0000
vn -0.9944 -0.0048 -0.1054
vn 0.0980 -0.9950 -0.0195
vn 0.7640 -0.6271 0.1520
vn 0.6294 -0.7669 0.1252
vn 0.4694 -0.8781 0.0934
vn 0.2898 -0.9553 0.0576
vn 0.0980 -0.9950 0.0195
vn 0.9806 -0.0168 0.1951
vn 0.9401 -0.2852 0.1870
vn 0.8686 -0.4643 0.1728
vn 0.0832 -0.9950 0.0555
vn 0.8314 -0.0168 0.5555
vn 0.7969 -0.2852 0.5325
vn 0.7364 -0.4643 0.4920
vn 0.6477 -0.6270 0.4328
vn 0.5336 -0.7669 0.3565
vn 0.3979 -0.8781 0.2659
vn 0.2457 -0.9554 0.1642
vn 0.4328 -0.6270 0.6477
vn 0.3566 -0.7669 0.5336
vn 0.2659 -0.8781 0.3979
vn 0.1642 -0.9553 0.2457
vn 0.0002 1.0000 -0.0000
vn 0.0552 -0.9950 0.0830
vn 0.5555 -0.0168 0.8314
vn 0.5325 -0.2852 0.7969
vn 0.4921 -0.4643 0.7364
vn 0.0195 -0.9950 0.0980
vn 0.1951 -0.0168 0.9806
vn 0.1870 -0.2852 0.9401
vn 0.1728 -0.4643 0.8687
vn 0.1520 -0.6270 0.7640
vn 0.1252 -0.7669 0.6294
vn 0.0934 -0.8781 0.4693
vn 0.0577 -0.9553 0.2898
vn -0.1252 -0.7669 0.6294
vn -0.0933 -0.8781 0.4693
vn -0.0577 -0.9553 0.2898
vn -0.0195 -0.9950 0.0980
vn -0.1951 -0.0168 0.9806
vn -0.1870 -0.2852 0.9401
vn -0.1728 -0.4643 0.8687
vn -0.1520 -0.6270 0.7640
vn -0.5555 -0.0168 0.8314
vn -0.5325 -0.2852 0.7969
vn -0.4921 -0.4643 0.7364
vn -0.4328 -0.6270 0.6477
vn -0.3566 -0.7669 0.5336
vn -0.2659 -0.8781 0.3979
vn -0.1641 -0.9554 0.2457
vn -0.0002 1.0000 -0.0000
vn -0.0554 -0.9950 0.0830
vn -0.5336 -0.7669 0.3565
vn -0.3979 -0.8781 0.2659
vn -0.2457 -0.9553 0.1642
vn 0.0001 1.0000 -0.0000
vn -0.0832 -0.9950 0.0555
vn -0.8314 -0.0168 0.5555
vn -0.7970 -0.2852 0.5325
vn -0.7364 -0.4643 0.4921
vn -0.6477 -0.6270 0.4328
vn -0.9401 -0.2852 0.1870
vn -0.8687 -0.4643 0.1728
vn -0.7640 -0.6270 0.1520
vn -0.6294 -0.7669 0.1252
vn -0.4694 -0.8780 0.0934
vn -0.2898 -0.9554 0.0576
vn -0.0980 -0.9950 0.0195
vn -0.9806 -0.0168 0.1951
vn 0.9151 0.0975 0.3913
vn 0.9860 0.1042 0.1306
vn -0.9981 -0.0462 0.0396
vn -0.0000 -0.9565 0.2918
vn -0.9903 0.0852 0.1097
vn -0.9925 0.0959 0.0754
vn -0.0000 0.1289 0.9917
vn -0.9661 0.0784 0.2461
vn -0.0033 -0.5615 0.8275
vn -0.9745 -0.1207 0.1891
vn 0.9885 -0.1160 0.0968
vn 0.9429 0.0863 0.3216
vn -0.9537 0.0227 0.3001
vn -0.0000 0.1177 0.9930
vn -0.0000 -0.1731 0.9849
vn -0.9888 -0.0314 0.1462
vn 0.9398 -0.0749 0.3333
vn 0.9793 0.0982 0.1769
vn -0.9954 0.0587 0.0751
vn -0.4097 -0.9114 0.0383
vn -0.0000 -0.9777 0.2102
vn -0.4467 -0.8947 -0.0000
vn -0.9944 -0.0048 0.1054
vn 0.7640 -0.6270 -0.1520
vn 0.6294 -0.7669 -0.1252
vn 0.4693 -0.8781 -0.0934
vn 0.2899 -0.9553 -0.0576
vn 0.9806 -0.0168 -0.1951
vn 0.9401 -0.2852 -0.1870
vn 0.8687 -0.4643 -0.1728
vn 0.0830 -0.9950 -0.0555
vn 0.8314 -0.0168 -0.5555
vn 0.7970 -0.2852 -0.5325
vn 0.7364 -0.4643 -0.4921
vn 0.6477 -0.6271 -0.4328
vn 0.5336 -0.7669 -0.3565
vn 0.3979 -0.8781 -0.2659
vn 0.2457 -0.9553 -0.1642
vn 0.4328 -0.6270 -0.6477
vn 0.3565 -0.7669 -0.5336
vn 0.2658 -0.8781 -0.3979
vn 0.1643 -0.9553 -0.2457
vn 0.0556 -0.9950 -0.0830
vn 0.5555 -0.0168 -0.8314
vn 0.5325 -0.2852 -0.7969
vn 0.4921 -0.4643 -0.7364
vn 0.0196 -0.9950 -0.0980
vn 0.1951 -0.0168 -0.9806
vn 0.1870 -0.2852 -0.9401
vn 0.1728 -0.4643 -0.8687
vn 0.1520 -0.6270 -0.7640
vn 0.1252 -0.7669 -0.6294
vn 0.0934 -0.8781 -0.4693
vn 0.0577 -0.9553 -0.2898
vn -0.1252 -0.7669 -0.6294
vn -0.0933 -0.8781 -0.4693
vn -0.0577 -0.9553 -0.2898
vn -0.0195 -0.9950 -0.0980
vn -0.1951 -0.0168 -0.9806
vn -0.1870 -0.2852 -0.9401
vn -0.1728 -0.4643 -0.8687
vn -0.1520 -0.6270 -0.7640
vn -0.5555 -0.0168 -0.8314
vn -0.5325 -0.2852 -0.7970
vn -0.4920 -0.4643 -0.7364
vn -0.4328 -0.6270 -0.6477
vn -0.3565 -0.7669 -0.5336
vn -0.2659 -0.8781 -0.3979
vn -0.1641 -0.9554 -0.2457
vn -0.0557 -0.9950 -0.0830
vn -0.5336 -0.7669 -0.3565
vn -0.3979 -0.8781 -0.2659
vn -0.2457 -0.9553 -0.1642
vn -0.0001 1.0000 -0.0000
vn -0.0830 -0.9950 -0.0555
vn -0.8314 -0.0168 -0.5555
vn -0.7970 -0.2852 -0.5325
vn -0.7364 -0.4643 -0.4921
vn -0.6477 -0.6271 -0.4328
vn -0.9401 -0.2852 -0.1870
vn -0.8687 -0.4643 -0.1728
vn -0.7640 -0.6271 -0.1520
vn -0.6294 -0.7669 -0.1252
vn -0.4693 -0.8781 -0.0934
vn -0.2898 -0.9554 -0.0576
vn -0.0980 -0.9950 -0.0195
vn -0.9806 -0.0168 -0.1951
vt 0.072654 0.161897
vt 0.072654 0.108697
vt 0.038745 0.108697
vt 0.038745 0.161897
vt 0.648523 0.372147
vt 0.556165 0.376170
vt 0.557277 0.401695
vt 0.596819 0.399972
vt 0.227425 0.321788
vt 0.193515 0.321788
vt 0.193515 0.347337
vt 0.227425 0.347337
vt 0.832128 0.597161
vt 0.792586 0.595439
vt 0.781953 0.724830
vt 0.831471 0.726987
vt 0.250642 0.229342
vt 0.250642 0.321788
vt 0.284552 0.321788
vt 0.284552 0.229342
vt 0.833240 0.571637
vt 0.740882 0.567614
vt 0.607453 0.529364
vt 0.557934 0.531521
vt 0.563688 0.571791
vt 0.605221 0.569982
vt 0.189238 0.477156
vt 0.231703 0.477156
vt 0.446229 0.461991
vt 0.472137 0.461991
vt 0.475406 0.362858
vt 0.442960 0.362858
vt 0.825717 0.767258
vt 0.784184 0.765449
vt 0.771854 0.820194
vt 0.833240 0.822868
vt 0.192662 0.517576
vt 0.228279 0.517576
vt 0.366631 0.517774
vt 0.402248 0.517774
vt 0.617551 0.624727
vt 0.556165 0.627401
vt 0.559441 0.763803
vt 0.626147 0.760897
vt 0.184150 0.572969
vt 0.236791 0.572969
vt 0.358119 0.573025
vt 0.410760 0.573025
vt 0.413041 0.709450
vt 0.355838 0.709450
vt 0.355838 0.739940
vt 0.413041 0.721179
vt 0.763258 0.956364
vt 0.829964 0.959269
vt 0.181868 0.709433
vt 0.239072 0.709433
vt 0.874352 0.192552
vt 0.874352 0.259321
vt 0.888121 0.259321
vt 0.888121 0.192552
vt 0.762748 0.968082
vt 0.829454 0.970987
vt 0.181868 0.721163
vt 0.239072 0.739924
vt 0.560768 0.794263
vt 0.627474 0.791358
vt 0.239072 0.768902
vt 0.205185 0.768965
vt 0.205185 0.855609
vt 0.250322 0.855462
vt 0.564556 0.823118
vt 0.624260 0.820517
vt 0.355838 0.768969
vt 0.389725 0.768934
vt 0.176622 0.117621
vt 0.246752 0.117621
vt 0.241221 0.077897
vt 0.190415 0.077897
vt 0.168100 0.721163
vt 0.168100 0.768965
vt 0.426810 0.768889
vt 0.426810 0.721179
vt 0.389725 0.855403
vt 0.426810 0.855403
vt 0.205185 0.916764
vt 0.168100 0.916764
vt 0.168100 0.970987
vt 0.205185 0.970987
vt 0.168100 0.855609
vt 0.568316 0.909462
vt 0.628021 0.906861
vt 0.344588 0.855528
vt 0.833240 0.215613
vt 0.833240 0.259321
vt 0.874348 0.259321
vt 0.874352 0.212859
vt 0.529488 0.297343
vt 0.529488 0.273127
vt 0.488696 0.275003
vt 0.488696 0.297343
vt 0.389725 0.916574
vt 0.337336 0.916694
vt 0.344588 0.970987
vt 0.389725 0.970956
vt 0.426810 0.916574
vt 0.426810 0.970956
vt 0.257574 0.916705
vt 0.250322 0.970987
vt 0.559541 0.970987
vt 0.631303 0.967861
vt 0.961745 0.769395
vt 0.909243 0.769395
vt 0.910487 0.811653
vt 0.961297 0.811653
vt 0.297455 0.916740
vt 0.304865 0.958916
vt 0.911087 0.642802
vt 0.959901 0.642802
vt 0.953257 0.553835
vt 0.917731 0.553835
vt 0.290045 0.958786
vt 0.297455 0.916620
vt 0.488696 0.160769
vt 0.534917 0.160769
vt 0.530207 0.149226
vt 0.493407 0.149226
vt 0.840777 0.685059
vt 0.889591 0.685059
vt 0.882947 0.596093
vt 0.847421 0.596093
vt 0.298856 0.790140
vt 0.335935 0.790140
vt 0.330888 0.701165
vt 0.303903 0.701165
vt 0.258975 0.789993
vt 0.296054 0.789993
vt 0.291007 0.700923
vt 0.264022 0.700923
vt 0.143364 0.161897
vt 0.143364 0.113450
vt 0.106564 0.113450
vt 0.106564 0.161897
vt 0.834760 0.547024
vt 0.895609 0.547024
vt 0.889408 0.535487
vt 0.840961 0.535487
vt 0.488696 0.209767
vt 0.534917 0.209767
vt 0.530207 0.198136
vt 0.493407 0.198136
vt 0.905069 0.504766
vt 0.965919 0.504766
vt 0.959717 0.493229
vt 0.911270 0.493229
vt 0.965919 0.542132
vt 0.905069 0.542132
vt 0.541995 0.291713
vt 0.541995 0.264728
vt 0.529488 0.255110
vt 0.529488 0.301331
vt 0.488696 0.247135
vt 0.534917 0.247135
vt 0.895609 0.584390
vt 0.834760 0.584390
vt 0.529488 0.310948
vt 0.529488 0.337934
vt 0.542302 0.347551
vt 0.542302 0.301331
vt 0.488696 0.198136
vt 0.534917 0.198136
vt 0.295306 0.820388
vt 0.259723 0.820388
vt 0.335186 0.820548
vt 0.299604 0.820548
vt 0.833240 0.811653
vt 0.905069 0.811653
vt 0.888606 0.715467
vt 0.841762 0.715467
vt 0.958916 0.673210
vt 0.912072 0.673210
vt 0.190312 0.175232
vt 0.190312 0.149634
vt 0.176622 0.162757
vt 0.234017 0.149634
vt 0.236770 0.175626
vt 0.250642 0.162757
vt 0.190312 0.199843
vt 0.176622 0.199843
vt 0.236770 0.199842
vt 0.250642 0.199842
vt 0.694405 0.132827
vt 0.694042 0.179284
vt 0.716745 0.179284
vt 0.716745 0.132827
vt 0.734834 0.372147
vt 0.734834 0.346549
vt 0.694042 0.344642
vt 0.734834 0.321939
vt 0.694042 0.321939
vt 0.529466 0.247135
vt 0.808120 0.096553
vt 0.792331 0.085991
vt 0.789491 0.092847
vt 0.902179 0.815778
vt 0.902179 0.829715
vt 0.931594 0.829752
vt 0.927194 0.815809
vt 0.755214 0.086028
vt 0.740883 0.083177
vt 0.740882 0.110076
vt 0.755213 0.107163
vt 0.771627 0.089294
vt 0.771626 0.103851
vt 0.789491 0.100268
vt 0.411730 0.255641
vt 0.393076 0.251931
vt 0.408890 0.262498
vt 0.902179 0.862954
vt 0.902179 0.966693
vt 0.937556 0.966737
vt 0.936877 0.862996
vt 0.403643 0.267745
vt 0.447240 0.332994
vt 0.474139 0.306095
vt 0.902179 0.845645
vt 0.934863 0.845685
vt 0.792330 0.107125
vt 0.967547 0.966861
vt 0.966291 0.863119
vt 0.396786 0.270585
vt 0.412096 0.347551
vt 0.962572 0.845800
vt 0.956531 0.829855
vt 0.948401 0.815897
vt 0.751174 0.134927
vt 0.763299 0.126688
vt 0.777196 0.117300
vt 0.576356 0.212257
vt 0.567783 0.227129
vt 0.594082 0.227332
vt 0.598722 0.212430
vt 0.770192 0.153947
vt 0.778242 0.141632
vt 0.787489 0.127594
vt 0.797577 0.112372
vt 0.557490 0.262390
vt 0.556165 0.371817
vt 0.587794 0.372061
vt 0.588511 0.262630
vt 0.389365 0.270585
vt 0.374055 0.347551
vt 0.561412 0.244057
vt 0.590634 0.244283
vt 0.804433 0.115212
vt 0.625104 0.372147
vt 0.625104 0.262714
vt 0.382508 0.267745
vt 0.338911 0.332994
vt 0.625104 0.244362
vt 0.625104 0.227403
vt 0.625104 0.212490
vt 0.795040 0.164241
vt 0.797765 0.149719
vt 0.800937 0.133165
vt 0.821936 0.164241
vt 0.818897 0.149719
vt 0.815493 0.133165
vt 0.811854 0.115212
vt 0.662413 0.372061
vt 0.661696 0.262630
vt 0.377261 0.262498
vt 0.312012 0.306096
vt 0.659573 0.244283
vt 0.656125 0.227332
vt 0.651485 0.212430
vt 0.694042 0.371817
vt 0.692718 0.262390
vt 0.374421 0.255641
vt 0.297455 0.270951
vt 0.688794 0.244057
vt 0.682424 0.227129
vt 0.673851 0.212257
vt 0.846786 0.153947
vt 0.838421 0.141632
vt 0.828941 0.127594
vt 0.818709 0.112372
vt 0.865805 0.134927
vt 0.853365 0.126688
vt 0.839234 0.117300
vt 0.823957 0.107125
vt 0.557489 0.102603
vt 0.556165 0.212029
vt 0.587794 0.212198
vt 0.588511 0.102768
vt 0.374421 0.248220
vt 0.297455 0.232911
vt 0.561412 0.084283
vt 0.590634 0.084439
vt 0.567783 0.067377
vt 0.594082 0.067518
vt 0.576356 0.052536
vt 0.598722 0.052655
vt 0.625104 0.102827
vt 0.625104 0.084494
vt 0.625104 0.067567
vt 0.625104 0.052697
vt 0.876098 0.110076
vt 0.861452 0.107162
vt 0.844805 0.103851
vt 0.826797 0.100268
vt 0.625104 0.212257
vt 0.488696 0.270951
vt 0.488696 0.232911
vt 0.411730 0.248220
vt 0.106564 0.161897
vt 0.106564 0.108697
vt 0.648523 0.372147
vt 0.700227 0.399972
vt 0.739770 0.401695
vt 0.740882 0.376170
vt 0.108775 0.321788
vt 0.108775 0.347337
vt 0.142684 0.347337
vt 0.142684 0.321788
vt 0.741993 0.193788
vt 0.742650 0.323614
vt 0.792169 0.321457
vt 0.781536 0.192065
vt 0.727952 0.179284
vt 0.694042 0.179284
vt 0.694042 0.271730
vt 0.727952 0.271730
vt 0.833240 0.164241
vt 0.740882 0.168263
vt 0.689594 0.529364
vt 0.691825 0.569982
vt 0.733358 0.571791
vt 0.739113 0.531521
vt 0.104497 0.477156
vt 0.146962 0.477156
vt 0.407391 0.461991
vt 0.410659 0.362858
vt 0.378214 0.362858
vt 0.381482 0.461991
vt 0.748405 0.363884
vt 0.740882 0.419494
vt 0.802268 0.416821
vt 0.789938 0.362076
vt 0.107921 0.517576
vt 0.143538 0.517576
vt 0.451372 0.517774
vt 0.486989 0.517774
vt 0.679496 0.624727
vt 0.670900 0.760897
vt 0.737606 0.763803
vt 0.740882 0.627401
vt 0.099408 0.572969
vt 0.152050 0.572969
vt 0.442860 0.573025
vt 0.495501 0.573025
vt 0.440579 0.709450
vt 0.440579 0.721179
vt 0.497782 0.739940
vt 0.497782 0.709450
vt 0.744158 0.555896
vt 0.810864 0.552991
vt 0.097128 0.709433
vt 0.154331 0.709433
vt 0.901890 0.192552
vt 0.901890 0.259321
vt 0.744668 0.567614
vt 0.811374 0.564708
vt 0.097128 0.739924
vt 0.154331 0.721163
vt 0.669573 0.791358
vt 0.736279 0.794263
vt 0.097128 0.768902
vt 0.085878 0.855462
vt 0.131014 0.855609
vt 0.131014 0.768965
vt 0.672787 0.820517
vt 0.732491 0.823118
vt 0.463895 0.768934
vt 0.497782 0.768969
vt 0.176622 0.282064
vt 0.190415 0.321788
vt 0.241221 0.321788
vt 0.246752 0.282064
vt 0.463895 0.855403
vt 0.131014 0.916764
vt 0.131014 0.970987
vt 0.669026 0.906861
vt 0.728730 0.909462
vt 0.509032 0.855528
vt 0.833240 0.210105
vt 0.874352 0.212859
vt 0.874348 0.166397
vt 0.833240 0.166397
vt 0.488696 0.319683
vt 0.529488 0.321560
vt 0.463895 0.916574
vt 0.463895 0.970956
vt 0.509032 0.970987
vt 0.516284 0.916694
vt 0.078625 0.916705
vt 0.085878 0.970987
vt 0.665744 0.967861
vt 0.737505 0.970987
vt 0.909243 0.450972
vt 0.909691 0.493229
vt 0.960501 0.493229
vt 0.961745 0.450972
vt 0.548755 0.958916
vt 0.556165 0.916740
vt 0.959901 0.324378
vt 0.953257 0.235412
vt 0.917731 0.235412
vt 0.911087 0.324378
vt 0.038745 0.916620
vt 0.046155 0.958786
vt 0.296864 0.142976
vt 0.292153 0.131433
vt 0.255353 0.131433
vt 0.250642 0.142976
vt 0.897532 0.408893
vt 0.890888 0.319927
vt 0.855362 0.319927
vt 0.848719 0.408893
vt 0.554764 0.790140
vt 0.549717 0.701165
vt 0.522732 0.701165
vt 0.517685 0.790140
vt 0.077224 0.789993
vt 0.072178 0.700923
vt 0.045193 0.700923
vt 0.040146 0.789993
vt 0.297455 0.156310
vt 0.334255 0.156310
vt 0.334255 0.107863
vt 0.297455 0.107863
vt 0.903550 0.270858
vt 0.897349 0.259321
vt 0.848902 0.259321
vt 0.842700 0.270858
vt 0.296863 0.191974
vt 0.292153 0.180343
vt 0.255353 0.180343
vt 0.250642 0.191974
vt 0.965918 0.186343
vt 0.959717 0.174806
vt 0.911270 0.174806
vt 0.905069 0.186343
vt 0.965918 0.223709
vt 0.905069 0.223709
vt 0.297060 0.285184
vt 0.284552 0.275567
vt 0.297060 0.312170
vt 0.296863 0.229342
vt 0.903550 0.308224
vt 0.842700 0.308224
vt 0.542302 0.337934
vt 0.555116 0.347551
vt 0.555116 0.301331
vt 0.542302 0.310948
vt 0.296864 0.180343
vt 0.250642 0.180343
vt 0.076476 0.820388
vt 0.040894 0.820388
vt 0.554016 0.820548
vt 0.518433 0.820548
vt 0.905069 0.535487
vt 0.896547 0.439301
vt 0.849703 0.439301
vt 0.833240 0.535487
vt 0.958916 0.354786
vt 0.912072 0.354786
vt 0.190312 0.224452
vt 0.176622 0.236928
vt 0.190312 0.250051
vt 0.234017 0.250051
vt 0.250642 0.236928
vt 0.236770 0.224059
vt 0.739085 0.132827
vt 0.739448 0.179284
vt 0.734834 0.271730
vt 0.694042 0.299236
vt 0.734834 0.297329
vt 0.529466 0.347552
vt 0.877163 0.815809
vt 0.872764 0.829752
vt 0.763301 0.066503
vt 0.751176 0.058327
vt 0.777198 0.075844
vt 0.867481 0.862996
vt 0.866802 0.966737
vt 0.474139 0.197766
vt 0.408890 0.241364
vt 0.869494 0.845685
vt 0.797578 0.080743
vt 0.838066 0.863119
vt 0.836810 0.966861
vt 0.447240 0.170867
vt 0.403643 0.236116
vt 0.841786 0.845800
vt 0.847827 0.829855
vt 0.855956 0.815897
vt 0.778245 0.051559
vt 0.770195 0.039306
vt 0.787491 0.065551
vt 0.156430 0.161897
vt 0.134065 0.162070
vt 0.138705 0.176972
vt 0.165004 0.176769
vt 0.797768 0.043472
vt 0.795045 0.029013
vt 0.800939 0.059980
vt 0.804434 0.077903
vt 0.175298 0.212031
vt 0.144276 0.212270
vt 0.144993 0.321702
vt 0.176622 0.321457
vt 0.412096 0.156310
vt 0.396786 0.233276
vt 0.171374 0.193697
vt 0.142153 0.193923
vt 0.811855 0.077903
vt 0.107683 0.212354
vt 0.107683 0.321788
vt 0.374055 0.156310
vt 0.389365 0.233276
vt 0.107683 0.194002
vt 0.107684 0.177044
vt 0.107684 0.162131
vt 0.818901 0.043472
vt 0.821941 0.029013
vt 0.815495 0.059980
vt 0.838424 0.051559
vt 0.846789 0.039306
vt 0.828943 0.065551
vt 0.818710 0.080743
vt 0.071091 0.212270
vt 0.070374 0.321702
vt 0.338911 0.170867
vt 0.382508 0.236116
vt 0.073214 0.193923
vt 0.076662 0.176972
vt 0.081302 0.162070
vt 0.040069 0.212031
vt 0.038745 0.321457
vt 0.312012 0.197766
vt 0.377261 0.241364
vt 0.043992 0.193697
vt 0.050363 0.176769
vt 0.058936 0.161897
vt 0.853367 0.066503
vt 0.865807 0.058327
vt 0.839236 0.075844
vt 0.823958 0.085991
vt 0.861453 0.086028
vt 0.876099 0.083177
vt 0.844806 0.089293
vt 0.826797 0.092847
vt 0.692718 0.102603
vt 0.661696 0.102769
vt 0.662413 0.212198
vt 0.694042 0.212029
vt 0.688794 0.084283
vt 0.659573 0.084439
vt 0.682424 0.067377
vt 0.656125 0.067518
vt 0.673851 0.052536
vt 0.651485 0.052655
s 0
usemtl Material.001
f 10/1/1 6/2/1 5/3/1 9/4/1
f 5/5/2 1/6/2 7/7/2 9/8/2
f 1/9/3 3/10/3 8/11/3 7/12/3
f 8/13/4 10/14/4 12/15/4 2/16/4
f 1/17/5 5/18/5 6/19/5 3/20/5
f 10/14/6 8/13/6 3/21/6 6/22/6
f 11/23/7 4/24/7 14/25/7 15/26/7
f 7/12/8 8/11/8 2/27/8 4/28/8
f 9/8/9 7/7/9 4/24/9 11/23/9
f 10/29/10 9/30/10 11/31/10 12/32/10
f 13/33/11 16/34/11 20/35/11 17/36/11
f 4/28/12 2/27/12 13/37/12 14/38/12
f 12/32/13 11/31/13 15/39/13 16/40/13
f 2/16/14 12/15/14 16/34/14 13/33/14
f 19/41/15 18/42/15 22/43/15 23/44/15
f 14/38/16 13/37/16 17/45/16 18/46/16
f 15/26/17 14/25/17 18/42/17 19/41/17
f 16/40/18 15/39/18 19/47/18 20/48/18
f 24/49/19 23/50/19 27/51/19 28/52/19
f 20/48/20 19/47/20 23/50/20 24/49/20
f 17/36/21 20/35/21 24/53/21 21/54/21
f 18/46/22 17/45/22 21/55/22 22/56/22
f 25/57/5 28/58/5 34/59/5 33/60/5
f 21/54/6 24/53/6 28/61/6 25/62/6
f 22/56/3 21/55/3 25/63/3 26/64/3
f 23/44/2 22/43/2 26/65/2 27/66/2
f 30/67/23 29/68/23 37/69/23 38/70/23
f 26/64/24 25/63/24 29/68/24 30/67/24
f 27/66/2 26/65/2 30/71/2 31/72/2
f 28/52/25 27/51/25 31/73/25 32/74/25
f 84/75/26 86/76/26 55/77/26 56/78/26
f 29/68/27 25/63/27 33/79/27 35/80/27
f 28/52/28 32/74/28 36/81/28 34/82/28
f 36/81/29 32/74/29 39/83/29 42/84/29
f 50/85/30 49/86/30 87/87/30 83/88/30
f 29/68/31 35/80/31 41/89/31 37/69/31
f 31/72/32 30/71/32 38/90/32 40/91/32
f 32/74/33 31/73/33 40/92/33 39/83/33
f 46/93/34 44/94/34 89/95/34 90/96/34
f 88/97/19 45/98/19 90/99/19 92/100/19
f 53/101/35 52/102/35 86/103/35 85/104/35
f 54/105/36 53/101/36 85/104/36 48/106/36
f 51/107/37 50/85/37 83/88/37 84/108/37
f 38/70/38 37/69/38 50/85/38 51/107/38
f 42/84/19 39/83/19 53/101/19 54/105/19
f 39/83/39 40/92/39 52/102/39 53/101/39
f 37/69/40 41/89/40 49/86/40 50/85/40
f 40/91/41 38/90/41 51/109/41 52/110/41
f 58/111/42 57/112/42 56/113/42 55/114/42
f 86/103/43 52/102/43 58/115/43 55/116/43
f 77/117/44 76/118/44 62/119/44 61/120/44
f 51/107/45 84/108/45 56/121/45 57/122/45
f 69/123/46 68/124/46 64/125/46 66/126/46
f 81/127/47 80/128/47 59/129/47 60/130/47
f 76/131/48 81/132/48 60/133/48 62/134/48
f 80/135/49 77/136/49 61/137/49 59/138/49
f 64/139/5 63/140/5 65/141/5 66/142/5
f 68/143/50 72/144/50 63/145/50 64/146/50
f 72/147/51 74/148/51 65/149/51 63/150/51
f 74/151/52 69/152/52 66/153/52 65/154/52
f 61/120/53 62/119/53 70/155/53 73/156/53
f 73/156/2 70/155/2 69/152/2 74/151/2
f 59/157/54 61/158/54 73/159/54 71/160/54
f 71/161/3 73/162/3 74/148/3 72/147/3
f 60/130/55 59/129/55 71/163/55 67/164/55
f 67/164/6 71/163/6 72/144/6 68/143/6
f 62/165/56 60/166/56 67/167/56 70/168/56
f 70/169/19 67/170/19 68/124/19 69/123/19
f 51/107/57 57/122/57 78/171/57 79/172/57
f 79/172/58 78/171/58 77/136/58 80/135/58
f 58/115/59 52/102/59 82/173/59 75/174/59
f 75/174/60 82/173/60 81/132/60 76/131/60
f 52/175/61 51/176/61 79/177/61 82/178/61
f 82/178/62 79/177/62 80/128/62 81/127/62
f 57/112/63 58/111/63 75/179/63 78/180/63
f 78/180/64 75/179/64 76/118/64 77/117/64
f 43/181/65 44/182/65 84/75/65 83/183/65
f 46/184/66 45/185/66 85/186/66 86/76/66
f 44/182/67 46/184/67 86/76/67 84/75/67
f 47/187/68 43/181/68 83/183/68 87/188/68
f 45/185/69 88/189/69 48/190/69 85/186/69
f 90/191/70 89/192/70 91/193/70 92/194/70
f 44/195/3 43/196/3 89/197/3
f 43/196/3 47/198/3 91/199/3 89/197/3
f 45/98/71 46/200/71 90/99/71
f 94/201/72 95/202/72 104/203/72
f 101/204/73 100/205/73 109/206/73 110/207/73
f 102/208/74 101/209/74 110/210/74 111/211/74
f 103/212/75 102/208/75 111/211/75 112/213/75
f 104/203/76 103/212/76 112/213/76 113/214/76
f 96/215/5 93/216/5 105/217/5
f 94/201/77 104/203/77 113/214/77
f 98/218/78 97/219/78 106/220/78 107/221/78
f 114/222/5 115/223/5 106/224/5 105/217/5
f 99/225/79 98/218/79 107/221/79 108/226/79
f 100/205/80 99/225/80 108/226/80 109/206/80
f 105/217/5 93/216/5 114/222/5
f 94/201/81 113/214/81 122/227/81
f 107/221/82 106/220/82 115/228/82 116/229/82
f 123/230/5 124/231/5 115/223/5 114/222/5
f 108/226/83 107/221/83 116/229/83 117/232/83
f 109/206/84 108/226/84 117/232/84 118/233/84
f 110/207/85 109/206/85 118/233/85 119/234/85
f 111/211/86 110/210/86 119/235/86 120/236/86
f 112/213/87 111/211/87 120/236/87 121/237/87
f 113/214/88 112/213/88 121/237/88 122/227/88
f 119/238/89 118/239/89 127/240/89 128/241/89
f 120/236/90 119/235/90 128/242/90 129/243/90
f 121/237/91 120/236/91 129/243/91 130/244/91
f 122/227/92 121/237/92 130/244/92 131/245/92
f 114/222/93 93/216/93 123/230/93
f 94/201/94 122/227/94 131/245/94
f 116/246/95 115/247/95 124/248/95 125/249/95
f 132/250/5 133/251/5 124/231/5 123/230/5
f 117/252/96 116/246/96 125/249/96 126/253/96
f 118/239/97 117/252/97 126/253/97 127/240/97
f 123/230/5 93/216/5 132/250/5
f 94/201/98 131/245/98 140/254/98
f 125/249/99 124/248/99 133/255/99 134/256/99
f 141/257/5 142/258/5 133/251/5 132/250/5
f 126/253/100 125/249/100 134/256/100 135/259/100
f 127/240/101 126/253/101 135/259/101 136/260/101
f 128/241/102 127/240/102 136/260/102 137/261/102
f 129/243/103 128/242/103 137/262/103 138/263/103
f 130/244/104 129/243/104 138/263/104 139/264/104
f 131/245/105 130/244/105 139/264/105 140/254/105
f 138/263/106 137/262/106 146/265/106 147/266/106
f 139/264/107 138/263/107 147/266/107 148/267/107
f 140/254/108 139/264/108 148/267/108 149/268/108
f 132/250/5 93/216/5 141/257/5
f 94/201/109 140/254/109 149/268/109
f 134/256/110 133/255/110 142/269/110 143/270/110
f 150/271/5 151/272/5 142/258/5 141/257/5
f 135/259/111 134/256/111 143/270/111 144/273/111
f 136/260/112 135/259/112 144/273/112 145/274/112
f 137/261/113 136/260/113 145/274/113 146/275/113
f 143/270/114 142/269/114 151/276/114 152/277/114
f 316/278/5 159/279/5 151/272/5 150/271/5
f 144/273/115 143/270/115 152/277/115 153/280/115
f 145/274/116 144/273/116 153/280/116 154/281/116
f 146/275/117 145/274/117 154/281/117 155/282/117
f 147/266/118 146/265/118 155/283/118 156/284/118
f 148/267/119 147/266/119 156/284/119 157/285/119
f 149/268/120 148/267/120 157/285/120 158/286/120
f 141/257/121 93/216/121 150/271/121
f 94/201/122 149/268/122 158/286/122
f 156/284/123 155/283/123 163/287/123 164/288/123
f 157/285/124 156/284/124 164/288/124 165/289/124
f 158/286/125 157/285/125 165/289/125 166/290/125
f 150/271/126 93/216/126 316/278/126
f 94/201/127 158/286/127 166/290/127
f 152/291/128 151/292/128 159/293/128 160/294/128
f 167/295/5 168/296/5 159/279/5 316/278/5
f 153/297/129 152/291/129 160/294/129 161/298/129
f 154/299/130 153/297/130 161/298/130 162/300/130
f 155/301/131 154/299/131 162/300/131 163/302/131
f 161/298/132 160/294/132 169/303/132 170/304/132
f 162/300/133 161/298/133 170/304/133 171/305/133
f 163/302/134 162/300/134 171/305/134 172/306/134
f 164/288/135 163/287/135 172/307/135 173/308/135
f 165/289/136 164/288/136 173/308/136 174/309/136
f 166/290/137 165/289/137 174/309/137 175/310/137
f 94/201/138 166/290/138 175/310/138
f 160/294/139 159/293/139 168/311/139 169/303/139
f 96/215/5 97/312/5 255/313/5 254/314/5
f 185/1/1 184/315/1 180/316/1 181/2/1
f 180/317/6 184/318/6 182/319/6 176/320/6
f 176/321/3 182/322/3 183/323/3 178/324/3
f 183/325/9 177/326/9 187/327/9 185/328/9
f 176/329/5 178/330/5 181/331/5 180/332/5
f 185/328/2 181/333/2 178/334/2 183/325/2
f 186/335/14 190/336/14 189/337/14 179/338/14
f 182/322/8 179/339/8 177/340/8 183/323/8
f 184/318/4 186/335/4 179/338/4 182/319/4
f 185/341/10 187/342/10 186/343/10 184/344/10
f 188/345/17 192/346/17 195/347/17 191/348/17
f 179/339/12 189/349/12 188/350/12 177/340/12
f 187/342/13 191/351/13 190/352/13 186/343/13
f 177/326/7 188/345/7 191/348/7 187/327/7
f 194/353/21 198/354/21 197/355/21 193/356/21
f 189/349/16 193/357/16 192/358/16 188/350/16
f 190/336/11 194/353/11 193/356/11 189/337/11
f 191/351/18 195/359/18 194/360/18 190/352/18
f 199/361/19 203/362/19 202/363/19 198/364/19
f 195/359/20 199/361/20 198/364/20 194/360/20
f 192/346/15 196/365/15 199/366/15 195/347/15
f 193/357/22 197/367/22 196/368/22 192/358/22
f 200/369/5 33/60/5 34/59/5 203/370/5
f 196/365/2 200/371/2 203/372/2 199/366/2
f 197/367/3 201/373/3 200/374/3 196/368/3
f 198/354/6 202/375/6 201/376/6 197/355/6
f 205/377/140 209/378/140 208/379/140 204/380/140
f 201/373/141 205/377/141 204/380/141 200/374/141
f 202/375/6 206/381/6 205/382/6 201/376/6
f 203/362/142 207/383/142 206/384/142 202/363/142
f 249/385/143 221/386/143 220/387/143 251/388/143
f 204/380/27 35/80/27 33/79/27 200/374/27
f 203/362/144 34/82/144 36/81/144 207/383/144
f 36/81/145 42/84/145 210/389/145 207/383/145
f 216/390/30 248/391/30 87/87/30 49/86/30
f 204/380/31 208/379/31 41/89/31 35/80/31
f 206/381/146 211/392/146 209/393/146 205/382/146
f 207/383/147 210/389/147 211/394/147 206/384/147
f 215/395/148 253/396/148 252/397/148 213/398/148
f 88/97/19 92/100/19 253/399/19 214/400/19
f 219/401/149 250/402/149 251/403/149 218/404/149
f 54/105/36 48/106/36 250/402/36 219/401/36
f 217/405/150 249/406/150 248/391/150 216/390/150
f 209/378/151 217/405/151 216/390/151 208/379/151
f 42/84/19 54/105/19 219/401/19 210/389/19
f 210/389/152 219/401/152 218/404/152 211/394/152
f 208/379/40 216/390/40 49/86/40 41/89/40
f 211/392/153 218/407/153 217/408/153 209/393/153
f 223/409/154 220/410/154 221/411/154 222/412/154
f 251/403/155 220/413/155 223/414/155 218/404/155
f 242/415/47 226/416/47 227/417/47 241/418/47
f 217/405/156 222/419/156 221/420/156 249/406/156
f 234/421/46 231/422/46 229/423/46 233/424/46
f 246/425/44 225/426/44 224/427/44 245/428/44
f 241/429/48 227/430/48 225/431/48 246/432/48
f 245/433/49 224/434/49 226/435/49 242/436/49
f 229/437/5 231/438/5 230/439/5 228/440/5
f 233/441/52 229/442/52 228/443/52 237/444/52
f 237/445/51 228/446/51 230/447/51 239/448/51
f 239/449/50 230/450/50 231/451/50 234/452/50
f 226/416/55 238/453/55 235/454/55 227/417/55
f 238/453/6 239/449/6 234/452/6 235/454/6
f 224/455/54 236/456/54 238/19/54 226/457/54
f 236/458/3 237/445/3 239/448/3 238/17/3
f 225/426/53 232/459/53 236/460/53 224/427/53
f 232/459/2 233/441/2 237/444/2 236/460/2
f 227/461/56 235/462/56 232/463/56 225/464/56
f 235/465/19 234/421/19 233/424/19 232/466/19
f 217/405/157 244/467/157 243/468/157 222/419/157
f 244/467/58 245/433/58 242/436/58 243/468/58
f 223/414/158 240/469/158 247/470/158 218/404/158
f 240/469/60 241/429/60 246/432/60 247/470/60
f 218/471/63 247/472/63 244/473/63 217/474/63
f 247/472/64 246/425/64 245/428/64 244/473/64
f 222/412/61 243/475/61 240/476/61 223/409/61
f 243/475/62 242/415/62 241/418/62 240/476/62
f 212/477/68 248/478/68 249/385/68 213/479/68
f 215/480/159 251/388/159 250/481/159 214/482/159
f 213/479/160 249/385/160 251/388/160 215/480/160
f 47/187/65 87/188/65 248/478/65 212/477/65
f 214/482/161 250/481/161 48/190/161 88/189/161
f 253/483/70 92/194/70 91/193/70 252/484/70
f 213/485/3 252/486/3 212/487/3
f 212/487/3 252/486/3 91/199/3 47/198/3
f 214/400/162 253/399/162 215/488/162
f 101/204/163 259/489/163 258/490/163 100/205/163
f 102/208/164 260/491/164 259/492/164 101/209/164
f 103/212/165 261/493/165 260/491/165 102/208/165
f 104/203/166 95/202/166 261/493/166 103/212/166
f 96/215/5 254/314/5 93/216/5
f 98/218/167 256/494/167 255/495/167 97/219/167
f 254/314/5 255/313/5 263/496/5 262/497/5
f 99/225/168 257/498/168 256/494/168 98/218/168
f 100/205/169 258/490/169 257/498/169 99/225/169
f 254/314/5 262/497/5 93/216/5
f 94/201/170 270/499/170 95/202/170
f 256/494/171 264/500/171 263/501/171 255/495/171
f 262/497/5 263/496/5 272/502/5 271/503/5
f 257/498/172 265/504/172 264/500/172 256/494/172
f 258/490/173 266/505/173 265/504/173 257/498/173
f 259/489/174 267/506/174 266/505/174 258/490/174
f 260/491/175 268/507/175 267/508/175 259/492/175
f 261/493/176 269/509/176 268/507/176 260/491/176
f 95/202/177 270/499/177 269/509/177 261/493/177
f 267/510/178 276/511/178 275/512/178 266/513/178
f 268/507/179 277/514/179 276/515/179 267/508/179
f 269/509/180 278/516/180 277/514/180 268/507/180
f 270/499/181 279/517/181 278/516/181 269/509/181
f 262/497/5 271/503/5 93/216/5
f 94/201/182 279/517/182 270/499/182
f 264/518/183 273/519/183 272/520/183 263/521/183
f 271/503/5 272/502/5 281/522/5 280/523/5
f 265/524/184 274/525/184 273/519/184 264/518/184
f 266/513/185 275/512/185 274/525/185 265/524/185
f 271/503/5 280/523/5 93/216/5
f 94/201/186 288/526/186 279/517/186
f 273/519/187 282/527/187 281/528/187 272/520/187
f 280/523/5 281/522/5 290/529/5 289/530/5
f 274/525/188 283/531/188 282/527/188 273/519/188
f 275/512/189 284/532/189 283/531/189 274/525/189
f 276/511/190 285/533/190 284/532/190 275/512/190
f 277/514/191 286/534/191 285/535/191 276/515/191
f 278/516/192 287/536/192 286/534/192 277/514/192
f 279/517/193 288/526/193 287/536/193 278/516/193
f 286/534/194 295/537/194 294/538/194 285/535/194
f 287/536/195 296/539/195 295/537/195 286/534/195
f 288/526/196 297/540/196 296/539/196 287/536/196
f 280/523/5 289/530/5 93/216/5
f 94/201/197 297/540/197 288/526/197
f 282/527/198 291/541/198 290/542/198 281/528/198
f 289/530/5 290/529/5 299/543/5 298/544/5
f 283/531/199 292/545/199 291/541/199 282/527/199
f 284/532/200 293/546/200 292/545/200 283/531/200
f 285/533/201 294/547/201 293/546/201 284/532/201
f 291/541/202 300/548/202 299/549/202 290/542/202
f 298/544/5 299/543/5 308/550/5 307/551/5
f 292/545/203 301/552/203 300/548/203 291/541/203
f 293/546/204 302/553/204 301/552/204 292/545/204
f 294/547/205 303/554/205 302/553/205 293/546/205
f 295/537/206 304/555/206 303/556/206 294/538/206
f 296/539/207 305/557/207 304/555/207 295/537/207
f 297/540/208 306/558/208 305/557/208 296/539/208
f 289/530/93 298/544/93 93/216/93
f 94/201/209 306/558/209 297/540/209
f 304/555/210 313/559/210 312/560/210 303/556/210
f 305/557/211 314/561/211 313/559/211 304/555/211
f 105/217/5 106/224/5 97/312/5 96/215/5
f 306/558/212 315/562/212 314/561/212 305/557/212
f 298/544/213 307/551/213 93/216/213
f 94/201/214 315/562/214 306/558/214
f 300/563/215 309/564/215 308/565/215 299/566/215
f 307/551/5 308/550/5 168/296/5 167/295/5
f 301/567/216 310/568/216 309/564/216 300/563/216
f 302/569/217 311/570/217 310/568/217 301/567/217
f 303/571/218 312/572/218 311/570/218 302/569/218
f 310/568/219 170/304/219 169/303/219 309/564/219
f 311/570/220 171/305/220 170/304/220 310/568/220
f 312/572/221 172/306/221 171/305/221 311/570/221
f 313/559/222 173/308/222 172/307/222 312/560/222
f 314/561/223 174/309/223 173/308/223 313/559/223
f 315/562/224 175/310/224 174/309/224 314/561/224
f 307/551/5 167/295/5 93/216/5
f 94/201/225 175/310/225 315/562/225
f 309/564/226 169/303/226 168/311/226 308/565/226
f 167/295/5 316/278/5 93/216/5
