# Blender 5.2.0 LTS
# www.blender.org
mtllib Hendrik1character.mtl
o Plane
v -0.338970 0.000000 1.186062
v -0.438792 3.105648 0.422601
v -0.338970 0.000000 0.508121
v -0.438792 3.105648 1.271583
v 1.509257 0.000000 1.186062
v 1.509257 0.000000 0.508121
v -0.338970 0.510816 1.186062
v -0.338970 0.510816 0.508121
v 0.452334 0.510816 1.186062
v 0.452334 0.510816 0.508121
v 0.552156 3.105648 1.271583
v 0.552156 3.105648 0.422601
v -0.358889 3.914259 0.491056
v -0.358889 3.914259 1.203128
v 0.472253 3.914259 1.203128
v 0.472253 3.914259 0.491056
v -0.557531 5.020482 0.320872
v -0.557531 5.020482 1.373311
v 0.670895 5.020482 1.373311
v 0.670895 5.020482 0.320872
v -0.610759 7.748475 0.275270
v -0.610759 7.748475 1.418914
v 0.724123 7.748475 1.418914
v 0.724123 7.748475 0.275270
v -0.610759 7.982979 0.275270
v -0.610759 8.358076 1.418914
v 0.724123 8.358076 1.418914
v 0.724123 7.982979 0.275270
v -0.761717 8.937742 0.741433
v -0.560202 8.937742 1.418914
v 0.634569 8.937742 1.418914
v 0.724123 8.937742 0.741433
v -0.610759 7.982979 0.000000
v 0.724123 7.982979 0.000000
v -0.761717 8.937742 0.000000
v 0.836705 8.937742 0.000000
v -1.034292 10.668324 0.741433
v -0.560202 10.668324 1.643821
v 0.947543 10.668324 0.741433
v 0.634569 10.668324 1.643821
v -1.034292 10.668324 0.000000
v 0.947543 10.668324 0.000000
v -0.488573 13.114332 0.492016
v -0.488573 13.114332 1.003794
v 0.440319 13.114332 0.484149
v 0.385265 13.114332 1.003794
v -0.488573 13.114332 0.000000
v 0.715865 12.976742 0.000000
v -0.979884 11.891328 0.000000
v -0.979884 11.891328 0.741433
v -0.788998 11.891328 1.788817
v 0.647048 11.891328 1.788817
v 0.947543 11.891328 0.741433
v 0.947543 11.891328 0.000000
v 0.524270 12.734504 2.437989
v -0.491545 12.734504 2.437989
v -0.516423 11.891328 2.586133
v 0.533236 11.891328 2.586133
v -0.346718 7.579962 1.917724
v 0.363532 7.579962 1.917724
v -0.346718 7.579962 2.457227
v 0.363532 7.579962 2.457227
v -0.475881 6.369352 1.819613
v 0.492694 6.369352 1.819613
v -0.475881 6.369352 2.555338
v 0.492694 6.369352 2.555338
v 0.616672 7.348203 1.725440
v 0.616672 6.601110 1.725440
v 0.616672 6.601111 2.649511
v 0.616672 7.348203 2.649511
v -0.599859 7.348203 1.725440
v -0.599859 6.601110 1.725440
v -0.599859 7.348203 2.649511
v -0.599859 6.601110 2.649511
v 0.476668 9.967710 2.543164
v 0.496362 9.359910 2.558124
v -0.479549 9.359910 2.558124
v -0.459855 9.967710 2.543164
v -0.459855 9.967710 1.831786
v -0.479549 9.359910 1.816827
v 0.496362 9.359910 1.816827
v 0.476668 9.967710 1.831786
v -0.764119 12.976742 0.741433
v -0.764119 12.976742 1.643821
v 0.715865 12.976742 0.741433
v 0.638082 12.976742 1.643821
v -0.764119 12.976742 0.000000
v 0.440319 13.114332 0.000000
v -0.488573 13.929880 0.453892
v 0.440319 13.929880 0.446635
v -0.488573 13.929880 0.000000
v 0.440319 13.929880 0.000000
v -0.000000 16.989347 0.000000
v -0.000000 13.232898 0.000000
v 0.351315 13.270350 -0.145519
v 0.380261 16.989347 0.000000
v 1.949152 16.989347 0.000000
v 1.911700 14.801789 0.000000
v 1.800782 14.436141 0.000000
v 1.620661 14.099158 0.000000
v 1.378259 13.803791 0.000000
v 1.082891 13.561389 0.000000
v 0.745908 13.381268 0.000000
v 0.380261 13.270350 0.000000
v 0.351315 16.989347 0.145519
v 1.800782 16.989347 0.745909
v 1.766180 14.801789 0.731576
v 1.663705 14.436141 0.689130
v 1.497295 14.099158 0.620200
v 1.273345 13.803791 0.527437
v 1.000461 13.561389 0.414405
v 0.689129 13.381268 0.285447
v 0.351315 13.270350 0.145519
v 0.268885 16.989347 0.268885
v 1.378258 16.989347 1.378259
v 1.351776 14.801789 1.351776
v 1.273345 14.436141 1.273345
v 1.145980 14.099158 1.145980
v 0.974576 13.803791 0.974576
v 0.765719 13.561389 0.765720
v 0.527437 13.381268 0.527437
v 0.268885 13.270350 0.268885
v 0.145519 16.989347 0.351315
v 0.745908 16.989347 1.800782
v 0.731575 14.801789 1.766181
v 0.689129 14.436141 1.663706
v 0.620200 14.099158 1.497295
v 0.527436 13.803791 1.273345
v 0.414404 13.561389 1.000461
v 0.285447 13.381268 0.689130
v 0.145519 13.270350 0.351315
v -0.000000 16.989347 0.380261
v -0.000001 16.989347 1.949152
v -0.000001 14.801789 1.911700
v -0.000000 14.436141 1.800782
v -0.000000 14.099158 1.620661
v -0.000000 13.803791 1.378259
v -0.000000 13.561389 1.082891
v -0.000000 13.381268 0.745908
v -0.000000 13.270350 0.380261
v -0.145520 16.989347 0.351315
v -0.745909 16.989347 1.800782
v -0.731576 14.801789 1.766180
v -0.689130 14.436141 1.663705
v -0.620200 14.099158 1.497295
v -0.527437 13.803791 1.273345
v -0.414405 13.561389 1.000461
v -0.285447 13.381268 0.689129
v -0.145520 13.270350 0.351315
v -0.268885 16.989347 0.268885
v -1.378259 16.989347 1.378258
v -1.351776 14.801789 1.351775
v -1.273345 14.436141 1.273345
v -1.145980 14.099158 1.145980
v -0.974576 13.803791 0.974576
v -0.765720 13.561389 0.765719
v -0.527437 13.381268 0.527437
v -0.268885 13.270350 0.268885
v -1.800782 16.989347 0.745907
v -1.766180 14.801789 0.731575
v -1.663706 14.436141 0.689129
v -1.497295 14.099158 0.620199
v -1.273345 13.803791 0.527436
v -1.000461 13.561389 0.414404
v -0.689130 13.381268 0.285447
v -0.351315 13.270350 0.145519
v -0.380261 16.989347 0.000000
v -1.949152 16.989347 0.000000
v -1.911700 14.801789 0.000000
v -1.800782 14.436141 0.000000
v -1.620661 14.099158 0.000000
v -1.378258 13.803791 0.000000
v -1.082891 13.561389 0.000000
v -0.745908 13.381268 0.000000
v -0.380261 13.270350 0.000000
v -0.338970 0.000000 -1.186062
v -0.438792 3.105648 -0.422601
v -0.338970 0.000000 -0.508121
v -0.438792 3.105648 -1.271583
v 1.509257 0.000000 -1.186062
v 1.509257 0.000000 -0.508121
v -0.338970 0.510816 -1.186062
v -0.338970 0.510816 -0.508121
v 0.452334 0.510816 -1.186062
v 0.452334 0.510816 -0.508121
v 0.552156 3.105648 -1.271583
v 0.552156 3.105648 -0.422601
v -0.358889 3.914259 -0.491056
v -0.358889 3.914259 -1.203128
v 0.472253 3.914259 -1.203128
v 0.472253 3.914259 -0.491056
v -0.557531 5.020482 -0.320872
v -0.557531 5.020482 -1.373311
v 0.670895 5.020482 -1.373311
v 0.670895 5.020482 -0.320872
v -0.610759 7.748475 -0.275270
v -0.610759 7.748475 -1.418914
v 0.724123 7.748475 -1.418914
v 0.724123 7.748475 -0.275270
v -0.610759 7.982979 -0.275270
v -0.610759 8.358076 -1.418914
v 0.724123 8.358076 -1.418914
v 0.724123 7.982979 -0.275270
v -0.761717 8.937742 -0.741433
v -0.560202 8.937742 -1.418914
v 0.634569 8.937742 -1.418914
v 0.724123 8.937742 -0.741433
v -1.034292 10.668324 -0.741433
v -0.560202 10.668324 -1.643821
v 0.947543 10.668324 -0.741433
v 0.634569 10.668324 -1.643821
v -0.488573 13.114332 -0.492016
v -0.488573 13.114332 -1.003794
v 0.440319 13.114332 -0.484149
v 0.385265 13.114332 -1.003794
v -0.979884 11.891328 -0.741433
v -0.788998 11.891328 -1.788817
v 0.647048 11.891328 -1.788817
v 0.947543 11.891328 -0.741433
v 0.524270 12.734504 -2.437989
v -0.491545 12.734504 -2.437989
v -0.516423 11.891328 -2.586133
v 0.533236 11.891328 -2.586133
v -0.346718 7.579962 -1.917724
v 0.363532 7.579962 -1.917724
v -0.346718 7.579962 -2.457227
v 0.363532 7.579962 -2.457227
v -0.475881 6.369352 -1.819613
v 0.492694 6.369352 -1.819613
v -0.475881 6.369352 -2.555338
v 0.492694 6.369352 -2.555338
v 0.616672 7.348203 -1.725440
v 0.616672 6.601110 -1.725440
v 0.616672 6.601111 -2.649511
v 0.616672 7.348203 -2.649511
v -0.599859 7.348203 -1.725440
v -0.599859 6.601110 -1.725440
v -0.599859 7.348203 -2.649511
v -0.599859 6.601110 -2.649511
v 0.476668 9.967710 -2.543164
v 0.496362 9.359910 -2.558124
v -0.479549 9.359910 -2.558124
v -0.459855 9.967710 -2.543164
v -0.459855 9.967710 -1.831786
v -0.479549 9.359910 -1.816827
v 0.496362 9.359910 -1.816827
v 0.476668 9.967710 -1.831786
v -0.764119 12.976742 -0.741433
v -0.764119 12.976742 -1.643821
v 0.715865 12.976742 -0.741433
v 0.638082 12.976742 -1.643821
v -0.488573 13.929880 -0.453892
v 0.440319 13.929880 -0.446635
v 0.351315 16.989347 -0.145519
v 1.800782 16.989347 -0.745909
v 1.766180 14.801789 -0.731576
v 1.663705 14.436141 -0.689130
v 1.497295 14.099158 -0.620200
v 1.273345 13.803791 -0.527437
v 1.000461 13.561389 -0.414405
v 0.689129 13.381268 -0.285447
v 0.268885 16.989347 -0.268885
v 1.378258 16.989347 -1.378259
v 1.351776 14.801789 -1.351776
v 1.273345 14.436141 -1.273345
v 1.145980 14.099158 -1.145980
v 0.974576 13.803791 -0.974576
v 0.765719 13.561389 -0.765720
v 0.527437 13.381268 -0.527437
v 0.268885 13.270350 -0.268885
v 0.145519 16.989347 -0.351315
v 0.745908 16.989347 -1.800782
v 0.731575 14.801789 -1.766181
v 0.689129 14.436141 -1.663706
v 0.620200 14.099158 -1.497295
v 0.527436 13.803791 -1.273345
v 0.414404 13.561389 -1.000461
v 0.285447 13.381268 -0.689130
v 0.145519 13.270350 -0.351315
v -0.000000 16.989347 -0.380261
v -0.000001 16.989347 -1.949152
v -0.000001 14.801789 -1.911700
v -0.000000 14.436141 -1.800782
v -0.000000 14.099158 -1.620661
v -0.000000 13.803791 -1.378259
v -0.000000 13.561389 -1.082891
v -0.000000 13.381268 -0.745908
v -0.000000 13.270350 -0.380261
v -0.145520 16.989347 -0.351315
v -0.745909 16.989347 -1.800782
v -0.731576 14.801789 -1.766180
v -0.689130 14.436141 -1.663705
v -0.620200 14.099158 -1.497295
v -0.527437 13.803791 -1.273345
v -0.414405 13.561389 -1.000461
v -0.285447 13.381268 -0.689129
v -0.145520 13.270350 -0.351315
v -0.268885 16.989347 -0.268885
v -1.378259 16.989347 -1.378258
v -1.351776 14.801789 -1.351775
v -1.273345 14.436141 -1.273345
v -1.145980 14.099158 -1.145980
v -0.974576 13.803791 -0.974576
v -0.765720 13.561389 -0.765719
v -0.527437 13.381268 -0.527437
v -0.268885 13.270350 -0.268885
v -0.351315 16.989347 -0.145519
v -1.800782 16.989347 -0.745907
v -1.766180 14.801789 -0.731575
v -1.663706 14.436141 -0.689129
v -1.497295 14.099158 -0.620199
v -1.273345 13.803791 -0.527436
v -1.000461 13.561389 -0.414404
v -0.689130 13.381268 -0.285447
v -0.351315 13.270350 -0.145519
v -0.351315 16.989347 0.145519
vn -0.4351 -0.9004 -0.0000
vn -0.0000 -0.0000 -1.0000
vn 1.0000 -0.0000 -0.0000
vn -0.0000 0.0329 0.9995
vn -0.0000 1.0000 -0.0000
vn -0.0000 -0.0000 1.0000
vn -0.0000 -0.0844 -0.9964
vn 0.9993 0.0384 -0.0000
vn -0.0000 0.0329 -0.9995
vn -0.9993 0.0384 -0.0000
vn -0.0000 0.1521 0.9884
vn 0.9952 -0.0983 -0.0000
vn -0.9952 -0.0983 -0.0000
vn -0.0000 -0.0844 0.9964
vn -0.0000 0.0167 -0.9999
vn 0.9843 0.1767 -0.0000
vn -0.0000 0.1521 -0.9884
vn -0.9843 0.1767 -0.0000
vn -1.0000 -0.0000 -0.0000
vn -0.9998 0.0195 -0.0000
vn -0.0000 0.0167 0.9999
vn 0.9998 0.0195 -0.0000
vn 0.9151 0.0975 -0.3913
vn 0.9860 0.1042 -0.1306
vn -0.9981 -0.0462 -0.0396
vn -0.0000 -0.9565 -0.2918
vn 0.9877 0.1562 -0.0000
vn -0.9903 0.0852 -0.1097
vn -0.9925 0.0959 -0.0754
vn 0.9808 -0.1950 -0.0000
vn 0.9878 0.1556 -0.0000
vn -0.0000 0.1289 -0.9917
vn -0.9661 0.0784 -0.2461
vn -0.0033 -0.5615 -0.8275
vn -0.9745 -0.1207 -0.1891
vn -0.9780 -0.2087 -0.0000
vn 0.9885 -0.1160 -0.0968
vn 0.9429 0.0863 -0.3216
vn -0.9537 0.0227 -0.3001
vn 0.9990 -0.0444 -0.0000
vn -0.0000 0.1177 -0.9930
vn -0.0000 -0.1730 -0.9849
vn -0.9888 -0.0314 -0.1462
vn -0.0000 0.0566 -0.9984
vn 0.9398 -0.0749 -0.3333
vn -0.8818 0.4717 -0.0000
vn -0.0000 0.0566 0.9984
vn -0.9972 0.0744 -0.0000
vn 0.9972 0.0744 -0.0000
vn -0.0000 0.3764 0.9264
vn 0.8818 0.4717 -0.0000
vn -0.0000 0.3765 -0.9264
vn -0.0000 -0.6385 -0.7696
vn 0.6753 -0.7376 -0.0000
vn -0.0000 -0.6385 0.7696
vn -0.6753 -0.7376 -0.0000
vn 0.9793 0.0982 -0.1769
vn 0.9995 -0.0324 -0.0000
vn -0.9954 0.0587 -0.0751
vn -0.9995 -0.0324 -0.0000
vn -0.0000 0.0223 0.9998
vn -0.0000 -0.0246 0.9997
vn -0.0000 0.0223 -0.9998
vn -0.0000 -0.0246 -0.9997
vn 0.4467 -0.8947 -0.0000
vn -0.4097 -0.9114 -0.0383
vn -0.0000 -0.9777 -0.2102
vn -0.4467 -0.8947 -0.0000
vn -0.0000 -1.0000 -0.0000
vn -0.9944 -0.0048 -0.1054
vn 0.0980 -0.9950 -0.0195
vn 0.7640 -0.6270 0.1520
vn 0.6294 -0.7669 0.1252
vn 0.4693 -0.8781 0.0934
vn 0.2898 -0.9553 0.0576
vn 0.0980 -0.9950 0.0195
vn 0.9806 -0.0168 0.1951
vn 0.9401 -0.2852 0.1870
vn 0.8687 -0.4643 0.1728
vn 0.0831 -0.9950 0.0555
vn 0.8314 -0.0168 0.5555
vn 0.7969 -0.2852 0.5325
vn 0.7364 -0.4643 0.4921
vn 0.6477 -0.6270 0.4328
vn 0.5336 -0.7669 0.3565
vn 0.3979 -0.8781 0.2659
vn 0.2457 -0.9553 0.1642
vn 0.4328 -0.6270 0.6477
vn 0.3565 -0.7669 0.5336
vn 0.2659 -0.8781 0.3979
vn 0.1642 -0.9553 0.2457
vn 0.0555 -0.9950 0.0831
vn 0.5555 -0.0168 0.8314
vn 0.5325 -0.2852 0.7969
vn 0.4921 -0.4643 0.7364
vn 0.0195 -0.9950 0.0980
vn 0.1951 -0.0168 0.9806
vn 0.1870 -0.2852 0.9401
vn 0.1728 -0.4643 0.8687
vn 0.1520 -0.6270 0.7640
vn 0.1252 -0.7669 0.6294
vn 0.0934 -0.8781 0.4693
vn 0.0576 -0.9553 0.2898
vn -0.1252 -0.7669 0.6294
vn -0.0934 -0.8781 0.4693
vn -0.0576 -0.9553 0.2898
vn -0.0195 -0.9950 0.0980
vn -0.1951 -0.0168 0.9806
vn -0.1870 -0.2852 0.9401
vn -0.1728 -0.4643 0.8687
vn -0.1520 -0.6270 0.7640
vn -0.5555 -0.0168 0.8314
vn -0.5325 -0.2852 0.7969
vn -0.4921 -0.4643 0.7364
vn -0.4328 -0.6270 0.6477
vn -0.3565 -0.7669 0.5336
vn -0.2659 -0.8781 0.3979
vn -0.1642 -0.9553 0.2457
vn -0.0555 -0.9950 0.0831
vn -0.5336 -0.7669 0.3565
vn -0.3979 -0.8781 0.2659
vn -0.2457 -0.9553 0.1642
vn -0.0831 -0.9950 0.0555
vn -0.8314 -0.0168 0.5555
vn -0.7969 -0.2852 0.5325
vn -0.7364 -0.4643 0.4921
vn -0.6477 -0.6270 0.4328
vn -0.9401 -0.2852 0.1870
vn -0.8687 -0.4643 0.1728
vn -0.7640 -0.6270 0.1520
vn -0.6294 -0.7669 0.1252
vn -0.4693 -0.8781 0.0934
vn -0.2898 -0.9553 0.0576
vn -0.0980 -0.9950 0.0195
vn -0.9806 -0.0168 0.1951
vn 0.9151 0.0975 0.3913
vn 0.9860 0.1042 0.1306
vn -0.9981 -0.0462 0.0396
vn -0.0000 -0.9565 0.2918
vn -0.9903 0.0852 0.1097
vn -0.9925 0.0959 0.0754
vn -0.0000 0.1289 0.9917
vn -0.9661 0.0784 0.2461
vn -0.0033 -0.5615 0.8275
vn -0.9745 -0.1207 0.1891
vn 0.9885 -0.1160 0.0968
vn 0.9429 0.0863 0.3216
vn -0.9537 0.0227 0.3001
vn -0.0000 0.1177 0.9930
vn -0.0000 -0.1730 0.9849
vn -0.9888 -0.0314 0.1462
vn 0.9398 -0.0749 0.3333
vn -0.0000 0.3764 -0.9264
vn -0.0000 0.3765 0.9264
vn 0.9793 0.0982 0.1769
vn -0.9954 0.0587 0.0751
vn -0.4097 -0.9114 0.0383
vn -0.0000 -0.9777 0.2102
vn -0.9944 -0.0048 0.1054
vn 0.7640 -0.6270 -0.1520
vn 0.6294 -0.7669 -0.1252
vn 0.4693 -0.8781 -0.0934
vn 0.2898 -0.9553 -0.0576
vn 0.9806 -0.0168 -0.1951
vn 0.9401 -0.2852 -0.1870
vn 0.8687 -0.4643 -0.1728
vn 0.0831 -0.9950 -0.0555
vn 0.8314 -0.0168 -0.5555
vn 0.7969 -0.2852 -0.5325
vn 0.7364 -0.4643 -0.4921
vn 0.6477 -0.6270 -0.4328
vn 0.5336 -0.7669 -0.3565
vn 0.3979 -0.8781 -0.2659
vn 0.2457 -0.9553 -0.1642
vn 0.4328 -0.6270 -0.6477
vn 0.3565 -0.7669 -0.5336
vn 0.2659 -0.8781 -0.3979
vn 0.1642 -0.9553 -0.2457
vn 0.0555 -0.9950 -0.0831
vn 0.5555 -0.0168 -0.8314
vn 0.5325 -0.2852 -0.7969
vn 0.4921 -0.4643 -0.7364
vn 0.0195 -0.9950 -0.0980
vn 0.1951 -0.0168 -0.9806
vn 0.1870 -0.2852 -0.9401
vn 0.1728 -0.4643 -0.8687
vn 0.1520 -0.6270 -0.7640
vn 0.1252 -0.7669 -0.6294
vn 0.0934 -0.8781 -0.4693
vn 0.0576 -0.9553 -0.2898
vn -0.1252 -0.7669 -0.6294
vn -0.0934 -0.8781 -0.4693
vn -0.0576 -0.9553 -0.2898
vn -0.0195 -0.9950 -0.0980
vn -0.1951 -0.0168 -0.9806
vn -0.1870 -0.2852 -0.9401
vn -0.1728 -0.4643 -0.8687
vn -0.1520 -0.6270 -0.7640
vn -0.5555 -0.0168 -0.8314
vn -0.5325 -0.2852 -0.7969
vn -0.4921 -0.4643 -0.7364
vn -0.4328 -0.6270 -0.6477
vn -0.3565 -0.7669 -0.5336
vn -0.2659 -0.8781 -0.3979
vn -0.1642 -0.9553 -0.2457
vn -0.0555 -0.9950 -0.0831
vn -0.5336 -0.7669 -0.3565
vn -0.3979 -0.8781 -0.2659
vn -0.2457 -0.9553 -0.1642
vn -0.0831 -0.9950 -0.0555
vn -0.8314 -0.0168 -0.5555
vn -0.7969 -0.2852 -0.5325
vn -0.7364 -0.4643 -0.4921
vn -0.6477 -0.6270 -0.4328
vn -0.9401 -0.2852 -0.1870
vn -0.8687 -0.4643 -0.1728
vn -0.7640 -0.6270 -0.1520
vn -0.6294 -0.7669 -0.1252
vn -0.4693 -0.8781 -0.0934
vn -0.2898 -0.9553 -0.0576
vn -0.0980 -0.9950 -0.0195
vn -0.9806 -0.0168 -0.1951
vt 0.043313 0.138853
vt 0.043313 0.082028
vt 0.007093 0.082028
vt 0.007093 0.138853
vt 0.658432 0.363433
vt 0.559778 0.367730
vt 0.560966 0.394994
vt 0.603204 0.393155
vt 0.208633 0.309641
vt 0.172412 0.309641
vt 0.172412 0.336932
vt 0.208633 0.336932
vt 0.854551 0.603783
vt 0.812313 0.601944
vt 0.800955 0.740154
vt 0.853849 0.742458
vt 0.233433 0.210894
vt 0.233433 0.309641
vt 0.269654 0.309641
vt 0.269654 0.210894
vt 0.855738 0.576519
vt 0.757085 0.572222
vt 0.614562 0.531365
vt 0.561668 0.533669
vt 0.567814 0.576684
vt 0.612178 0.574752
vt 0.167843 0.475599
vt 0.213202 0.475599
vt 0.433064 0.435699
vt 0.448349 0.435699
vt 0.450278 0.377212
vt 0.431135 0.377212
vt 0.847702 0.785473
vt 0.803338 0.783541
vt 0.790168 0.842017
vt 0.855738 0.844873
vt 0.171500 0.518774
vt 0.209545 0.518774
vt 0.357327 0.518986
vt 0.395371 0.518986
vt 0.625348 0.633228
vt 0.559778 0.636084
vt 0.563278 0.781783
vt 0.634530 0.778679
vt 0.162408 0.577942
vt 0.218637 0.577942
vt 0.348234 0.578002
vt 0.404464 0.578002
vt 0.406900 0.723725
vt 0.345798 0.723725
vt 0.345798 0.756294
vt 0.406900 0.736254
vt 0.780987 0.987468
vt 0.852239 0.990572
vt 0.159971 0.723708
vt 0.221074 0.723708
vt 0.899652 0.171597
vt 0.899652 0.242917
vt 0.914360 0.242917
vt 0.914360 0.171597
vt 0.780441 0.999985
vt 0.851694 1.003088
vt 0.159971 0.736236
vt 0.221074 0.756277
vt 0.564695 0.814319
vt 0.635947 0.811216
vt 0.221074 0.787230
vt 0.184877 0.787297
vt 0.184877 0.879846
vt 0.233090 0.879689
vt 0.568741 0.845141
vt 0.632515 0.842363
vt 0.345798 0.787302
vt 0.381994 0.787263
vt 0.154367 0.091559
vt 0.229277 0.091559
vt 0.223369 0.049128
vt 0.169100 0.049128
vt 0.145264 0.736236
vt 0.145264 0.787297
vt 0.421607 0.787215
vt 0.421607 0.736254
vt 0.381994 0.879626
vt 0.421607 0.879626
vt 0.184877 0.945169
vt 0.145264 0.945169
vt 0.145264 1.003088
vt 0.184877 1.003088
vt 0.145264 0.879846
vt 0.572758 0.937369
vt 0.636532 0.934592
vt 0.333781 0.879760
vt 0.855738 0.196230
vt 0.855738 0.242917
vt 0.899648 0.242917
vt 0.899652 0.193288
vt 0.531283 0.283531
vt 0.531283 0.257664
vt 0.487711 0.259668
vt 0.487711 0.283531
vt 0.381994 0.944966
vt 0.326035 0.945094
vt 0.333781 1.003088
vt 0.381994 1.003055
vt 0.421607 0.944966
vt 0.421607 1.003055
vt 0.240837 0.945106
vt 0.233090 1.003088
vt 0.563385 1.003088
vt 0.640037 0.999749
vt 0.993002 0.787756
vt 0.936921 0.787756
vt 0.938250 0.832894
vt 0.992523 0.832894
vt 0.283436 0.945143
vt 0.291351 0.990195
vt 0.938891 0.652534
vt 0.991032 0.652534
vt 0.983935 0.557505
vt 0.945988 0.557505
vt 0.275521 0.990055
vt 0.283436 0.945015
vt 0.487711 0.137648
vt 0.537082 0.137648
vt 0.532051 0.125319
vt 0.492743 0.125319
vt 0.863789 0.697672
vt 0.915930 0.697672
vt 0.908833 0.602642
vt 0.870886 0.602642
vt 0.284932 0.809915
vt 0.324538 0.809915
vt 0.319147 0.714876
vt 0.290323 0.714876
vt 0.242333 0.809758
vt 0.281939 0.809758
vt 0.276548 0.714617
vt 0.247724 0.714617
vt 0.118843 0.138853
vt 0.118843 0.087104
vt 0.079534 0.087104
vt 0.079534 0.138853
vt 0.857361 0.550229
vt 0.922358 0.550229
vt 0.915734 0.537906
vt 0.863985 0.537906
vt 0.487711 0.189985
vt 0.537082 0.189985
vt 0.532051 0.177562
vt 0.492743 0.177562
vt 0.932463 0.505091
vt 0.997460 0.505091
vt 0.990836 0.492768
vt 0.939087 0.492768
vt 0.997460 0.545004
vt 0.932463 0.545004
vt 0.544643 0.277517
vt 0.544643 0.248692
vt 0.531283 0.238419
vt 0.531283 0.287790
vt 0.487711 0.229900
vt 0.537082 0.229900
vt 0.922358 0.590142
vt 0.857361 0.590142
vt 0.531283 0.298063
vt 0.531283 0.326888
vt 0.544970 0.337161
vt 0.544970 0.287790
vt 0.487711 0.177562
vt 0.537082 0.177562
vt 0.281140 0.842224
vt 0.243132 0.842224
vt 0.323739 0.842396
vt 0.285731 0.842396
vt 0.855738 0.832894
vt 0.932463 0.832894
vt 0.914878 0.730152
vt 0.864841 0.730152
vt 0.989980 0.685015
vt 0.939943 0.685015
vt 0.168990 0.153097
vt 0.168990 0.125754
vt 0.154367 0.139772
vt 0.215674 0.125754
vt 0.218615 0.153518
vt 0.233433 0.139772
vt 0.168990 0.179385
vt 0.154367 0.179385
vt 0.218615 0.179385
vt 0.233433 0.179385
vt 0.707441 0.107801
vt 0.707053 0.157426
vt 0.731304 0.157426
vt 0.731304 0.107801
vt 0.750625 0.363433
vt 0.750625 0.336090
vt 0.707053 0.334053
vt 0.750625 0.309803
vt 0.707053 0.309803
vt 0.531260 0.229900
vt 0.828906 0.069055
vt 0.812041 0.057773
vt 0.809007 0.065097
vt 0.929376 0.857133
vt 0.929376 0.868361
vt 0.953073 0.868390
vt 0.949529 0.857158
vt 0.772394 0.057814
vt 0.757086 0.054768
vt 0.757085 0.083500
vt 0.772393 0.080388
vt 0.789925 0.061301
vt 0.789925 0.076851
vt 0.809007 0.073024
vt 0.405500 0.238987
vt 0.385573 0.235023
vt 0.402466 0.246310
vt 0.929376 0.895138
vt 0.929376 0.978713
vt 0.957876 0.978749
vt 0.957329 0.895173
vt 0.396861 0.251916
vt 0.443430 0.321611
vt 0.472162 0.292880
vt 0.929376 0.881194
vt 0.955707 0.881226
vt 0.812040 0.080348
vt 0.982038 0.978849
vt 0.981026 0.895271
vt 0.389537 0.254949
vt 0.405890 0.337161
vt 0.978030 0.881319
vt 0.973163 0.868474
vt 0.966614 0.857229
vt 0.768078 0.110045
vt 0.781030 0.101244
vt 0.795875 0.091217
vt 0.581346 0.192645
vt 0.572188 0.208531
vt 0.600280 0.208748
vt 0.605236 0.192830
vt 0.788392 0.130361
vt 0.796991 0.117207
vt 0.806868 0.102212
vt 0.817645 0.085953
vt 0.561193 0.246196
vt 0.559778 0.363081
vt 0.593563 0.363342
vt 0.594329 0.246452
vt 0.381610 0.254949
vt 0.365257 0.337161
vt 0.565384 0.226613
vt 0.596597 0.226854
vt 0.824968 0.088987
vt 0.633416 0.363433
vt 0.633416 0.246542
vt 0.374286 0.251916
vt 0.327717 0.321612
vt 0.633416 0.226939
vt 0.633416 0.208824
vt 0.633416 0.192895
vt 0.814935 0.141356
vt 0.817845 0.125845
vt 0.821233 0.108162
vt 0.843664 0.141356
vt 0.840418 0.125845
vt 0.836781 0.108162
vt 0.832894 0.088987
vt 0.673268 0.363342
vt 0.672502 0.246452
vt 0.368681 0.246310
vt 0.298985 0.292880
vt 0.670234 0.226854
vt 0.666552 0.208748
vt 0.661595 0.192830
vt 0.707053 0.363081
vt 0.705638 0.246196
vt 0.365647 0.238987
vt 0.283435 0.255340
vt 0.701448 0.226613
vt 0.694643 0.208531
vt 0.685485 0.192645
vt 0.870207 0.130361
vt 0.861273 0.117207
vt 0.851146 0.102212
vt 0.840217 0.085953
vt 0.890522 0.110045
vt 0.877234 0.101244
vt 0.862141 0.091217
vt 0.845822 0.080348
vt 0.561193 0.075518
vt 0.559778 0.192402
vt 0.593563 0.192582
vt 0.594329 0.075695
vt 0.365647 0.231060
vt 0.283435 0.214707
vt 0.565384 0.055949
vt 0.596597 0.056116
vt 0.572188 0.037891
vt 0.600280 0.038041
vt 0.581346 0.022038
vt 0.605236 0.022165
vt 0.633416 0.075757
vt 0.633416 0.056174
vt 0.633416 0.038094
vt 0.633416 0.022210
vt 0.901518 0.083500
vt 0.885873 0.080388
vt 0.868091 0.076851
vt 0.848856 0.073024
vt 0.633416 0.192645
vt 0.487711 0.255340
vt 0.487711 0.214707
vt 0.405500 0.231060
vt 0.079534 0.138853
vt 0.079534 0.082028
vt 0.658432 0.363433
vt 0.713660 0.393155
vt 0.755897 0.394994
vt 0.757085 0.367730
vt 0.081896 0.309641
vt 0.081896 0.336932
vt 0.118116 0.336932
vt 0.118116 0.309641
vt 0.758272 0.172917
vt 0.758974 0.311592
vt 0.811868 0.309289
vt 0.800510 0.171078
vt 0.743274 0.157426
vt 0.707053 0.157426
vt 0.707053 0.256172
vt 0.743274 0.256172
vt 0.855738 0.141356
vt 0.757085 0.145653
vt 0.702302 0.531365
vt 0.704685 0.574752
vt 0.749049 0.576684
vt 0.755196 0.533669
vt 0.077326 0.475599
vt 0.122685 0.475599
vt 0.410150 0.435699
vt 0.412078 0.377212
vt 0.392936 0.377212
vt 0.394864 0.435699
vt 0.765121 0.354607
vt 0.757085 0.414007
vt 0.822655 0.411151
vt 0.809485 0.352675
vt 0.080984 0.518774
vt 0.119028 0.518774
vt 0.447843 0.518986
vt 0.485887 0.518986
vt 0.691515 0.633228
vt 0.682333 0.778679
vt 0.753586 0.781783
vt 0.757085 0.636084
vt 0.071891 0.577942
vt 0.128121 0.577942
vt 0.438751 0.578002
vt 0.494980 0.578002
vt 0.436314 0.723725
vt 0.436314 0.736254
vt 0.497417 0.756294
vt 0.497417 0.723725
vt 0.760584 0.559706
vt 0.831837 0.556602
vt 0.069455 0.723708
vt 0.130557 0.723708
vt 0.929067 0.171597
vt 0.929067 0.242917
vt 0.761130 0.572222
vt 0.832382 0.569119
vt 0.069455 0.756277
vt 0.130557 0.736236
vt 0.680916 0.811216
vt 0.752168 0.814319
vt 0.069455 0.787230
vt 0.057438 0.879689
vt 0.105651 0.879846
vt 0.105651 0.787297
vt 0.684349 0.842363
vt 0.748122 0.845141
vt 0.461220 0.787263
vt 0.497417 0.787302
vt 0.154367 0.267211
vt 0.169100 0.309641
vt 0.223369 0.309641
vt 0.229277 0.267211
vt 0.461220 0.879626
vt 0.105651 0.945169
vt 0.105651 1.003088
vt 0.680332 0.934592
vt 0.744105 0.937369
vt 0.509433 0.879760
vt 0.855738 0.190347
vt 0.899652 0.193288
vt 0.899648 0.143660
vt 0.855738 0.143660
vt 0.487711 0.307393
vt 0.531283 0.309398
vt 0.461220 0.944966
vt 0.461220 1.003055
vt 0.509433 1.003088
vt 0.517180 0.945094
vt 0.049691 0.945106
vt 0.057438 1.003088
vt 0.676826 0.999749
vt 0.753479 1.003088
vt 0.936921 0.447630
vt 0.937400 0.492768
vt 0.991673 0.492768
vt 0.993002 0.447630
vt 0.551864 0.990195
vt 0.559778 0.945143
vt 0.991032 0.312409
vt 0.983935 0.217378
vt 0.945988 0.217378
vt 0.938891 0.312409
vt 0.007093 0.945016
vt 0.015008 0.990055
vt 0.282804 0.118642
vt 0.277772 0.106313
vt 0.238464 0.106313
vt 0.233433 0.118642
vt 0.924412 0.402684
vt 0.917315 0.307653
vt 0.879368 0.307653
vt 0.872272 0.402684
vt 0.558282 0.809915
vt 0.552891 0.714876
vt 0.524067 0.714876
vt 0.518676 0.809915
vt 0.048195 0.809758
vt 0.042804 0.714617
vt 0.013980 0.714617
vt 0.008589 0.809758
vt 0.283435 0.132885
vt 0.322744 0.132885
vt 0.322744 0.081136
vt 0.283435 0.081136
vt 0.930840 0.255240
vt 0.924216 0.242917
vt 0.872467 0.242917
vt 0.865843 0.255240
vt 0.282804 0.170980
vt 0.277772 0.158556
vt 0.238464 0.158556
vt 0.233433 0.170980
vt 0.997459 0.164965
vt 0.990836 0.152642
vt 0.939087 0.152642
vt 0.932463 0.164965
vt 0.997459 0.204878
vt 0.932463 0.204878
vt 0.283013 0.270543
vt 0.269654 0.260270
vt 0.283013 0.299368
vt 0.282804 0.210894
vt 0.930840 0.295153
vt 0.865843 0.295153
vt 0.544970 0.326888
vt 0.558658 0.337161
vt 0.558658 0.287790
vt 0.544970 0.298063
vt 0.282804 0.158556
vt 0.233433 0.158556
vt 0.047396 0.842224
vt 0.009388 0.842224
vt 0.557483 0.842396
vt 0.519475 0.842396
vt 0.932463 0.537906
vt 0.923360 0.435164
vt 0.873324 0.435164
vt 0.855738 0.537906
vt 0.989980 0.344889
vt 0.939943 0.344889
vt 0.168990 0.205672
vt 0.154367 0.218998
vt 0.168990 0.233015
vt 0.215674 0.233015
vt 0.233433 0.218998
vt 0.218615 0.205252
vt 0.755166 0.107801
vt 0.755554 0.157426
vt 0.750625 0.256172
vt 0.707053 0.285552
vt 0.750625 0.283515
vt 0.531260 0.337161
vt 0.909223 0.857158
vt 0.905678 0.868390
vt 0.781033 0.036958
vt 0.768081 0.028224
vt 0.795876 0.046935
vt 0.901423 0.895173
vt 0.900875 0.978749
vt 0.472162 0.177167
vt 0.402466 0.223736
vt 0.903044 0.881226
vt 0.817646 0.052168
vt 0.877725 0.895271
vt 0.876713 0.978849
vt 0.443430 0.148435
vt 0.396861 0.218131
vt 0.880722 0.881319
vt 0.885588 0.868474
vt 0.892138 0.857229
vt 0.796995 0.020995
vt 0.788397 0.007907
vt 0.806871 0.035940
vt 0.132799 0.138853
vt 0.108910 0.139038
vt 0.113866 0.154956
vt 0.141957 0.154739
vt 0.817849 0.012356
vt 0.814939 -0.003088
vt 0.821236 0.029989
vt 0.824969 0.049134
vt 0.152952 0.192404
vt 0.119816 0.192659
vt 0.120582 0.309550
vt 0.154367 0.309289
vt 0.405890 0.132885
vt 0.389537 0.215097
vt 0.148762 0.172821
vt 0.117548 0.173062
vt 0.832895 0.049134
vt 0.080730 0.192750
vt 0.080730 0.309641
vt 0.365257 0.132885
vt 0.381610 0.215097
vt 0.080730 0.173146
vt 0.080730 0.155032
vt 0.080730 0.139103
vt 0.840422 0.012356
vt 0.843669 -0.003088
vt 0.836784 0.029989
vt 0.861276 0.020995
vt 0.870211 0.007907
vt 0.851148 0.035940
vt 0.840218 0.052168
vt 0.041644 0.192659
vt 0.040878 0.309550
vt 0.327717 0.148435
vt 0.374286 0.218131
vt 0.043911 0.173062
vt 0.047594 0.154956
vt 0.052550 0.139038
vt 0.008507 0.192404
vt 0.007093 0.309289
vt 0.298985 0.177167
vt 0.368681 0.223736
vt 0.012698 0.172821
vt 0.019503 0.154739
vt 0.028660 0.138853
vt 0.877236 0.036958
vt 0.890525 0.028224
vt 0.862142 0.046935
vt 0.845823 0.057773
vt 0.885874 0.057814
vt 0.901519 0.054768
vt 0.868092 0.061301
vt 0.848856 0.065097
vt 0.705638 0.075518
vt 0.672502 0.075695
vt 0.673268 0.192582
vt 0.707053 0.192402
vt 0.701448 0.055949
vt 0.670234 0.056116
vt 0.694643 0.037891
vt 0.666552 0.038041
vt 0.685485 0.022038
vt 0.661595 0.022165
s 0
usemtl Material.001
f 10/1/1 6/2/1 5/3/1 9/4/1
f 5/5/2 1/6/2 7/7/2 9/8/2
f 1/9/3 3/10/3 8/11/3 7/12/3
f 8/13/4 10/14/4 12/15/4 2/16/4
f 1/17/5 5/18/5 6/19/5 3/20/5
f 10/14/6 8/13/6 3/21/6 6/22/6
f 11/23/7 4/24/7 14/25/7 15/26/7
f 7/12/8 8/11/8 2/27/8 4/28/8
f 9/8/9 7/7/9 4/24/9 11/23/9
f 10/29/10 9/30/10 11/31/10 12/32/10
f 13/33/11 16/34/11 20/35/11 17/36/11
f 4/28/12 2/27/12 13/37/12 14/38/12
f 12/32/13 11/31/13 15/39/13 16/40/13
f 2/16/14 12/15/14 16/34/14 13/33/14
f 19/41/15 18/42/15 22/43/15 23/44/15
f 14/38/16 13/37/16 17/45/16 18/46/16
f 15/26/17 14/25/17 18/42/17 19/41/17
f 16/40/18 15/39/18 19/47/18 20/48/18
f 24/49/19 23/50/19 27/51/19 28/52/19
f 20/48/20 19/47/20 23/50/20 24/49/20
f 17/36/21 20/35/21 24/53/21 21/54/21
f 18/46/22 17/45/22 21/55/22 22/56/22
f 25/57/5 28/58/5 34/59/5 33/60/5
f 21/54/6 24/53/6 28/61/6 25/62/6
f 22/56/3 21/55/3 25/63/3 26/64/3
f 23/44/2 22/43/2 26/65/2 27/66/2
f 30/67/23 29/68/23 37/69/23 38/70/23
f 26/64/24 25/63/24 29/68/24 30/67/24
f 27/66/2 26/65/2 30/71/2 31/72/2
f 28/52/25 27/51/25 31/73/25 32/74/25
f 84/75/26 86/76/26 55/77/26 56/78/26
f 29/68/27 25/63/27 33/79/27 35/80/27
f 28/52/28 32/74/28 36/81/28 34/82/28
f 36/81/29 32/74/29 39/83/29 42/84/29
f 50/85/30 49/86/30 87/87/30 83/88/30
f 29/68/31 35/80/31 41/89/31 37/69/31
f 31/72/32 30/71/32 38/90/32 40/91/32
f 32/74/33 31/73/33 40/92/33 39/83/33
f 46/93/34 44/94/34 89/95/34 90/96/34
f 88/97/19 45/98/19 90/99/19 92/100/19
f 53/101/35 52/102/35 86/103/35 85/104/35
f 54/105/36 53/101/36 85/104/36 48/106/36
f 51/107/37 50/85/37 83/88/37 84/108/37
f 38/70/38 37/69/38 50/85/38 51/107/38
f 42/84/19 39/83/19 53/101/19 54/105/19
f 39/83/39 40/92/39 52/102/39 53/101/39
f 37/69/40 41/89/40 49/86/40 50/85/40
f 40/91/41 38/90/41 51/109/41 52/110/41
f 58/111/42 57/112/42 56/113/42 55/114/42
f 86/103/43 52/102/43 58/115/43 55/116/43
f 77/117/44 76/118/44 62/119/44 61/120/44
f 51/107/45 84/108/45 56/121/45 57/122/45
f 69/123/46 68/124/46 64/125/46 66/126/46
f 81/127/47 80/128/47 59/129/47 60/130/47
f 76/131/48 81/132/48 60/133/48 62/134/48
f 80/135/49 77/136/49 61/137/49 59/138/49
f 64/139/5 63/140/5 65/141/5 66/142/5
f 68/143/50 72/144/50 63/145/50 64/146/50
f 72/147/51 74/148/51 65/149/51 63/150/51
f 74/151/52 69/152/52 66/153/52 65/154/52
f 61/120/53 62/119/53 70/155/53 73/156/53
f 73/156/2 70/155/2 69/152/2 74/151/2
f 59/157/54 61/158/54 73/159/54 71/160/54
f 71/161/3 73/162/3 74/148/3 72/147/3
f 60/130/55 59/129/55 71/163/55 67/164/55
f 67/164/6 71/163/6 72/144/6 68/143/6
f 62/165/56 60/166/56 67/167/56 70/168/56
f 70/169/19 67/170/19 68/124/19 69/123/19
f 51/107/57 57/122/57 78/171/57 79/172/57
f 79/172/58 78/171/58 77/136/58 80/135/58
f 58/115/59 52/102/59 82/173/59 75/174/59
f 75/174/60 82/173/60 81/132/60 76/131/60
f 52/175/61 51/176/61 79/177/61 82/178/61
f 82/178/62 79/177/62 80/128/62 81/127/62
f 57/112/63 58/111/63 75/179/63 78/180/63
f 78/180/64 75/179/64 76/118/64 77/117/64
f 43/181/65 44/182/65 84/75/65 83/183/65
f 46/184/66 45/185/66 85/186/66 86/76/66
f 44/182/67 46/184/67 86/76/67 84/75/67
f 47/187/65 43/181/65 83/183/65 87/188/65
f 45/185/68 88/189/68 48/190/68 85/186/68
f 90/191/69 89/192/69 91/193/69 92/194/69
f 44/195/3 43/196/3 89/197/3
f 43/196/3 47/198/3 91/199/3 89/197/3
f 45/98/70 46/200/70 90/99/70
f 94/201/71 95/202/71 104/203/71
f 101/204/72 100/205/72 109/206/72 110/207/72
f 102/208/73 101/209/73 110/210/73 111/211/73
f 103/212/74 102/208/74 111/211/74 112/213/74
f 104/203/75 103/212/75 112/213/75 113/214/75
f 96/215/5 93/216/5 105/217/5
f 94/201/76 104/203/76 113/214/76
f 98/218/77 97/219/77 106/220/77 107/221/77
f 114/222/5 115/223/5 106/224/5 105/217/5
f 99/225/78 98/218/78 107/221/78 108/226/78
f 100/205/79 99/225/79 108/226/79 109/206/79
f 105/217/5 93/216/5 114/222/5
f 94/201/80 113/214/80 122/227/80
f 107/221/81 106/220/81 115/228/81 116/229/81
f 123/230/5 124/231/5 115/223/5 114/222/5
f 108/226/82 107/221/82 116/229/82 117/232/82
f 109/206/83 108/226/83 117/232/83 118/233/83
f 110/207/84 109/206/84 118/233/84 119/234/84
f 111/211/85 110/210/85 119/235/85 120/236/85
f 112/213/86 111/211/86 120/236/86 121/237/86
f 113/214/87 112/213/87 121/237/87 122/227/87
f 119/238/88 118/239/88 127/240/88 128/241/88
f 120/236/89 119/235/89 128/242/89 129/243/89
f 121/237/90 120/236/90 129/243/90 130/244/90
f 122/227/91 121/237/91 130/244/91 131/245/91
f 114/222/5 93/216/5 123/230/5
f 94/201/92 122/227/92 131/245/92
f 116/246/93 115/247/93 124/248/93 125/249/93
f 132/250/5 133/251/5 124/231/5 123/230/5
f 117/252/94 116/246/94 125/249/94 126/253/94
f 118/239/95 117/252/95 126/253/95 127/240/95
f 123/230/5 93/216/5 132/250/5
f 94/201/96 131/245/96 140/254/96
f 125/249/97 124/248/97 133/255/97 134/256/97
f 141/257/5 142/258/5 133/251/5 132/250/5
f 126/253/98 125/249/98 134/256/98 135/259/98
f 127/240/99 126/253/99 135/259/99 136/260/99
f 128/241/100 127/240/100 136/260/100 137/261/100
f 129/243/101 128/242/101 137/262/101 138/263/101
f 130/244/102 129/243/102 138/263/102 139/264/102
f 131/245/103 130/244/103 139/264/103 140/254/103
f 138/263/104 137/262/104 146/265/104 147/266/104
f 139/264/105 138/263/105 147/266/105 148/267/105
f 140/254/106 139/264/106 148/267/106 149/268/106
f 132/250/5 93/216/5 141/257/5
f 94/201/107 140/254/107 149/268/107
f 134/256/108 133/255/108 142/269/108 143/270/108
f 150/271/5 151/272/5 142/258/5 141/257/5
f 135/259/109 134/256/109 143/270/109 144/273/109
f 136/260/110 135/259/110 144/273/110 145/274/110
f 137/261/111 136/260/111 145/274/111 146/275/111
f 143/270/112 142/269/112 151/276/112 152/277/112
f 316/278/5 159/279/5 151/272/5 150/271/5
f 144/273/113 143/270/113 152/277/113 153/280/113
f 145/274/114 144/273/114 153/280/114 154/281/114
f 146/275/115 145/274/115 154/281/115 155/282/115
f 147/266/116 146/265/116 155/283/116 156/284/116
f 148/267/117 147/266/117 156/284/117 157/285/117
f 149/268/118 148/267/118 157/285/118 158/286/118
f 141/257/5 93/216/5 150/271/5
f 94/201/119 149/268/119 158/286/119
f 156/284/120 155/283/120 163/287/120 164/288/120
f 157/285/121 156/284/121 164/288/121 165/289/121
f 158/286/122 157/285/122 165/289/122 166/290/122
f 150/271/5 93/216/5 316/278/5
f 94/201/123 158/286/123 166/290/123
f 152/291/124 151/292/124 159/293/124 160/294/124
f 167/295/5 168/296/5 159/279/5 316/278/5
f 153/297/125 152/291/125 160/294/125 161/298/125
f 154/299/126 153/297/126 161/298/126 162/300/126
f 155/301/127 154/299/127 162/300/127 163/302/127
f 161/298/128 160/294/128 169/303/128 170/304/128
f 162/300/129 161/298/129 170/304/129 171/305/129
f 163/302/130 162/300/130 171/305/130 172/306/130
f 164/288/131 163/287/131 172/307/131 173/308/131
f 165/289/132 164/288/132 173/308/132 174/309/132
f 166/290/133 165/289/133 174/309/133 175/310/133
f 94/201/134 166/290/134 175/310/134
f 160/294/135 159/293/135 168/311/135 169/303/135
f 96/215/5 97/312/5 255/313/5 254/314/5
f 185/1/1 184/315/1 180/316/1 181/2/1
f 180/317/6 184/318/6 182/319/6 176/320/6
f 176/321/3 182/322/3 183/323/3 178/324/3
f 183/325/9 177/326/9 187/327/9 185/328/9
f 176/329/5 178/330/5 181/331/5 180/332/5
f 185/328/2 181/333/2 178/334/2 183/325/2
f 186/335/14 190/336/14 189/337/14 179/338/14
f 182/322/8 179/339/8 177/340/8 183/323/8
f 184/318/4 186/335/4 179/338/4 182/319/4
f 185/341/10 187/342/10 186/343/10 184/344/10
f 188/345/17 192/346/17 195/347/17 191/348/17
f 179/339/12 189/349/12 188/350/12 177/340/12
f 187/342/13 191/351/13 190/352/13 186/343/13
f 177/326/7 188/345/7 191/348/7 187/327/7
f 194/353/21 198/354/21 197/355/21 193/356/21
f 189/349/16 193/357/16 192/358/16 188/350/16
f 190/336/11 194/353/11 193/356/11 189/337/11
f 191/351/18 195/359/18 194/360/18 190/352/18
f 199/361/19 203/362/19 202/363/19 198/364/19
f 195/359/20 199/361/20 198/364/20 194/360/20
f 192/346/15 196/365/15 199/366/15 195/347/15
f 193/357/22 197/367/22 196/368/22 192/358/22
f 200/369/5 33/60/5 34/59/5 203/370/5
f 196/365/2 200/371/2 203/372/2 199/366/2
f 197/367/3 201/373/3 200/374/3 196/368/3
f 198/354/6 202/375/6 201/376/6 197/355/6
f 205/377/136 209/378/136 208/379/136 204/380/136
f 201/373/137 205/377/137 204/380/137 200/374/137
f 202/375/6 206/381/6 205/382/6 201/376/6
f 203/362/138 207/383/138 206/384/138 202/363/138
f 249/385/139 221/386/139 220/387/139 251/388/139
f 204/380/27 35/80/27 33/79/27 200/374/27
f 203/362/140 34/82/140 36/81/140 207/383/140
f 36/81/141 42/84/141 210/389/141 207/383/141
f 216/390/30 248/391/30 87/87/30 49/86/30
f 204/380/31 208/379/31 41/89/31 35/80/31
f 206/381/142 211/392/142 209/393/142 205/382/142
f 207/383/143 210/389/143 211/394/143 206/384/143
f 215/395/144 253/396/144 252/397/144 213/398/144
f 88/97/19 92/100/19 253/399/19 214/400/19
f 219/401/145 250/402/145 251/403/145 218/404/145
f 54/105/36 48/106/36 250/402/36 219/401/36
f 217/405/146 249/406/146 248/391/146 216/390/146
f 209/378/147 217/405/147 216/390/147 208/379/147
f 42/84/19 54/105/19 219/401/19 210/389/19
f 210/389/148 219/401/148 218/404/148 211/394/148
f 208/379/40 216/390/40 49/86/40 41/89/40
f 211/392/149 218/407/149 217/408/149 209/393/149
f 223/409/150 220/410/150 221/411/150 222/412/150
f 251/403/151 220/413/151 223/414/151 218/404/151
f 242/415/47 226/416/47 227/417/47 241/418/47
f 217/405/152 222/419/152 221/420/152 249/406/152
f 234/421/46 231/422/46 229/423/46 233/424/46
f 246/425/44 225/426/44 224/427/44 245/428/44
f 241/429/48 227/430/48 225/431/48 246/432/48
f 245/433/49 224/434/49 226/435/49 242/436/49
f 229/437/5 231/438/5 230/439/5 228/440/5
f 233/441/153 229/442/153 228/443/153 237/444/153
f 237/445/51 228/446/51 230/447/51 239/448/51
f 239/449/154 230/450/154 231/451/154 234/452/154
f 226/416/55 238/453/55 235/454/55 227/417/55
f 238/453/6 239/449/6 234/452/6 235/454/6
f 224/455/54 236/456/54 238/19/54 226/457/54
f 236/458/3 237/445/3 239/448/3 238/17/3
f 225/426/53 232/459/53 236/460/53 224/427/53
f 232/459/2 233/441/2 237/444/2 236/460/2
f 227/461/56 235/462/56 232/463/56 225/464/56
f 235/465/19 234/421/19 233/424/19 232/466/19
f 217/405/155 244/467/155 243/468/155 222/419/155
f 244/467/58 245/433/58 242/436/58 243/468/58
f 223/414/156 240/469/156 247/470/156 218/404/156
f 240/469/60 241/429/60 246/432/60 247/470/60
f 218/471/63 247/472/63 244/473/63 217/474/63
f 247/472/64 246/425/64 245/428/64 244/473/64
f 222/412/61 243/475/61 240/476/61 223/409/61
f 243/475/62 242/415/62 241/418/62 240/476/62
f 212/477/65 248/478/65 249/385/65 213/479/65
f 215/480/157 251/388/157 250/481/157 214/482/157
f 213/479/158 249/385/158 251/388/158 215/480/158
f 47/187/65 87/188/65 248/478/65 212/477/65
f 214/482/68 250/481/68 48/190/68 88/189/68
f 253/483/69 92/194/69 91/193/69 252/484/69
f 213/485/3 252/486/3 212/487/3
f 212/487/3 252/486/3 91/199/3 47/198/3
f 214/400/159 253/399/159 215/488/159
f 101/204/160 259/489/160 258/490/160 100/205/160
f 102/208/161 260/491/161 259/492/161 101/209/161
f 103/212/162 261/493/162 260/491/162 102/208/162
f 104/203/163 95/202/163 261/493/163 103/212/163
f 96/215/5 254/314/5 93/216/5
f 98/218/164 256/494/164 255/495/164 97/219/164
f 254/314/5 255/313/5 263/496/5 262/497/5
f 99/225/165 257/498/165 256/494/165 98/218/165
f 100/205/166 258/490/166 257/498/166 99/225/166
f 254/314/5 262/497/5 93/216/5
f 94/201/167 270/499/167 95/202/167
f 256/494/168 264/500/168 263/501/168 255/495/168
f 262/497/5 263/496/5 272/502/5 271/503/5
f 257/498/169 265/504/169 264/500/169 256/494/169
f 258/490/170 266/505/170 265/504/170 257/498/170
f 259/489/171 267/506/171 266/505/171 258/490/171
f 260/491/172 268/507/172 267/508/172 259/492/172
f 261/493/173 269/509/173 268/507/173 260/491/173
f 95/202/174 270/499/174 269/509/174 261/493/174
f 267/510/175 276/511/175 275/512/175 266/513/175
f 268/507/176 277/514/176 276/515/176 267/508/176
f 269/509/177 278/516/177 277/514/177 268/507/177
f 270/499/178 279/517/178 278/516/178 269/509/178
f 262/497/5 271/503/5 93/216/5
f 94/201/179 279/517/179 270/499/179
f 264/518/180 273/519/180 272/520/180 263/521/180
f 271/503/5 272/502/5 281/522/5 280/523/5
f 265/524/181 274/525/181 273/519/181 264/518/181
f 266/513/182 275/512/182 274/525/182 265/524/182
f 271/503/5 280/523/5 93/216/5
f 94/201/183 288/526/183 279/517/183
f 273/519/184 282/527/184 281/528/184 272/520/184
f 280/523/5 281/522/5 290/529/5 289/530/5
f 274/525/185 283/531/185 282/527/185 273/519/185
f 275/512/186 284/532/186 283/531/186 274/525/186
f 276/511/187 285/533/187 284/532/187 275/512/187
f 277/514/188 286/534/188 285/535/188 276/515/188
f 278/516/189 287/536/189 286/534/189 277/514/189
f 279/517/190 288/526/190 287/536/190 278/516/190
f 286/534/191 295/537/191 294/538/191 285/535/191
f 287/536/192 296/539/192 295/537/192 286/534/192
f 288/526/193 297/540/193 296/539/193 287/536/193
f 280/523/5 289/530/5 93/216/5
f 94/201/194 297/540/194 288/526/194
f 282/527/195 291/541/195 290/542/195 281/528/195
f 289/530/5 290/529/5 299/543/5 298/544/5
f 283/531/196 292/545/196 291/541/196 282/527/196
f 284/532/197 293/546/197 292/545/197 283/531/197
f 285/533/198 294/547/198 293/546/198 284/532/198
f 291/541/199 300/548/199 299/549/199 290/542/199
f 298/544/5 299/543/5 308/550/5 307/551/5
f 292/545/200 301/552/200 300/548/200 291/541/200
f 293/546/201 302/553/201 301/552/201 292/545/201
f 294/547/202 303/554/202 302/553/202 293/546/202
f 295/537/203 304/555/203 303/556/203 294/538/203
f 296/539/204 305/557/204 304/555/204 295/537/204
f 297/540/205 306/558/205 305/557/205 296/539/205
f 289/530/5 298/544/5 93/216/5
f 94/201/206 306/558/206 297/540/206
f 304/555/207 313/559/207 312/560/207 303/556/207
f 305/557/208 314/561/208 313/559/208 304/555/208
f 105/217/5 106/224/5 97/312/5 96/215/5
f 306/558/209 315/562/209 314/561/209 305/557/209
f 298/544/5 307/551/5 93/216/5
f 94/201/210 315/562/210 306/558/210
f 300/563/211 309/564/211 308/565/211 299/566/211
f 307/551/5 308/550/5 168/296/5 167/295/5
f 301/567/212 310/568/212 309/564/212 300/563/212
f 302/569/213 311/570/213 310/568/213 301/567/213
f 303/571/214 312/572/214 311/570/214 302/569/214
f 310/568/215 170/304/215 169/303/215 309/564/215
f 311/570/216 171/305/216 170/304/216 310/568/216
f 312/572/217 172/306/217 171/305/217 311/570/217
f 313/559/218 173/308/218 172/307/218 312/560/218
f 314/561/219 174/309/219 173/308/219 313/559/219
f 315/562/220 175/310/220 174/309/220 314/561/220
f 307/551/5 167/295/5 93/216/5
f 94/201/221 175/310/221 315/562/221
f 309/564/222 169/303/222 168/311/222 308/565/222
f 167/295/5 316/278/5 93/216/5
