# Blender 5.1.2
# www.blender.org
mtllib HendrikHead.mtl
o Plane
v -0.338970 0.000000 1.186062
v -0.438792 3.105648 0.422601
v -0.338970 0.000000 0.508121
v -0.438792 3.105648 1.271583
v 1.509257 0.000000 1.186062
v 1.509257 0.000000 0.508121
v -0.338970 0.510816 1.186062
v -0.338970 0.510816 0.508121
v 0.452334 0.510816 1.186062
v 0.452334 0.510816 0.508121
v 0.552156 3.105648 1.271583
v 0.552156 3.105648 0.422601
v -0.358889 3.914259 0.491056
v -0.358889 3.914259 1.203128
v 0.472253 3.914259 1.203128
v 0.472253 3.914259 0.491056
v -0.557531 5.020482 0.320872
v -0.557531 5.020482 1.373311
v 0.670895 5.020482 1.373311
v 0.670895 5.020482 0.320872
v -0.610759 7.748475 0.275270
v -0.610759 7.748475 1.418914
v 0.724123 7.748475 1.418914
v 0.724123 7.748475 0.275270
v -0.610759 7.982979 0.275270
v -0.610759 8.358076 1.418914
v 0.724123 8.358076 1.418914
v 0.724123 7.982979 0.275270
v -0.761717 8.937742 0.741433
v -0.560202 8.937742 1.418914
v 0.634569 8.937742 1.418914
v 0.724123 8.937742 0.741433
v -0.610759 7.982979 0.000000
v 0.724123 7.982979 0.000000
v -0.761717 8.937742 0.000000
v 0.836705 8.937742 0.000000
v -1.034292 10.668324 0.741433
v -0.560202 10.668324 1.643821
v 0.947543 10.668324 0.741433
v 0.634569 10.668324 1.643821
v -1.034292 10.668324 0.000000
v 0.947543 10.668324 0.000000
v -0.488573 13.114332 0.492016
v -0.488573 13.114332 1.003794
v 0.440319 13.114332 0.484149
v 0.385265 13.114332 1.003794
v -0.488573 13.114332 0.000000
v 0.715865 12.976742 0.000000
v -0.979884 11.891328 0.000000
v -0.979884 11.891328 0.741433
v -0.788998 11.891328 1.788817
v 0.647048 11.891328 1.788817
v 0.947543 11.891328 0.741433
v 0.947543 11.891328 0.000000
v 0.524270 12.734504 2.437989
v -0.491545 12.734504 2.437989
v -0.516423 11.891328 2.586133
v 0.533236 11.891328 2.586133
v -0.346718 7.579962 1.917724
v 0.363532 7.579962 1.917724
v -0.346718 7.579962 2.457227
v 0.363532 7.579962 2.457227
v -0.475881 6.369352 1.819613
v 0.492694 6.369352 1.819613
v -0.475881 6.369352 2.555338
v 0.492694 6.369352 2.555338
v 0.616672 7.348203 1.725440
v 0.616672 6.601110 1.725440
v 0.616672 6.601111 2.649511
v 0.616672 7.348203 2.649511
v -0.599859 7.348203 1.725440
v -0.599859 6.601110 1.725440
v -0.599859 7.348203 2.649511
v -0.599859 6.601110 2.649511
v 0.476668 9.967710 2.543164
v 0.496362 9.359910 2.558124
v -0.479549 9.359910 2.558124
v -0.459855 9.967710 2.543164
v -0.459855 9.967710 1.831786
v -0.479549 9.359910 1.816827
v 0.496362 9.359910 1.816827
v 0.476668 9.967710 1.831786
v -0.764119 12.976742 0.741433
v -0.764119 12.976742 1.643821
v 0.715865 12.976742 0.741433
v 0.638082 12.976742 1.643821
v -0.764119 12.976742 0.000000
v 0.440319 13.114332 0.000000
v -0.488573 13.929880 0.453892
v 0.440319 13.929880 0.446635
v -0.488573 13.929880 0.000000
v 0.440319 13.929880 0.000000
v -0.000000 16.989347 0.000000
v -0.000000 13.232898 0.000000
v 0.351315 13.270350 -0.145519
v 0.380261 16.989347 0.000000
v 1.949152 16.989347 0.000000
v 1.911700 14.801789 0.000000
v 1.800782 14.436141 0.000000
v 1.620661 14.099158 0.000000
v 1.378259 13.803791 0.000000
v 1.082891 13.561389 0.000000
v 0.745908 13.381268 0.000000
v 0.380261 13.270350 0.000000
v 0.351315 16.989347 0.145519
v 1.800782 16.989347 0.745909
v 1.766180 14.801789 0.731576
v 1.663705 14.436141 0.689130
v 1.497295 14.099158 0.620200
v 1.273345 13.803791 0.527437
v 1.000461 13.561389 0.414405
v 0.689129 13.381268 0.285447
v 0.351315 13.270350 0.145519
v 0.268885 16.989347 0.268885
v 1.378258 16.989347 1.378259
v 1.351776 14.801789 1.351776
v 1.273345 14.436141 1.273345
v 1.145980 14.099158 1.145980
v 0.974576 13.803791 0.974576
v 0.765719 13.561389 0.765720
v 0.527437 13.381268 0.527437
v 0.268885 13.270350 0.268885
v 0.145519 16.989347 0.351315
v 0.745908 16.989347 1.800782
v 0.731575 14.801789 1.766181
v 0.689129 14.436141 1.663706
v 0.620200 14.099158 1.497295
v 0.527436 13.803791 1.273345
v 0.414404 13.561389 1.000461
v 0.285447 13.381268 0.689130
v 0.145519 13.270350 0.351315
v -0.000000 16.989347 0.380261
v -0.000001 16.989347 1.949152
v -0.000001 14.801789 1.911700
v -0.000000 14.436141 1.800782
v -0.000000 14.099158 1.620661
v -0.000000 13.803791 1.378259
v -0.000000 13.561389 1.082891
v -0.000000 13.381268 0.745908
v -0.000000 13.270350 0.380261
v -0.145520 16.989347 0.351315
v -0.745909 16.989347 1.800782
v -0.731576 14.801789 1.766180
v -0.689130 14.436141 1.663705
v -0.620200 14.099158 1.497295
v -0.527437 13.803791 1.273345
v -0.414405 13.561389 1.000461
v -0.285447 13.381268 0.689129
v -0.145520 13.270350 0.351315
v -0.268885 16.989347 0.268885
v -1.378259 16.989347 1.378258
v -1.351776 14.801789 1.351775
v -1.273345 14.436141 1.273345
v -1.145980 14.099158 1.145980
v -0.974576 13.803791 0.974576
v -0.765720 13.561389 0.765719
v -0.527437 13.381268 0.527437
v -0.268885 13.270350 0.268885
v -1.800782 16.989347 0.745907
v -1.766180 14.801789 0.731575
v -1.663706 14.436141 0.689129
v -1.497295 14.099158 0.620199
v -1.273345 13.803791 0.527436
v -1.000461 13.561389 0.414404
v -0.689130 13.381268 0.285447
v -0.351315 13.270350 0.145519
v -0.380261 16.989347 0.000000
v -1.949152 16.989347 0.000000
v -1.911700 14.801789 0.000000
v -1.800782 14.436141 0.000000
v -1.620661 14.099158 0.000000
v -1.378258 13.803791 0.000000
v -1.082891 13.561389 0.000000
v -0.745908 13.381268 0.000000
v -0.380261 13.270350 0.000000
v -0.338970 0.000000 -1.186062
v -0.438792 3.105648 -0.422601
v -0.338970 0.000000 -0.508121
v -0.438792 3.105648 -1.271583
v 1.509257 0.000000 -1.186062
v 1.509257 0.000000 -0.508121
v -0.338970 0.510816 -1.186062
v -0.338970 0.510816 -0.508121
v 0.452334 0.510816 -1.186062
v 0.452334 0.510816 -0.508121
v 0.552156 3.105648 -1.271583
v 0.552156 3.105648 -0.422601
v -0.358889 3.914259 -0.491056
v -0.358889 3.914259 -1.203128
v 0.472253 3.914259 -1.203128
v 0.472253 3.914259 -0.491056
v -0.557531 5.020482 -0.320872
v -0.557531 5.020482 -1.373311
v 0.670895 5.020482 -1.373311
v 0.670895 5.020482 -0.320872
v -0.610759 7.748475 -0.275270
v -0.610759 7.748475 -1.418914
v 0.724123 7.748475 -1.418914
v 0.724123 7.748475 -0.275270
v -0.610759 7.982979 -0.275270
v -0.610759 8.358076 -1.418914
v 0.724123 8.358076 -1.418914
v 0.724123 7.982979 -0.275270
v -0.761717 8.937742 -0.741433
v -0.560202 8.937742 -1.418914
v 0.634569 8.937742 -1.418914
v 0.724123 8.937742 -0.741433
v -1.034292 10.668324 -0.741433
v -0.560202 10.668324 -1.643821
v 0.947543 10.668324 -0.741433
v 0.634569 10.668324 -1.643821
v -0.488573 13.114332 -0.492016
v -0.488573 13.114332 -1.003794
v 0.440319 13.114332 -0.484149
v 0.385265 13.114332 -1.003794
v -0.979884 11.891328 -0.741433
v -0.788998 11.891328 -1.788817
v 0.647048 11.891328 -1.788817
v 0.947543 11.891328 -0.741433
v 0.524270 12.734504 -2.437989
v -0.491545 12.734504 -2.437989
v -0.516423 11.891328 -2.586133
v 0.533236 11.891328 -2.586133
v -0.346718 7.579962 -1.917724
v 0.363532 7.579962 -1.917724
v -0.346718 7.579962 -2.457227
v 0.363532 7.579962 -2.457227
v -0.475881 6.369352 -1.819613
v 0.492694 6.369352 -1.819613
v -0.475881 6.369352 -2.555338
v 0.492694 6.369352 -2.555338
v 0.616672 7.348203 -1.725440
v 0.616672 6.601110 -1.725440
v 0.616672 6.601111 -2.649511
v 0.616672 7.348203 -2.649511
v -0.599859 7.348203 -1.725440
v -0.599859 6.601110 -1.725440
v -0.599859 7.348203 -2.649511
v -0.599859 6.601110 -2.649511
v 0.476668 9.967710 -2.543164
v 0.496362 9.359910 -2.558124
v -0.479549 9.359910 -2.558124
v -0.459855 9.967710 -2.543164
v -0.459855 9.967710 -1.831786
v -0.479549 9.359910 -1.816827
v 0.496362 9.359910 -1.816827
v 0.476668 9.967710 -1.831786
v -0.764119 12.976742 -0.741433
v -0.764119 12.976742 -1.643821
v 0.715865 12.976742 -0.741433
v 0.638082 12.976742 -1.643821
v -0.488573 13.929880 -0.453892
v 0.440319 13.929880 -0.446635
v 0.351315 16.989347 -0.145519
v 1.800782 16.989347 -0.745909
v 1.766180 14.801789 -0.731576
v 1.663705 14.436141 -0.689130
v 1.497295 14.099158 -0.620200
v 1.273345 13.803791 -0.527437
v 1.000461 13.561389 -0.414405
v 0.689129 13.381268 -0.285447
v 0.268885 16.989347 -0.268885
v 1.378258 16.989347 -1.378259
v 1.351776 14.801789 -1.351776
v 1.273345 14.436141 -1.273345
v 1.145980 14.099158 -1.145980
v 0.974576 13.803791 -0.974576
v 0.765719 13.561389 -0.765720
v 0.527437 13.381268 -0.527437
v 0.268885 13.270350 -0.268885
v 0.145519 16.989347 -0.351315
v 0.745908 16.989347 -1.800782
v 0.731575 14.801789 -1.766181
v 0.689129 14.436141 -1.663706
v 0.620200 14.099158 -1.497295
v 0.527436 13.803791 -1.273345
v 0.414404 13.561389 -1.000461
v 0.285447 13.381268 -0.689130
v 0.145519 13.270350 -0.351315
v -0.000000 16.989347 -0.380261
v -0.000001 16.989347 -1.949152
v -0.000001 14.801789 -1.911700
v -0.000000 14.436141 -1.800782
v -0.000000 14.099158 -1.620661
v -0.000000 13.803791 -1.378259
v -0.000000 13.561389 -1.082891
v -0.000000 13.381268 -0.745908
v -0.000000 13.270350 -0.380261
v -0.145520 16.989347 -0.351315
v -0.745909 16.989347 -1.800782
v -0.731576 14.801789 -1.766180
v -0.689130 14.436141 -1.663705
v -0.620200 14.099158 -1.497295
v -0.527437 13.803791 -1.273345
v -0.414405 13.561389 -1.000461
v -0.285447 13.381268 -0.689129
v -0.145520 13.270350 -0.351315
v -0.268885 16.989347 -0.268885
v -1.378259 16.989347 -1.378258
v -1.351776 14.801789 -1.351775
v -1.273345 14.436141 -1.273345
v -1.145980 14.099158 -1.145980
v -0.974576 13.803791 -0.974576
v -0.765720 13.561389 -0.765719
v -0.527437 13.381268 -0.527437
v -0.268885 13.270350 -0.268885
v -0.351315 16.989347 -0.145519
v -1.800782 16.989347 -0.745907
v -1.766180 14.801789 -0.731575
v -1.663706 14.436141 -0.689129
v -1.497295 14.099158 -0.620199
v -1.273345 13.803791 -0.527436
v -1.000461 13.561389 -0.414404
v -0.689130 13.381268 -0.285447
v -0.351315 13.270350 -0.145519
v -0.351315 16.989347 0.145519
vn -0.4351 -0.9004 -0.0000
vn -0.0000 -0.0000 -1.0000
vn 1.0000 -0.0000 -0.0000
vn -0.0000 0.0329 0.9995
vn -0.0000 1.0000 -0.0000
vn -0.0000 -0.0000 1.0000
vn -0.0000 -0.0844 -0.9964
vn 0.9993 0.0384 -0.0000
vn -0.0000 0.0329 -0.9995
vn -0.9993 0.0384 -0.0000
vn -0.0000 0.1521 0.9884
vn 0.9952 -0.0983 -0.0000
vn -0.9952 -0.0983 -0.0000
vn -0.0000 -0.0844 0.9964
vn -0.0000 0.0167 -0.9999
vn 0.9843 0.1767 -0.0000
vn -0.0000 0.1521 -0.9884
vn -0.9843 0.1767 -0.0000
vn -1.0000 -0.0000 -0.0000
vn -0.9998 0.0195 -0.0000
vn -0.0000 0.0167 0.9999
vn 0.9998 0.0195 -0.0000
vn 0.9151 0.0975 -0.3913
vn 0.9860 0.1042 -0.1306
vn -0.9981 -0.0462 -0.0396
vn -0.0000 -0.9565 -0.2918
vn 0.9877 0.1562 -0.0000
vn -0.9903 0.0852 -0.1097
vn -0.9925 0.0959 -0.0754
vn 0.9808 -0.1950 -0.0000
vn 0.9878 0.1556 -0.0000
vn -0.0000 0.1289 -0.9917
vn -0.9661 0.0784 -0.2461
vn -0.0033 -0.5615 -0.8275
vn -0.9745 -0.1207 -0.1891
vn -0.9780 -0.2087 -0.0000
vn 0.9885 -0.1160 -0.0968
vn 0.9429 0.0863 -0.3216
vn -0.9537 0.0227 -0.3001
vn 0.9990 -0.0444 -0.0000
vn -0.0000 0.1177 -0.9930
vn -0.0000 -0.1730 -0.9849
vn -0.9888 -0.0314 -0.1462
vn -0.0000 0.0566 -0.9984
vn 0.9398 -0.0749 -0.3333
vn -0.8818 0.4717 -0.0000
vn -0.0000 0.0566 0.9984
vn -0.9972 0.0744 -0.0000
vn 0.9972 0.0744 -0.0000
vn -0.0000 0.3764 0.9264
vn 0.8818 0.4717 -0.0000
vn -0.0000 0.3765 -0.9264
vn -0.0000 -0.6385 -0.7696
vn 0.6753 -0.7376 -0.0000
vn -0.0000 -0.6385 0.7696
vn -0.6753 -0.7376 -0.0000
vn 0.9793 0.0982 -0.1769
vn 0.9995 -0.0324 -0.0000
vn -0.9954 0.0587 -0.0751
vn -0.9995 -0.0324 -0.0000
vn -0.0000 0.0223 0.9998
vn -0.0000 -0.0246 0.9997
vn -0.0000 0.0223 -0.9998
vn -0.0000 -0.0246 -0.9997
vn 0.4467 -0.8947 -0.0000
vn -0.4097 -0.9114 -0.0383
vn -0.0000 -0.9777 -0.2102
vn -0.4467 -0.8947 -0.0000
vn -0.0000 -1.0000 -0.0000
vn -0.9944 -0.0048 -0.1054
vn 0.0980 -0.9950 -0.0195
vn 0.7640 -0.6270 0.1520
vn 0.6294 -0.7669 0.1252
vn 0.4693 -0.8781 0.0934
vn 0.2898 -0.9553 0.0576
vn 0.0980 -0.9950 0.0195
vn 0.9806 -0.0168 0.1951
vn 0.9401 -0.2852 0.1870
vn 0.8687 -0.4643 0.1728
vn 0.0831 -0.9950 0.0555
vn 0.8314 -0.0168 0.5555
vn 0.7969 -0.2852 0.5325
vn 0.7364 -0.4643 0.4921
vn 0.6477 -0.6270 0.4328
vn 0.5336 -0.7669 0.3565
vn 0.3979 -0.8781 0.2659
vn 0.2457 -0.9553 0.1642
vn 0.4328 -0.6270 0.6477
vn 0.3565 -0.7669 0.5336
vn 0.2659 -0.8781 0.3979
vn 0.1642 -0.9553 0.2457
vn 0.0555 -0.9950 0.0831
vn 0.5555 -0.0168 0.8314
vn 0.5325 -0.2852 0.7969
vn 0.4921 -0.4643 0.7364
vn 0.0195 -0.9950 0.0980
vn 0.1951 -0.0168 0.9806
vn 0.1870 -0.2852 0.9401
vn 0.1728 -0.4643 0.8687
vn 0.1520 -0.6270 0.7640
vn 0.1252 -0.7669 0.6294
vn 0.0934 -0.8781 0.4693
vn 0.0576 -0.9553 0.2898
vn -0.1252 -0.7669 0.6294
vn -0.0934 -0.8781 0.4693
vn -0.0576 -0.9553 0.2898
vn -0.0195 -0.9950 0.0980
vn -0.1951 -0.0168 0.9806
vn -0.1870 -0.2852 0.9401
vn -0.1728 -0.4643 0.8687
vn -0.1520 -0.6270 0.7640
vn -0.5555 -0.0168 0.8314
vn -0.5325 -0.2852 0.7969
vn -0.4921 -0.4643 0.7364
vn -0.4328 -0.6270 0.6477
vn -0.3565 -0.7669 0.5336
vn -0.2659 -0.8781 0.3979
vn -0.1642 -0.9553 0.2457
vn -0.0555 -0.9950 0.0831
vn -0.5336 -0.7669 0.3565
vn -0.3979 -0.8781 0.2659
vn -0.2457 -0.9553 0.1642
vn -0.0831 -0.9950 0.0555
vn -0.8314 -0.0168 0.5555
vn -0.7969 -0.2852 0.5325
vn -0.7364 -0.4643 0.4921
vn -0.6477 -0.6270 0.4328
vn -0.9401 -0.2852 0.1870
vn -0.8687 -0.4643 0.1728
vn -0.7640 -0.6270 0.1520
vn -0.6294 -0.7669 0.1252
vn -0.4693 -0.8781 0.0934
vn -0.2898 -0.9553 0.0576
vn -0.0980 -0.9950 0.0195
vn -0.9806 -0.0168 0.1951
vn 0.9151 0.0975 0.3913
vn 0.9860 0.1042 0.1306
vn -0.9981 -0.0462 0.0396
vn -0.0000 -0.9565 0.2918
vn -0.9903 0.0852 0.1097
vn -0.9925 0.0959 0.0754
vn -0.0000 0.1289 0.9917
vn -0.9661 0.0784 0.2461
vn -0.0033 -0.5615 0.8275
vn -0.9745 -0.1207 0.1891
vn 0.9885 -0.1160 0.0968
vn 0.9429 0.0863 0.3216
vn -0.9537 0.0227 0.3001
vn -0.0000 0.1177 0.9930
vn -0.0000 -0.1730 0.9849
vn -0.9888 -0.0314 0.1462
vn 0.9398 -0.0749 0.3333
vn -0.0000 0.3764 -0.9264
vn -0.0000 0.3765 0.9264
vn 0.9793 0.0982 0.1769
vn -0.9954 0.0587 0.0751
vn -0.4097 -0.9114 0.0383
vn -0.0000 -0.9777 0.2102
vn -0.9944 -0.0048 0.1054
vn 0.7640 -0.6270 -0.1520
vn 0.6294 -0.7669 -0.1252
vn 0.4693 -0.8781 -0.0934
vn 0.2898 -0.9553 -0.0576
vn 0.9806 -0.0168 -0.1951
vn 0.9401 -0.2852 -0.1870
vn 0.8687 -0.4643 -0.1728
vn 0.0831 -0.9950 -0.0555
vn 0.8314 -0.0168 -0.5555
vn 0.7969 -0.2852 -0.5325
vn 0.7364 -0.4643 -0.4921
vn 0.6477 -0.6270 -0.4328
vn 0.5336 -0.7669 -0.3565
vn 0.3979 -0.8781 -0.2659
vn 0.2457 -0.9553 -0.1642
vn 0.4328 -0.6270 -0.6477
vn 0.3565 -0.7669 -0.5336
vn 0.2659 -0.8781 -0.3979
vn 0.1642 -0.9553 -0.2457
vn 0.0555 -0.9950 -0.0831
vn 0.5555 -0.0168 -0.8314
vn 0.5325 -0.2852 -0.7969
vn 0.4921 -0.4643 -0.7364
vn 0.0195 -0.9950 -0.0980
vn 0.1951 -0.0168 -0.9806
vn 0.1870 -0.2852 -0.9401
vn 0.1728 -0.4643 -0.8687
vn 0.1520 -0.6270 -0.7640
vn 0.1252 -0.7669 -0.6294
vn 0.0934 -0.8781 -0.4693
vn 0.0576 -0.9553 -0.2898
vn -0.1252 -0.7669 -0.6294
vn -0.0934 -0.8781 -0.4693
vn -0.0576 -0.9553 -0.2898
vn -0.0195 -0.9950 -0.0980
vn -0.1951 -0.0168 -0.9806
vn -0.1870 -0.2852 -0.9401
vn -0.1728 -0.4643 -0.8687
vn -0.1520 -0.6270 -0.7640
vn -0.5555 -0.0168 -0.8314
vn -0.5325 -0.2852 -0.7969
vn -0.4921 -0.4643 -0.7364
vn -0.4328 -0.6270 -0.6477
vn -0.3565 -0.7669 -0.5336
vn -0.2659 -0.8781 -0.3979
vn -0.1642 -0.9553 -0.2457
vn -0.0555 -0.9950 -0.0831
vn -0.5336 -0.7669 -0.3565
vn -0.3979 -0.8781 -0.2659
vn -0.2457 -0.9553 -0.1642
vn -0.0831 -0.9950 -0.0555
vn -0.8314 -0.0168 -0.5555
vn -0.7969 -0.2852 -0.5325
vn -0.7364 -0.4643 -0.4921
vn -0.6477 -0.6270 -0.4328
vn -0.9401 -0.2852 -0.1870
vn -0.8687 -0.4643 -0.1728
vn -0.7640 -0.6270 -0.1520
vn -0.6294 -0.7669 -0.1252
vn -0.4693 -0.8781 -0.0934
vn -0.2898 -0.9553 -0.0576
vn -0.0980 -0.9950 -0.0195
vn -0.9806 -0.0168 -0.1951
vt 0.963958 0.141070
vt 0.963958 0.084593
vt 0.999957 0.084593
vt 0.999957 0.141070
vt 0.352615 0.364272
vt 0.450663 0.368542
vt 0.449483 0.395639
vt 0.407505 0.393811
vt 0.799654 0.310810
vt 0.835652 0.310810
vt 0.835652 0.337933
vt 0.799654 0.337933
vt 0.157700 0.603146
vt 0.199679 0.601318
vt 0.210967 0.738680
vt 0.158398 0.740970
vt 0.775006 0.212669
vt 0.775006 0.310810
vt 0.739007 0.310810
vt 0.739007 0.212669
vt 0.156520 0.576049
vt 0.254568 0.571779
vt 0.396216 0.531173
vt 0.448785 0.533463
vt 0.442677 0.576214
vt 0.398585 0.574293
vt 0.840193 0.475749
vt 0.795112 0.475749
vt 0.614968 0.338161
vt 0.650966 0.338161
vt 0.655507 0.475899
vt 0.610427 0.475899
vt 0.164506 0.783721
vt 0.208598 0.781800
vt 0.221687 0.839918
vt 0.156520 0.842756
vt 0.836558 0.518659
vt 0.798747 0.518659
vt 0.651872 0.518869
vt 0.614062 0.518869
vt 0.385496 0.632411
vt 0.450663 0.635249
vt 0.447185 0.780053
vt 0.376370 0.776969
vt 0.845595 0.577464
vt 0.789711 0.577464
vt 0.660909 0.577523
vt 0.605025 0.577523
vt 0.602603 0.722352
vt 0.663331 0.722352
vt 0.663331 0.754721
vt 0.602603 0.734804
vt 0.230813 0.984476
vt 0.159998 0.987560
vt 0.848017 0.722334
vt 0.787289 0.722334
vt 0.112875 0.173613
vt 0.112875 0.244495
vt 0.098258 0.244495
vt 0.098258 0.173613
vt 0.231355 0.996916
vt 0.160540 1.000000
vt 0.848017 0.734786
vt 0.787289 0.754704
vt 0.445777 0.812390
vt 0.374962 0.809306
vt 0.787289 0.785467
vt 0.823263 0.785533
vt 0.823263 0.877515
vt 0.775347 0.877358
vt 0.441755 0.843022
vt 0.378373 0.840262
vt 0.663331 0.785538
vt 0.627356 0.785500
vt 0.853586 0.094066
vt 0.779136 0.094066
vt 0.785008 0.051896
vt 0.838943 0.051896
vt 0.862633 0.734786
vt 0.862633 0.785533
vt 0.587986 0.785452
vt 0.587986 0.734804
vt 0.627356 0.877296
vt 0.587986 0.877296
vt 0.823263 0.942437
vt 0.862633 0.942437
vt 0.862633 1.000000
vt 0.823263 1.000000
vt 0.862633 0.877515
vt 0.437763 0.934685
vt 0.374381 0.931924
vt 0.675273 0.877429
vt 0.156520 0.198094
vt 0.156520 0.244495
vt 0.112880 0.244495
vt 0.112875 0.195171
vt 0.478984 0.284859
vt 0.478984 0.259151
vt 0.522288 0.261143
vt 0.522288 0.284859
vt 0.627356 0.942235
vt 0.682972 0.942363
vt 0.675273 1.000000
vt 0.627356 0.999967
vt 0.587986 0.942235
vt 0.587986 0.999967
vt 0.767647 0.942374
vt 0.775347 1.000000
vt 0.447079 1.000000
vt 0.370897 0.996682
vt 0.020099 0.785990
vt 0.075836 0.785990
vt 0.074514 0.830850
vt 0.020575 0.830850
vt 0.725310 0.942411
vt 0.717443 0.987186
vt 0.073878 0.651598
vt 0.022057 0.651598
vt 0.029110 0.557151
vt 0.066824 0.557151
vt 0.733176 0.987048
vt 0.725310 0.942284
vt 0.522288 0.139872
vt 0.473220 0.139872
vt 0.478220 0.127618
vt 0.517287 0.127618
vt 0.148518 0.696459
vt 0.096698 0.696459
vt 0.103751 0.602012
vt 0.141465 0.602012
vt 0.723823 0.808013
vt 0.684460 0.808013
vt 0.689817 0.713557
vt 0.718465 0.713557
vt 0.766160 0.807857
vt 0.726797 0.807857
vt 0.732155 0.713299
vt 0.760802 0.713299
vt 0.888893 0.141070
vt 0.888893 0.089639
vt 0.927960 0.089639
vt 0.927960 0.141070
vt 0.154907 0.549920
vt 0.090309 0.549920
vt 0.096892 0.537673
vt 0.148324 0.537673
vt 0.522288 0.191888
vt 0.473220 0.191888
vt 0.478220 0.179541
vt 0.517287 0.179541
vt 0.080266 0.505060
vt 0.015668 0.505060
vt 0.022252 0.492812
vt 0.073683 0.492812
vt 0.015668 0.544728
vt 0.080266 0.544728
vt 0.465706 0.278882
vt 0.465706 0.250235
vt 0.478984 0.240024
vt 0.478984 0.289093
vt 0.522288 0.231558
vt 0.473220 0.231558
vt 0.090309 0.589588
vt 0.154907 0.589588
vt 0.478984 0.299303
vt 0.478984 0.327950
vt 0.465380 0.338161
vt 0.465380 0.289092
vt 0.522288 0.179541
vt 0.473220 0.179541
vt 0.727592 0.840124
vt 0.765366 0.840124
vt 0.685254 0.840294
vt 0.723028 0.840294
vt 0.156520 0.830850
vt 0.080266 0.830850
vt 0.097743 0.728740
vt 0.147473 0.728740
vt 0.023102 0.683879
vt 0.072832 0.683879
vt 0.839053 0.155227
vt 0.839053 0.128051
vt 0.853586 0.141983
vt 0.792656 0.128051
vt 0.789733 0.155644
vt 0.775006 0.141983
vt 0.839052 0.181353
vt 0.853586 0.181353
vt 0.789733 0.181353
vt 0.775006 0.181353
vt 0.303907 0.110209
vt 0.304292 0.159528
vt 0.280191 0.159528
vt 0.280191 0.110209
vt 0.260988 0.364272
vt 0.260988 0.337096
vt 0.304292 0.335072
vt 0.260988 0.310970
vt 0.304292 0.310970
vt 0.479007 0.231558
vt 0.183188 0.071700
vt 0.199949 0.060488
vt 0.202964 0.067766
vt 0.083334 0.830850
vt 0.083334 0.846454
vt 0.050402 0.846495
vt 0.055328 0.830885
vt 0.239353 0.060528
vt 0.254567 0.057501
vt 0.254568 0.086057
vt 0.239354 0.082964
vt 0.221929 0.063994
vt 0.221929 0.079448
vt 0.202964 0.075645
vt 0.603995 0.240589
vt 0.623799 0.236650
vt 0.607010 0.247868
vt 0.083334 0.883667
vt 0.083334 0.999812
vt 0.043727 0.999861
vt 0.044488 0.883715
vt 0.612581 0.253438
vt 0.566297 0.322706
vt 0.537742 0.294151
vt 0.083334 0.864288
vt 0.046742 0.864333
vt 0.199950 0.082924
vt 0.010149 1.000000
vt 0.011555 0.883852
vt 0.619860 0.256453
vt 0.603607 0.338161
vt 0.015720 0.864462
vt 0.022483 0.846611
vt 0.031585 0.830984
vt 0.243642 0.112438
vt 0.230769 0.103692
vt 0.216016 0.093726
vt 0.429228 0.194532
vt 0.438329 0.210320
vt 0.410410 0.210536
vt 0.405485 0.194715
vt 0.223452 0.132630
vt 0.214906 0.119556
vt 0.205090 0.104653
vt 0.194380 0.088494
vt 0.449257 0.247753
vt 0.450663 0.363921
vt 0.417085 0.364180
vt 0.416324 0.248008
vt 0.627738 0.256453
vt 0.643991 0.338161
vt 0.445092 0.228291
vt 0.414071 0.228530
vt 0.187102 0.091509
vt 0.377478 0.364272
vt 0.377478 0.248097
vt 0.635017 0.253438
vt 0.681300 0.322706
vt 0.377478 0.228615
vt 0.377478 0.210611
vt 0.377478 0.194780
vt 0.197073 0.143558
vt 0.194180 0.128142
vt 0.190813 0.110567
vt 0.168520 0.143558
vt 0.171746 0.128142
vt 0.175360 0.110567
vt 0.179224 0.091509
vt 0.337870 0.364180
vt 0.338631 0.248008
vt 0.640588 0.247868
vt 0.709856 0.294151
vt 0.340885 0.228530
vt 0.344545 0.210536
vt 0.349471 0.194715
vt 0.304292 0.363921
vt 0.305699 0.247753
vt 0.643603 0.240589
vt 0.725310 0.256841
vt 0.309863 0.228291
vt 0.316626 0.210320
vt 0.325728 0.194532
vt 0.142140 0.132630
vt 0.151020 0.119556
vt 0.161084 0.104653
vt 0.171946 0.088494
vt 0.121949 0.112438
vt 0.135156 0.103691
vt 0.150157 0.093726
vt 0.166375 0.082924
vt 0.449257 0.078123
vt 0.450663 0.194290
vt 0.417085 0.194469
vt 0.416324 0.078299
vt 0.643603 0.232710
vt 0.725310 0.216458
vt 0.445092 0.058675
vt 0.414071 0.058840
vt 0.438329 0.040728
vt 0.410410 0.040877
vt 0.429228 0.024972
vt 0.405485 0.025098
vt 0.377478 0.078361
vt 0.377478 0.058898
vt 0.377478 0.040929
vt 0.377478 0.025143
vt 0.111022 0.086056
vt 0.126570 0.082963
vt 0.144243 0.079448
vt 0.163360 0.075645
vt 0.377478 0.194532
vt 0.522288 0.256841
vt 0.522288 0.216458
vt 0.603995 0.232710
vt 0.927960 0.141070
vt 0.927960 0.084593
vt 0.352615 0.364272
vt 0.297726 0.393810
vt 0.255748 0.395639
vt 0.254568 0.368542
vt 0.925613 0.310810
vt 0.925613 0.337933
vt 0.889614 0.337933
vt 0.889614 0.310810
vt 0.253387 0.174925
vt 0.252690 0.312749
vt 0.200121 0.310459
vt 0.211409 0.173097
vt 0.268294 0.159528
vt 0.304293 0.159528
vt 0.304292 0.257669
vt 0.268294 0.257669
vt 0.156520 0.143558
vt 0.254568 0.147828
vt 0.309015 0.531173
vt 0.306646 0.574293
vt 0.262554 0.576214
vt 0.256445 0.533463
vt 0.930154 0.475749
vt 0.885073 0.475749
vt 0.561005 0.338161
vt 0.565547 0.475899
vt 0.520466 0.475899
vt 0.525007 0.338161
vt 0.246581 0.355500
vt 0.254568 0.414535
vt 0.189400 0.411697
vt 0.202489 0.353579
vt 0.926519 0.518659
vt 0.888708 0.518659
vt 0.561911 0.518869
vt 0.524101 0.518869
vt 0.319735 0.632411
vt 0.328860 0.776969
vt 0.258046 0.780053
vt 0.254568 0.635249
vt 0.935556 0.577464
vt 0.879672 0.577464
vt 0.570948 0.577523
vt 0.515064 0.577523
vt 0.573370 0.722352
vt 0.573370 0.734804
vt 0.512642 0.754721
vt 0.512642 0.722352
vt 0.251090 0.559339
vt 0.180275 0.556255
vt 0.937977 0.722335
vt 0.877250 0.722335
vt 0.083642 0.173613
vt 0.083642 0.244495
vt 0.250548 0.571779
vt 0.179733 0.568694
vt 0.937977 0.754704
vt 0.877250 0.734786
vt 0.330269 0.809306
vt 0.259454 0.812390
vt 0.937977 0.785467
vt 0.949920 0.877358
vt 0.902003 0.877515
vt 0.902003 0.785533
vt 0.326857 0.840262
vt 0.263475 0.843022
vt 0.548616 0.785500
vt 0.512642 0.785538
vt 0.853586 0.268639
vt 0.838943 0.310810
vt 0.785008 0.310810
vt 0.779136 0.268639
vt 0.548616 0.877296
vt 0.902003 0.942437
vt 0.902003 1.000000
vt 0.330850 0.931924
vt 0.267468 0.934685
vt 0.500700 0.877429
vt 0.156520 0.192248
vt 0.112875 0.195171
vt 0.112880 0.145847
vt 0.156520 0.145847
vt 0.522288 0.308576
vt 0.478984 0.310568
vt 0.548616 0.942235
vt 0.548616 0.999967
vt 0.500700 1.000000
vt 0.493001 0.942363
vt 0.957619 0.942374
vt 0.949920 1.000000
vt 0.334334 0.996682
vt 0.258152 1.000000
vt 0.075836 0.447952
vt 0.075360 0.492812
vt 0.021420 0.492812
vt 0.020099 0.447952
vt 0.458530 0.987186
vt 0.450663 0.942411
vt 0.022057 0.313560
vt 0.029110 0.219113
vt 0.066824 0.219113
vt 0.073878 0.313560
vt 0.999957 0.942284
vt 0.992090 0.987048
vt 0.725938 0.120983
vt 0.730938 0.108729
vt 0.770005 0.108729
vt 0.775006 0.120983
vt 0.088267 0.403281
vt 0.095321 0.308834
vt 0.133035 0.308834
vt 0.140088 0.403281
vt 0.452150 0.808013
vt 0.457508 0.713557
vt 0.486156 0.713557
vt 0.491513 0.808013
vt 0.959107 0.807857
vt 0.964464 0.713300
vt 0.993112 0.713300
vt 0.998469 0.807857
vt 0.725310 0.135139
vt 0.686243 0.135139
vt 0.686243 0.083707
vt 0.725310 0.083707
vt 0.081879 0.256743
vt 0.088462 0.244495
vt 0.139894 0.244495
vt 0.146477 0.256743
vt 0.725938 0.172999
vt 0.730938 0.160652
vt 0.770005 0.160652
vt 0.775006 0.172999
vt 0.015669 0.167022
vt 0.022252 0.154774
vt 0.073683 0.154774
vt 0.080266 0.167022
vt 0.015669 0.206690
vt 0.080266 0.206690
vt 0.725730 0.271952
vt 0.739007 0.261741
vt 0.725730 0.300599
vt 0.725938 0.212669
vt 0.775006 0.212669
vt 0.081879 0.296411
vt 0.146477 0.296411
vt 0.465380 0.327950
vt 0.451777 0.338161
vt 0.451777 0.289092
vt 0.465380 0.299303
vt 0.725938 0.160652
vt 0.775006 0.160652
vt 0.959901 0.840124
vt 0.997675 0.840124
vt 0.452945 0.840294
vt 0.490719 0.840294
vt 0.080266 0.537673
vt 0.089313 0.435562
vt 0.139043 0.435562
vt 0.156520 0.537673
vt 0.023103 0.345841
vt 0.072832 0.345841
vt 0.839052 0.207479
vt 0.853586 0.220723
vt 0.839052 0.234654
vt 0.792656 0.234654
vt 0.775006 0.220723
vt 0.789733 0.207061
vt 0.256475 0.110209
vt 0.256089 0.159528
vt 0.260988 0.257669
vt 0.304292 0.286869
vt 0.260988 0.284844
vt 0.479007 0.338161
vt 0.111341 0.830885
vt 0.116267 0.846495
vt 0.230767 0.039800
vt 0.243639 0.031119
vt 0.216015 0.049716
vt 0.122181 0.883715
vt 0.122942 0.999861
vt 0.537742 0.179148
vt 0.607010 0.225432
vt 0.119927 0.864333
vt 0.194379 0.054917
vt 0.155114 0.883852
vt 0.156520 1.000000
vt 0.566298 0.150593
vt 0.612581 0.219861
vt 0.150949 0.864462
vt 0.144186 0.846611
vt 0.135084 0.830984
vt 0.214903 0.023935
vt 0.223448 0.010928
vt 0.205087 0.038788
vt 0.875021 0.141070
vt 0.898764 0.141253
vt 0.893839 0.157074
vt 0.865920 0.156858
vt 0.194176 0.015349
vt 0.197068 0.000000
vt 0.190811 0.032874
vt 0.187100 0.051902
vt 0.854992 0.194291
vt 0.887925 0.194546
vt 0.887164 0.310718
vt 0.853586 0.310459
vt 0.603607 0.135139
vt 0.619860 0.216846
vt 0.859157 0.174829
vt 0.890179 0.175068
vt 0.179223 0.051902
vt 0.926771 0.194635
vt 0.926771 0.310810
vt 0.643991 0.135139
vt 0.627738 0.216846
vt 0.926771 0.175153
vt 0.926771 0.157149
vt 0.926771 0.141318
vt 0.171742 0.015349
vt 0.168515 0.000000
vt 0.175358 0.032874
vt 0.151016 0.023935
vt 0.142136 0.010928
vt 0.161082 0.038788
vt 0.171945 0.054917
vt 0.965618 0.194546
vt 0.966379 0.310718
vt 0.681300 0.150593
vt 0.635017 0.219861
vt 0.963364 0.175068
vt 0.959704 0.157074
vt 0.954778 0.141253
vt 0.998550 0.194292
vt 0.999957 0.310459
vt 0.709856 0.179148
vt 0.640588 0.225432
vt 0.994386 0.174829
vt 0.987623 0.156858
vt 0.978521 0.141070
vt 0.135154 0.039800
vt 0.121947 0.031119
vt 0.150155 0.049716
vt 0.166374 0.060488
vt 0.126569 0.060528
vt 0.111021 0.057501
vt 0.144242 0.063994
vt 0.163360 0.067766
vt 0.305699 0.078123
vt 0.338631 0.078299
vt 0.337870 0.194469
vt 0.304293 0.194290
vt 0.309863 0.058675
vt 0.340885 0.058840
vt 0.316626 0.040728
vt 0.344545 0.040877
vt 0.325728 0.024972
vt 0.349471 0.025098
s 0
usemtl Material.001
f 10/1/1 6/2/1 5/3/1 9/4/1
f 5/5/2 1/6/2 7/7/2 9/8/2
f 1/9/3 3/10/3 8/11/3 7/12/3
f 8/13/4 10/14/4 12/15/4 2/16/4
f 1/17/5 5/18/5 6/19/5 3/20/5
f 10/14/6 8/13/6 3/21/6 6/22/6
f 11/23/7 4/24/7 14/25/7 15/26/7
f 7/12/8 8/11/8 2/27/8 4/28/8
f 9/8/9 7/7/9 4/24/9 11/23/9
f 10/29/10 9/30/10 11/31/10 12/32/10
f 13/33/11 16/34/11 20/35/11 17/36/11
f 4/28/12 2/27/12 13/37/12 14/38/12
f 12/32/13 11/31/13 15/39/13 16/40/13
f 2/16/14 12/15/14 16/34/14 13/33/14
f 19/41/15 18/42/15 22/43/15 23/44/15
f 14/38/16 13/37/16 17/45/16 18/46/16
f 15/26/17 14/25/17 18/42/17 19/41/17
f 16/40/18 15/39/18 19/47/18 20/48/18
f 24/49/19 23/50/19 27/51/19 28/52/19
f 20/48/20 19/47/20 23/50/20 24/49/20
f 17/36/21 20/35/21 24/53/21 21/54/21
f 18/46/22 17/45/22 21/55/22 22/56/22
f 25/57/5 28/58/5 34/59/5 33/60/5
f 21/54/6 24/53/6 28/61/6 25/62/6
f 22/56/3 21/55/3 25/63/3 26/64/3
f 23/44/2 22/43/2 26/65/2 27/66/2
f 30/67/23 29/68/23 37/69/23 38/70/23
f 26/64/24 25/63/24 29/68/24 30/67/24
f 27/66/2 26/65/2 30/71/2 31/72/2
f 28/52/25 27/51/25 31/73/25 32/74/25
f 84/75/26 86/76/26 55/77/26 56/78/26
f 29/68/27 25/63/27 33/79/27 35/80/27
f 28/52/28 32/74/28 36/81/28 34/82/28
f 36/81/29 32/74/29 39/83/29 42/84/29
f 50/85/30 49/86/30 87/87/30 83/88/30
f 29/68/31 35/80/31 41/89/31 37/69/31
f 31/72/32 30/71/32 38/90/32 40/91/32
f 32/74/33 31/73/33 40/92/33 39/83/33
f 46/93/34 44/94/34 89/95/34 90/96/34
f 88/97/19 45/98/19 90/99/19 92/100/19
f 53/101/35 52/102/35 86/103/35 85/104/35
f 54/105/36 53/101/36 85/104/36 48/106/36
f 51/107/37 50/85/37 83/88/37 84/108/37
f 38/70/38 37/69/38 50/85/38 51/107/38
f 42/84/19 39/83/19 53/101/19 54/105/19
f 39/83/39 40/92/39 52/102/39 53/101/39
f 37/69/40 41/89/40 49/86/40 50/85/40
f 40/91/41 38/90/41 51/109/41 52/110/41
f 58/111/42 57/112/42 56/113/42 55/114/42
f 86/103/43 52/102/43 58/115/43 55/116/43
f 77/117/44 76/118/44 62/119/44 61/120/44
f 51/107/45 84/108/45 56/121/45 57/122/45
f 69/123/46 68/124/46 64/125/46 66/126/46
f 81/127/47 80/128/47 59/129/47 60/130/47
f 76/131/48 81/132/48 60/133/48 62/134/48
f 80/135/49 77/136/49 61/137/49 59/138/49
f 64/139/5 63/140/5 65/141/5 66/142/5
f 68/143/50 72/144/50 63/145/50 64/146/50
f 72/147/51 74/148/51 65/149/51 63/150/51
f 74/151/52 69/152/52 66/153/52 65/154/52
f 61/120/53 62/119/53 70/155/53 73/156/53
f 73/156/2 70/155/2 69/152/2 74/151/2
f 59/157/54 61/158/54 73/159/54 71/160/54
f 71/161/3 73/162/3 74/148/3 72/147/3
f 60/130/55 59/129/55 71/163/55 67/164/55
f 67/164/6 71/163/6 72/144/6 68/143/6
f 62/165/56 60/166/56 67/167/56 70/168/56
f 70/169/19 67/170/19 68/124/19 69/123/19
f 51/107/57 57/122/57 78/171/57 79/172/57
f 79/172/58 78/171/58 77/136/58 80/135/58
f 58/115/59 52/102/59 82/173/59 75/174/59
f 75/174/60 82/173/60 81/132/60 76/131/60
f 52/175/61 51/176/61 79/177/61 82/178/61
f 82/178/62 79/177/62 80/128/62 81/127/62
f 57/112/63 58/111/63 75/179/63 78/180/63
f 78/180/64 75/179/64 76/118/64 77/117/64
f 43/181/65 44/182/65 84/75/65 83/183/65
f 46/184/66 45/185/66 85/186/66 86/76/66
f 44/182/67 46/184/67 86/76/67 84/75/67
f 47/187/65 43/181/65 83/183/65 87/188/65
f 45/185/68 88/189/68 48/190/68 85/186/68
f 90/191/69 89/192/69 91/193/69 92/194/69
f 44/195/3 43/196/3 89/197/3
f 43/196/3 47/198/3 91/199/3 89/197/3
f 45/98/70 46/200/70 90/99/70
f 94/201/71 95/202/71 104/203/71
f 101/204/72 100/205/72 109/206/72 110/207/72
f 102/208/73 101/209/73 110/210/73 111/211/73
f 103/212/74 102/208/74 111/211/74 112/213/74
f 104/203/75 103/212/75 112/213/75 113/214/75
f 96/215/5 93/216/5 105/217/5
f 94/201/76 104/203/76 113/214/76
f 98/218/77 97/219/77 106/220/77 107/221/77
f 114/222/5 115/223/5 106/224/5 105/217/5
f 99/225/78 98/218/78 107/221/78 108/226/78
f 100/205/79 99/225/79 108/226/79 109/206/79
f 105/217/5 93/216/5 114/222/5
f 94/201/80 113/214/80 122/227/80
f 107/221/81 106/220/81 115/228/81 116/229/81
f 123/230/5 124/231/5 115/223/5 114/222/5
f 108/226/82 107/221/82 116/229/82 117/232/82
f 109/206/83 108/226/83 117/232/83 118/233/83
f 110/207/84 109/206/84 118/233/84 119/234/84
f 111/211/85 110/210/85 119/235/85 120/236/85
f 112/213/86 111/211/86 120/236/86 121/237/86
f 113/214/87 112/213/87 121/237/87 122/227/87
f 119/238/88 118/239/88 127/240/88 128/241/88
f 120/236/89 119/235/89 128/242/89 129/243/89
f 121/237/90 120/236/90 129/243/90 130/244/90
f 122/227/91 121/237/91 130/244/91 131/245/91
f 114/222/5 93/216/5 123/230/5
f 94/201/92 122/227/92 131/245/92
f 116/246/93 115/247/93 124/248/93 125/249/93
f 132/250/5 133/251/5 124/231/5 123/230/5
f 117/252/94 116/246/94 125/249/94 126/253/94
f 118/239/95 117/252/95 126/253/95 127/240/95
f 123/230/5 93/216/5 132/250/5
f 94/201/96 131/245/96 140/254/96
f 125/249/97 124/248/97 133/255/97 134/256/97
f 141/257/5 142/258/5 133/251/5 132/250/5
f 126/253/98 125/249/98 134/256/98 135/259/98
f 127/240/99 126/253/99 135/259/99 136/260/99
f 128/241/100 127/240/100 136/260/100 137/261/100
f 129/243/101 128/242/101 137/262/101 138/263/101
f 130/244/102 129/243/102 138/263/102 139/264/102
f 131/245/103 130/244/103 139/264/103 140/254/103
f 138/263/104 137/262/104 146/265/104 147/266/104
f 139/264/105 138/263/105 147/266/105 148/267/105
f 140/254/106 139/264/106 148/267/106 149/268/106
f 132/250/5 93/216/5 141/257/5
f 94/201/107 140/254/107 149/268/107
f 134/256/108 133/255/108 142/269/108 143/270/108
f 150/271/5 151/272/5 142/258/5 141/257/5
f 135/259/109 134/256/109 143/270/109 144/273/109
f 136/260/110 135/259/110 144/273/110 145/274/110
f 137/261/111 136/260/111 145/274/111 146/275/111
f 143/270/112 142/269/112 151/276/112 152/277/112
f 316/278/5 159/279/5 151/272/5 150/271/5
f 144/273/113 143/270/113 152/277/113 153/280/113
f 145/274/114 144/273/114 153/280/114 154/281/114
f 146/275/115 145/274/115 154/281/115 155/282/115
f 147/266/116 146/265/116 155/283/116 156/284/116
f 148/267/117 147/266/117 156/284/117 157/285/117
f 149/268/118 148/267/118 157/285/118 158/286/118
f 141/257/5 93/216/5 150/271/5
f 94/201/119 149/268/119 158/286/119
f 156/284/120 155/283/120 163/287/120 164/288/120
f 157/285/121 156/284/121 164/288/121 165/289/121
f 158/286/122 157/285/122 165/289/122 166/290/122
f 150/271/5 93/216/5 316/278/5
f 94/201/123 158/286/123 166/290/123
f 152/291/124 151/292/124 159/293/124 160/294/124
f 167/295/5 168/296/5 159/279/5 316/278/5
f 153/297/125 152/291/125 160/294/125 161/298/125
f 154/299/126 153/297/126 161/298/126 162/300/126
f 155/301/127 154/299/127 162/300/127 163/302/127
f 161/298/128 160/294/128 169/303/128 170/304/128
f 162/300/129 161/298/129 170/304/129 171/305/129
f 163/302/130 162/300/130 171/305/130 172/306/130
f 164/288/131 163/287/131 172/307/131 173/308/131
f 165/289/132 164/288/132 173/308/132 174/309/132
f 166/290/133 165/289/133 174/309/133 175/310/133
f 94/201/134 166/290/134 175/310/134
f 160/294/135 159/293/135 168/311/135 169/303/135
f 96/215/5 97/312/5 255/313/5 254/314/5
f 185/1/1 184/315/1 180/316/1 181/2/1
f 180/317/6 184/318/6 182/319/6 176/320/6
f 176/321/3 182/322/3 183/323/3 178/324/3
f 183/325/9 177/326/9 187/327/9 185/328/9
f 176/329/5 178/330/5 181/331/5 180/332/5
f 185/328/2 181/333/2 178/334/2 183/325/2
f 186/335/14 190/336/14 189/337/14 179/338/14
f 182/322/8 179/339/8 177/340/8 183/323/8
f 184/318/4 186/335/4 179/338/4 182/319/4
f 185/341/10 187/342/10 186/343/10 184/344/10
f 188/345/17 192/346/17 195/347/17 191/348/17
f 179/339/12 189/349/12 188/350/12 177/340/12
f 187/342/13 191/351/13 190/352/13 186/343/13
f 177/326/7 188/345/7 191/348/7 187/327/7
f 194/353/21 198/354/21 197/355/21 193/356/21
f 189/349/16 193/357/16 192/358/16 188/350/16
f 190/336/11 194/353/11 193/356/11 189/337/11
f 191/351/18 195/359/18 194/360/18 190/352/18
f 199/361/19 203/362/19 202/363/19 198/364/19
f 195/359/20 199/361/20 198/364/20 194/360/20
f 192/346/15 196/365/15 199/366/15 195/347/15
f 193/357/22 197/367/22 196/368/22 192/358/22
f 200/369/5 33/60/5 34/59/5 203/370/5
f 196/365/2 200/371/2 203/372/2 199/366/2
f 197/367/3 201/373/3 200/374/3 196/368/3
f 198/354/6 202/375/6 201/376/6 197/355/6
f 205/377/136 209/378/136 208/379/136 204/380/136
f 201/373/137 205/377/137 204/380/137 200/374/137
f 202/375/6 206/381/6 205/382/6 201/376/6
f 203/362/138 207/383/138 206/384/138 202/363/138
f 249/385/139 221/386/139 220/387/139 251/388/139
f 204/380/27 35/80/27 33/79/27 200/374/27
f 203/362/140 34/82/140 36/81/140 207/383/140
f 36/81/141 42/84/141 210/389/141 207/383/141
f 216/390/30 248/391/30 87/87/30 49/86/30
f 204/380/31 208/379/31 41/89/31 35/80/31
f 206/381/142 211/392/142 209/393/142 205/382/142
f 207/383/143 210/389/143 211/394/143 206/384/143
f 215/395/144 253/396/144 252/397/144 213/398/144
f 88/97/19 92/100/19 253/399/19 214/400/19
f 219/401/145 250/402/145 251/403/145 218/404/145
f 54/105/36 48/106/36 250/402/36 219/401/36
f 217/405/146 249/406/146 248/391/146 216/390/146
f 209/378/147 217/405/147 216/390/147 208/379/147
f 42/84/19 54/105/19 219/401/19 210/389/19
f 210/389/148 219/401/148 218/404/148 211/394/148
f 208/379/40 216/390/40 49/86/40 41/89/40
f 211/392/149 218/407/149 217/408/149 209/393/149
f 223/409/150 220/410/150 221/411/150 222/412/150
f 251/403/151 220/413/151 223/414/151 218/404/151
f 242/415/47 226/416/47 227/417/47 241/418/47
f 217/405/152 222/419/152 221/420/152 249/406/152
f 234/421/46 231/422/46 229/423/46 233/424/46
f 246/425/44 225/426/44 224/427/44 245/428/44
f 241/429/48 227/430/48 225/431/48 246/432/48
f 245/433/49 224/434/49 226/435/49 242/436/49
f 229/437/5 231/438/5 230/439/5 228/440/5
f 233/441/153 229/442/153 228/443/153 237/444/153
f 237/445/51 228/446/51 230/447/51 239/448/51
f 239/449/154 230/450/154 231/451/154 234/452/154
f 226/416/55 238/453/55 235/454/55 227/417/55
f 238/453/6 239/449/6 234/452/6 235/454/6
f 224/455/54 236/456/54 238/19/54 226/457/54
f 236/458/3 237/445/3 239/448/3 238/459/3
f 225/426/53 232/460/53 236/461/53 224/427/53
f 232/460/2 233/441/2 237/444/2 236/461/2
f 227/462/56 235/463/56 232/464/56 225/465/56
f 235/466/19 234/421/19 233/424/19 232/467/19
f 217/405/155 244/468/155 243/469/155 222/419/155
f 244/468/58 245/433/58 242/436/58 243/469/58
f 223/414/156 240/470/156 247/471/156 218/404/156
f 240/470/60 241/429/60 246/432/60 247/471/60
f 218/472/63 247/473/63 244/474/63 217/475/63
f 247/473/64 246/425/64 245/428/64 244/474/64
f 222/412/61 243/476/61 240/477/61 223/409/61
f 243/476/62 242/415/62 241/418/62 240/477/62
f 212/478/65 248/479/65 249/385/65 213/480/65
f 215/481/157 251/388/157 250/482/157 214/483/157
f 213/480/158 249/385/158 251/388/158 215/481/158
f 47/187/65 87/188/65 248/479/65 212/478/65
f 214/483/68 250/482/68 48/190/68 88/189/68
f 253/484/69 92/194/69 91/193/69 252/485/69
f 213/486/3 252/487/3 212/488/3
f 212/488/3 252/487/3 91/199/3 47/198/3
f 214/400/159 253/399/159 215/489/159
f 101/204/160 259/490/160 258/491/160 100/205/160
f 102/208/161 260/492/161 259/493/161 101/209/161
f 103/212/162 261/494/162 260/492/162 102/208/162
f 104/203/163 95/202/163 261/494/163 103/212/163
f 96/215/5 254/314/5 93/216/5
f 98/218/164 256/495/164 255/496/164 97/219/164
f 254/314/5 255/313/5 263/497/5 262/498/5
f 99/225/165 257/499/165 256/495/165 98/218/165
f 100/205/166 258/491/166 257/499/166 99/225/166
f 254/314/5 262/498/5 93/216/5
f 94/201/167 270/500/167 95/202/167
f 256/495/168 264/501/168 263/502/168 255/496/168
f 262/498/5 263/497/5 272/503/5 271/504/5
f 257/499/169 265/505/169 264/501/169 256/495/169
f 258/491/170 266/506/170 265/505/170 257/499/170
f 259/490/171 267/507/171 266/506/171 258/491/171
f 260/492/172 268/508/172 267/509/172 259/493/172
f 261/494/173 269/510/173 268/508/173 260/492/173
f 95/202/174 270/500/174 269/510/174 261/494/174
f 267/511/175 276/512/175 275/513/175 266/514/175
f 268/508/176 277/515/176 276/516/176 267/509/176
f 269/510/177 278/517/177 277/515/177 268/508/177
f 270/500/178 279/518/178 278/517/178 269/510/178
f 262/498/5 271/504/5 93/216/5
f 94/201/179 279/518/179 270/500/179
f 264/519/180 273/520/180 272/521/180 263/522/180
f 271/504/5 272/503/5 281/523/5 280/524/5
f 265/525/181 274/526/181 273/520/181 264/519/181
f 266/514/182 275/513/182 274/526/182 265/525/182
f 271/504/5 280/524/5 93/216/5
f 94/201/183 288/527/183 279/518/183
f 273/520/184 282/528/184 281/529/184 272/521/184
f 280/524/5 281/523/5 290/530/5 289/531/5
f 274/526/185 283/532/185 282/528/185 273/520/185
f 275/513/186 284/533/186 283/532/186 274/526/186
f 276/512/187 285/534/187 284/533/187 275/513/187
f 277/515/188 286/535/188 285/536/188 276/516/188
f 278/517/189 287/537/189 286/535/189 277/515/189
f 279/518/190 288/527/190 287/537/190 278/517/190
f 286/535/191 295/538/191 294/539/191 285/536/191
f 287/537/192 296/540/192 295/538/192 286/535/192
f 288/527/193 297/541/193 296/540/193 287/537/193
f 280/524/5 289/531/5 93/216/5
f 94/201/194 297/541/194 288/527/194
f 282/528/195 291/542/195 290/543/195 281/529/195
f 289/531/5 290/530/5 299/544/5 298/545/5
f 283/532/196 292/546/196 291/542/196 282/528/196
f 284/533/197 293/547/197 292/546/197 283/532/197
f 285/534/198 294/548/198 293/547/198 284/533/198
f 291/542/199 300/549/199 299/550/199 290/543/199
f 298/545/5 299/544/5 308/551/5 307/552/5
f 292/546/200 301/553/200 300/549/200 291/542/200
f 293/547/201 302/554/201 301/553/201 292/546/201
f 294/548/202 303/555/202 302/554/202 293/547/202
f 295/538/203 304/556/203 303/557/203 294/539/203
f 296/540/204 305/558/204 304/556/204 295/538/204
f 297/541/205 306/559/205 305/558/205 296/540/205
f 289/531/5 298/545/5 93/216/5
f 94/201/206 306/559/206 297/541/206
f 304/556/207 313/560/207 312/561/207 303/557/207
f 305/558/208 314/562/208 313/560/208 304/556/208
f 105/217/5 106/224/5 97/312/5 96/215/5
f 306/559/209 315/563/209 314/562/209 305/558/209
f 298/545/5 307/552/5 93/216/5
f 94/201/210 315/563/210 306/559/210
f 300/564/211 309/565/211 308/566/211 299/567/211
f 307/552/5 308/551/5 168/296/5 167/295/5
f 301/568/212 310/569/212 309/565/212 300/564/212
f 302/570/213 311/571/213 310/569/213 301/568/213
f 303/572/214 312/573/214 311/571/214 302/570/214
f 310/569/215 170/304/215 169/303/215 309/565/215
f 311/571/216 171/305/216 170/304/216 310/569/216
f 312/573/217 172/306/217 171/305/217 311/571/217
f 313/560/218 173/308/218 172/307/218 312/561/218
f 314/562/219 174/309/219 173/308/219 313/560/219
f 315/563/220 175/310/220 174/309/220 314/562/220
f 307/552/5 167/295/5 93/216/5
f 94/201/221 175/310/221 315/563/221
f 309/565/222 169/303/222 168/311/222 308/566/222
f 167/295/5 316/278/5 93/216/5
