# Blender v2.73 (sub 0) OBJ File: ''
# www.blender.org
mtllib male_cheaple.mtl
o male_cheaple_reference
v 2.269681 3.477153 2.279734
v 2.271072 3.097898 0.898931
v 1.135847 2.793520 -2.296569
v 1.535664 2.695071 -2.329965
v 3.935368 1.373362 -3.518064
v -5.068466 1.147278 6.936553
v -3.539556 1.035308 6.307087
v -4.924691 2.148458 6.229872
v -6.143209 0.893603 1.907554
v -6.252747 0.685349 5.867845
v -25.352739 35.639843 -3.189151
v -25.722235 35.283268 -2.433706
v -24.697184 34.593700 -2.909365
v -25.044033 34.783119 -2.985194
v -25.536024 34.275185 -1.900294
v -25.540546 34.338650 -2.200742
v -25.605881 36.566883 -3.252653
v -24.864059 35.897728 -3.855952
v -25.273531 35.847645 -3.733170
v -25.556646 36.650734 -3.865433
v -25.013601 37.639565 -4.155848
v -25.539785 37.851105 -3.704832
v -24.290163 39.631512 -3.841766
v -23.912090 40.703384 -3.060314
v -22.849686 41.459953 -3.486696
v -24.923225 39.312393 -3.101172
v -24.888624 38.929413 -3.855683
v -23.251303 39.237049 -3.644374
v -23.692467 40.496918 -3.734078
v -22.943041 39.930008 -3.533471
v -23.232061 36.625072 0.786071
v -23.612242 36.700073 0.749345
v -23.571369 37.331623 0.644587
v -22.942318 37.879585 0.603780
v -23.306557 38.863213 0.317890
v -22.628721 39.800106 -0.165889
v -24.744547 39.043888 -0.956497
v -23.771378 40.831718 -1.640760
v -25.881838 37.933701 -2.218334
v -25.879383 36.425819 -2.388613
v -23.216728 39.736301 -0.137151
v -23.719793 38.815571 -0.251724
v -23.636101 37.894733 0.170327
v -23.420420 37.924824 0.563677
v -23.765970 37.236324 0.253701
v -23.724369 36.197662 0.611272
v -23.874134 38.405296 -0.515662
v -23.313162 37.699512 -0.047189
v -23.830273 36.631275 0.411305
v -25.872440 37.855103 -1.204991
v -25.996023 35.385075 -1.218535
v -26.050009 36.470520 -0.809520
v -25.834860 34.507030 -0.956659
v -25.862495 34.571369 -1.287006
v -25.643211 34.213604 -1.056985
v -25.644918 34.271126 -1.394310
v -25.643316 34.686256 -1.539867
v -25.749735 35.998703 -1.473769
v -26.062187 36.497391 -1.196949
v -25.427002 37.096146 -1.722372
v -25.620428 34.619560 -0.882180
v -25.955824 35.320961 -0.883793
v -3.512530 0.064355 -3.862540
v -1.541176 2.855478 -2.293000
v -3.445436 1.545068 -3.692651
v -5.064482 0.353350 6.916968
v -6.252747 0.085501 5.867845
v -2.169808 0.053310 2.858364
v -6.137345 0.062662 1.865255
v -2.566827 2.428522 2.001953
v -2.207993 0.893600 2.942953
v -1.554134 1.114465 -2.197065
v -1.547874 0.056685 -2.829303
v -3.560755 0.085501 6.415538
v -7.453461 37.659187 -0.432586
v -4.367272 37.918919 -4.782082
v -4.161228 35.849297 -4.560190
v -0.008724 37.131348 -5.704425
v -0.544571 34.326633 -5.516901
v -7.443439 31.244097 0.488568
v -6.803028 24.665007 0.560078
v -4.213322 31.071741 -4.088274
v -3.954702 25.138956 -3.629369
v -3.885858 20.881100 -3.903348
v -6.932022 20.703028 -0.790098
v -6.969724 16.102268 -0.995197
v -6.399711 7.308657 -1.014342
v -3.773744 8.064465 -4.554698
v -1.176553 2.710753 -2.211844
v -0.817079 7.763661 -2.778002
v -3.749203 17.358070 -4.189412
v -0.889837 24.868734 -2.673432
v -0.165616 30.470333 -2.735061
v 2.286754 7.649836 1.474923
v 4.535590 7.479460 1.473734
v 4.455850 3.726353 2.038264
v 5.858225 3.297197 -0.371326
v 0.053681 30.276758 0.932987
v 1.483914 24.733587 3.302833
v 0.313373 24.126863 0.938501
v 2.043542 17.493216 2.328818
v 0.483566 20.217407 0.084748
v 5.120019 17.328024 2.173074
v 5.670341 20.452366 1.933795
v 3.504145 20.379204 3.217571
v 4.133772 31.071743 -4.288166
v 7.213275 34.462860 0.315457
v 6.604497 24.878460 0.935579
v 1.425031 20.363892 2.137754
v 3.810238 24.609770 3.728519
v 0.343964 32.826000 3.651823
v -0.000015 33.264214 0.759023
v 0.567005 30.379717 3.236063
v 0.603149 33.940006 4.685700
v 3.691359 34.198307 4.493497
v 4.061114 31.069269 4.328701
v 7.141943 31.244102 0.947916
v 1.768239 1.248350 -2.833930
v 3.539504 1.035323 6.307085
v 2.207941 0.893613 2.942952
v 2.169756 0.053324 2.858364
v -3.730937 2.846496 -4.016805
v -4.429036 30.815708 4.345218
v -0.828713 32.869690 4.135621
v -4.632325 33.804638 4.316208
v -7.443742 34.384590 0.262851
v -4.022526 24.602221 3.642869
v -5.670380 20.452358 1.933794
v 0.047101 33.075577 -4.269742
v -0.053714 30.276760 0.932987
v -0.422106 24.178534 0.938501
v -0.567037 30.379726 3.236063
v -1.483949 24.733593 3.302834
v -3.504184 20.379200 3.217572
v -2.190328 17.676922 2.328819
v -5.458426 16.274559 1.840109
v -4.717916 8.454715 1.473735
v -2.668238 8.388595 1.473731
v -1.425071 20.363894 2.137755
v -0.483605 20.217411 0.084748
v -1.325531 20.920261 -2.992916
v -0.878675 16.657148 -2.404639
v 4.131405 35.877937 -4.904669
v 0.029141 38.004009 -5.933710
v 0.685251 34.315151 -5.598439
v 3.954667 25.138960 -3.642327
v 0.774081 6.699996 -2.793872
v 0.965788 16.657154 -2.404638
v 7.378676 58.826099 -4.692213
v 8.966821 59.241226 0.095411
v 7.079103 60.083984 0.201751
v 7.277240 53.034901 -2.323919
v 7.505764 53.418903 0.390168
v 7.439693 54.841999 1.661298
v 9.859486 54.896706 0.880839
v 9.138833 59.687977 -2.906434
v 12.268621 56.593925 -1.863830
v 17.055223 50.697193 -1.765327
v 18.614843 48.948147 -2.194362
v 21.175772 45.170067 -2.238639
v 11.491676 56.172409 -0.088430
v 14.966479 53.028809 -1.669042
v 15.254624 46.188766 -0.234540
v 15.630858 49.639832 0.325790
v 11.541275 50.920692 -0.203665
v 10.970070 50.099174 -1.582982
v 9.049209 52.908325 -0.307691
v 13.862639 48.302536 0.003235
v 13.359252 47.396397 -1.437411
v 16.763023 47.702515 0.230808
v 13.175988 52.108276 0.638996
v 17.894909 42.202396 -1.884561
v 19.087395 44.224205 -0.005602
v 21.820387 39.177944 -3.619222
v 14.407735 45.880486 -1.685757
v 14.120200 48.374317 -4.031952
v 8.698687 52.702503 -1.839040
v -4.697740 44.579376 4.472529
v -7.301444 43.717709 -0.290341
v -6.969493 52.461391 -3.740945
v -4.637410 48.344425 4.541577
v -7.771728 53.288754 -1.656691
v -7.985506 53.734615 -3.644506
v -7.462581 51.701920 -1.215268
v -7.131223 47.422424 -0.069358
v 0.128149 43.723862 5.894041
v -4.982938 36.342255 4.278225
v -5.101233 39.647350 4.580059
v -7.429486 39.605415 -0.038905
v -4.582522 40.080608 -5.134899
v 0.020900 40.249653 -6.094342
v 0.001503 36.454365 5.158940
v -2.729617 61.332565 0.637604
v -2.031238 60.375660 2.130836
v -4.420577 60.678593 0.477766
v -0.018964 58.056648 4.115266
v -7.336835 55.094929 1.421991
v -5.312560 52.296879 3.486817
v -4.300760 56.912357 3.748587
v -7.559838 60.538494 -0.027239
v 1.896462 62.563587 -3.024611
v 4.129586 52.478592 4.660010
v 7.033723 51.205696 0.258568
v 6.990084 44.249874 -0.182814
v 4.198527 36.350414 4.211792
v 7.105318 39.477768 -0.409241
v 7.200141 37.400940 -0.711087
v 5.965340 52.668011 -4.417571
v 7.145628 47.809044 0.170069
v 4.829179 47.940376 -4.785953
v 4.336452 44.421631 -4.962187
v 4.086945 60.630215 0.664724
v 4.362492 57.040699 3.685146
v 0.144656 52.704128 5.686723
v 4.237063 48.039738 4.383001
v 0.109473 48.008270 6.053035
v 4.190776 44.726753 4.501202
v 0.106235 39.536186 5.420170
v 4.577107 39.398643 4.438221
v 4.367474 37.896484 -5.033988
v 4.503892 40.055504 -5.315951
v 0.053853 49.432251 -6.118985
v -0.047941 57.554592 -5.787941
v 0.074667 62.548698 -3.607207
v 4.078895 61.806854 -3.283443
v 4.853525 57.608776 -5.083982
v 7.438263 54.711422 -4.415587
v -19.306116 44.456188 -0.205940
v -18.996199 48.284214 -2.526835
v -17.154554 47.313744 -0.000872
v -15.941070 50.490635 0.174501
v -12.935884 53.808765 0.335591
v -10.687720 52.478859 0.307782
v -7.400883 58.063721 1.885681
v -8.774669 59.995750 -0.391845
v -9.225829 57.374802 1.016623
v -7.682036 60.181526 -3.908819
v -7.720098 56.516258 -5.210227
v -9.138130 56.046741 -4.618048
v -9.282501 59.500652 -3.181296
v -12.202046 53.262997 -4.186265
v -10.027667 51.889454 -3.581225
v -14.852222 46.300694 -3.569649
v -16.677170 47.483639 -4.389384
v -15.014014 50.043072 -4.475524
v -24.625402 40.839153 -1.447906
v -21.595081 45.186039 -2.312336
v -16.718735 51.059940 -1.783260
v -11.023793 57.607506 -2.909821
v -11.004370 57.780777 -0.976370
v -13.994803 54.445671 -2.107131
v 3.473624 2.132221 5.588866
v 5.064432 0.351979 6.916966
v 3.667886 2.826538 -3.710656
v 5.679871 2.428526 1.368585
v 6.229833 1.035321 5.759732
v 5.068415 1.147292 6.936552
v 6.252696 0.085510 5.867844
v 6.143157 0.893614 1.907554
v 6.149168 0.062718 1.902182
v 3.512479 0.064371 -3.862540
v 0.572469 60.429115 3.213648
v -0.090963 61.541279 3.222948
v -0.064944 61.065449 -0.483378
v 2.512285 62.566208 1.045923
v 2.495248 63.445354 -1.158866
v 1.749974 63.882484 -2.604960
v 0.100471 64.027069 -2.895514
v 0.506079 30.470324 -3.072030
v 1.091173 24.868727 -2.558241
v 1.325494 20.920259 -2.992916
v -4.816336 43.982033 -4.579097
v -0.009790 44.342594 -6.175122
v -4.927273 47.704758 -4.890758
v -0.000008 53.268738 -6.156175
v -4.731215 53.069153 -5.331726
v -5.235005 56.965111 -5.376389
v -4.902079 61.658318 -3.564603
v 0.031332 61.124409 -4.689188
v 6.558963 20.703039 -0.630938
v 3.982663 20.882471 -3.748164
v 3.688499 17.207048 -4.189411
v 6.293199 15.903282 -0.995197
v 3.670980 7.272647 -4.603652
v 6.348036 7.178271 -0.889115
v 7.057577 60.967731 -3.028054
v 3.128295 66.422493 0.317441
v 3.340392 67.259453 -0.956710
v 3.092446 67.695793 -0.872872
v 3.159997 68.545433 -0.440647
v 3.187906 68.898125 -0.229176
v 3.313266 68.742203 -0.224938
v 3.557490 68.786499 -0.769628
v 3.382164 68.879066 -0.779198
v 3.670216 68.450882 -1.137306
v 3.500593 68.480255 -1.221474
v 3.611989 68.061028 -1.195236
v 3.430907 68.017807 -1.321518
v 3.354779 66.748940 -0.115870
v 3.224797 66.612648 -0.273829
v 3.367662 68.503830 -0.414843
v 3.518371 67.339912 -0.817155
v 3.181924 67.209381 -0.125592
v 3.025451 66.524117 0.677196
v 3.011690 67.428009 1.025437
v 2.714143 68.026443 2.336761
v 2.632313 67.485390 2.956287
v 2.205241 68.001472 3.534244
v 1.181150 69.100250 4.074492
v 3.094217 66.944199 0.562636
v 3.054209 67.704208 0.342123
v 3.338197 67.750488 -0.676230
v 3.516803 68.319229 -0.889155
v 1.323127 67.733315 4.055864
v 0.812967 68.480080 3.955247
v 0.591782 67.857224 4.569734
v 1.618346 68.454437 3.790817
v -0.005511 69.160873 4.444502
v 2.108662 68.974274 3.522845
v 2.669243 69.027863 2.164577
v 2.975089 68.209801 0.672005
v 3.208167 68.386383 0.012019
v -1.581748 68.454437 3.790817
v -1.003340 69.062393 4.167264
v -1.202150 69.779030 4.389589
v 1.229945 70.590797 3.959261
v 1.430317 69.737709 4.220627
v 2.313972 70.021805 3.037905
v -1.795557 69.163162 3.835707
v -2.595716 67.485390 2.956287
v -2.677545 68.026443 2.336761
v -1.912157 69.863945 3.715179
v 0.002207 70.045166 4.460234
v 1.253373 71.510849 3.320564
v 2.859824 71.369003 -0.617284
v 2.011035 71.491585 -2.005323
v 1.336354 72.244141 -1.518095
v 2.134818 72.186264 -0.316506
v 0.865555 72.677277 1.407474
v 1.976776 72.106781 1.619128
v 2.243066 71.413834 2.435536
v 0.018299 71.581261 3.672179
v 0.024090 70.749268 4.103056
v -1.193347 70.590797 3.959261
v -2.471794 68.998672 2.663064
v 1.065951 72.325851 2.564015
v 0.956856 72.756371 -0.365649
v 0.018299 72.790405 -0.767913
v 0.018299 72.894875 0.309985
v -1.235616 68.647362 -3.693234
v -1.154122 70.323936 -3.461663
v -3.109113 69.002464 -0.951479
v -3.114998 70.494972 -0.751810
v -2.692389 71.314278 1.405048
v -2.400720 70.243149 2.692652
v -2.206468 71.413834 2.435536
v -1.216775 71.510849 3.320564
v -2.424337 70.222099 -2.491714
v -2.823226 71.369003 -0.617284
v 0.018299 72.409401 2.646280
v -1.029352 72.325851 2.564015
v 0.018299 72.811287 1.257602
v -2.098220 72.186264 -0.316506
v -1.940178 72.106781 1.619128
v -1.974437 71.491585 -2.005323
v -0.868790 71.608917 -2.688342
v 0.018299 70.501671 -3.480464
v -1.299756 72.244141 -1.518095
v -0.828957 72.677277 1.407474
v -0.920258 72.756371 -0.365649
v 0.018299 72.395233 -1.807329
v 0.018299 71.807297 -2.634238
v -0.827489 62.782452 2.589891
v -2.360048 62.835247 -0.160851
v -2.391126 64.516197 0.267902
v -2.242297 64.513634 -1.206650
v -2.296064 65.460220 -1.409285
v -1.289888 65.531097 -2.542342
v -1.254870 66.700417 -3.110323
v -2.406474 68.464470 -2.784679
v -2.897997 70.091446 1.127614
v -2.938491 68.209801 0.672005
v -1.263402 64.312393 -2.158319
v -2.951147 66.715797 0.747882
v -2.758469 65.737793 0.873293
v -2.756546 65.787567 0.081241
v -2.628158 66.926270 -1.539371
v -3.055847 67.695793 -0.872872
v -2.974234 66.806915 -0.418080
v -3.188199 66.612648 -0.273829
v -3.303793 67.259453 -0.956710
v -3.345565 68.879066 -0.779198
v -3.151308 68.898125 -0.229176
v -3.276668 68.742203 -0.224938
v -3.017612 67.704208 0.342123
v -2.975092 67.428009 1.025437
v -3.057619 66.944199 0.562636
v -2.988854 66.524117 0.677196
v -3.091697 66.422493 0.317441
v -3.318182 66.748940 -0.115870
v -3.145326 67.209381 -0.125592
v -3.481772 67.339912 -0.817155
v -3.575391 68.061028 -1.195236
v -3.633618 68.450882 -1.137306
v -3.480205 68.319229 -0.889155
v -3.520891 68.786499 -0.769628
v -3.331064 68.503830 -0.414843
v -3.171569 68.386383 0.012019
v -3.301599 67.750488 -0.676230
v 0.882291 64.612190 4.301262
v 0.948930 64.391846 4.171556
v 1.247826 64.794495 4.027649
v 0.023384 64.804092 4.850003
v 0.018299 64.946877 4.800589
v -0.661495 65.005104 4.489858
v -0.848798 64.867851 4.465425
v -0.513186 64.353661 4.411642
v 0.698093 65.005104 4.489858
v -0.000075 65.111732 4.529714
v 0.885396 64.867851 4.465425
v -0.441141 64.547508 4.677345
v 0.477739 64.547508 4.677347
v 0.018299 64.522896 4.828547
v 0.549784 64.353661 4.411642
v -0.943360 65.356720 4.338322
v -0.519048 65.588516 4.806025
v -0.616919 65.919098 4.711887
v -0.989703 65.077286 4.180040
v -0.379239 65.329895 4.713454
v 0.415837 65.329895 4.713454
v 1.026301 65.077286 4.180040
v 0.018299 65.694260 4.940464
v 0.555646 65.588516 4.806025
v 0.018299 65.973022 4.867334
v 0.610496 66.401489 4.676023
v 0.018299 65.360550 4.895711
v 0.979958 65.356720 4.338322
v 0.653517 65.919098 4.711888
v 1.431912 65.167267 3.938075
v 0.937612 66.789429 4.581940
v 0.448004 67.111809 5.467986
v 0.456023 66.832169 5.437458
v 0.018299 66.236992 4.881188
v -0.573898 66.401489 4.676023
v 0.018299 67.280098 5.603708
v 0.018299 66.887054 5.714874
v 0.018299 66.458847 5.347847
v -0.901014 66.789429 4.581940
v -1.823861 66.908646 3.929003
v -1.967464 67.421486 3.901675
v -2.168643 68.001472 3.534244
v -1.053181 67.901688 4.086477
v -0.478854 67.842972 4.632928
v -0.776369 68.480080 3.955247
v -0.821474 67.267212 4.612072
v -0.419425 66.832169 5.437458
v 0.013196 68.159149 4.853618
v -0.411406 67.111809 5.467986
v 0.018299 64.283226 4.499135
v 0.385495 64.032135 4.425575
v 1.086413 63.818657 3.975965
v 0.018299 63.662045 4.446204
v -1.105950 63.191078 3.656103
v -1.885366 64.163826 2.141564
v -2.167162 65.216415 2.587018
v -2.535639 66.644600 2.539025
v -2.851645 67.100037 1.703247
v 0.018299 63.060131 4.227839
v -2.333970 64.516548 1.174751
v -1.866743 63.331287 1.112072
v -1.737202 63.409737 1.957351
v -0.687762 62.966427 3.374897
v -1.612028 64.162888 3.164388
v -1.211228 64.794495 4.027649
v -0.421982 64.040016 4.393172
v -1.049815 63.818657 3.975965
v -0.912332 64.391846 4.171556
v -0.845693 64.612190 4.301262
v -1.395314 65.167267 3.938076
v -1.651458 66.165443 3.901214
v 0.018299 65.435684 -2.676292
v 0.018299 64.330605 -2.385520
v -1.161890 63.217495 -2.485904
v -1.204403 62.341606 -3.126705
v -2.207151 63.204388 -1.473151
v -2.209818 62.031479 -2.033229
v -1.621399 61.890644 1.374060
v -2.513902 61.386192 -0.535237
v -1.966220 60.721218 0.800399
v -0.659400 61.479851 1.982292
v 0.712671 62.963055 3.393919
v 0.018299 62.693108 2.931467
v -1.045552 60.398518 1.428995
v 0.018299 61.370388 2.169441
v 0.695998 61.479851 1.982292
v 0.864087 62.782452 2.589891
v 1.142548 63.191078 3.656103
v 1.921964 64.163826 2.141564
v 1.648626 64.162888 3.164388
v 1.860459 66.908646 3.929002
v 1.688056 66.165443 3.901214
v 2.004062 67.421486 3.901675
v 0.858072 67.267212 4.612072
v 2.370568 64.516548 1.174751
v 1.773800 63.409737 1.957351
v 2.203760 65.216415 2.587018
v 2.427724 64.516197 0.267902
v 1.903341 63.331287 1.112072
v 1.300000 64.312393 -2.158319
v 1.326486 65.531097 -2.542342
v 2.278895 64.513626 -1.206650
v 1.657997 61.890644 1.374060
v 1.082150 60.398518 1.428995
v 0.018299 60.302036 1.706576
v 2.243749 63.204388 -1.473151
v 1.241001 62.341606 -3.126705
v 2.246416 62.031479 -2.033229
v 2.396646 62.835247 -0.160851
v 2.550500 61.386192 -0.535237
v 2.002818 60.721218 0.800399
v 0.018299 62.416187 -3.363033
v 0.018299 63.096943 -2.753639
v 1.198488 63.217495 -2.485904
v 0.018299 66.604019 -3.396436
v 1.291469 66.700417 -3.110323
v 0.018299 68.695351 -3.798130
v 1.272214 68.647362 -3.693234
v 1.190719 70.323936 -3.461663
v 2.664756 66.926270 -1.539371
v 2.332662 65.460220 -1.409285
v 2.987745 66.715797 0.747882
v 3.010832 66.806915 -0.418080
v 2.793144 65.787567 0.081241
v 2.795067 65.737793 0.873293
v 2.572237 66.644600 2.539025
v 2.888242 67.100037 1.703247
v 2.460935 70.222099 -2.491714
v 0.905388 71.608917 -2.688342
v 2.443072 68.464470 -2.784679
v 3.145710 69.002464 -0.951479
v 3.075697 68.769485 -0.017088
v 2.934595 70.091446 1.127614
v 3.151596 70.494972 -0.751810
v 2.728987 71.314278 1.405048
v 2.566776 2.428536 2.001954
v 4.924641 2.148473 6.229870
v 4.385243 3.127919 2.972649
v 6.009846 2.132220 4.873192
v 24.006124 40.866459 -4.069243
v 18.305237 43.455051 -3.952557
v 19.845261 44.609955 -4.128903
v 17.319014 48.033096 -4.319921
v 15.468086 46.903538 -3.812951
v 16.146288 50.268776 -4.269400
v 11.853322 51.076481 -3.990362
v 14.187907 52.815632 -3.769457
v 11.665780 56.258007 -3.640909
v 9.212821 53.720604 -3.645897
v 21.635193 38.956295 -1.230494
v 21.988695 40.881020 -2.936161
v 22.946623 39.837570 0.251859
v 23.692471 40.496918 -3.734079
v 25.556654 36.650730 -3.865435
v 24.335690 38.578754 -4.062875
v 24.290167 39.631508 -3.841767
v 23.912096 40.703384 -3.060315
v 24.888628 38.929409 -3.855684
v 25.881844 37.933697 -2.218336
v 24.923229 39.312389 -3.101173
v 24.744553 39.043884 -0.956499
v 23.216732 39.736298 -0.137153
v 22.628725 39.800102 -0.165891
v 23.571373 37.331619 0.644584
v 23.053873 37.211674 0.654249
v 23.306561 38.863209 0.317888
v 23.765976 37.236320 0.253699
v 23.420425 37.924820 0.563675
v 23.612247 36.700069 0.749342
v 25.872446 37.855099 -1.204992
v 23.539858 38.280239 -0.514613
v 23.719797 38.815567 -0.251726
v 23.636105 37.894730 0.170325
v 23.313168 37.699509 -0.047191
v 23.629257 36.525402 0.198031
v 23.830278 36.631271 0.411302
v 25.643219 34.213600 -1.056988
v 25.620436 34.619556 -0.882183
v 25.759762 36.191254 -0.703176
v 25.996031 35.385071 -1.218538
v 26.050016 36.470516 -0.809523
v 25.955832 35.320957 -0.883796
v 25.862503 34.571365 -1.287009
v 25.834867 34.507027 -0.956662
v 25.644926 34.271122 -1.394312
v 25.643324 34.686253 -1.539869
v 26.062191 36.497387 -1.196951
v 25.855904 36.493591 -1.421315
v 25.427006 37.096142 -1.722374
v 1.547822 0.056700 -2.829302
v 3.560703 0.085506 6.415535
v -21.988691 40.881020 -2.936159
v -25.514277 36.052052 -1.833225
v -25.805897 35.124619 -1.911614
v -25.975643 36.338970 -1.857581
v -25.177946 34.417812 -1.878922
v -25.414339 35.148590 -1.857109
v 1.623549 60.386864 2.316134
v -23.578918 36.237942 0.816838
v -23.338423 36.194328 0.833496
v 25.805904 35.124615 -1.911616
v 25.177954 34.417809 -1.878924
v -2.549453 62.598259 1.025436
v 23.338428 36.194324 0.833493
v 23.232067 36.625069 0.786068
v 22.942324 37.879581 0.603778
v 23.156990 36.492966 0.453756
v 23.496466 37.066170 0.061764
v 22.971724 37.039104 0.317649
v 22.793617 37.719101 0.215115
v 22.532972 38.671223 0.028476
v 22.726004 38.821785 0.400437
v 23.079624 40.450760 -0.670693
v 22.680948 38.601486 -0.671043
v 22.198191 39.833519 -1.650360
v 22.421389 39.516823 -0.471994
v 22.493395 40.133541 -0.942078
v 21.756279 40.666008 -1.412001
v 22.592722 39.791317 -2.589970
v 23.251307 39.237045 -3.644375
v 22.943045 39.930004 -3.533472
v 22.972733 38.660927 -2.105458
v 24.039087 38.125187 -2.991521
v 24.897026 37.387272 -3.002951
v 24.874979 36.478584 -3.705285
v 24.694351 35.382915 -3.051036
v 24.697191 34.593697 -2.909368
v 25.414347 35.148586 -1.857111
v 24.995663 35.025757 -2.464439
v 25.008665 36.208130 -3.162893
v 25.147766 36.600578 -4.043106
v 25.013609 37.639561 -4.155849
v 24.757364 37.489120 -3.877248
v 23.874138 38.405293 -0.515664
v 23.944992 38.024097 -1.386703
v 24.665295 38.054787 -0.746298
v 25.257509 36.045444 -2.459824
v 25.514280 36.052048 -1.833227
v 25.289492 37.086891 -1.117688
v 24.743149 37.464809 -1.489729
v 25.593834 37.257671 -0.724689
v 25.699869 35.277496 -0.797426
v 25.468433 35.907932 -1.098277
v 25.466818 34.233360 -1.191989
v 25.388542 34.691422 -1.172566
v 25.688555 35.464306 -1.468486
v 25.456579 35.397964 -1.137931
v 25.749741 35.998699 -1.473772
v 25.492531 36.429237 -1.086104
v -0.086309 60.608784 3.039131
v 23.454187 36.099842 0.656973
v 23.724373 36.197659 0.611269
v 23.578924 36.237938 0.816835
v 25.044041 34.783115 -2.985197
v 25.605888 36.566879 -3.252655
v 25.539789 37.851101 -3.704833
v 25.879389 36.425816 -2.388615
v 25.975647 36.338966 -1.857583
v 25.536032 34.275181 -1.900296
v 25.193859 34.193180 -2.137773
v 25.540554 34.338646 -2.200744
v 25.007679 34.454544 -2.500848
v 25.722242 35.283264 -2.433708
v 24.663378 35.192085 -3.519813
v 25.352747 35.639839 -3.189153
v 24.864065 35.897724 -3.855954
v 25.273539 35.847641 -3.733172
v -2.674840 62.108841 -1.621667
v -1.736417 62.489082 -3.125883
v -1.733617 63.965160 -2.644446
v -2.552455 63.430939 -1.223062
v -2.042748 62.145351 2.025576
v -0.714141 60.479382 3.158904
v -25.193853 34.193184 -2.137770
v -24.694344 35.382919 -3.051034
v -24.995655 35.025761 -2.464437
v -25.007671 34.454548 -2.500845
v -25.257504 36.045448 -2.459821
v -24.743143 37.464813 -1.489726
v -24.665289 38.054790 -0.746296
v -25.759754 36.191257 -0.703173
v -25.593828 37.257675 -0.724687
v -25.289486 37.086895 -1.117687
v -25.699862 35.277500 -0.797423
v -25.456572 35.397968 -1.137928
v -25.388535 34.691425 -1.172563
v -25.008659 36.208134 -3.162891
v -23.944986 38.024101 -1.386701
v -23.539854 38.280243 -0.514611
v -22.680944 38.601490 -0.671041
v -22.972729 38.660931 -2.105457
v -24.039082 38.125191 -2.991519
v -21.756275 40.666008 -1.411999
v -22.493391 40.133541 -0.942076
v -22.592718 39.791321 -2.589968
v -24.897018 37.387276 -3.002949
v -24.335686 38.578758 -4.062874
v -24.663370 35.192089 -3.519811
v -24.874973 36.478588 -3.705283
v -25.147760 36.600582 -4.043104
v -24.757357 37.489124 -3.877246
v 2.544683 61.372417 0.336125
v 1.844917 62.037674 2.269145
v 2.510769 62.170597 -1.872272
v -3.394309 68.017807 -1.321518
v -3.463996 68.480255 -1.221474
v -3.123399 68.545433 -0.440647
v -3.039099 68.769485 -0.017088
v -25.688547 35.464310 -1.468483
v -25.468426 35.907936 -1.098274
v -25.492523 36.429241 -1.086102
v -25.855898 36.493595 -1.421312
v -23.454182 36.099846 0.656976
v -23.629251 36.525406 0.198034
v -23.156984 36.492970 0.453759
v -23.496460 37.066174 0.061767
v -22.793613 37.719105 0.215117
v -22.532967 38.671227 0.028478
v -22.198187 39.833523 -1.650359
v -22.726000 38.821789 0.400439
v -22.421385 39.516827 -0.471992
v -23.053867 37.211678 0.654252
v -22.971718 37.039108 0.317652
v -23.079620 40.450760 -0.670691
v -2.764304 3.484435 1.663008
v -5.289013 3.438831 1.077759
v -5.679920 2.428516 1.368585
v -4.385295 3.127904 2.972649
v -6.108459 1.758739 5.262405
v -3.473673 2.132210 5.588865
v 22.849689 41.459953 -3.486697
v 24.627886 40.912445 -1.300958
v -17.869139 42.510952 -1.878030
v -13.121097 47.746513 -1.452704
v -14.195539 49.088356 0.245011
v -9.939231 51.360168 -1.711010
v -15.164578 45.693748 -1.562321
v -13.357865 48.166527 -3.274419
v -21.549852 38.967148 -1.364350
v -18.407724 43.238857 -2.824924
v -19.178268 44.280258 -4.179630
v 23.771381 40.831718 -1.640761
v 23.059416 41.789379 -1.167623
v 22.371826 41.244194 -0.678846
v -23.684967 40.780663 -4.272655
v -21.664829 39.384075 -3.393314
v -22.844175 39.886024 0.268822
v -22.371822 41.244194 -0.678844
v -23.059412 41.789379 -1.167621
v -25.466810 34.233364 -1.191986
vt 0.749571 0.736137
vt 0.754961 0.735100
vt 0.749645 0.745476
vt 0.338727 0.211365
vt 0.342277 0.248024
vt 0.324035 0.246773
vt 0.920908 0.938615
vt 0.909557 0.916133
vt 0.880797 0.952945
vt 0.949868 0.767533
vt 0.918222 0.766288
vt 0.907227 0.810813
vt 0.769565 0.339215
vt 0.761578 0.316271
vt 0.789865 0.337564
vt 0.728338 0.214120
vt 0.738451 0.225251
vt 0.736212 0.238291
vt 0.673187 0.542620
vt 0.674405 0.543391
vt 0.671074 0.544430
vt 0.697769 0.537751
vt 0.698499 0.554062
vt 0.703807 0.552125
vt 0.604670 0.630286
vt 0.582325 0.629103
vt 0.572281 0.642670
vt 0.321023 0.031014
vt 0.332244 0.040518
vt 0.324479 0.036828
vt 0.273167 0.033270
vt 0.296495 0.033890
vt 0.255666 0.035417
vt 0.715484 0.751354
vt 0.723542 0.752849
vt 0.716404 0.737085
vt 0.724647 0.738025
vt 0.716066 0.725947
vt 0.722892 0.726019
vt 0.755558 0.745293
vt 0.754839 0.726216
vt 0.749573 0.728713
vt 0.736405 0.756820
vt 0.722885 0.739965
vt 0.739244 0.748065
vt 0.739465 0.733766
vt 0.739478 0.726003
vt 0.745652 0.731821
vt 0.745652 0.726216
vt 0.745116 0.745304
vt 0.724965 0.524038
vt 0.717474 0.537194
vt 0.717418 0.521947
vt 0.723195 0.557647
vt 0.725096 0.538386
vt 0.735393 0.529062
vt 0.734174 0.517595
vt 0.738815 0.523646
vt 0.732228 0.515713
vt 0.724064 0.514539
vt 0.720775 0.512285
vt 0.716327 0.511517
vt 0.719035 0.510963
vt 0.737244 0.540501
vt 0.743292 0.531771
vt 0.745019 0.533454
vt 0.746169 0.541575
vt 0.747449 0.540551
vt 0.744247 0.556939
vt 0.749638 0.554986
vt 0.748437 0.569208
vt 0.745464 0.571672
vt 0.744229 0.581543
vt 0.734609 0.576595
vt 0.732348 0.595887
vt 0.711243 0.597904
vt 0.736587 0.607107
vt 0.741682 0.593507
vt 0.745045 0.581700
vt 0.742555 0.590895
vt 0.670744 0.542548
vt 0.670132 0.549445
vt 0.668064 0.543638
vt 0.674502 0.547783
vt 0.670638 0.564704
vt 0.676321 0.562703
vt 0.674132 0.573382
vt 0.679271 0.570711
vt 0.676456 0.587825
vt 0.682927 0.584380
vt 0.684138 0.598866
vt 0.691131 0.593227
vt 0.691695 0.601055
vt 0.702615 0.573689
vt 0.692177 0.576738
vt 0.684759 0.568462
vt 0.683810 0.552606
vt 0.679263 0.545120
vt 0.673770 0.540862
vt 0.708261 0.556776
vt 0.700363 0.549630
vt 0.698965 0.561211
vt 0.693988 0.566912
vt 0.691457 0.572080
vt 0.684309 0.567559
vt 0.683820 0.552056
vt 0.678705 0.544933
vt 0.702295 0.538882
vt 0.708023 0.539161
vt 0.707757 0.525063
vt 0.702727 0.524345
vt 0.708150 0.514873
vt 0.703213 0.514132
vt 0.704152 0.510667
vt 0.709132 0.511359
vt 0.711430 0.516643
vt 0.710787 0.526512
vt 0.711209 0.533239
vt 0.710865 0.539400
vt 0.713772 0.547701
vt 0.699989 0.535771
vt 0.700883 0.524189
vt 0.701695 0.515903
vt 0.715350 0.735833
vt 0.128895 0.889228
vt 0.113591 0.904404
vt 0.093928 0.892360
vt 0.088170 0.853557
vt 0.133669 0.853980
vt 0.097240 0.797062
vt 0.119692 0.786638
vt 0.711010 0.754247
vt 0.708480 0.748065
vt 0.706890 0.733767
vt 0.707056 0.725916
vt 0.698122 0.726216
vt 0.698243 0.735091
vt 0.698840 0.745311
vt 0.076507 0.404822
vt 0.115916 0.355515
vt 0.113583 0.389140
vt 0.106617 0.421059
vt 0.076594 0.442910
vt 0.053930 0.445454
vt 0.053801 0.418549
vt 0.055838 0.394883
vt 0.076608 0.353670
vt 0.121585 0.285200
vt 0.074786 0.290148
vt 0.074337 0.244560
vt 0.109377 0.242653
vt 0.107247 0.193393
vt 0.073502 0.206839
vt 0.105826 0.099241
vt 0.074459 0.107333
vt 0.071542 0.035280
vt 0.132900 0.038784
vt 0.049455 0.049865
vt 0.053364 0.102983
vt 0.049757 0.200355
vt 0.046314 0.244979
vt 0.039777 0.287255
vt 0.035580 0.347230
vt 0.034980 0.378558
vt 0.321363 0.095704
vt 0.312000 0.211230
vt 0.370301 0.249280
vt 0.368244 0.192719
vt 0.338240 0.095324
vt 0.362424 0.090980
vt 0.350417 0.036751
vt 0.264034 0.390867
vt 0.258546 0.396545
vt 0.261753 0.356791
vt 0.286586 0.357810
vt 0.287024 0.286195
vt 0.302698 0.296244
vt 0.287080 0.239901
vt 0.303091 0.244133
vt 0.359223 0.299147
vt 0.416840 0.296499
vt 0.363435 0.373541
vt 0.420787 0.367438
vt 0.366901 0.411261
vt 0.428300 0.420879
vt 0.377175 0.442638
vt 0.324497 0.296848
vt 0.299697 0.361452
vt 0.294652 0.393611
vt 0.281954 0.392497
vt 0.323936 0.372989
vt 0.318321 0.409408
vt 0.292153 0.409348
vt 0.323455 0.436215
vt 0.293857 0.440937
vt 0.284705 0.400796
vt 0.040596 0.051561
vt 0.157085 0.350928
vt 0.189996 0.372177
vt 0.155935 0.382931
vt 0.192118 0.344173
vt 0.188261 0.385402
vt 0.156394 0.411640
vt 0.161641 0.284401
vt 0.147868 0.239969
vt 0.173957 0.239186
vt 0.185188 0.412293
vt 0.212330 0.345158
vt 0.205247 0.377144
vt 0.237310 0.378558
vt 0.237911 0.347230
vt 0.210478 0.279865
vt 0.189243 0.284764
vt 0.193572 0.239022
vt 0.184740 0.210253
vt 0.146638 0.195238
vt 0.152484 0.111512
vt 0.242108 0.287255
vt 0.180411 0.040843
vt 0.181526 0.110804
vt 0.209410 0.237453
vt 0.248644 0.244979
vt 0.246575 0.200355
vt 0.247610 0.102983
vt 0.243700 0.036824
vt 0.234841 0.038521
vt 0.394113 0.469776
vt 0.445891 0.431828
vt 0.422465 0.463299
vt 0.450767 0.397109
vt 0.447865 0.405194
vt 0.445402 0.429731
vt 0.454670 0.353861
vt 0.445437 0.292268
vt 0.412549 0.246070
vt 0.440529 0.245942
vt 0.436591 0.196324
vt 0.412833 0.202548
vt 0.432622 0.076942
vt 0.406359 0.086822
vt 0.399044 0.036011
vt 0.446956 0.033270
vt 0.560944 0.971815
vt 0.587673 0.964464
vt 0.552052 0.905206
vt 0.582557 0.997279
vt 0.624527 0.989259
vt 0.621112 0.962653
vt 0.665799 0.933037
vt 0.722936 0.921624
vt 0.698830 0.897956
vt 0.703339 0.916277
vt 0.673234 0.926129
vt 0.675348 0.897269
vt 0.649711 0.910217
vt 0.622010 0.907291
vt 0.599785 0.903528
vt 0.581303 0.841605
vt 0.538084 0.846088
vt 0.540614 0.801322
vt 0.584598 0.797934
vt 0.579888 0.765113
vt 0.543645 0.767374
vt 0.555131 0.711954
vt 0.577051 0.705664
vt 0.551961 0.649172
vt 0.618647 0.770970
vt 0.649006 0.769769
vt 0.601447 0.708257
vt 0.622246 0.801511
vt 0.621193 0.850143
vt 0.651566 0.853328
vt 0.676885 0.849908
vt 0.677301 0.799684
vt 0.653483 0.804635
vt 0.670159 0.774173
vt 0.611253 0.649436
vt 0.638623 0.706859
vt 0.632783 0.652425
vt 0.664596 0.652882
vt 0.670744 0.714942
vt 0.694404 0.773975
vt 0.703807 0.800850
vt 0.705868 0.851063
vt 0.714283 0.899522
vt 0.084297 0.741930
vt 0.093191 0.755000
vt 0.084737 0.772805
vt 0.132488 0.602308
vt 0.198383 0.602763
vt 0.200839 0.656202
vt 0.129752 0.646866
vt 0.061773 0.607457
vt 0.067619 0.649730
vt 0.132679 0.687008
vt 0.066313 0.690067
vt 0.053853 0.749822
vt 0.202071 0.696998
vt 0.112795 0.749586
vt 0.091583 0.755402
vt 0.117448 0.733377
vt 0.186470 0.739896
vt 0.255338 0.693355
vt 0.255604 0.646933
vt 0.255388 0.601558
vt 0.196737 0.539747
vt 0.132806 0.540553
vt 0.062797 0.544005
vt 0.004963 0.548240
vt 0.005193 0.613083
vt 0.254736 0.745342
vt 0.253726 0.540880
vt 0.185571 0.919353
vt 0.214898 0.918708
vt 0.245106 0.924091
vt 0.189347 0.867263
vt 0.206242 0.906481
vt 0.210842 0.876026
vt 0.221311 0.858981
vt 0.236877 0.811961
vt 0.194948 0.793229
vt 0.153484 0.770013
vt 0.244229 0.853401
vt 0.155437 0.809206
vt 0.153542 0.868788
vt 0.152738 0.907896
vt 0.266720 0.917085
vt 0.298820 0.914458
vt 0.273432 0.905068
vt 0.296411 0.861998
vt 0.341779 0.855925
vt 0.305931 0.796216
vt 0.352680 0.769127
vt 0.300526 0.742607
vt 0.369887 0.760994
vt 0.368589 0.728000
vt 0.303917 0.693696
vt 0.369295 0.691197
vt 0.303064 0.657799
vt 0.373819 0.658796
vt 0.306230 0.600068
vt 0.377117 0.600925
vt 0.311467 0.538567
vt 0.375546 0.540878
vt 0.430770 0.607185
vt 0.400788 0.749309
vt 0.430188 0.744057
vt 0.424575 0.692620
vt 0.422870 0.654493
vt 0.274003 0.873761
vt 0.263660 0.861517
vt 0.257043 0.540344
vt 0.430642 0.544574
vt 0.485208 0.544173
vt 0.485536 0.609289
vt 0.485819 0.653637
vt 0.483392 0.708784
vt 0.487377 0.750354
vt 0.487334 0.795149
vt 0.444910 0.796615
vt 0.486860 0.835163
vt 0.450859 0.852526
vt 0.486528 0.853870
vt 0.415698 0.844275
vt 0.414382 0.808690
vt 0.419094 0.766367
vt 0.812924 0.879068
vt 0.757661 0.924800
vt 0.792785 0.949980
vt 0.814661 0.971396
vt 0.848017 0.715072
vt 0.878513 0.634975
vt 0.858386 0.636590
vt 0.888436 0.702651
vt 0.873868 0.757456
vt 0.835388 0.765256
vt 0.846247 0.810431
vt 0.820783 0.811072
vt 0.845363 0.873202
vt 0.837978 0.945318
vt 0.854284 0.993593
vt 0.859066 0.976604
vt 0.891759 0.974146
vt 0.954661 0.919274
vt 0.953988 0.872640
vt 0.876780 0.917136
vt 0.908025 0.870879
vt 0.958430 0.802912
vt 0.923873 0.631557
vt 0.925621 0.713459
vt 0.868187 0.808253
vt 0.873421 0.868900
vt 0.864197 0.932374
vt 0.745595 0.735086
vt 0.246014 0.555871
vt 0.236046 0.596802
vt 0.236181 0.558529
vt 0.246051 0.597347
vt 0.245857 0.612239
vt 0.245802 0.599636
vt 0.247181 0.591784
vt 0.244574 0.593630
vt 0.241730 0.882831
vt 0.242165 0.854043
vt 0.266092 0.863501
vt 0.272274 0.878470
vt 0.269895 0.904047
vt 0.260881 0.919229
vt 0.242535 0.921439
vt 0.221247 0.917660
vt 0.266715 0.292268
vt 0.263873 0.245942
vt 0.259530 0.196324
vt 0.257357 0.076942
vt 0.005289 0.656906
vt 0.004421 0.711661
vt 0.004037 0.750512
vt 0.059454 0.788895
vt 0.085063 0.784595
vt 0.087940 0.829432
vt 0.056749 0.848217
vt 0.003938 0.795149
vt 0.001764 0.835163
vt 0.001432 0.853870
vt 0.339252 0.901795
vt 0.875845 0.247781
vt 0.874511 0.255809
vt 0.884363 0.242326
vt 0.903191 0.255160
vt 0.897834 0.247828
vt 0.911451 0.271487
vt 0.913269 0.289474
vt 0.917798 0.300848
vt 0.905632 0.325500
vt 0.916166 0.319953
vt 0.910526 0.337754
vt 0.901666 0.340574
vt 0.897691 0.336152
vt 0.900245 0.334273
vt 0.908568 0.334040
vt 0.913132 0.319076
vt 0.914034 0.303069
vt 0.907409 0.275266
vt 0.893794 0.253936
vt 0.903178 0.323911
vt 0.910267 0.314667
vt 0.907146 0.292421
vt 0.896102 0.272552
vt 0.879601 0.264372
vt 0.868974 0.285692
vt 0.850209 0.274930
vt 0.835270 0.314814
vt 0.820206 0.295204
vt 0.804416 0.318260
vt 0.804188 0.357624
vt 0.777856 0.364780
vt 0.886977 0.294337
vt 0.841143 0.354739
vt 0.880102 0.316045
vt 0.895260 0.320742
vt 0.794933 0.296134
vt 0.780037 0.309339
vt 0.748661 0.329558
vt 0.748169 0.368613
vt 0.782495 0.391146
vt 0.818647 0.398252
vt 0.872709 0.393962
vt 0.748804 0.296742
vt 0.868056 0.444529
vt 0.707742 0.337564
vt 0.728043 0.339215
vt 0.723763 0.363592
vt 0.720605 0.393449
vt 0.748420 0.404492
vt 0.781431 0.424730
vt 0.703117 0.366440
vt 0.693191 0.318260
vt 0.677402 0.295204
vt 0.662337 0.314814
vt 0.669789 0.355412
vt 0.698236 0.394378
vt 0.716177 0.424730
vt 0.748962 0.431684
vt 0.791838 0.459622
vt 0.834586 0.452398
vt 0.861146 0.477429
vt 0.917585 0.439219
vt 0.923838 0.473444
vt 0.951796 0.439018
vt 0.960750 0.471316
vt 0.994365 0.476360
vt 0.994365 0.489577
vt 0.956306 0.489696
vt 0.871572 0.493092
vt 0.805425 0.489820
vt 0.748804 0.463783
vt 0.705770 0.459622
vt 0.669471 0.405933
vt 0.624899 0.393962
vt 0.994365 0.497962
vt 0.994365 0.497821
vt 0.527604 0.240825
vt 0.547741 0.313495
vt 0.523578 0.317522
vt 0.522615 0.386298
vt 0.549262 0.385783
vt 0.581326 0.342112
vt 0.582503 0.403313
vt 0.629551 0.444529
vt 0.663022 0.452398
vt 0.692183 0.489820
vt 0.748804 0.493511
vt 0.580023 0.439219
vt 0.636461 0.477429
vt 0.503243 0.498628
vt 0.626036 0.493758
vt 0.573770 0.473444
vt 0.545812 0.439018
vt 0.520381 0.441228
vt 0.503243 0.393428
vt 0.503243 0.319075
vt 0.503243 0.235855
vt 0.532913 0.195573
vt 0.503243 0.191209
vt 0.536858 0.471316
vt 0.541302 0.490362
vt 0.503243 0.498487
vt 0.503243 0.490243
vt 0.503243 0.476360
vt 0.503243 0.449466
vt 0.718726 0.100920
vt 0.648846 0.117651
vt 0.667400 0.060269
vt 0.604999 0.092819
vt 0.613719 0.162507
vt 0.568874 0.102888
vt 0.572403 0.156915
vt 0.537011 0.145221
vt 0.567610 0.196919
vt 0.568316 0.255822
vt 0.584338 0.289474
vt 0.599917 0.336152
vt 0.617506 0.316045
vt 0.628634 0.285692
vt 0.532487 0.099649
vt 0.647398 0.274930
vt 0.623097 0.255809
vt 0.628926 0.216659
vt 0.606970 0.215727
vt 0.594417 0.255160
vt 0.599774 0.247828
vt 0.613245 0.242326
vt 0.603814 0.253936
vt 0.586157 0.271487
vt 0.590199 0.275266
vt 0.579809 0.300848
vt 0.583573 0.303069
vt 0.581442 0.319953
vt 0.584476 0.319076
vt 0.587082 0.337754
vt 0.589040 0.334040
vt 0.595942 0.340574
vt 0.597363 0.334273
vt 0.602348 0.320742
vt 0.610631 0.294337
vt 0.618007 0.264372
vt 0.621763 0.247781
vt 0.601506 0.272552
vt 0.590462 0.292421
vt 0.587340 0.314667
vt 0.594430 0.323911
vt 0.731087 0.194790
vt 0.748881 0.193639
vt 0.734865 0.200441
vt 0.739866 0.182603
vt 0.767948 0.111228
vt 0.779281 0.127163
vt 0.748804 0.118264
vt 0.773074 0.148053
vt 0.793488 0.158977
vt 0.769028 0.172000
vt 0.776446 0.190189
vt 0.767118 0.183823
vt 0.770984 0.202212
vt 0.766521 0.194790
vt 0.762743 0.200441
vt 0.748804 0.199239
vt 0.750795 0.204898
vt 0.726624 0.202212
vt 0.730490 0.183823
vt 0.737824 0.171347
vt 0.759783 0.171347
vt 0.757742 0.182603
vt 0.748804 0.182168
vt 0.748804 0.168819
vt 0.756330 0.158374
vt 0.740992 0.214430
vt 0.748804 0.216350
vt 0.756616 0.214430
vt 0.769270 0.214120
vt 0.781253 0.204956
vt 0.748804 0.230034
vt 0.759157 0.225251
vt 0.748804 0.241054
vt 0.761396 0.238291
vt 0.760865 0.257698
vt 0.748804 0.251799
vt 0.787642 0.245253
vt 0.767912 0.273063
vt 0.791400 0.275461
vt 0.766549 0.292529
vt 0.756159 0.289420
vt 0.756304 0.277978
vt 0.748804 0.262522
vt 0.736742 0.257698
vt 0.748804 0.281234
vt 0.741304 0.277978
vt 0.729696 0.273063
vt 0.709965 0.245253
vt 0.706208 0.275461
vt 0.671480 0.259592
vt 0.702675 0.296134
vt 0.722931 0.316274
vt 0.738100 0.315929
vt 0.731059 0.292529
vt 0.741448 0.289420
vt 0.739714 0.158573
vt 0.748804 0.143459
vt 0.724534 0.148053
vt 0.718327 0.127163
vt 0.704120 0.158977
vt 0.678676 0.123975
vt 0.678580 0.155208
vt 0.643047 0.165897
vt 0.681198 0.199504
vt 0.729311 0.111294
vt 0.716355 0.204956
vt 0.721162 0.190189
vt 0.728580 0.172000
vt 0.503243 0.145113
vt 0.503243 0.093769
vt 0.529076 0.061784
vt 0.560983 0.053291
vt 0.599445 0.032728
vt 0.645132 0.010763
vt 0.690472 0.006295
vt 0.717532 0.045892
vt 0.748804 0.098572
vt 0.748804 0.042155
vt 0.503243 0.063925
vt 0.748804 0.003420
vt 0.780076 0.045892
vt 0.778881 0.100920
vt 0.818932 0.123975
vt 0.819028 0.155208
vt 0.816410 0.199504
vt 0.826128 0.259592
vt 0.868682 0.216659
vt 0.848762 0.117651
vt 0.854561 0.165897
vt 0.883889 0.162507
vt 0.890638 0.215727
vt 0.925205 0.156915
vt 0.929997 0.196919
vt 0.964695 0.195573
vt 0.970003 0.240825
vt 0.960596 0.145221
vt 0.928734 0.102888
vt 0.892609 0.092819
vt 0.830208 0.060269
vt 0.807136 0.006295
vt 0.965121 0.099649
vt 0.968532 0.061784
vt 0.936625 0.053291
vt 0.898163 0.032728
vt 0.852476 0.010763
vt 0.994365 0.063925
vt 0.994365 0.093769
vt 0.994365 0.145113
vt 0.994365 0.191209
vt 0.994365 0.235855
vt 0.994365 0.319075
vt 0.974029 0.317522
vt 0.994365 0.393428
vt 0.977227 0.441228
vt 0.994365 0.449466
vt 0.974993 0.386298
vt 0.949867 0.313495
vt 0.929292 0.255822
vt 0.948346 0.385783
vt 0.916282 0.342112
vt 0.915105 0.403313
vt 0.728500 0.667860
vt 0.693586 0.649734
vt 0.701773 0.677133
vt 0.729748 0.690099
vt 0.707032 0.704289
vt 0.728233 0.713793
vt 0.749256 0.702248
vt 0.754103 0.674607
vt 0.759203 0.649848
vt 0.537003 0.654602
vt 0.526159 0.714942
vt 0.502240 0.773975
vt 0.498049 0.800850
vt 0.496712 0.851063
vt 0.496631 0.899522
vt 0.524285 0.929472
vt 0.664475 0.629417
vt 0.630605 0.630000
vt 0.368403 0.783170
vt 0.391357 0.782372
vt 0.401098 0.846023
vt 0.354981 0.845361
vt 0.396431 0.882337
vt 0.360904 0.887156
vt 0.381635 0.899636
vt 0.714834 0.534242
vt 0.715134 0.522243
vt 0.714378 0.513583
vt -0.219272 0.886140
vt -0.233105 0.880564
vt -0.238703 0.878024
vt 0.670381 0.544383
vt -0.241202 0.907454
vt -0.265057 0.890733
vt -0.240768 0.878666
vt -0.270189 0.902192
vt -0.270686 0.926763
vt -0.261685 0.942283
vt 0.676003 0.549147
vt 0.671194 0.551054
vt 0.678095 0.557703
vt 0.673260 0.560198
vt 0.679780 0.568250
vt 0.674264 0.570419
vt 0.682770 0.583030
vt 0.677576 0.584934
vt 0.680701 0.548363
vt 0.682778 0.557546
vt 0.684508 0.567011
vt 0.693553 0.581362
vt 0.690691 0.595734
vt 0.686603 0.599558
vt 0.698320 0.604579
vt 0.694236 0.607088
vt 0.708326 0.600575
vt 0.715777 0.580992
vt 0.705157 0.610901
vt 0.695506 0.614336
vt 0.728737 0.612965
vt 0.723180 0.598617
vt 0.743847 0.603152
vt 0.746108 0.592189
vt 0.741199 0.611324
vt 0.692456 0.574495
vt 0.706170 0.569344
vt 0.730657 0.570023
vt 0.748914 0.576925
vt 0.731826 0.556881
vt 0.744869 0.558422
vt 0.733673 0.538956
vt 0.741817 0.543121
vt 0.730907 0.527470
vt 0.744588 0.535003
vt 0.736935 0.524911
vt 0.728260 0.515743
vt 0.722528 0.513048
vt 0.722326 0.521612
vt 0.712390 0.511886
vt 0.713214 0.521841
vt 0.723367 0.536172
vt 0.747094 0.543087
vt 0.749618 0.559926
vt 0.693128 0.575529
vt 0.697747 0.568250
vt 0.708737 0.558981
vt 0.717190 0.508822
vt 0.714241 0.509283
vt 0.713075 0.535799
vt 0.712260 0.551584
vt 0.703252 0.541823
vt 0.703058 0.534102
vt 0.698499 0.524236
vt 0.703306 0.526511
vt 0.699218 0.514588
vt 0.703256 0.516128
vt 0.703387 0.509094
vt 0.701637 0.508411
vt 0.709243 0.515282
vt 0.706776 0.509140
vt 0.708745 0.526801
vt 0.709276 0.534618
vt 0.708986 0.541755
vt -0.243774 0.879941
vt -0.261621 0.883604
vt 0.212098 0.573790
vt 0.204525 0.614275
vt 0.204488 0.572799
vt 0.215005 0.614874
vt 0.225136 0.576921
vt 0.228876 0.615435
vt 0.236765 0.613826
vt 0.238859 0.576275
vt 0.253914 0.574981
vt 0.253989 0.613120
vt 0.263765 0.585475
vt 0.260790 0.615188
vt 0.276734 0.582648
vt 0.273714 0.615736
vt 0.285420 0.583261
vt 0.285807 0.613185
vt 0.295844 0.579726
vt 0.295709 0.613731
vt 0.591976 0.325500
vt 0.727076 0.676764
vt 0.561239 0.628622
vt 0.536882 0.631137
vt 0.840452 0.642475
vt 0.819406 0.705931
vt 0.808207 0.769752
vt 0.799178 0.810247
vt 0.790109 0.877500
vt 0.748446 0.914174
vt 0.751484 0.876039
vt 0.758385 0.806312
vt 0.780410 0.772632
vt 0.810422 0.706231
vt 0.826286 0.641067
vt 0.799220 0.638377
vt 0.797569 0.706659
vt 0.761284 0.766288
vt 0.703771 0.607985
vt 0.694574 0.608410
usemtl Male_cheaple_sheet
s 1
f 6/1 7/2 8/3
f 103/4 104/5 105/6
f 238/7 239/8 240/9
f 243/10 244/11 245/12
f 315/13 316/14 317/15
f 425/16 426/17 427/18
f 660/19 661/20 662/21
f 690/22 691/23 692/24
f 757/25 758/26 246/27
f 2/28 96/29 1/30
f 1/30 3/31 2/28
f 4/32 2/28 3/31
f 3/31 254/33 4/32
f 4/34 254/35 118/36
f 254/35 5/37 118/36
f 5/37 599/38 118/36
f 5/37 261/39 599/38
f 8/3 7/2 739/40
f 6/1 74/41 7/2
f 6/1 66/42 74/41
f 735/43 122/35 65/44
f 65/44 736/45 735/43
f 736/45 65/44 9/46
f 63/39 9/46 65/44
f 63/39 69/47 9/46
f 10/48 9/46 69/47
f 10/48 69/47 67/49
f 10/48 67/49 66/42
f 10/48 66/42 6/1
f 738/50 10/48 6/1
f 738/50 6/1 8/3
f 738/50 736/45 9/46
f 9/46 10/48 738/50
f 12/51 604/52 603/53
f 39/54 604/52 40/55
f 12/51 40/55 604/52
f 11/56 40/55 12/51
f 14/57 11/56 12/51
f 707/58 11/56 14/57
f 13/59 707/58 14/57
f 13/59 14/57 686/60
f 14/57 12/51 686/60
f 686/60 12/51 16/61
f 16/61 12/51 603/53
f 16/61 603/53 15/62
f 683/63 16/61 15/62
f 686/60 16/61 683/63
f 11/56 17/64 40/55
f 19/65 17/64 11/56
f 19/65 11/56 707/58
f 707/58 18/66 19/65
f 18/66 20/67 19/65
f 18/66 709/68 20/67
f 709/68 22/69 20/67
f 709/68 21/70 22/69
f 706/71 22/69 21/70
f 22/69 706/71 27/72
f 706/71 23/73 27/72
f 26/74 27/72 23/73
f 24/75 26/74 23/73
f 38/76 26/74 24/75
f 25/77 38/76 24/75
f 25/77 24/75 29/78
f 24/75 23/73 29/78
f 26/74 22/69 27/72
f 28/79 23/73 706/71
f 30/80 23/73 28/79
f 30/80 29/78 23/73
f 25/77 29/78 30/80
f 608/81 31/82 609/83
f 608/81 32/84 31/82
f 32/84 731/85 31/82
f 32/84 33/86 731/85
f 33/86 34/87 731/85
f 33/86 44/88 34/87
f 44/88 729/89 34/87
f 44/88 35/90 729/89
f 35/90 36/91 729/89
f 35/90 41/92 36/91
f 41/92 733/93 36/91
f 41/92 37/94 733/93
f 733/93 37/94 38/76
f 38/76 37/94 26/74
f 37/94 39/54 26/74
f 26/74 39/54 22/69
f 39/54 40/55 22/69
f 22/69 40/55 17/64
f 22/69 17/64 20/67
f 19/65 20/67 17/64
f 37/94 41/92 42/95
f 42/95 41/92 35/90
f 43/96 42/95 35/90
f 43/96 35/90 44/88
f 45/97 43/96 44/88
f 45/97 44/88 33/86
f 49/98 45/97 33/86
f 49/98 33/86 32/84
f 46/99 49/98 32/84
f 46/99 32/84 608/81
f 37/94 50/100 39/54
f 50/100 37/94 691/101
f 37/94 689/102 691/101
f 37/94 47/103 689/102
f 42/95 47/103 37/94
f 698/104 47/103 42/95
f 698/104 42/95 43/96
f 48/105 698/104 43/96
f 45/97 48/105 43/96
f 725/106 48/105 45/97
f 49/98 725/106 45/97
f 723/107 725/106 49/98
f 46/99 723/107 49/98
f 691/101 52/108 50/100
f 59/109 50/100 52/108
f 51/110 59/109 52/108
f 51/110 52/108 62/111
f 54/112 51/110 62/111
f 54/112 62/111 53/113
f 55/114 54/112 53/113
f 56/115 54/112 55/114
f 56/115 57/116 54/112
f 54/112 57/116 51/110
f 51/110 57/116 718/117
f 51/110 718/117 58/118
f 59/109 51/110 58/118
f 59/109 58/118 721/119
f 59/109 721/119 60/120
f 59/109 60/120 50/100
f 39/54 50/100 60/120
f 690/121 52/108 691/101
f 690/121 62/111 52/108
f 693/122 62/111 690/121
f 61/123 62/111 693/122
f 61/123 53/113 62/111
f 55/114 53/113 61/123
f 72/124 73/38 63/39
f 72/124 63/39 65/44
f 65/44 64/34 72/124
f 64/34 65/44 122/35
f 74/125 66/126 67/127
f 74/125 67/127 69/128
f 74/125 69/128 68/129
f 63/130 68/129 69/128
f 63/130 73/131 68/129
f 734/132 72/124 64/34
f 734/132 70/133 72/124
f 71/134 72/124 70/133
f 71/134 73/38 72/124
f 71/134 68/135 73/38
f 71/134 74/136 68/135
f 71/134 7/137 74/136
f 739/138 7/137 71/134
f 71/134 70/133 739/138
f 77/139 80/140 126/141
f 77/139 126/141 75/142
f 75/142 76/143 77/139
f 77/139 76/143 144/144
f 77/139 144/144 78/145
f 78/145 79/146 77/139
f 79/146 82/147 77/139
f 77/139 82/147 80/140
f 81/148 80/140 82/147
f 81/148 82/147 83/149
f 84/150 81/148 83/149
f 84/150 85/151 81/148
f 86/152 85/151 84/150
f 86/152 84/150 91/153
f 91/153 87/154 86/152
f 91/153 88/155 87/154
f 122/156 87/154 88/155
f 122/156 735/157 87/154
f 88/155 89/158 122/156
f 88/155 90/159 89/158
f 142/160 90/159 88/155
f 142/160 88/155 91/153
f 91/153 141/161 142/160
f 91/153 84/150 141/161
f 141/161 84/150 83/149
f 141/161 83/149 92/162
f 83/149 93/163 92/162
f 83/149 82/147 93/163
f 79/146 93/163 82/147
f 79/146 129/164 93/163
f 94/165 103/4 101/166
f 280/167 103/4 283/168
f 283/168 103/4 95/169
f 103/4 94/165 95/169
f 94/165 96/29 95/169
f 94/165 1/30 96/29
f 283/168 95/169 285/170
f 285/170 95/169 96/29
f 285/170 96/29 97/171
f 129/172 145/173 269/174
f 129/172 269/174 98/175
f 100/176 98/175 269/174
f 99/177 98/175 100/176
f 102/178 99/177 100/176
f 102/178 109/179 99/177
f 101/166 109/179 102/178
f 101/166 105/6 109/179
f 103/4 105/6 101/166
f 280/167 104/5 103/4
f 108/180 104/5 280/167
f 146/181 108/180 280/167
f 146/181 117/182 108/180
f 146/181 106/183 117/182
f 107/184 117/182 106/183
f 107/184 106/183 143/185
f 207/186 107/184 143/185
f 108/180 105/6 104/5
f 108/180 110/187 105/6
f 110/187 109/179 105/6
f 110/187 99/177 109/179
f 110/187 113/188 99/177
f 99/177 113/188 98/175
f 111/189 98/175 113/188
f 111/189 112/190 98/175
f 112/190 129/172 98/175
f 108/180 117/182 116/191
f 108/180 116/191 110/187
f 110/187 116/191 113/188
f 116/191 111/189 113/188
f 111/189 116/191 115/192
f 111/189 115/192 114/193
f 115/192 205/194 114/193
f 114/193 205/194 192/195
f 205/194 107/184 207/186
f 205/194 115/192 107/184
f 115/192 117/182 107/184
f 115/192 116/191 117/182
f 124/196 112/190 111/189
f 111/189 114/193 124/196
f 118/36 599/38 121/135
f 2/132 4/34 118/36
f 2/132 118/36 545/133
f 545/133 118/36 120/134
f 118/36 121/135 120/134
f 121/135 119/137 120/134
f 121/135 600/136 119/137
f 252/138 120/134 119/137
f 120/134 252/138 545/133
f 89/158 64/197 122/156
f 123/198 124/199 125/200
f 132/201 124/199 123/198
f 114/202 125/200 124/199
f 187/203 125/200 114/202
f 75/142 125/200 187/203
f 75/142 126/141 125/200
f 126/141 80/140 125/200
f 123/198 125/200 80/140
f 127/204 123/198 80/140
f 127/204 80/140 81/148
f 128/205 127/204 81/148
f 85/151 128/205 81/148
f 128/205 134/206 127/204
f 192/207 187/203 114/202
f 124/199 132/201 130/208
f 124/199 130/208 112/209
f 112/209 130/208 129/210
f 129/210 130/208 93/211
f 130/208 131/212 93/211
f 131/212 130/208 132/201
f 131/212 132/201 133/213
f 133/213 132/201 123/198
f 133/213 123/198 127/204
f 133/213 127/204 139/214
f 127/204 134/206 139/214
f 135/215 139/214 134/206
f 135/215 134/206 128/205
f 135/215 128/205 136/216
f 85/151 136/216 128/205
f 85/151 86/152 136/216
f 87/154 136/216 86/152
f 87/154 137/217 136/216
f 735/157 137/217 87/154
f 93/211 131/212 92/218
f 137/217 735/157 734/219
f 137/217 734/219 138/220
f 136/216 137/217 138/220
f 136/216 138/220 135/215
f 131/212 133/213 139/214
f 131/212 139/214 140/221
f 140/221 92/218 131/212
f 140/221 141/222 92/218
f 142/223 141/222 140/221
f 142/223 140/221 139/214
f 142/223 139/214 135/215
f 135/215 90/224 142/223
f 135/215 138/220 90/224
f 138/220 89/225 90/224
f 138/220 734/219 89/225
f 64/226 89/225 734/219
f 143/185 220/227 207/186
f 78/228 220/227 143/185
f 78/228 144/229 220/227
f 145/230 129/231 79/232
f 78/228 145/230 79/232
f 143/185 145/230 78/228
f 143/185 269/233 145/230
f 143/185 106/183 269/233
f 270/234 269/233 106/183
f 270/234 106/183 146/181
f 270/234 146/181 281/235
f 270/234 281/235 271/236
f 148/237 271/236 281/235
f 148/237 281/235 282/238
f 282/238 147/239 148/237
f 282/238 284/240 147/239
f 254/241 147/239 284/240
f 254/241 3/242 147/239
f 149/243 156/244 557/245
f 156/244 149/243 286/246
f 151/247 156/244 286/246
f 151/247 150/248 156/244
f 150/248 151/247 154/249
f 227/250 177/251 152/252
f 177/251 153/253 152/252
f 177/251 167/254 153/253
f 167/254 154/249 153/253
f 154/249 167/254 155/255
f 150/248 154/249 155/255
f 150/248 155/255 161/256
f 156/244 150/248 161/256
f 156/244 161/256 157/257
f 156/244 157/257 557/245
f 162/258 557/245 157/257
f 162/258 556/259 557/245
f 162/258 554/260 556/259
f 162/258 158/261 554/260
f 554/260 158/261 159/262
f 554/260 159/262 552/263
f 551/264 552/263 159/262
f 551/264 159/262 160/265
f 160/265 549/266 551/264
f 160/265 741/27 549/266
f 161/256 162/258 157/257
f 170/267 163/268 173/269
f 163/268 170/267 164/270
f 170/267 158/261 164/270
f 162/258 164/270 158/261
f 162/258 171/271 164/270
f 161/256 171/271 162/258
f 171/271 161/256 155/255
f 155/255 165/272 171/271
f 155/255 167/254 165/272
f 166/273 165/272 167/254
f 166/273 167/254 177/251
f 169/274 165/272 166/273
f 169/274 168/275 165/272
f 168/275 171/271 165/272
f 175/276 168/275 169/274
f 741/27 173/269 561/277
f 173/269 741/27 160/265
f 160/265 170/267 173/269
f 160/265 159/262 170/267
f 170/267 159/262 158/261
f 168/275 164/270 171/271
f 163/268 164/270 168/275
f 175/276 163/268 168/275
f 173/269 163/268 175/276
f 173/269 175/276 172/278
f 172/278 561/277 173/269
f 172/278 559/279 561/277
f 559/279 172/278 174/280
f 550/281 174/280 172/278
f 550/281 172/278 175/276
f 550/281 175/276 553/282
f 169/274 553/282 175/276
f 169/274 176/283 553/282
f 166/273 176/283 169/274
f 166/273 555/284 176/283
f 166/273 558/285 555/284
f 166/273 177/251 558/285
f 177/251 227/250 558/285
f 180/286 183/287 238/288
f 189/289 188/290 178/291
f 189/289 178/291 179/292
f 190/293 189/289 179/292
f 190/293 179/292 272/294
f 272/294 179/292 185/295
f 272/294 185/295 274/296
f 185/295 180/286 274/296
f 274/296 180/286 276/297
f 178/291 185/295 179/292
f 181/298 185/295 178/291
f 182/299 183/300 180/286
f 182/299 180/286 184/301
f 185/295 184/301 180/286
f 198/302 184/301 185/295
f 185/295 181/298 198/302
f 198/302 181/298 216/303
f 216/303 181/298 178/291
f 216/303 178/291 186/304
f 218/305 186/304 178/291
f 218/305 178/291 188/290
f 187/306 218/305 188/290
f 187/306 188/290 189/289
f 187/306 189/289 75/307
f 76/308 75/307 189/289
f 76/308 189/289 190/293
f 144/309 76/308 190/293
f 144/309 190/293 191/310
f 191/310 190/293 272/294
f 198/302 216/303 214/311
f 187/306 192/312 218/305
f 278/313 678/314 224/315
f 195/316 678/314 278/313
f 195/316 677/317 678/314
f 195/316 193/318 677/317
f 193/318 195/316 194/319
f 195/316 196/320 194/319
f 195/316 199/321 196/320
f 199/321 214/311 196/320
f 199/321 198/302 214/311
f 197/322 198/302 199/321
f 197/322 184/301 198/302
f 197/322 182/299 184/301
f 196/320 659/323 194/319
f 197/322 199/321 234/324
f 200/325 234/324 199/321
f 200/325 199/321 195/316
f 200/325 195/316 278/313
f 200/325 278/313 237/326
f 224/315 201/327 225/328
f 225/328 201/327 713/329
f 225/328 713/329 212/330
f 151/331 225/328 212/330
f 212/330 213/332 151/331
f 154/333 151/331 213/332
f 213/332 202/334 154/333
f 202/334 153/335 154/333
f 202/334 203/336 153/335
f 203/336 202/334 215/337
f 203/336 215/337 209/338
f 209/338 215/337 217/339
f 209/338 217/339 204/340
f 219/341 204/340 217/339
f 219/341 206/342 204/340
f 206/342 219/341 205/343
f 206/342 205/343 207/344
f 207/344 221/345 206/342
f 203/336 152/346 153/335
f 208/347 152/346 203/336
f 208/347 203/336 209/338
f 208/347 209/338 210/348
f 204/340 210/348 209/338
f 204/340 211/349 210/348
f 206/342 211/349 204/340
f 206/342 221/345 211/349
f 212/330 713/329 711/350
f 212/330 711/350 607/351
f 213/332 212/330 607/351
f 213/332 607/351 196/320
f 202/334 213/332 196/320
f 202/334 196/320 214/311
f 215/337 202/334 214/311
f 215/337 214/311 216/303
f 215/337 216/303 186/304
f 215/337 186/304 217/339
f 218/305 217/339 186/304
f 218/305 219/341 217/339
f 218/305 205/343 219/341
f 218/305 192/352 205/343
f 659/323 196/320 607/351
f 207/344 220/353 221/345
f 144/354 221/345 220/353
f 144/354 191/355 221/345
f 191/355 273/356 221/345
f 221/345 273/356 211/349
f 273/356 222/357 211/349
f 211/349 222/357 210/348
f 275/358 210/348 222/357
f 275/358 208/347 210/348
f 223/359 208/347 275/358
f 223/359 226/360 208/347
f 226/360 223/359 279/361
f 226/360 279/361 225/362
f 224/363 225/362 279/361
f 286/364 226/360 225/362
f 286/364 149/365 226/360
f 227/366 226/360 149/365
f 227/366 208/347 226/360
f 227/366 152/346 208/347
f 233/367 182/368 197/369
f 234/370 233/367 197/369
f 228/371 246/372 756/373
f 228/371 247/374 246/372
f 228/371 229/375 247/374
f 228/371 230/376 229/375
f 229/375 230/376 231/377
f 231/377 230/376 744/378
f 232/379 231/377 744/378
f 232/379 744/378 233/367
f 233/367 236/380 232/379
f 234/370 236/380 233/367
f 200/381 236/380 234/370
f 200/381 235/382 236/380
f 237/383 235/382 200/381
f 237/383 240/9 235/382
f 238/7 240/9 237/383
f 239/8 238/7 183/384
f 183/384 242/385 239/8
f 249/386 239/8 241/387
f 239/8 249/386 240/9
f 235/382 240/9 249/386
f 241/387 239/8 242/385
f 242/385 245/12 241/387
f 242/385 747/388 245/12
f 243/10 245/12 747/388
f 247/374 754/389 246/372
f 750/390 754/389 247/374
f 247/374 244/11 750/390
f 247/374 229/375 244/11
f 244/11 229/375 248/391
f 244/11 248/391 245/12
f 241/387 245/12 248/391
f 241/387 248/391 251/392
f 249/386 241/387 251/392
f 249/386 251/392 250/393
f 235/382 249/386 250/393
f 250/393 236/380 235/382
f 232/379 236/380 250/393
f 251/392 232/379 250/393
f 251/392 231/377 232/379
f 251/392 248/391 231/377
f 229/375 231/377 248/391
f 252/40 257/1 546/3
f 252/40 119/2 257/1
f 119/2 253/42 257/1
f 119/2 600/41 253/42
f 97/43 5/37 254/35
f 5/37 97/43 255/45
f 255/45 259/46 5/37
f 548/50 259/46 255/45
f 256/394 259/46 548/50
f 256/394 548/50 546/3
f 546/3 257/1 256/394
f 257/1 258/49 256/394
f 257/1 253/42 258/49
f 258/49 259/46 256/394
f 258/49 260/47 259/46
f 5/37 259/46 260/47
f 5/37 260/47 261/39
f 678/395 268/396 224/397
f 678/395 679/398 268/396
f 263/399 659/400 262/401
f 263/399 682/402 659/400
f 264/403 263/404 712/405
f 712/405 265/406 264/403
f 265/406 266/407 264/403
f 266/407 267/408 264/403
f 264/403 267/408 268/409
f 264/403 268/409 679/410
f 100/176 269/174 270/411
f 270/411 102/178 100/176
f 270/411 271/412 102/178
f 148/413 102/178 271/412
f 101/166 102/178 148/413
f 147/414 101/166 148/413
f 101/166 147/414 94/165
f 147/414 1/30 94/165
f 147/414 3/31 1/30
f 191/310 272/294 273/415
f 272/294 274/296 273/415
f 273/415 274/296 222/416
f 274/296 275/417 222/416
f 274/296 276/297 275/417
f 275/417 276/297 277/418
f 180/286 277/418 276/297
f 238/419 277/418 180/286
f 238/419 237/420 277/418
f 237/420 278/421 277/418
f 223/422 277/418 278/421
f 223/422 278/421 279/423
f 278/421 224/424 279/423
f 275/417 277/418 223/422
f 146/181 280/167 281/235
f 282/238 281/235 280/167
f 282/238 280/167 283/168
f 283/168 284/240 282/238
f 285/170 284/240 283/168
f 284/240 285/170 97/171
f 284/240 97/171 254/241
f 151/331 286/425 225/328
f 304/426 531/427 287/428
f 287/428 531/427 532/429
f 532/429 300/430 287/428
f 532/429 288/431 300/430
f 288/431 532/429 289/432
f 289/432 298/433 288/431
f 298/433 289/432 290/434
f 290/434 296/435 298/433
f 290/434 294/436 296/435
f 290/434 291/437 294/436
f 290/434 541/438 291/437
f 541/438 290/434 289/432
f 292/439 291/437 541/438
f 291/437 292/439 293/440
f 293/440 294/436 291/437
f 294/436 293/440 295/441
f 295/441 296/435 294/436
f 296/435 295/441 297/442
f 297/442 298/433 296/435
f 298/433 297/442 302/443
f 302/443 288/431 298/433
f 288/431 302/443 299/444
f 299/444 300/430 288/431
f 299/444 287/428 300/430
f 287/428 299/444 304/426
f 292/439 301/445 293/440
f 293/440 301/445 313/446
f 313/446 295/441 293/440
f 313/446 297/442 295/441
f 297/442 313/446 312/447
f 312/447 302/443 297/442
f 302/443 312/447 303/448
f 303/448 299/444 302/443
f 299/444 303/448 310/449
f 310/449 304/426 299/444
f 304/426 310/449 531/427
f 310/449 305/450 531/427
f 536/451 531/427 305/450
f 536/451 305/450 306/452
f 306/452 307/453 536/451
f 306/452 308/454 307/453
f 319/455 308/454 306/452
f 319/455 317/15 308/454
f 319/455 309/456 317/15
f 309/456 315/13 317/15
f 310/449 311/457 305/450
f 310/449 303/448 311/457
f 303/448 312/447 311/457
f 319/455 306/452 320/458
f 320/458 306/452 305/450
f 305/450 321/459 320/458
f 311/457 321/459 305/450
f 322/460 321/459 311/457
f 311/457 301/445 322/460
f 312/447 301/445 311/457
f 301/445 312/447 313/446
f 308/454 502/461 307/453
f 502/461 308/454 314/462
f 308/454 317/15 314/462
f 316/14 314/462 317/15
f 316/14 315/13 457/463
f 318/464 457/463 315/13
f 318/464 315/13 309/456
f 309/456 327/465 318/464
f 327/465 309/456 319/455
f 319/455 328/466 327/465
f 328/466 319/455 320/458
f 320/458 542/467 328/466
f 542/467 320/458 321/459
f 321/459 541/438 542/467
f 322/460 541/438 321/459
f 541/438 322/460 292/439
f 301/445 292/439 322/460
f 457/463 445/468 316/14
f 328/466 542/467 544/469
f 323/470 454/471 324/472
f 324/472 454/471 318/464
f 318/464 325/473 324/472
f 325/473 318/464 333/474
f 333/474 318/464 327/465
f 327/465 326/475 333/474
f 327/465 328/466 326/475
f 329/476 324/472 325/473
f 323/470 324/472 329/476
f 451/477 323/470 329/476
f 330/478 451/477 331/479
f 331/479 451/477 345/480
f 451/477 329/476 345/480
f 345/480 329/476 332/481
f 325/473 332/481 329/476
f 332/481 325/473 344/482
f 333/474 344/482 325/473
f 343/483 344/482 333/474
f 333/474 326/475 343/483
f 343/483 326/475 334/484
f 334/484 326/475 328/466
f 328/466 341/485 334/484
f 328/466 544/469 341/485
f 340/486 341/485 544/469
f 340/486 544/469 335/487
f 335/487 338/488 340/486
f 338/488 335/487 336/489
f 336/489 337/490 338/488
f 337/490 371/491 348/492
f 337/490 348/492 347/493
f 347/493 338/488 337/490
f 338/488 347/493 339/494
f 339/494 340/486 338/488
f 346/495 340/486 339/494
f 341/485 340/486 346/495
f 346/495 334/484 341/485
f 342/496 334/484 346/495
f 334/484 342/496 343/483
f 343/483 342/496 357/497
f 357/497 344/482 343/483
f 332/481 344/482 357/497
f 355/498 332/481 357/497
f 332/481 355/498 345/480
f 355/498 381/499 345/480
f 346/495 339/494 362/500
f 339/494 347/493 362/500
f 347/493 349/501 362/500
f 347/493 348/492 349/501
f 379/502 380/503 350/504
f 351/505 350/504 380/503
f 380/503 358/506 351/505
f 352/507 358/506 380/503
f 358/506 352/507 353/508
f 352/507 381/499 353/508
f 353/508 381/499 354/509
f 354/509 381/499 355/498
f 356/510 354/509 355/498
f 357/497 356/510 355/498
f 356/510 357/497 361/511
f 361/511 357/497 342/496
f 342/496 360/512 361/511
f 358/506 353/508 359/513
f 354/509 359/513 353/508
f 359/513 354/509 364/514
f 354/509 356/510 364/514
f 361/511 364/514 356/510
f 346/495 360/512 342/496
f 360/512 346/495 362/515
f 362/515 361/511 360/512
f 362/515 369/516 361/511
f 369/516 364/514 361/511
f 363/517 364/514 369/516
f 364/514 363/517 359/513
f 365/518 359/513 363/517
f 359/513 365/518 358/506
f 358/506 365/518 366/519
f 366/519 351/505 358/506
f 351/505 366/519 367/520
f 350/504 351/505 367/520
f 367/520 526/521 350/504
f 379/502 350/504 526/521
f 526/521 524/522 379/502
f 378/523 379/502 524/522
f 524/522 481/524 378/523
f 368/525 366/519 365/518
f 363/517 368/525 365/518
f 368/525 363/517 370/526
f 369/516 370/526 363/517
f 362/515 370/526 369/516
f 362/515 349/527 370/526
f 349/527 348/528 370/526
f 370/526 348/528 368/525
f 348/528 371/529 368/525
f 366/519 368/525 371/529
f 371/529 372/530 366/519
f 372/530 367/520 366/519
f 373/531 470/532 487/533
f 487/533 470/532 374/534
f 470/532 375/535 374/534
f 485/536 374/534 375/535
f 375/535 376/537 485/536
f 383/538 485/536 376/537
f 383/538 376/537 377/539
f 377/539 378/523 383/538
f 379/502 378/523 377/539
f 377/539 387/540 379/502
f 380/503 379/502 387/540
f 387/540 388/541 380/503
f 388/541 352/507 380/503
f 717/542 352/507 388/541
f 352/507 717/542 381/499
f 381/499 717/542 382/543
f 382/543 345/480 381/499
f 345/480 382/543 396/544
f 485/536 383/538 483/545
f 396/544 331/479 345/480
f 331/479 396/544 467/546
f 396/544 384/547 467/546
f 467/546 384/547 385/548
f 385/548 384/547 386/549
f 385/548 386/549 375/535
f 376/537 375/535 386/549
f 386/549 377/539 376/537
f 386/549 389/550 377/539
f 387/540 377/539 389/550
f 388/541 387/540 389/550
f 389/550 386/549 384/547
f 390/551 399/552 400/553
f 391/554 390/551 400/553
f 400/553 402/555 391/554
f 714/556 391/554 402/555
f 402/555 403/557 714/556
f 715/558 714/556 403/557
f 403/557 404/559 715/558
f 392/560 715/558 404/559
f 404/559 406/561 392/560
f 393/562 392/560 406/561
f 406/561 394/563 393/562
f 717/542 393/562 394/563
f 394/563 408/564 717/542
f 382/543 717/542 408/564
f 395/565 382/543 408/564
f 396/544 382/543 395/565
f 396/544 395/565 397/566
f 384/547 396/544 397/566
f 384/547 397/566 398/567
f 398/567 400/553 399/552
f 400/553 398/567 397/566
f 397/566 401/568 400/553
f 402/555 400/553 401/568
f 401/568 409/569 402/555
f 403/557 402/555 409/569
f 409/569 405/570 403/557
f 404/559 403/557 405/570
f 406/561 404/559 405/570
f 405/570 407/571 406/561
f 406/561 407/571 394/563
f 408/564 394/563 407/571
f 408/564 407/571 395/565
f 395/565 407/571 409/569
f 395/565 409/569 401/568
f 395/565 401/568 397/566
f 405/570 409/569 407/571
f 416/572 413/573 415/574
f 416/572 421/575 413/573
f 491/576 497/577 468/578
f 468/578 497/577 461/579
f 497/577 499/580 461/579
f 461/579 499/580 411/581
f 499/580 412/582 411/581
f 412/582 410/583 411/581
f 431/584 410/583 412/582
f 410/583 431/584 420/585
f 420/585 431/584 418/586
f 418/586 413/573 420/585
f 413/573 418/586 414/587
f 414/587 415/574 413/573
f 415/574 414/587 419/588
f 419/588 428/589 415/574
f 415/574 428/589 416/572
f 416/572 428/589 478/590
f 421/575 416/572 478/590
f 478/590 417/591 421/575
f 419/588 414/587 418/586
f 418/586 431/584 419/588
f 411/581 410/583 424/592
f 422/593 424/592 410/583
f 410/583 420/585 422/593
f 413/573 422/593 420/585
f 413/573 423/594 422/593
f 421/575 423/594 413/573
f 423/594 421/575 459/595
f 459/595 422/593 423/594
f 422/593 459/595 424/592
f 460/596 424/592 459/595
f 411/581 424/592 460/596
f 460/596 461/579 411/581
f 426/17 425/16 429/597
f 428/589 429/597 425/16
f 428/589 419/588 429/597
f 419/588 436/598 429/597
f 430/599 436/598 419/588
f 430/599 419/588 431/584
f 437/600 430/599 431/584
f 439/601 437/600 431/584
f 412/582 439/601 431/584
f 439/601 412/582 499/580
f 432/602 436/598 433/603
f 436/598 426/17 429/597
f 426/17 436/598 432/602
f 432/602 434/604 426/17
f 433/603 434/604 432/602
f 433/603 438/605 434/604
f 434/604 438/605 435/606
f 435/606 443/607 434/604
f 430/599 433/603 436/598
f 430/599 437/600 433/603
f 438/605 433/603 437/600
f 437/600 439/601 438/605
f 435/606 438/605 439/601
f 439/601 501/608 435/606
f 440/609 435/606 501/608
f 501/608 500/610 440/609
f 440/609 500/610 503/611
f 440/609 503/611 441/612
f 441/612 442/613 440/609
f 435/606 440/609 442/613
f 435/606 442/613 447/614
f 447/614 443/607 435/606
f 444/615 443/607 447/614
f 434/604 443/607 444/615
f 444/615 427/18 434/604
f 434/604 427/18 426/17
f 316/14 503/611 314/462
f 316/14 441/612 503/611
f 441/612 316/14 445/468
f 442/613 441/612 445/468
f 446/616 442/613 445/468
f 442/613 446/616 447/614
f 447/614 446/616 456/617
f 447/614 456/617 444/615
f 456/617 448/618 444/615
f 480/619 444/615 448/618
f 448/618 449/620 480/619
f 480/619 449/620 466/621
f 466/621 449/620 450/622
f 450/622 330/478 466/621
f 330/478 450/622 451/477
f 452/623 451/477 450/622
f 452/623 323/470 451/477
f 323/470 452/623 454/471
f 450/622 449/620 452/623
f 454/471 457/463 318/464
f 457/463 454/471 453/624
f 452/623 453/624 454/471
f 455/625 453/624 452/623
f 455/625 452/623 449/620
f 455/625 449/620 448/618
f 458/626 455/625 448/618
f 448/618 456/617 458/626
f 445/468 458/626 456/617
f 445/468 456/617 446/616
f 453/624 445/468 457/463
f 445/468 453/624 458/626
f 455/625 458/626 453/624
f 417/591 459/595 421/575
f 459/595 417/591 475/627
f 475/627 460/596 459/595
f 462/628 460/596 475/627
f 461/579 460/596 462/628
f 461/579 462/628 468/578
f 468/578 462/628 476/629
f 476/629 463/630 468/578
f 476/629 473/631 463/630
f 471/632 463/630 473/631
f 473/631 464/633 471/632
f 471/632 464/633 469/634
f 469/634 464/633 465/635
f 465/635 385/548 469/634
f 465/635 466/621 385/548
f 385/548 466/621 467/546
f 330/478 467/546 466/621
f 467/546 330/478 331/479
f 468/578 463/630 472/636
f 471/632 472/636 463/630
f 375/535 469/634 385/548
f 470/532 469/634 375/535
f 469/634 470/532 471/632
f 470/532 373/531 471/632
f 373/531 472/636 471/632
f 479/637 465/635 464/633
f 464/633 473/631 479/637
f 473/631 474/638 479/637
f 477/639 474/638 473/631
f 477/639 473/631 476/629
f 462/628 475/627 476/629
f 477/639 476/629 475/627
f 475/627 417/591 477/639
f 417/591 478/590 477/639
f 477/639 478/590 474/638
f 474/638 478/590 428/589
f 428/589 479/637 474/638
f 428/589 425/16 479/637
f 427/18 479/637 425/16
f 479/637 427/18 444/615
f 444/615 480/619 479/637
f 465/635 479/637 480/619
f 466/621 465/635 480/619
f 383/538 378/523 481/524
f 481/524 482/640 383/538
f 483/545 383/538 482/640
f 482/640 522/641 483/545
f 484/642 483/545 522/641
f 485/536 483/545 484/642
f 484/642 486/643 485/536
f 374/534 485/536 486/643
f 486/643 488/644 374/534
f 487/533 374/534 488/644
f 488/644 489/645 487/533
f 489/645 493/646 487/533
f 490/647 487/533 493/646
f 490/647 373/531 487/533
f 492/648 373/531 490/647
f 472/636 373/531 492/648
f 492/648 491/576 472/636
f 468/578 472/636 491/576
f 490/647 494/649 492/648
f 522/641 521/650 484/642
f 490/647 493/646 514/651
f 514/651 494/649 490/647
f 495/652 494/649 514/651
f 492/648 494/649 495/652
f 495/652 496/653 492/648
f 492/648 496/653 491/576
f 505/654 491/576 496/653
f 497/577 491/576 505/654
f 499/580 497/577 505/654
f 505/654 498/655 499/580
f 439/601 499/580 498/655
f 498/655 506/656 439/601
f 501/608 439/601 506/656
f 501/608 506/656 535/657
f 535/657 500/610 501/608
f 502/461 500/610 535/657
f 314/462 500/610 502/461
f 500/610 314/462 503/611
f 534/658 535/657 506/656
f 505/654 496/653 508/659
f 505/654 508/659 504/660
f 504/660 498/655 505/654
f 506/656 498/655 504/660
f 504/660 534/658 506/656
f 534/658 504/660 507/661
f 507/661 533/662 534/658
f 533/662 507/661 511/663
f 511/663 530/664 533/662
f 507/661 504/660 508/659
f 530/664 510/665 525/666
f 509/667 510/665 530/664
f 530/664 511/663 509/667
f 511/663 515/668 509/667
f 515/668 511/663 507/661
f 507/661 518/669 515/668
f 518/669 507/661 508/659
f 518/669 508/659 512/670
f 512/670 508/659 496/653
f 512/670 496/653 495/652
f 513/671 512/670 495/652
f 514/651 513/671 495/652
f 523/672 509/667 515/668
f 516/673 523/672 515/668
f 515/668 517/674 516/673
f 517/674 515/668 518/669
f 518/669 519/675 517/674
f 519/675 518/669 512/670
f 512/670 520/676 519/675
f 512/670 513/671 520/676
f 516/673 521/677 522/678
f 522/678 523/672 516/673
f 523/672 522/678 482/679
f 482/679 509/667 523/672
f 509/667 482/679 481/680
f 481/680 510/665 509/667
f 510/665 481/680 524/681
f 524/681 525/666 510/665
f 525/666 524/681 526/682
f 526/682 527/683 525/666
f 527/683 526/682 367/684
f 336/489 538/685 337/490
f 371/491 337/490 538/685
f 538/685 372/686 371/491
f 538/685 367/684 372/686
f 367/684 538/685 528/687
f 367/684 528/687 527/683
f 539/688 527/683 528/687
f 527/683 539/688 525/666
f 529/689 525/666 539/688
f 525/666 529/689 530/664
f 532/429 530/664 529/689
f 530/664 532/429 533/662
f 531/427 533/662 532/429
f 533/662 531/427 534/658
f 534/658 531/427 536/451
f 536/451 535/657 534/658
f 535/657 536/451 307/453
f 535/657 307/453 502/461
f 539/688 289/432 529/689
f 532/429 529/689 289/432
f 537/690 336/489 335/487
f 538/685 336/489 537/690
f 537/690 528/687 538/685
f 528/687 537/690 539/688
f 539/688 537/690 540/691
f 539/688 540/691 289/432
f 289/432 540/691 541/438
f 542/467 541/438 540/691
f 543/692 542/467 540/691
f 544/469 542/467 543/692
f 543/692 335/487 544/469
f 335/487 543/692 537/690
f 543/692 540/691 537/690
f 96/693 2/694 545/695
f 545/695 547/696 96/693
f 547/696 545/695 252/697
f 252/697 546/698 547/696
f 547/696 546/698 548/699
f 255/700 547/696 548/699
f 96/693 547/696 255/700
f 255/700 97/701 96/693
f 174/702 551/264 549/266
f 174/702 550/703 551/264
f 550/703 552/263 551/264
f 550/703 553/704 552/263
f 176/705 552/263 553/704
f 176/705 554/260 552/263
f 176/705 556/259 554/260
f 176/705 555/706 556/259
f 555/706 557/245 556/259
f 555/706 558/707 557/245
f 149/243 557/245 558/707
f 149/243 558/707 227/708
f 559/279 174/280 560/709
f 627/710 559/279 560/709
f 561/277 559/279 627/710
f 753/25 561/277 627/710
f 629/79 565/73 564/71
f 630/80 565/73 629/79
f 630/80 562/78 565/73
f 740/77 562/78 630/80
f 675/66 640/68 563/67
f 640/68 665/69 563/67
f 640/68 641/70 665/69
f 564/71 665/69 641/70
f 665/69 564/71 567/72
f 564/71 565/73 567/72
f 569/74 567/72 565/73
f 566/75 569/74 565/73
f 751/76 569/74 566/75
f 740/77 751/76 566/75
f 740/77 566/75 562/78
f 566/75 565/73 562/78
f 569/74 665/69 567/72
f 569/74 568/54 665/69
f 570/94 568/54 569/74
f 751/76 570/94 569/74
f 622/93 570/94 751/76
f 571/92 570/94 622/93
f 571/92 622/93 572/91
f 575/90 571/92 572/91
f 575/90 572/91 621/89
f 577/88 575/90 621/89
f 577/88 621/89 615/87
f 573/86 577/88 615/87
f 573/86 615/87 574/85
f 578/84 573/86 574/85
f 578/84 574/85 614/82
f 662/81 578/84 614/82
f 662/81 614/82 613/83
f 570/94 571/92 581/95
f 581/95 571/92 575/90
f 582/96 581/95 575/90
f 582/96 575/90 577/88
f 576/97 582/96 577/88
f 576/97 577/88 573/86
f 585/98 576/97 573/86
f 585/98 573/86 578/84
f 661/99 585/98 578/84
f 661/99 578/84 662/81
f 570/94 579/100 568/54
f 579/100 570/94 650/101
f 570/94 645/102 650/101
f 570/94 643/103 645/102
f 581/95 643/103 570/94
f 580/104 643/103 581/95
f 580/104 581/95 582/96
f 583/105 580/104 582/96
f 576/97 583/105 582/96
f 617/106 583/105 576/97
f 585/98 617/106 576/97
f 584/107 617/106 585/98
f 661/99 584/107 585/98
f 586/114 593/113 587/123
f 587/123 593/113 591/111
f 587/123 591/111 651/122
f 651/122 591/111 588/121
f 588/121 591/111 590/108
f 588/121 590/108 650/101
f 650/101 590/108 579/100
f 596/109 579/100 590/108
f 589/110 596/109 590/108
f 589/110 590/108 591/111
f 592/112 589/110 591/111
f 592/112 591/111 593/113
f 586/114 592/112 593/113
f 594/115 592/112 586/114
f 594/115 595/116 592/112
f 592/112 595/116 589/110
f 589/110 595/116 655/117
f 589/110 655/117 657/118
f 596/109 589/110 657/118
f 596/109 657/118 597/119
f 596/109 597/119 598/120
f 596/109 598/120 579/100
f 568/54 579/100 598/120
f 599/711 261/712 260/713
f 599/711 260/713 121/714
f 258/715 121/714 260/713
f 258/715 600/716 121/714
f 258/715 253/717 600/716
f 748/279 755/280 601/709
f 702/710 748/279 601/709
f 756/277 748/279 702/710
f 757/25 756/277 702/710
f 60/120 604/52 39/54
f 602/718 604/52 60/120
f 602/718 603/53 604/52
f 606/719 603/53 602/718
f 605/720 603/53 606/719
f 605/720 15/62 603/53
f 607/721 262/722 659/723
f 722/19 608/21 609/724
f 722/19 46/20 608/21
f 598/120 667/52 568/54
f 647/718 667/52 598/120
f 647/718 610/53 667/52
f 637/719 610/53 647/718
f 611/720 610/53 637/719
f 611/720 668/62 610/53
f 264/725 681/726 263/727
f 264/725 612/728 681/726
f 264/725 680/729 612/728
f 264/725 679/730 680/729
f 613/724 616/731 660/19
f 613/724 614/732 616/731
f 614/732 618/733 616/731
f 614/732 574/734 618/733
f 574/734 619/735 618/733
f 574/734 615/736 619/735
f 615/736 620/737 619/735
f 615/736 621/738 620/737
f 661/20 660/19 584/739
f 660/19 616/731 584/739
f 616/731 617/740 584/739
f 616/731 618/733 617/740
f 618/733 583/741 617/740
f 618/733 619/735 583/741
f 619/735 623/742 583/741
f 619/735 620/737 623/742
f 620/737 625/743 623/742
f 621/738 625/743 620/737
f 621/738 572/744 625/743
f 572/744 626/745 625/743
f 572/744 622/746 626/745
f 623/742 624/747 631/748
f 625/743 624/747 623/742
f 625/743 626/745 624/747
f 627/749 624/747 626/745
f 753/750 627/749 626/745
f 626/745 622/746 753/750
f 627/749 560/751 624/747
f 624/747 560/751 628/752
f 628/752 631/748 624/747
f 630/753 631/748 628/752
f 630/753 629/754 631/748
f 560/751 630/753 628/752
f 560/751 740/755 630/753
f 583/741 623/742 580/756
f 580/756 623/742 644/757
f 631/748 644/757 623/742
f 631/748 632/758 644/757
f 629/754 632/758 631/748
f 629/754 564/759 632/758
f 564/759 633/760 632/758
f 564/759 642/761 633/760
f 639/762 633/760 642/761
f 639/762 642/761 634/763
f 635/764 639/762 634/763
f 635/764 634/763 675/765
f 673/766 635/764 675/765
f 635/764 673/766 636/767
f 671/768 635/764 636/767
f 671/768 638/769 635/764
f 611/770 638/769 671/768
f 611/770 637/771 638/769
f 638/769 639/762 635/764
f 638/769 646/772 639/762
f 646/772 633/760 639/762
f 675/765 634/763 640/773
f 634/763 641/774 640/773
f 634/763 642/761 641/774
f 642/761 564/759 641/774
f 644/757 643/775 580/756
f 644/757 645/776 643/775
f 645/776 644/757 649/777
f 632/758 649/777 644/757
f 632/758 633/760 649/777
f 669/778 668/779 611/770
f 611/770 671/768 669/778
f 637/771 646/772 638/769
f 637/771 647/780 646/772
f 647/780 633/760 646/772
f 647/780 598/781 633/760
f 633/760 598/781 649/777
f 649/777 598/781 648/24
f 648/24 645/776 649/777
f 645/776 648/24 650/23
f 588/22 650/23 648/24
f 588/22 648/24 658/782
f 588/22 658/782 652/783
f 651/784 588/22 652/783
f 651/784 652/783 656/785
f 587/786 651/784 656/785
f 587/786 656/785 654/787
f 653/788 587/786 654/787
f 653/788 586/789 587/786
f 653/788 595/790 594/791
f 653/788 654/787 595/790
f 654/787 655/792 595/790
f 654/787 656/785 655/792
f 656/785 657/793 655/792
f 656/785 652/783 657/793
f 652/783 597/794 657/793
f 652/783 658/782 597/794
f 658/782 598/781 597/794
f 658/782 648/24 598/781
f 682/795 194/796 659/723
f 660/19 662/21 613/724
f 636/59 663/57 671/60
f 636/59 673/58 663/57
f 676/65 563/67 664/64
f 665/69 664/64 563/67
f 665/69 666/55 664/64
f 568/54 666/55 665/69
f 568/54 667/52 666/55
f 672/51 666/55 667/52
f 672/51 667/52 610/53
f 670/61 672/51 610/53
f 670/61 610/53 668/62
f 669/63 670/61 668/62
f 671/60 670/61 669/63
f 671/60 672/51 670/61
f 663/57 672/51 671/60
f 663/57 674/56 672/51
f 673/58 674/56 663/57
f 676/65 674/56 673/58
f 673/58 675/66 676/65
f 675/66 563/67 676/65
f 676/65 664/64 674/56
f 674/56 664/64 666/55
f 674/56 666/55 672/51
f 677/797 679/798 678/799
f 677/797 680/800 679/798
f 193/801 680/800 677/797
f 193/801 612/802 680/800
f 193/801 681/803 612/802
f 193/801 194/804 681/803
f 194/804 263/399 681/803
f 263/399 194/804 682/402
f 683/778 15/779 605/770
f 605/770 686/768 683/778
f 686/768 684/764 13/767
f 686/768 685/769 684/764
f 605/770 685/769 686/768
f 605/770 606/771 685/769
f 606/771 687/772 685/769
f 606/771 602/780 687/772
f 602/780 705/760 687/772
f 602/780 60/781 705/760
f 705/760 60/781 688/777
f 688/777 60/781 692/24
f 692/24 689/776 688/777
f 689/776 692/24 691/23
f 690/22 692/24 720/782
f 690/22 720/782 719/783
f 693/784 690/22 719/783
f 693/784 719/783 694/785
f 61/786 693/784 694/785
f 61/786 694/785 695/787
f 759/788 61/786 695/787
f 759/788 55/789 61/786
f 685/769 696/762 684/764
f 685/769 687/772 696/762
f 687/772 705/760 696/762
f 697/757 47/775 698/756
f 697/757 689/776 47/775
f 689/776 697/757 688/777
f 48/741 699/742 698/756
f 698/756 699/742 697/757
f 700/748 697/757 699/742
f 700/748 701/758 697/757
f 701/758 688/777 697/757
f 701/758 705/760 688/777
f 699/742 728/747 700/748
f 704/752 700/748 728/747
f 703/745 733/746 757/750
f 757/750 702/749 703/745
f 702/749 728/747 703/745
f 702/749 601/751 728/747
f 728/747 601/751 704/752
f 601/751 30/753 704/752
f 30/753 700/748 704/752
f 30/753 28/754 700/748
f 28/754 701/758 700/748
f 28/754 706/759 701/758
f 706/759 705/760 701/758
f 706/759 710/761 705/760
f 696/762 705/760 710/761
f 696/762 710/761 708/763
f 684/764 696/762 708/763
f 684/764 708/763 18/765
f 707/766 684/764 18/765
f 684/764 707/766 13/767
f 601/751 25/755 30/753
f 18/765 708/763 709/773
f 708/763 21/774 709/773
f 708/763 710/761 21/774
f 710/761 706/759 21/774
f 262/401 607/805 263/399
f 607/805 712/806 263/399
f 712/806 607/805 711/807
f 712/806 711/807 265/808
f 265/808 711/807 713/809
f 265/808 713/809 266/810
f 201/811 266/810 713/809
f 201/811 267/812 266/810
f 224/813 267/812 201/811
f 224/813 268/814 267/812
f 399/552 384/547 398/567
f 389/550 384/547 399/552
f 399/552 390/551 389/550
f 390/551 391/554 389/550
f 388/541 389/550 391/554
f 391/554 714/556 388/541
f 716/815 388/541 714/556
f 714/556 715/558 716/815
f 715/558 392/560 716/815
f 392/560 393/562 716/815
f 393/562 717/542 716/815
f 388/541 716/815 717/542
f 741/27 561/277 753/25
f 759/788 57/790 56/791
f 759/788 695/787 57/790
f 695/787 718/792 57/790
f 695/787 694/785 718/792
f 694/785 58/793 718/792
f 694/785 719/783 58/793
f 719/783 721/794 58/793
f 719/783 720/782 721/794
f 720/782 60/781 721/794
f 720/782 692/24 60/781
f 46/20 722/19 723/739
f 722/19 724/731 723/739
f 724/731 725/740 723/739
f 724/731 732/733 725/740
f 732/733 48/741 725/740
f 732/733 726/735 48/741
f 726/735 699/742 48/741
f 726/735 727/737 699/742
f 727/737 730/743 699/742
f 730/743 728/747 699/742
f 730/743 703/745 728/747
f 36/744 703/745 730/743
f 729/738 36/744 730/743
f 729/738 730/743 727/737
f 34/736 729/738 727/737
f 34/736 727/737 726/735
f 731/734 34/736 726/735
f 731/734 726/735 732/733
f 31/732 731/734 732/733
f 31/732 732/733 724/731
f 609/724 31/732 724/731
f 609/724 724/731 722/19
f 36/744 733/746 703/745
f 586/789 653/788 594/791
f 734/816 735/701 737/696
f 736/700 737/696 735/701
f 736/700 738/699 737/696
f 737/696 738/699 8/698
f 739/697 737/696 8/698
f 739/697 70/695 737/696
f 70/695 734/816 737/696
f 549/266 740/817 174/702
f 740/817 560/818 174/702
f 549/266 741/27 740/817
f 756/373 748/819 228/371
f 228/371 748/819 742/820
f 742/820 230/376 228/371
f 742/820 746/821 230/376
f 230/376 746/821 743/822
f 230/376 743/822 744/378
f 233/367 744/378 743/822
f 233/367 743/822 745/823
f 182/368 233/367 745/823
f 745/823 183/824 182/368
f 745/823 242/825 183/824
f 745/823 743/822 242/825
f 242/825 743/822 747/826
f 743/822 746/821 747/826
f 747/826 746/821 243/827
f 243/827 746/821 742/820
f 742/820 749/828 243/827
f 748/819 749/828 742/820
f 748/819 755/829 749/828
f 754/830 749/828 755/829
f 754/830 750/831 749/828
f 750/831 243/827 749/828
f 750/831 244/832 243/827
f 741/27 752/26 740/817
f 740/77 752/833 751/76
f 752/833 622/93 751/76
f 752/833 753/834 622/93
f 753/25 752/26 741/27
f 754/266 25/817 755/702
f 25/817 601/818 755/702
f 246/27 756/277 757/25
f 25/77 758/833 38/76
f 758/833 733/93 38/76
f 758/833 757/834 733/93
f 55/789 759/788 56/791
f 754/266 246/27 25/817
f 246/27 758/26 25/817
