# converted from ps1_psx_high_school_character.glb so the villager walk rig can cut it into limbs
v -0.000811 0.033198 -0.003201
v -0.001075 0.033882 -0.002781
v -0.000599 0.034028 -0.003018
v -0.002213 0.024185 0.000642
v -0.002234 0.026289 0.000207
v -0.003181 0.026604 -0.001112
v -0.003113 0.026941 -0.003057
v -0.001663 0.026297 -0.003440
v -0.001569 0.024303 -0.002956
v -0.003199 0.028843 -0.003067
v -0.004137 0.028891 -0.002169
v -0.003316 0.029222 -0.002161
v -0.003266 0.028401 -0.001208
v -0.004917 0.028105 -0.001346
v -0.005100 0.028560 -0.002166
v -0.004910 0.028243 -0.002960
v -0.003199 0.028843 -0.003067
v -0.001011 0.029967 -0.002798
v -0.001088 0.029228 -0.003274
v -0.001908 0.028290 -0.000278
v -0.003266 0.028401 -0.001208
v -0.004376 0.027151 -0.002918
v -0.008224 0.028281 -0.002165
v -0.008232 0.028010 -0.001587
v -0.004374 0.026815 -0.002119
v -0.008235 0.026881 -0.002127
v -0.008507 0.027308 -0.002811
v -0.008519 0.026870 -0.002120
v -0.008778 0.026865 -0.002127
v -0.008494 0.027889 -0.002832
v -0.009812 0.027934 -0.002725
v -0.008767 0.028253 -0.002165
v -0.008507 0.028234 -0.002158
v -0.008771 0.027052 -0.001573
v -0.008228 0.027070 -0.001568
v -0.008775 0.027984 -0.001592
v -0.009780 0.028263 -0.002060
v -0.009817 0.027187 -0.002704
v -0.009790 0.026770 -0.002017
v -0.002599 0.024305 -0.001582
v -0.002599 0.024305 -0.001582
v -0.001342 0.033694 -0.001341
v -0.001181 0.033699 -0.000801
v -0.001225 0.034265 -0.001152
v -0.000660 0.030665 -0.000432
v -0.000453 0.030746 -0.001047
v 0.000000 0.030536 -0.000676
v -0.000879 0.034367 -0.000197
v -0.000740 0.034615 -0.000942
v -0.001030 0.031265 -0.001482
v -0.001333 0.031986 -0.001404
v -0.001340 0.032107 -0.001750
v -0.001340 0.032107 -0.001750
v -0.001415 0.031888 -0.001661
v -0.001573 0.032277 -0.002022
v 0.000000 0.034145 -0.003147
v 0.000000 0.033200 -0.003449
v 0.000000 0.030480 -0.000056
v 0.000000 0.031586 0.000299
v -0.000296 0.031656 0.000244
v -0.001265 0.033165 -0.002611
v -0.001367 0.032768 -0.001829
v -0.001337 0.033584 -0.002131
v -0.001367 0.032680 -0.001388
v -0.001052 0.032265 -0.000240
v -0.001106 0.032630 -0.000149
v -0.000668 0.034569 -0.002258
v -0.001337 0.033584 -0.002131
v -0.001160 0.034173 -0.002213
v -0.001367 0.032680 -0.001388
v -0.001367 0.032768 -0.001829
v -0.001531 0.032906 -0.001657
v 0.000000 0.032353 0.000361
v -0.000937 0.029401 -0.001301
v 0.000000 0.029211 -0.000879
v 0.000000 0.029621 -0.000962
v -0.000772 0.030951 -0.001473
v -0.000690 0.030585 -0.001513
v -0.000453 0.030746 -0.001047
v -0.001078 0.031741 -0.000205
v -0.001265 0.033165 -0.002611
v -0.002420 0.026312 -0.002902
v -0.001961 0.023642 -0.001963
v -0.002543 0.025932 -0.001823
v -0.001340 0.032107 -0.001750
v -0.001221 0.032043 -0.002287
v -0.000945 0.031363 -0.001962
v 0.000000 0.031669 0.000569
v -0.002241 0.023573 -0.000622
v -0.002665 0.026204 -0.000769
v -0.002542 0.028802 -0.002986
v -0.001011 0.029877 -0.002768
v -0.001088 0.029153 -0.003234
v -0.012434 0.027660 -0.001428
v -0.013098 0.027700 -0.001264
v -0.013086 0.027426 -0.001133
v -0.000945 0.031363 -0.001962
v -0.000608 0.031249 -0.002276
v -0.000772 0.030951 -0.001473
v -0.013345 0.027353 -0.000771
v -0.013748 0.027693 -0.000938
v -0.013684 0.027329 -0.000434
v -0.014008 0.027115 -0.001179
v -0.013751 0.027084 -0.000541
v -0.014504 0.027329 -0.000538
v -0.013999 0.027056 -0.001657
v -0.014728 0.027073 -0.001793
v -0.014459 0.027053 -0.002066
v -0.013880 0.026987 -0.002031
v -0.013525 0.026967 -0.001985
v -0.001823 0.019914 -0.002481
v 0.000000 0.020080 -0.002705
v 0.000000 0.018022 -0.002766
v 0.000000 0.018384 0.001190
v -0.001874 0.019432 0.000641
v -0.000662 0.017900 0.000853
v -0.001239 0.029723 -0.002093
v -0.000763 0.029942 -0.001631
v -0.000708 0.030274 -0.002399
v 0.000000 0.021343 0.000976
v -0.002742 0.011352 -0.000677
v -0.002082 0.011072 0.000701
v -0.002065 0.011860 0.000679
v -0.002117 0.017855 -0.002350
v -0.001011 0.029877 -0.002768
v -0.000440 0.017717 -0.002571
v 0.000000 0.017739 -0.002167
v -0.001240 0.011871 0.000545
v -0.001161 0.011061 0.000529
v -0.000423 0.011350 -0.000756
v -0.001985 0.010357 0.000511
v -0.001242 0.010343 0.000351
v 0.000000 0.030536 -0.000676
v 0.000000 0.030268 -0.000893
v 0.000000 0.029150 -0.003306
v 0.000000 0.026273 -0.003268
v -0.013813 0.027765 -0.001149
v -0.013256 0.027408 -0.002045
v -0.013528 0.027359 -0.002177
v -0.013177 0.027764 -0.001757
v -0.013980 0.027772 -0.001754
v -0.013965 0.027562 -0.001981
v -0.014550 0.027437 -0.000750
v -0.014399 0.027609 -0.000585
v -0.013930 0.027783 -0.001435
v -0.013257 0.026989 -0.001841
v -0.013148 0.027009 -0.001274
v -0.014683 0.027493 -0.000253
v -0.014071 0.027305 -0.000203
v -0.014807 0.027152 -0.001454
v -0.001271 0.021306 0.000520
v -0.001374 0.023464 0.000375
v -0.013887 0.027352 -0.002213
v -0.014527 0.027858 -0.000968
v -0.012431 0.027305 -0.001281
v -0.014750 0.027256 -0.001121
v -0.001714 0.028473 -0.000608
v -0.000937 0.029401 -0.001301
v -0.002777 0.028534 -0.001212
v -0.002209 0.021328 -0.000867
v 0.000000 0.032808 0.000422
v -0.000884 0.033762 -0.000114
v -0.002075 0.018011 0.000656
v -0.000191 0.017365 -0.000625
v -0.000423 0.011350 -0.000756
v 0.000000 0.017431 -0.000625
v -0.000191 0.017365 -0.000625
v -0.001023 0.011416 -0.001569
v -0.001134 0.009499 -0.001793
v -0.002184 0.011380 -0.001606
v -0.002055 0.009480 -0.001813
v -0.003135 0.026364 -0.002123
v -0.000937 0.029481 -0.001165
v -0.003113 0.026941 -0.003057
v -0.001865 0.021419 -0.001722
v -0.000191 0.017365 -0.000625
v 0.000000 0.017431 -0.000625
v -0.001271 0.021306 0.000520
v -0.001623 0.005116 -0.000739
v -0.000739 0.005252 -0.001247
v -0.001599 0.005252 -0.001875
v -0.002519 0.005252 -0.001440
v -0.002578 0.005252 -0.000377
v -0.000822 0.005252 -0.000234
v -0.001741 0.005252 0.000201
v -0.002492 0.000904 -0.000202
v -0.002323 0.000972 0.001140
v -0.002135 0.001811 -0.000509
v -0.001835 0.000333 0.002556
v -0.001265 0.000388 0.001947
v -0.001895 0.000744 0.002465
v -0.001429 0.000997 0.001163
v -0.002729 0.000503 0.000941
v -0.001876 0.000984 0.001151
v -0.002323 0.000972 0.001140
v -0.002628 0.000307 0.001989
v -0.001117 0.000007 -0.000909
v -0.002209 -0.000001 -0.000969
v -0.001634 0.000000 -0.001315
v -0.001644 0.001816 -0.000201
v -0.001876 0.000984 0.001151
v -0.002546 0.000044 0.002004
v -0.001246 0.000079 0.001878
v -0.001780 0.000086 0.002417
v -0.001183 0.000558 0.000947
v 0.000000 0.034555 0.000118
v 0.000000 0.033793 0.000206
v -0.001590 0.032681 -0.001978
v -0.001531 0.032906 -0.001657
v -0.001415 0.031888 -0.001661
v -0.001590 0.032681 -0.001978
v -0.001265 0.033165 -0.002611
v 0.000811 0.033198 -0.003201
v 0.000599 0.034028 -0.003018
v 0.001075 0.033882 -0.002781
v 0.002213 0.024185 0.000642
v 0.003181 0.026604 -0.001112
v 0.002234 0.026289 0.000207
v 0.003113 0.026941 -0.003057
v 0.001569 0.024303 -0.002956
v 0.001663 0.026297 -0.003440
v 0.003199 0.028843 -0.003067
v 0.003316 0.029222 -0.002161
v 0.004137 0.028891 -0.002169
v 0.003266 0.028401 -0.001208
v 0.004917 0.028105 -0.001346
v 0.005100 0.028560 -0.002166
v 0.004910 0.028243 -0.002960
v 0.003199 0.028843 -0.003067
v 0.001088 0.029228 -0.003274
v 0.001011 0.029967 -0.002798
v 0.003266 0.028401 -0.001208
v 0.001908 0.028290 -0.000278
v 0.004376 0.027151 -0.002918
v 0.008224 0.028281 -0.002165
v 0.008232 0.028010 -0.001587
v 0.008235 0.026881 -0.002127
v 0.004374 0.026815 -0.002119
v 0.008507 0.027308 -0.002811
v 0.008778 0.026865 -0.002127
v 0.008519 0.026870 -0.002120
v 0.008494 0.027889 -0.002832
v 0.008767 0.028253 -0.002165
v 0.009812 0.027934 -0.002725
v 0.008507 0.028234 -0.002158
v 0.008771 0.027052 -0.001573
v 0.008228 0.027070 -0.001568
v 0.008775 0.027984 -0.001592
v 0.009780 0.028263 -0.002060
v 0.009817 0.027187 -0.002704
v 0.009790 0.026770 -0.002017
v 0.002599 0.024305 -0.001582
v 0.002599 0.024305 -0.001582
v 0.001342 0.033694 -0.001341
v 0.001225 0.034265 -0.001152
v 0.001181 0.033699 -0.000801
v 0.000660 0.030665 -0.000432
v 0.000453 0.030746 -0.001047
v 0.000879 0.034367 -0.000197
v 0.000740 0.034615 -0.000942
v 0.001030 0.031265 -0.001482
v 0.001340 0.032107 -0.001750
v 0.001333 0.031986 -0.001404
v 0.001340 0.032107 -0.001750
v 0.001573 0.032277 -0.002022
v 0.001415 0.031888 -0.001661
v 0.000296 0.031656 0.000244
v 0.001265 0.033165 -0.002611
v 0.001337 0.033584 -0.002131
v 0.001367 0.032768 -0.001829
v 0.001367 0.032680 -0.001388
v 0.001106 0.032630 -0.000149
v 0.001052 0.032265 -0.000240
v 0.000669 0.034569 -0.002258
v 0.001337 0.033584 -0.002131
v 0.001160 0.034173 -0.002213
v 0.001367 0.032680 -0.001388
v 0.001531 0.032906 -0.001657
v 0.001367 0.032768 -0.001829
v 0.000937 0.029401 -0.001301
v 0.000772 0.030951 -0.001473
v 0.000453 0.030746 -0.001047
v 0.000690 0.030585 -0.001513
v 0.001078 0.031741 -0.000205
v 0.001265 0.033165 -0.002611
v 0.002420 0.026312 -0.002902
v 0.002543 0.025932 -0.001823
v 0.001961 0.023642 -0.001963
v 0.001340 0.032107 -0.001750
v 0.000945 0.031363 -0.001962
v 0.001221 0.032043 -0.002287
v 0.002241 0.023573 -0.000622
v 0.002665 0.026204 -0.000769
v 0.002542 0.028802 -0.002986
v 0.001088 0.029153 -0.003234
v 0.001011 0.029877 -0.002768
v 0.012434 0.027660 -0.001428
v 0.013086 0.027426 -0.001133
v 0.013098 0.027700 -0.001264
v 0.000945 0.031363 -0.001962
v 0.000772 0.030951 -0.001473
v 0.000608 0.031249 -0.002276
v 0.013345 0.027353 -0.000771
v 0.013684 0.027329 -0.000434
v 0.013748 0.027693 -0.000938
v 0.014008 0.027115 -0.001179
v 0.014504 0.027329 -0.000538
v 0.013751 0.027084 -0.000541
v 0.013999 0.027056 -0.001657
v 0.014459 0.027053 -0.002066
v 0.014728 0.027073 -0.001793
v 0.013880 0.026987 -0.002031
v 0.013525 0.026967 -0.001985
v 0.001823 0.019914 -0.002481
v 0.000662 0.017900 0.000853
v 0.001874 0.019432 0.000641
v 0.001239 0.029723 -0.002093
v 0.000708 0.030274 -0.002399
v 0.000763 0.029942 -0.001631
v 0.002742 0.011352 -0.000677
v 0.002065 0.011860 0.000679
v 0.002082 0.011072 0.000701
v 0.002117 0.017855 -0.002350
v 0.001011 0.029877 -0.002768
v 0.000440 0.017717 -0.002571
v 0.001240 0.011871 0.000545
v 0.000423 0.011350 -0.000756
v 0.001161 0.011061 0.000529
v 0.001985 0.010357 0.000511
v 0.001242 0.010343 0.000351
v 0.013813 0.027765 -0.001149
v 0.013256 0.027408 -0.002045
v 0.013177 0.027764 -0.001757
v 0.013528 0.027359 -0.002177
v 0.013980 0.027772 -0.001754
v 0.013965 0.027562 -0.001981
v 0.014550 0.027437 -0.000750
v 0.014399 0.027609 -0.000585
v 0.013930 0.027783 -0.001435
v 0.013148 0.027009 -0.001274
v 0.013257 0.026989 -0.001841
v 0.014683 0.027493 -0.000253
v 0.014071 0.027305 -0.000203
v 0.014807 0.027152 -0.001454
v 0.001271 0.021306 0.000520
v 0.001374 0.023464 0.000375
v 0.013887 0.027352 -0.002213
v 0.014527 0.027858 -0.000968
v 0.012431 0.027305 -0.001281
v 0.014750 0.027256 -0.001121
v 0.001714 0.028473 -0.000608
v 0.002778 0.028534 -0.001212
v 0.000937 0.029401 -0.001301
v 0.002209 0.021328 -0.000867
v 0.000884 0.033762 -0.000114
v 0.002075 0.018011 0.000656
v 0.000423 0.011350 -0.000756
v 0.000191 0.017365 -0.000625
v 0.000191 0.017365 -0.000625
v 0.001023 0.011416 -0.001569
v 0.001134 0.009499 -0.001793
v 0.002184 0.011380 -0.001606
v 0.002055 0.009480 -0.001813
v 0.003135 0.026364 -0.002123
v 0.000937 0.029481 -0.001165
v 0.003113 0.026941 -0.003057
v 0.001865 0.021419 -0.001722
v 0.000191 0.017365 -0.000625
v 0.001271 0.021306 0.000520
v 0.001623 0.005116 -0.000739
v 0.001599 0.005252 -0.001875
v 0.000739 0.005252 -0.001247
v 0.002578 0.005252 -0.000377
v 0.002519 0.005252 -0.001440
v 0.000822 0.005252 -0.000234
v 0.001741 0.005252 0.000201
v 0.002492 0.000904 -0.000202
v 0.002135 0.001811 -0.000509
v 0.002323 0.000972 0.001140
v 0.001835 0.000333 0.002556
v 0.001895 0.000744 0.002465
v 0.001265 0.000388 0.001947
v 0.001429 0.000997 0.001163
v 0.002729 0.000503 0.000941
v 0.001876 0.000984 0.001151
v 0.002323 0.000972 0.001140
v 0.002628 0.000307 0.001989
v 0.001117 0.000007 -0.000909
v 0.001634 0.000000 -0.001315
v 0.002209 -0.000001 -0.000969
v 0.001645 0.001816 -0.000201
v 0.001876 0.000984 0.001151
v 0.002546 0.000044 0.002004
v 0.001780 0.000086 0.002417
v 0.001246 0.000079 0.001878
v 0.001183 0.000558 0.000947
v 0.001531 0.032906 -0.001657
v 0.001590 0.032681 -0.001978
v 0.001590 0.032681 -0.001978
v 0.001415 0.031888 -0.001661
v 0.001265 0.033165 -0.002611
v -0.003093 0.021772 -0.001403
v -0.001845 0.021844 -0.003086
v -0.001312 0.029754 -0.001970
v -0.000937 0.029481 -0.001165
v -0.000937 0.029915 -0.001142
v -0.001312 0.030261 -0.001921
v -0.003181 0.026604 -0.001112
v -0.004364 0.027014 -0.001338
v -0.003135 0.026364 -0.002123
v -0.001661 0.021043 -0.002517
v -0.002625 0.021075 -0.001407
v -0.000795 0.024199 0.001222
v -0.000793 0.026266 0.000968
v 0.000000 0.026287 -0.003572
v 0.000000 0.024299 -0.002884
v -0.002555 0.021712 0.000811
v 0.000000 0.021044 -0.002719
v 0.000000 0.021846 -0.003285
v -0.009759 0.027100 -0.001353
v -0.009754 0.027847 -0.001374
v -0.012276 0.027688 -0.001140
v -0.012245 0.027050 -0.001162
v -0.012392 0.027692 -0.002174
v -0.012414 0.027050 -0.002205
v -0.012363 0.026731 -0.001668
v -0.012329 0.027986 -0.001669
v -0.012470 0.027627 -0.001174
v -0.012472 0.027083 -0.001167
v -0.012572 0.027615 -0.002111
v -0.012573 0.027071 -0.002104
v 0.000000 0.029952 -0.003064
v -0.001011 0.029967 -0.002798
v -0.001011 0.030603 -0.002701
v 0.000000 0.030690 -0.002927
v -0.000660 0.028336 0.000112
v -0.000565 0.029384 -0.000566
v -0.002625 0.021075 -0.001407
v -0.001661 0.021043 -0.002517
v -0.001656 0.020562 -0.002535
v -0.002643 0.020594 -0.001408
v -0.002237 0.020518 0.000744
v -0.002231 0.021000 0.000710
v -0.000792 0.021756 0.001253
v -0.002231 0.021000 0.000710
v -0.000792 0.021030 0.001198
v -0.013172 0.027667 -0.002065
v -0.012572 0.027615 -0.002111
v -0.012573 0.027071 -0.002104
v -0.013191 0.027089 -0.002097
v -0.012523 0.026805 -0.001632
v -0.012472 0.027083 -0.001167
v -0.012470 0.027627 -0.001174
v -0.013074 0.027609 -0.001068
v -0.013093 0.027031 -0.001100
v -0.012520 0.027893 -0.001646
v -0.012520 0.027893 -0.001646
v -0.013113 0.027927 -0.001551
v -0.012523 0.026805 -0.001632
v -0.013152 0.026771 -0.001614
v -0.000793 0.026266 0.000968
v -0.000534 0.026266 0.000968
v -0.000380 0.028336 0.000112
v -0.000660 0.028336 0.000112
v -0.012523 0.026805 -0.001632
v -0.013152 0.026771 -0.001614
v -0.003316 0.029222 -0.002161
v -0.001312 0.029754 -0.001970
v 0.000000 0.029345 -0.003348
v 0.000000 0.029952 -0.003064
v -0.000565 0.029384 -0.000566
v -0.000565 0.029730 -0.000637
v -0.000565 0.029384 -0.000566
v -0.000660 0.028336 0.000112
v -0.000380 0.028336 0.000112
v -0.000316 0.029359 -0.000566
v -0.000793 0.026266 0.000968
v -0.000795 0.024199 0.001222
v -0.000535 0.024199 0.001222
v -0.000534 0.026266 0.000968
v -0.000792 0.021756 0.001253
v -0.000525 0.021756 0.001253
v -0.000792 0.021030 0.001198
v -0.000507 0.021030 0.001198
v -0.000316 0.029359 -0.000566
v -0.000287 0.029692 -0.000583
v 0.000000 0.021044 -0.002719
v 0.000000 0.020562 -0.002739
v -0.000507 0.021030 0.001198
v -0.000792 0.021030 0.001198
v -0.000785 0.020548 0.001240
v -0.000495 0.020548 0.001240
v -0.000792 0.021030 0.001198
v -0.000785 0.020548 0.001240
v 0.000000 0.034677 -0.002311
v 0.000000 0.034728 -0.000899
v 0.000000 0.028457 -0.000227
v 0.000000 0.029211 -0.000879
v -0.000608 0.031249 -0.002276
v -0.000623 0.030826 -0.002260
v -0.001367 0.032680 -0.001388
v -0.001342 0.033694 -0.001341
v -0.002778 0.029052 -0.002140
v -0.001239 0.029723 -0.002093
v -0.001367 0.032680 -0.001388
v -0.001531 0.032906 -0.001657
v -0.001374 0.031863 -0.001538
v -0.001333 0.031986 -0.001404
v -0.000608 0.031249 -0.002276
v -0.000729 0.032027 -0.002866
v 0.000000 0.032065 -0.003168
v 0.000000 0.031349 -0.002625
v -0.001739 0.026280 0.000393
v 0.000000 0.031349 -0.002625
v 0.000000 0.030943 -0.002576
v -0.000811 0.033198 -0.003201
v 0.000000 0.023387 0.000859
v 0.000000 0.026300 0.000717
v 0.000000 0.023647 -0.002596
v 0.000000 0.021343 0.000976
v 0.000000 0.030394 -0.002674
v 0.000000 0.021560 -0.002314
v 0.000000 0.029862 -0.003029
v -0.001312 0.029754 -0.001970
v -0.014473 0.027364 -0.002226
v -0.015474 0.027605 -0.000813
v -0.015517 0.027448 -0.001023
v -0.014783 0.027781 -0.001752
v -0.015483 0.027383 -0.001534
v -0.015414 0.027740 -0.001675
v -0.016343 0.027409 -0.000939
v -0.016352 0.027489 -0.000743
v -0.014123 0.027112 -0.000289
v -0.015063 0.027310 0.000096
v -0.015107 0.027180 0.000071
v -0.014998 0.027427 -0.000103
v -0.014966 0.027295 -0.000171
v -0.014698 0.027260 -0.000369
v -0.015412 0.027844 -0.000920
v -0.015403 0.027798 -0.001156
v -0.016192 0.027594 -0.001002
v -0.016202 0.027664 -0.000837
v -0.002896 0.018282 -0.000635
v -0.002676 0.020030 -0.000854
v -0.002209 0.021328 -0.000867
v -0.001865 0.021419 -0.001722
v -0.002442 0.005116 -0.000854
v -0.002067 0.005116 -0.000066
v -0.000886 0.005116 -0.000817
v -0.001289 0.005116 -0.000047
v -0.002039 0.005116 -0.001623
v 0.000000 0.029862 -0.003029
v -0.014724 0.027836 -0.001372
v -0.014703 0.027581 -0.002026
v -0.015170 0.027048 -0.002236
v -0.015180 0.027218 -0.002297
v -0.015224 0.027353 -0.002126
v -0.015894 0.026938 -0.002263
v -0.015784 0.027061 -0.002295
v -0.015212 0.027097 -0.002028
v -0.012441 0.027712 -0.001809
v -0.012445 0.027407 -0.002043
v -0.015813 0.027121 -0.002178
v -0.015911 0.026993 -0.002131
v -0.015420 0.027797 -0.001444
v -0.015493 0.027463 -0.001316
v -0.015317 0.027624 -0.001781
v -0.015383 0.027309 -0.001644
v -0.015363 0.027238 -0.001868
v -0.015289 0.027495 -0.001994
v -0.016183 0.027109 -0.001877
v -0.016046 0.027249 -0.001923
v -0.016059 0.027335 -0.001781
v -0.016195 0.027188 -0.001696
v -0.016316 0.027410 -0.001543
v -0.016324 0.027452 -0.001367
v -0.016433 0.027250 -0.001485
v -0.016439 0.027324 -0.001289
v -0.012443 0.027052 -0.001897
v -0.012436 0.027000 -0.001516
v -0.012523 0.026805 -0.001632
v -0.012573 0.027071 -0.002104
v -0.012572 0.027615 -0.002111
v -0.012520 0.027893 -0.001646
v -0.012472 0.027083 -0.001167
v -0.012470 0.027627 -0.001174
v -0.000884 0.033762 -0.000114
v 0.000000 0.033793 0.000206
v -0.001262 0.005116 -0.001605
v 0.000000 0.021560 -0.002314
v -0.000886 0.005116 -0.000817
v -0.002209 0.000905 -0.001075
v -0.001634 0.000906 -0.001411
v -0.001634 0.000000 -0.001315
v -0.002209 -0.000001 -0.000969
v -0.000961 0.000909 -0.000041
v -0.001095 0.000092 0.000105
v -0.001117 0.000007 -0.000909
v -0.001117 0.000913 -0.001040
v -0.002530 0.000086 -0.000157
v -0.001095 0.000092 0.000105
v -0.002530 0.000086 -0.000157
v -0.001624 0.001814 -0.001395
v -0.001181 0.001819 -0.001097
v -0.001233 0.000024 0.000955
v -0.002720 0.000021 0.000972
v -0.001780 0.000086 0.002417
v -0.001246 0.000079 0.001878
v -0.002720 0.000021 0.000972
v -0.002546 0.000044 0.002004
v -0.001599 0.005252 -0.001875
v -0.000739 0.005252 -0.001247
v -0.002578 0.005252 -0.000377
v -0.002519 0.005252 -0.001440
v -0.002065 0.001810 -0.001102
v -0.000822 0.005252 -0.000234
v -0.001133 0.001820 -0.000496
v -0.001741 0.005252 0.000201
v -0.001233 0.000024 0.000955
v -0.001333 0.031986 -0.001404
v -0.001374 0.031863 -0.001538
v 0.000000 0.033200 -0.003449
v -0.001590 0.032681 -0.001978
v -0.001590 0.032681 -0.001978
v -0.001531 0.032906 -0.001657
v 0.003093 0.021772 -0.001403
v 0.001845 0.021844 -0.003086
v 0.001312 0.029754 -0.001970
v 0.001312 0.030261 -0.001921
v 0.000937 0.029915 -0.001142
v 0.000937 0.029481 -0.001165
v 0.003181 0.026604 -0.001112
v 0.003135 0.026364 -0.002123
v 0.004364 0.027014 -0.001338
v 0.001661 0.021043 -0.002517
v 0.002625 0.021075 -0.001407
v 0.000795 0.024199 0.001222
v 0.000793 0.026266 0.000968
v 0.002555 0.021712 0.000811
v 0.009759 0.027100 -0.001353
v 0.012245 0.027050 -0.001162
v 0.012276 0.027688 -0.001140
v 0.009754 0.027847 -0.001374
v 0.012392 0.027692 -0.002174
v 0.012414 0.027050 -0.002205
v 0.012363 0.026731 -0.001668
v 0.012329 0.027986 -0.001669
v 0.012472 0.027083 -0.001167
v 0.012470 0.027627 -0.001174
v 0.012572 0.027615 -0.002111
v 0.012573 0.027071 -0.002104
v 0.001011 0.030603 -0.002701
v 0.001011 0.029967 -0.002798
v 0.000565 0.029384 -0.000566
v 0.000660 0.028336 0.000112
v 0.002625 0.021075 -0.001407
v 0.002643 0.020594 -0.001408
v 0.001656 0.020562 -0.002535
v 0.001661 0.021043 -0.002517
v 0.002231 0.021000 0.000710
v 0.002237 0.020518 0.000744
v 0.000793 0.021756 0.001253
v 0.002231 0.021000 0.000710
v 0.000793 0.021030 0.001198
v 0.013172 0.027667 -0.002065
v 0.013191 0.027089 -0.002097
v 0.012573 0.027071 -0.002104
v 0.012572 0.027615 -0.002111
v 0.012523 0.026805 -0.001632
v 0.012472 0.027083 -0.001167
v 0.013093 0.027031 -0.001100
v 0.013074 0.027609 -0.001068
v 0.012470 0.027627 -0.001174
v 0.012520 0.027893 -0.001646
v 0.013113 0.027927 -0.001551
v 0.012520 0.027893 -0.001646
v 0.013152 0.026771 -0.001614
v 0.012523 0.026805 -0.001632
v 0.000793 0.026266 0.000968
v 0.000660 0.028336 0.000112
v 0.000380 0.028336 0.000112
v 0.000534 0.026266 0.000968
v 0.012523 0.026805 -0.001632
v 0.013152 0.026771 -0.001614
v 0.003316 0.029222 -0.002161
v 0.001312 0.029754 -0.001970
v 0.000565 0.029730 -0.000637
v 0.000565 0.029384 -0.000566
v 0.000565 0.029384 -0.000566
v 0.000316 0.029359 -0.000566
v 0.000380 0.028336 0.000112
v 0.000660 0.028336 0.000112
v 0.000793 0.026266 0.000968
v 0.000534 0.026266 0.000968
v 0.000535 0.024199 0.001222
v 0.000795 0.024199 0.001222
v 0.000525 0.021756 0.001253
v 0.000793 0.021756 0.001253
v 0.000507 0.021030 0.001198
v 0.000793 0.021030 0.001198
v 0.000287 0.029692 -0.000583
v 0.000316 0.029359 -0.000566
v 0.000507 0.021030 0.001198
v 0.000495 0.020548 0.001240
v 0.000785 0.020548 0.001240
v 0.000793 0.021030 0.001198
v 0.000793 0.021030 0.001198
v 0.000785 0.020548 0.001240
v 0.000608 0.031249 -0.002276
v 0.000623 0.030826 -0.002260
v 0.001342 0.033694 -0.001341
v 0.001367 0.032680 -0.001388
v 0.001239 0.029723 -0.002093
v 0.002778 0.029052 -0.002140
v 0.001367 0.032680 -0.001388
v 0.001333 0.031986 -0.001404
v 0.001374 0.031863 -0.001538
v 0.001531 0.032906 -0.001657
v 0.000608 0.031249 -0.002276
v 0.000729 0.032027 -0.002866
v 0.001739 0.026280 0.000393
v 0.000811 0.033198 -0.003201
v 0.001312 0.029754 -0.001970
v 0.014473 0.027364 -0.002226
v 0.015517 0.027448 -0.001023
v 0.015474 0.027605 -0.000813
v 0.014783 0.027781 -0.001752
v 0.015414 0.027740 -0.001675
v 0.015483 0.027383 -0.001534
v 0.016343 0.027409 -0.000939
v 0.016352 0.027489 -0.000743
v 0.014123 0.027112 -0.000289
v 0.015107 0.027180 0.000071
v 0.015063 0.027310 0.000096
v 0.014966 0.027295 -0.000171
v 0.014998 0.027427 -0.000103
v 0.014698 0.027260 -0.000369
v 0.015412 0.027844 -0.000920
v 0.016202 0.027664 -0.000837
v 0.016192 0.027594 -0.001002
v 0.015403 0.027798 -0.001156
v 0.002896 0.018282 -0.000635
v 0.002676 0.020030 -0.000854
v 0.002209 0.021328 -0.000867
v 0.001865 0.021419 -0.001722
v 0.002067 0.005116 -0.000066
v 0.002442 0.005116 -0.000854
v 0.000887 0.005116 -0.000817
v 0.001289 0.005116 -0.000047
v 0.002039 0.005116 -0.001623
v 0.014724 0.027836 -0.001372
v 0.014703 0.027581 -0.002026
v 0.015180 0.027218 -0.002297
v 0.015170 0.027048 -0.002236
v 0.015225 0.027353 -0.002126
v 0.015784 0.027061 -0.002295
v 0.015894 0.026938 -0.002263
v 0.015212 0.027097 -0.002028
v 0.012441 0.027712 -0.001809
v 0.012445 0.027407 -0.002043
v 0.015911 0.026993 -0.002131
v 0.015813 0.027121 -0.002178
v 0.015493 0.027463 -0.001316
v 0.015420 0.027797 -0.001444
v 0.015383 0.027309 -0.001644
v 0.015317 0.027624 -0.001781
v 0.015289 0.027495 -0.001994
v 0.015363 0.027238 -0.001868
v 0.016046 0.027249 -0.001923
v 0.016183 0.027109 -0.001877
v 0.016195 0.027188 -0.001696
v 0.016059 0.027335 -0.001781
v 0.016324 0.027452 -0.001367
v 0.016316 0.027410 -0.001543
v 0.016433 0.027250 -0.001485
v 0.016439 0.027324 -0.001289
v 0.012443 0.027052 -0.001897
v 0.012436 0.027000 -0.001516
v 0.012523 0.026805 -0.001632
v 0.012520 0.027893 -0.001646
v 0.012572 0.027615 -0.002111
v 0.012573 0.027071 -0.002104
v 0.012472 0.027083 -0.001167
v 0.012470 0.027627 -0.001174
v 0.000884 0.033762 -0.000114
v 0.001262 0.005116 -0.001605
v 0.000887 0.005116 -0.000817
v 0.002209 0.000905 -0.001075
v 0.002209 -0.000001 -0.000969
v 0.001634 0.000000 -0.001315
v 0.001634 0.000906 -0.001411
v 0.000961 0.000909 -0.000041
v 0.001117 0.000913 -0.001040
v 0.001117 0.000007 -0.000909
v 0.001095 0.000092 0.000105
v 0.002530 0.000086 -0.000157
v 0.001095 0.000092 0.000105
v 0.002530 0.000086 -0.000157
v 0.001181 0.001819 -0.001097
v 0.001625 0.001814 -0.001395
v 0.001233 0.000024 0.000955
v 0.002720 0.000021 0.000972
v 0.001246 0.000079 0.001878
v 0.001780 0.000086 0.002417
v 0.002546 0.000044 0.002004
v 0.002720 0.000021 0.000972
v 0.001599 0.005252 -0.001875
v 0.000739 0.005252 -0.001247
v 0.002578 0.005252 -0.000377
v 0.002065 0.001810 -0.001102
v 0.002519 0.005252 -0.001440
v 0.001133 0.001820 -0.000496
v 0.000822 0.005252 -0.000234
v 0.001741 0.005252 0.000201
v 0.001233 0.000024 0.000955
v 0.001374 0.031863 -0.001538
v 0.001333 0.031986 -0.001404
v 0.001590 0.032681 -0.001978
v 0.001590 0.032681 -0.001978
v 0.001531 0.032906 -0.001657
v -0.001181 0.033699 -0.000801
v -0.001342 0.033694 -0.001341
v 0.001342 0.033694 -0.001341
v 0.001181 0.033699 -0.000801
vt 0.069295 0.839633
vt 0.118641 0.765865
vt 0.069295 0.768443
vt 0.088625 0.343267
vt 0.089491 0.245225
vt 0.135830 0.235858
vt 0.196579 0.236953
vt 0.252359 0.264176
vt 0.256414 0.337459
vt 0.392743 0.415125
vt 0.404504 0.397884
vt 0.405233 0.413733
vt 0.389537 0.412580
vt 0.386048 0.375212
vt 0.403421 0.373047
vt 0.387549 0.376150
vt 0.196579 0.146780
vt 0.280491 0.105887
vt 0.277147 0.137743
vt 0.076295 0.151959
vt 0.135830 0.146780
vt 0.363194 0.381618
vt 0.399724 0.286111
vt 0.384556 0.286010
vt 0.344065 0.378253
vt 0.344065 0.283982
vt 0.365109 0.279774
vt 0.344065 0.277160
vt 0.344065 0.271001
vt 0.382766 0.280773
vt 0.383512 0.250577
vt 0.399356 0.272172
vt 0.399454 0.278742
vt 0.360696 0.271336
vt 0.360600 0.285204
vt 0.384442 0.272118
vt 0.398032 0.248794
vt 0.364630 0.249219
vt 0.344065 0.246654
vt 0.171637 0.337667
vt 0.171637 0.337376
vt 0.172565 0.601276
vt 0.150763 0.552643
vt 0.114210 0.605202
vt 0.410488 0.946314
vt 0.424865 1.000000
vt 0.499755 1.000000
vt 0.084585 0.545731
vt 0.069295 0.602098
vt 0.295818 0.927010
vt 0.295818 0.815504
vt 0.253135 0.811692
vt 0.946673 0.650550
vt 0.959819 0.706338
vt 0.903854 0.625607
vt 0.000000 0.765534
vt 0.000000 0.840189
vt 0.499755 0.962625
vt 0.499755 0.841195
vt 0.459919 0.834237
vt 0.145547 0.732501
vt 0.248763 0.755683
vt 0.212992 0.628445
vt 0.291413 0.746003
vt 0.378015 0.771189
vt 0.375430 0.740189
vt 0.069295 0.685123
vt 0.170320 0.702740
vt 0.114680 0.691170
vt 1.000000 0.554472
vt 0.925105 0.541587
vt 0.952883 0.520717
vt 0.499755 0.766474
vt 0.969593 0.908541
vt 1.000000 0.908150
vt 0.984298 0.930676
vt 0.918689 0.997507
vt 0.925860 0.974394
vt 0.949722 0.996265
vt 0.379369 0.832248
vt 0.145547 0.839633
vt 0.676232 0.756314
vt 0.660134 0.881143
vt 0.639436 0.776411
vt 0.248763 0.833941
vt 0.145547 0.837753
vt 0.153691 0.942976
vt 0.499755 0.821699
vt 0.596704 0.887535
vt 0.600508 0.766930
vt 0.660112 0.677185
vt 0.676621 0.602941
vt 0.698184 0.639654
vt 0.810862 0.757442
vt 0.817486 0.784402
vt 0.822805 0.783912
vt 0.253135 0.920726
vt 0.200677 1.000000
vt 0.303470 1.000000
vt 0.837498 0.794424
vt 0.830730 0.810767
vt 0.851196 0.808167
vt 0.820939 0.821316
vt 0.846821 0.810879
vt 0.846938 0.841427
vt 0.801578 0.820943
vt 0.796031 0.850508
vt 0.784960 0.839593
vt 0.786378 0.816125
vt 0.788262 0.801710
vt 0.811783 0.048317
vt 0.748541 0.042884
vt 0.748541 0.100825
vt 0.997276 0.109239
vt 0.939852 0.070624
vt 0.971844 0.116592
vt 0.913412 0.907252
vt 0.935569 0.932549
vt 0.880584 0.932464
vt 0.997276 0.000454
vt 0.887496 0.270525
vt 0.914167 0.276440
vt 0.915419 0.258312
vt 0.811587 0.110651
vt 0.868741 0.898878
vt 0.772499 0.124017
vt 0.748541 0.125243
vt 0.935793 0.259855
vt 0.934674 0.279436
vt 0.969778 0.279223
vt 0.913367 0.294699
vt 0.932598 0.297054
vt 0.977562 0.993295
vt 0.971510 0.971477
vt 0.749857 0.617757
vt 0.749857 0.756087
vt 0.822164 0.813413
vt 0.785816 0.790809
vt 0.780443 0.801824
vt 0.797518 0.787585
vt 0.797619 0.820161
vt 0.788416 0.819552
vt 0.838372 0.843281
vt 0.845031 0.837184
vt 0.810549 0.818143
vt 0.794084 0.790851
vt 0.817087 0.786423
vt 0.858514 0.848696
vt 0.860555 0.823846
vt 0.809795 0.853717
vt 0.530993 1.000000
vt 0.535293 0.895201
vt 0.779007 0.816394
vt 0.829493 0.842355
vt 0.816794 0.757345
vt 0.823314 0.851415
vt 0.578993 0.674118
vt 0.594556 0.604101
vt 0.616808 0.689923
vt 0.598220 1.000000
vt 0.499755 0.718996
vt 0.099875 0.500421
vt 0.919712 0.113351
vt 0.748541 0.125243
vt 0.781440 0.281898
vt 0.748541 0.077258
vt 0.756591 0.072255
vt 0.818048 0.275254
vt 0.827272 0.319655
vt 0.848424 0.272088
vt 0.849371 0.318064
vt 0.171637 0.241699
vt 0.037062 0.096435
vt 0.361989 0.414322
vt 0.653805 1.000000
vt 0.997276 0.147071
vt 0.997276 0.133592
vt 0.953634 0.000000
vt 0.565759 0.167738
vt 0.540997 0.167738
vt 0.507450 0.167738
vt 0.540997 0.167738
vt 0.583187 0.167738
vt 0.583187 0.167738
vt 0.623033 0.167738
vt 0.590207 0.450124
vt 0.657764 0.440052
vt 0.583187 0.370930
vt 0.736325 0.470628
vt 0.700605 0.481097
vt 0.724327 0.446113
vt 0.657764 0.440052
vt 0.647148 0.470234
vt 0.657764 0.440052
vt 0.677563 0.419417
vt 0.700605 0.481097
vt 0.513970 0.024400
vt 0.519517 0.055355
vt 0.503250 0.040693
vt 0.623033 0.368856
vt 0.677563 0.419417
vt 0.626846 0.051807
vt 0.610619 0.012099
vt 0.628751 0.026219
vt 0.647148 0.470234
vt 0.000000 0.542260
vt 0.000000 0.500421
vt 0.894529 0.553297
vt 0.942255 0.513144
vt 0.840738 0.706338
vt 0.898657 0.553905
vt 0.145547 0.840234
vt 0.069295 0.839633
vt 0.069295 0.768443
vt 0.118641 0.765865
vt 0.088625 0.343267
vt 0.135830 0.235858
vt 0.089491 0.245225
vt 0.196579 0.236953
vt 0.256414 0.337459
vt 0.252359 0.264176
vt 0.392743 0.415125
vt 0.405233 0.413733
vt 0.404504 0.397884
vt 0.389537 0.412580
vt 0.386048 0.375212
vt 0.403421 0.373047
vt 0.387549 0.376150
vt 0.196579 0.146780
vt 0.277147 0.137743
vt 0.280491 0.105887
vt 0.135830 0.146780
vt 0.076295 0.151959
vt 0.363194 0.381618
vt 0.399724 0.286111
vt 0.384556 0.286010
vt 0.344065 0.283982
vt 0.344065 0.378253
vt 0.365109 0.279774
vt 0.344065 0.271001
vt 0.344065 0.277160
vt 0.382766 0.280773
vt 0.399356 0.272172
vt 0.383512 0.250577
vt 0.399454 0.278742
vt 0.360696 0.271336
vt 0.360600 0.285204
vt 0.384442 0.272118
vt 0.398032 0.248794
vt 0.364630 0.249219
vt 0.344065 0.246654
vt 0.171637 0.337667
vt 0.171637 0.337376
vt 0.172565 0.601276
vt 0.114210 0.605202
vt 0.150763 0.552643
vt 0.410488 0.946314
vt 0.424865 1.000000
vt 0.084585 0.545731
vt 0.069295 0.602098
vt 0.295818 0.927010
vt 0.253135 0.811692
vt 0.295818 0.815504
vt 0.946673 0.650550
vt 0.903854 0.625607
vt 0.959819 0.706338
vt 0.459919 0.834237
vt 0.145547 0.732501
vt 0.212992 0.628445
vt 0.248763 0.755683
vt 0.291413 0.746003
vt 0.375430 0.740189
vt 0.378015 0.771189
vt 0.069295 0.685123
vt 0.170320 0.702740
vt 0.114680 0.691170
vt 1.000000 0.554472
vt 0.952883 0.520717
vt 0.925105 0.541587
vt 0.969593 0.908541
vt 0.918689 0.997507
vt 0.949722 0.996265
vt 0.925860 0.974394
vt 0.379369 0.832248
vt 0.145547 0.839633
vt 0.676232 0.756314
vt 0.639436 0.776411
vt 0.660134 0.881143
vt 0.248763 0.833941
vt 0.153691 0.942976
vt 0.145547 0.837753
vt 0.596704 0.887535
vt 0.600508 0.766930
vt 0.660112 0.677185
vt 0.698184 0.639654
vt 0.676621 0.602941
vt 0.810862 0.757442
vt 0.822805 0.783912
vt 0.817486 0.784402
vt 0.253135 0.920726
vt 0.303470 1.000000
vt 0.200677 1.000000
vt 0.837498 0.794424
vt 0.851196 0.808167
vt 0.830730 0.810767
vt 0.820939 0.821316
vt 0.846938 0.841427
vt 0.846821 0.810879
vt 0.801578 0.820943
vt 0.784960 0.839593
vt 0.796031 0.850508
vt 0.786378 0.816125
vt 0.788262 0.801710
vt 0.811783 0.048317
vt 0.971844 0.116592
vt 0.939852 0.070624
vt 0.913412 0.907252
vt 0.880584 0.932464
vt 0.935569 0.932549
vt 0.887496 0.270525
vt 0.915419 0.258312
vt 0.914167 0.276440
vt 0.811587 0.110651
vt 0.868741 0.898878
vt 0.772499 0.124017
vt 0.935793 0.259855
vt 0.969778 0.279223
vt 0.934674 0.279436
vt 0.913367 0.294699
vt 0.932598 0.297054
vt 0.822164 0.813413
vt 0.785816 0.790809
vt 0.797518 0.787585
vt 0.780443 0.801824
vt 0.797619 0.820161
vt 0.788416 0.819552
vt 0.838372 0.843281
vt 0.845031 0.837184
vt 0.810549 0.818143
vt 0.817087 0.786423
vt 0.794084 0.790851
vt 0.858514 0.848696
vt 0.860555 0.823846
vt 0.809795 0.853717
vt 0.530993 1.000000
vt 0.535293 0.895201
vt 0.779007 0.816394
vt 0.829493 0.842355
vt 0.816794 0.757345
vt 0.823314 0.851415
vt 0.578993 0.674118
vt 0.616808 0.689923
vt 0.594556 0.604101
vt 0.598220 1.000000
vt 0.099875 0.500421
vt 0.919712 0.113351
vt 0.781440 0.281898
vt 0.748541 0.125243
vt 0.756591 0.072255
vt 0.818048 0.275254
vt 0.827272 0.319655
vt 0.848424 0.272088
vt 0.849371 0.318064
vt 0.171637 0.241699
vt 0.037062 0.096435
vt 0.361989 0.414322
vt 0.653805 1.000000
vt 0.997276 0.147071
vt 0.953634 0.000000
vt 0.565759 0.167738
vt 0.507450 0.167738
vt 0.540997 0.167738
vt 0.583187 0.167738
vt 0.540997 0.167738
vt 0.583187 0.167738
vt 0.623033 0.167738
vt 0.590207 0.450124
vt 0.583187 0.370930
vt 0.657764 0.440052
vt 0.736325 0.470628
vt 0.724327 0.446113
vt 0.700605 0.481097
vt 0.657764 0.440052
vt 0.647148 0.470234
vt 0.657764 0.440052
vt 0.677563 0.419417
vt 0.700605 0.481097
vt 0.513970 0.024400
vt 0.503250 0.040693
vt 0.519517 0.055355
vt 0.623033 0.368856
vt 0.677563 0.419417
vt 0.626846 0.051807
vt 0.628751 0.026219
vt 0.610619 0.012099
vt 0.647148 0.470234
vt 0.942255 0.513144
vt 0.894529 0.553297
vt 0.898657 0.553905
vt 0.840738 0.706338
vt 0.145547 0.840234
vt 0.171637 0.455764
vt 0.244509 0.456190
vt 0.499711 0.301496
vt 0.499711 0.378671
vt 0.453865 0.378671
vt 0.453865 0.301496
vt 0.363201 0.412638
vt 0.362214 0.381229
vt 0.344065 0.408931
vt 0.252435 0.499632
vt 0.171637 0.499632
vt 0.029261 0.342626
vt 0.029261 0.246291
vt 0.324071 0.264580
vt 0.324071 0.337667
vt 0.102450 0.460471
vt 0.324071 0.499632
vt 0.324071 0.456101
vt 0.362688 0.246992
vt 0.381951 0.248138
vt 0.381936 0.193788
vt 0.364840 0.193157
vt 0.383565 0.194196
vt 0.366497 0.193409
vt 0.344065 0.191545
vt 0.395262 0.194034
vt 0.381869 0.189822
vt 0.365547 0.188753
vt 0.383096 0.190365
vt 0.366736 0.189604
vt 0.499711 0.124720
vt 0.499711 0.232218
vt 0.453865 0.232218
vt 0.453865 0.124720
vt 0.029261 0.149794
vt 0.029261 0.100951
vt 0.453354 0.488081
vt 0.453354 0.244278
vt 0.499918 0.244278
vt 0.499918 0.488081
vt 0.499918 0.240404
vt 0.453354 0.240404
vt 0.029261 0.463808
vt 0.089346 0.499632
vt 0.029261 0.499632
vt 0.499521 0.247070
vt 0.453981 0.247070
vt 0.453981 0.205269
vt 0.499521 0.205269
vt 0.344065 0.187286
vt 0.453981 0.372472
vt 0.453981 0.330671
vt 0.499521 0.330671
vt 0.499521 0.372472
vt 0.395114 0.189923
vt 0.453981 0.288871
vt 0.499521 0.288871
vt 0.453981 0.163468
vt 0.499521 0.163468
vt 0.029261 0.076323
vt 0.000000 0.076323
vt 0.000000 0.187703
vt 0.029261 0.187703
vt 0.453981 0.414273
vt 0.499521 0.414273
vt 0.160313 0.108497
vt 0.052235 0.083729
vt 0.324071 0.132732
vt 0.324071 0.106545
vt 0.499711 0.478024
vt 0.453865 0.478024
vt 0.029261 0.076323
vt 0.029261 0.000000
vt 0.000000 0.000000
vt 0.000000 0.076323
vt 0.029261 0.187703
vt 0.029261 0.302796
vt 0.000000 0.302796
vt 0.000000 0.187703
vt 0.029261 0.433400
vt 0.000000 0.433400
vt 0.029261 0.474785
vt 0.000000 0.474785
vt 0.499711 0.498229
vt 0.453865 0.498229
vt 0.453354 0.036065
vt 0.499918 0.036065
vt 0.000000 0.474503
vt 0.029261 0.474503
vt 0.029261 0.499581
vt 0.000000 0.499581
vt 0.453354 0.047951
vt 0.499918 0.047951
vt 0.000000 0.686609
vt 0.000000 0.607920
vt 0.504033 0.634168
vt 0.504033 0.588471
vt 0.854706 1.000000
vt 0.874535 0.969379
vt 0.290460 0.768253
vt 0.290460 0.652921
vt 0.638399 0.672495
vt 0.640923 0.606961
vt 0.776242 0.533976
vt 0.839441 0.517923
vt 0.806681 0.709389
vt 0.776242 0.686487
vt 0.073807 0.960029
vt 0.069295 0.840234
vt 0.000000 0.840234
vt 0.000000 0.960029
vt 0.545186 0.764823
vt 0.838846 0.991360
vt 0.852438 0.968141
vt 0.069295 0.732501
vt 0.504033 0.900171
vt 0.504033 0.752658
vt 0.749857 0.889712
vt 0.504033 1.000000
vt 0.860818 0.932498
vt 0.749857 1.000000
vt 0.855501 0.892063
vt 0.267479 0.083729
vt 0.778486 0.840173
vt 0.835793 0.880765
vt 0.827280 0.882509
vt 0.797721 0.852737
vt 0.806567 0.881164
vt 0.800811 0.878337
vt 0.830695 0.916032
vt 0.838628 0.916397
vt 0.857058 0.825958
vt 0.872683 0.864111
vt 0.871655 0.865903
vt 0.864592 0.861479
vt 0.861854 0.860192
vt 0.853800 0.849295
vt 0.831448 0.878284
vt 0.821905 0.877899
vt 0.828136 0.909903
vt 0.834842 0.910301
vt 0.887496 0.109370
vt 0.887496 0.056063
vt 0.887496 0.000000
vt 0.810108 0.000000
vt 0.887496 0.410219
vt 0.903700 0.410219
vt 0.949806 0.410219
vt 0.926883 0.410219
vt 0.856721 0.410219
vt 0.749857 0.580404
vt 0.813122 0.850367
vt 0.786573 0.849518
vt 0.778067 0.868459
vt 0.775575 0.868850
vt 0.782534 0.870661
vt 0.776956 0.897815
vt 0.775692 0.893361
vt 0.786496 0.870164
vt 0.795407 0.757722
vt 0.785883 0.757904
vt 0.780406 0.894549
vt 0.782322 0.898503
vt 0.810221 0.878597
vt 0.815390 0.881564
vt 0.796544 0.874430
vt 0.802077 0.877107
vt 0.792980 0.876284
vt 0.787898 0.873263
vt 0.792634 0.909547
vt 0.790766 0.903981
vt 0.796541 0.904518
vt 0.799993 0.910025
vt 0.806189 0.914959
vt 0.813327 0.915277
vt 0.808531 0.919710
vt 0.816504 0.919952
vt 0.791814 0.757807
vt 0.807270 0.757527
vt 0.367607 0.415818
vt 0.367607 0.415818
vt 0.367607 0.415818
vt 0.367607 0.415818
vt 0.367607 0.415818
vt 0.367607 0.415818
vt 0.407726 0.608839
vt 0.499755 0.608524
vt 0.833059 0.410219
vt 0.748541 0.000000
vt 0.809527 0.410219
vt 0.540155 0.450003
vt 0.507450 0.450171
vt 0.507450 0.495713
vt 0.546505 0.495545
vt 0.590207 0.450124
vt 0.595289 0.490960
vt 0.546505 0.495545
vt 0.540155 0.450003
vt 0.550424 0.060809
vt 0.549599 0.019338
vt 0.595289 0.490960
vt 0.507450 0.392618
vt 0.539173 0.392134
vt 0.580586 0.019514
vt 0.591619 0.061229
vt 0.735853 0.493066
vt 0.699182 0.493529
vt 0.648645 0.494596
vt 0.699182 0.493529
vt 0.507450 0.246071
vt 0.541784 0.246071
vt 0.583187 0.246071
vt 0.541784 0.246071
vt 0.539173 0.392134
vt 0.583187 0.246071
vt 0.583187 0.370930
vt 0.623033 0.246071
vt 0.647717 0.494453
vt 0.997612 0.668433
vt 0.977880 0.709996
vt 0.000000 0.732501
vt 0.893192 0.554515
vt 0.897767 0.553535
vt 0.843141 0.520387
vt 0.171637 0.455764
vt 0.244509 0.456190
vt 0.499711 0.301496
vt 0.453865 0.301496
vt 0.453865 0.378671
vt 0.499711 0.378671
vt 0.363201 0.412638
vt 0.344065 0.408931
vt 0.362214 0.381229
vt 0.252435 0.499632
vt 0.171637 0.499632
vt 0.029261 0.342626
vt 0.029261 0.246291
vt 0.102450 0.460471
vt 0.362688 0.246992
vt 0.364840 0.193157
vt 0.381936 0.193788
vt 0.381951 0.248138
vt 0.383565 0.194196
vt 0.366497 0.193409
vt 0.344065 0.191545
vt 0.395262 0.194034
vt 0.365547 0.188753
vt 0.381869 0.189822
vt 0.383096 0.190365
vt 0.366736 0.189604
vt 0.453865 0.232218
vt 0.499711 0.232218
vt 0.029261 0.100951
vt 0.029261 0.149794
vt 0.453354 0.488081
vt 0.499918 0.488081
vt 0.499918 0.244278
vt 0.453354 0.244278
vt 0.453354 0.240404
vt 0.499918 0.240404
vt 0.029261 0.463808
vt 0.089346 0.499632
vt 0.029261 0.499632
vt 0.499521 0.247070
vt 0.499521 0.205269
vt 0.453981 0.205269
vt 0.453981 0.247070
vt 0.344065 0.187286
vt 0.453981 0.372472
vt 0.499521 0.372472
vt 0.499521 0.330671
vt 0.453981 0.330671
vt 0.395114 0.189923
vt 0.499521 0.288871
vt 0.453981 0.288871
vt 0.499521 0.163468
vt 0.453981 0.163468
vt 0.029261 0.076323
vt 0.029261 0.187703
vt 0.000000 0.187703
vt 0.000000 0.076323
vt 0.453981 0.414273
vt 0.499521 0.414273
vt 0.160313 0.108497
vt 0.052235 0.083729
vt 0.453865 0.478024
vt 0.499711 0.478024
vt 0.029261 0.076323
vt 0.000000 0.076323
vt 0.000000 0.000000
vt 0.029261 0.000000
vt 0.029261 0.187703
vt 0.000000 0.187703
vt 0.000000 0.302796
vt 0.029261 0.302796
vt 0.000000 0.433400
vt 0.029261 0.433400
vt 0.000000 0.474785
vt 0.029261 0.474785
vt 0.453865 0.498229
vt 0.499711 0.498229
vt 0.000000 0.474503
vt 0.000000 0.499581
vt 0.029261 0.499581
vt 0.029261 0.474503
vt 0.453354 0.047951
vt 0.499918 0.047951
vt 0.854706 1.000000
vt 0.874535 0.969379
vt 0.290460 0.652921
vt 0.290460 0.768253
vt 0.640923 0.606961
vt 0.638399 0.672495
vt 0.776242 0.533976
vt 0.776242 0.686487
vt 0.806681 0.709389
vt 0.839441 0.517923
vt 0.073807 0.960029
vt 0.069295 0.840234
vt 0.545186 0.764823
vt 0.069295 0.732501
vt 0.267479 0.083729
vt 0.778486 0.840173
vt 0.827280 0.882509
vt 0.835793 0.880765
vt 0.797721 0.852737
vt 0.800811 0.878337
vt 0.806567 0.881164
vt 0.830695 0.916032
vt 0.838628 0.916397
vt 0.857058 0.825958
vt 0.871655 0.865903
vt 0.872683 0.864111
vt 0.861854 0.860192
vt 0.864592 0.861479
vt 0.853800 0.849295
vt 0.831448 0.878284
vt 0.834842 0.910301
vt 0.828136 0.909903
vt 0.821905 0.877899
vt 0.887496 0.109370
vt 0.887496 0.056063
vt 0.887496 0.000000
vt 0.810108 0.000000
vt 0.903700 0.410219
vt 0.887496 0.410219
vt 0.949806 0.410219
vt 0.926883 0.410219
vt 0.856721 0.410219
vt 0.813122 0.850367
vt 0.786573 0.849518
vt 0.775575 0.868850
vt 0.778067 0.868459
vt 0.782534 0.870661
vt 0.775692 0.893361
vt 0.776956 0.897815
vt 0.786496 0.870164
vt 0.795407 0.757722
vt 0.785883 0.757904
vt 0.782322 0.898503
vt 0.780406 0.894549
vt 0.815390 0.881564
vt 0.810221 0.878597
vt 0.802077 0.877107
vt 0.796544 0.874430
vt 0.787898 0.873263
vt 0.792980 0.876284
vt 0.790766 0.903981
vt 0.792634 0.909547
vt 0.799993 0.910025
vt 0.796541 0.904518
vt 0.813327 0.915277
vt 0.806189 0.914959
vt 0.808531 0.919710
vt 0.816504 0.919952
vt 0.791814 0.757807
vt 0.807270 0.757527
vt 0.367607 0.415818
vt 0.367607 0.415818
vt 0.367607 0.415818
vt 0.367607 0.415818
vt 0.367607 0.415818
vt 0.367607 0.415818
vt 0.407726 0.608839
vt 0.833059 0.410219
vt 0.809527 0.410219
vt 0.540155 0.450003
vt 0.546505 0.495545
vt 0.507450 0.495713
vt 0.507450 0.450171
vt 0.590207 0.450124
vt 0.540155 0.450003
vt 0.546505 0.495545
vt 0.595289 0.490960
vt 0.550424 0.060809
vt 0.549599 0.019338
vt 0.595289 0.490960
vt 0.539173 0.392134
vt 0.507450 0.392618
vt 0.580586 0.019514
vt 0.591619 0.061229
vt 0.699182 0.493529
vt 0.735853 0.493066
vt 0.699182 0.493529
vt 0.648645 0.494596
vt 0.507450 0.246071
vt 0.541784 0.246071
vt 0.583187 0.246071
vt 0.539173 0.392134
vt 0.541784 0.246071
vt 0.583187 0.370930
vt 0.583187 0.246071
vt 0.623033 0.246071
vt 0.647717 0.494453
vt 0.977880 0.709996
vt 0.997612 0.668433
vt 0.893192 0.554515
vt 0.897767 0.553535
vt 0.843141 0.520387
vt 0.347324 0.616752
vt 0.291413 0.630672
vt 0.291413 0.630672
vt 0.347324 0.616752
usemtl material_0
f 1/1 2/2 3/3
f 4/4 5/5 6/6
f 7/7 8/8 9/9
f 10/10 11/11 12/12
f 13/13 11/11 14/14
f 15/15 11/11 16/16
f 17/17 18/18 19/19
f 5/5 20/20 21/21
f 22/22 16/16 10/10
f 12/12 11/11 13/13
f 11/11 15/15 14/14
f 11/11 10/10 16/16
f 23/23 24/24 14/14
f 22/22 25/25 26/26
f 15/15 16/16 23/23
f 27/27 28/28 29/29
f 30/30 31/31 32/32
f 23/23 33/33 24/24
f 34/34 29/29 28/28
f 28/28 26/26 35/35
f 33/33 32/32 36/36
f 36/36 24/24 33/33
f 23/23 16/16 30/30
f 26/26 28/28 27/27
f 32/32 31/31 37/37
f 38/38 29/29 39/39
f 6/6 5/5 21/21
f 35/35 34/34 28/28
f 17/17 19/19 8/8
f 40/40 4/4 6/6
f 7/7 17/17 8/8
f 41/41 7/7 9/9
f 42/42 43/43 44/44
f 45/45 46/46 47/47
f 48/48 49/49 44/44
f 50/50 51/51 52/52
f 53/53 54/54 55/55
f 3/3 56/56 57/57
f 58/58 59/59 60/60
f 61/61 62/62 63/63
f 64/64 65/65 66/66
f 67/67 3/3 2/2
f 68/68 69/69 2/2
f 70/70 71/71 72/72
f 73/73 66/66 65/65
f 74/74 75/75 76/76
f 77/77 78/78 79/79
f 58/58 60/60 80/80
f 2/2 1/1 81/81
f 82/82 83/83 84/84
f 85/85 86/86 87/87
f 60/60 88/88 73/73
f 89/89 90/90 84/84
f 91/91 92/92 93/93
f 83/83 89/89 84/84
f 94/94 95/95 96/96
f 97/97 98/98 99/99
f 100/100 101/101 102/102
f 103/103 104/104 105/105
f 106/106 107/107 108/108
f 109/109 110/110 106/106
f 111/111 112/112 113/113
f 114/114 115/115 116/116
f 117/117 118/118 119/119
f 115/115 114/114 120/120
f 121/121 122/122 123/123
f 124/124 111/111 113/113
f 125/125 117/117 119/119
f 126/126 124/124 113/113
f 126/126 113/113 127/127
f 128/128 129/129 130/130
f 121/121 131/131 122/122
f 130/130 129/129 132/132
f 116/116 128/128 130/130
f 133/133 79/79 134/134
f 93/93 135/135 136/136
f 95/95 137/137 101/101
f 138/138 139/139 140/140
f 141/141 140/140 142/142
f 143/143 105/105 144/144
f 141/141 145/145 140/140
f 110/110 146/146 147/147
f 101/101 100/100 95/95
f 106/106 110/110 147/147
f 100/100 102/102 104/104
f 103/103 105/105 143/143
f 103/103 147/147 104/104
f 148/148 149/149 144/144
f 103/103 150/150 106/106
f 147/147 103/103 106/106
f 149/149 102/102 144/144
f 101/101 144/144 102/102
f 139/139 142/142 140/140
f 151/151 152/152 89/89
f 139/139 153/153 142/142
f 154/154 143/143 144/144
f 145/145 137/137 95/95
f 140/140 145/145 95/95
f 100/100 96/96 95/95
f 155/155 94/94 96/96
f 147/147 96/96 100/100
f 109/109 106/106 108/108
f 107/107 106/106 150/150
f 156/156 150/150 103/103
f 156/156 103/103 143/143
f 147/147 100/100 104/104
f 33/33 30/30 32/32
f 33/33 23/23 30/30
f 22/22 26/26 27/27
f 38/38 27/27 29/29
f 78/78 134/134 79/79
f 117/117 74/74 118/118
f 118/118 74/74 76/76
f 157/157 158/158 159/159
f 160/160 89/89 83/83
f 93/93 136/136 82/82
f 91/91 93/93 82/82
f 60/60 59/59 88/88
f 66/66 73/73 161/161
f 162/162 48/48 43/43
f 58/58 45/45 47/47
f 115/115 163/163 116/116
f 126/126 164/164 165/165
f 127/127 166/166 167/167
f 168/168 165/165 169/169
f 170/170 171/171 121/121
f 172/172 40/40 6/6
f 172/172 7/7 41/41
f 15/15 23/23 14/14
f 21/21 20/20 173/173
f 174/174 22/22 10/10
f 175/175 160/160 83/83
f 160/160 151/151 89/89
f 176/176 177/177 116/116
f 126/126 127/127 167/167
f 168/168 126/126 165/165
f 176/176 116/116 130/130
f 178/178 115/115 120/120
f 177/177 114/114 116/116
f 179/179 180/180 181/181
f 179/179 182/182 183/183
f 179/179 184/184 180/180
f 179/179 181/181 182/182
f 179/179 185/185 184/184
f 186/186 187/187 188/188
f 189/189 190/190 191/191
f 191/191 190/190 192/192
f 186/186 193/193 187/187
f 194/194 195/195 191/191
f 179/179 183/183 185/185
f 196/196 189/189 191/191
f 197/197 198/198 199/199
f 200/200 187/187 201/201
f 202/202 203/203 204/204
f 187/187 193/193 196/196
f 190/190 205/205 192/192
f 201/201 191/191 192/192
f 187/187 196/196 191/191
f 187/187 200/200 188/188
f 97/97 99/99 50/50
f 50/50 52/52 97/97
f 1/1 3/3 57/57
f 206/206 48/48 162/162
f 207/207 206/206 162/162
f 48/48 44/44 43/43
f 71/71 208/208 209/209
f 55/55 210/210 211/211
f 212/212 68/68 2/2
f 45/45 58/58 80/80
f 69/69 67/67 2/2
f 213/213 214/214 215/215
f 216/216 217/217 218/218
f 219/219 220/220 221/221
f 222/222 223/223 224/224
f 225/225 226/226 224/224
f 227/227 228/228 224/224
f 229/229 230/230 231/231
f 218/218 232/232 233/233
f 234/234 222/222 228/228
f 223/223 225/225 224/224
f 224/224 226/226 227/227
f 224/224 228/228 222/222
f 235/235 226/226 236/236
f 234/234 237/237 238/238
f 227/227 235/235 228/228
f 239/239 240/240 241/241
f 242/242 243/243 244/244
f 235/235 236/236 245/245
f 246/246 241/241 240/240
f 241/241 247/247 237/237
f 245/245 248/248 243/243
f 248/248 245/245 236/236
f 235/235 242/242 228/228
f 237/237 239/239 241/241
f 243/243 249/249 244/244
f 250/250 251/251 240/240
f 217/217 232/232 218/218
f 247/247 241/241 246/246
f 229/229 221/221 230/230
f 252/252 217/217 216/216
f 219/219 221/221 229/229
f 253/253 220/220 219/219
f 254/254 255/255 256/256
f 257/257 47/47 258/258
f 259/259 255/255 260/260
f 261/261 262/262 263/263
f 264/264 265/265 266/266
f 214/214 57/57 56/56
f 58/58 267/267 59/59
f 268/268 269/269 270/270
f 271/271 272/272 273/273
f 274/274 215/215 214/214
f 275/275 215/215 276/276
f 277/277 278/278 279/279
f 73/73 273/273 272/272
f 280/280 76/76 75/75
f 281/281 282/282 283/283
f 58/58 284/284 267/267
f 215/215 285/285 213/213
f 286/286 287/287 288/288
f 289/289 290/290 291/291
f 267/267 73/73 88/88
f 292/292 287/287 293/293
f 294/294 295/295 296/296
f 288/288 287/287 292/292
f 297/297 298/298 299/299
f 300/300 301/301 302/302
f 303/303 304/304 305/305
f 306/306 307/307 308/308
f 309/309 310/310 311/311
f 312/312 309/309 313/313
f 314/314 113/113 112/112
f 114/114 315/315 316/316
f 317/317 318/318 319/319
f 316/316 120/120 114/114
f 320/320 321/321 322/322
f 323/323 113/113 314/314
f 324/324 318/318 317/317
f 325/325 113/113 323/323
f 325/325 127/127 113/113
f 326/326 327/327 328/328
f 320/320 322/322 329/329
f 327/327 330/330 328/328
f 315/315 327/327 326/326
f 133/133 134/134 282/282
f 295/295 136/136 135/135
f 299/299 305/305 331/331
f 332/332 333/333 334/334
f 335/335 336/336 333/333
f 337/337 338/338 307/307
f 335/335 333/333 339/339
f 313/313 340/340 341/341
f 305/305 299/299 303/303
f 309/309 340/340 313/313
f 303/303 308/308 304/304
f 306/306 337/337 307/307
f 306/306 308/308 340/340
f 342/342 338/338 343/343
f 306/306 309/309 344/344
f 340/340 309/309 306/306
f 343/343 338/338 304/304
f 305/305 304/304 338/338
f 334/334 333/333 336/336
f 345/345 292/292 346/346
f 334/334 336/336 347/347
f 348/348 338/338 337/337
f 339/339 299/299 331/331
f 333/333 299/299 339/339
f 303/303 299/299 298/298
f 349/349 298/298 297/297
f 340/340 303/303 298/298
f 312/312 310/310 309/309
f 311/311 344/344 309/309
f 350/350 306/306 344/344
f 350/350 337/337 306/306
f 340/340 308/308 303/303
f 245/245 243/243 242/242
f 245/245 242/242 235/235
f 234/234 239/239 237/237
f 250/250 240/240 239/239
f 283/283 282/282 134/134
f 317/317 319/319 280/280
f 319/319 76/76 280/280
f 351/351 352/352 353/353
f 354/354 288/288 292/292
f 295/295 286/286 136/136
f 294/294 286/286 295/295
f 267/267 88/88 59/59
f 272/272 161/161 73/73
f 355/355 256/256 259/259
f 58/58 47/47 257/257
f 316/316 315/315 356/356
f 325/325 357/357 358/358
f 127/127 359/359 166/166
f 360/360 361/361 357/357
f 362/362 320/320 363/363
f 364/364 217/217 252/252
f 364/364 253/253 219/219
f 227/227 226/226 235/235
f 232/232 365/365 233/233
f 366/366 222/222 234/234
f 367/367 288/288 354/354
f 354/354 292/292 345/345
f 368/368 315/315 177/177
f 325/325 359/359 127/127
f 360/360 357/357 325/325
f 368/368 327/327 315/315
f 369/369 120/120 316/316
f 177/177 315/315 114/114
f 370/370 371/371 372/372
f 370/370 373/373 374/374
f 370/370 372/372 375/375
f 370/370 374/374 371/371
f 370/370 375/375 376/376
f 377/377 378/378 379/379
f 380/380 381/381 382/382
f 381/381 383/383 382/382
f 377/377 379/379 384/384
f 385/385 381/381 386/386
f 370/370 376/376 373/373
f 387/387 381/381 380/380
f 388/388 389/389 390/390
f 391/391 392/392 379/379
f 393/393 394/394 395/395
f 379/379 387/387 384/384
f 382/382 383/383 396/396
f 392/392 383/383 381/381
f 379/379 381/381 387/387
f 379/379 378/378 391/391
f 300/300 261/261 301/301
f 261/261 300/300 262/262
f 213/213 57/57 214/214
f 206/206 355/355 259/259
f 207/207 355/355 206/206
f 259/259 256/256 255/255
f 279/279 397/397 398/398
f 265/265 399/399 400/400
f 401/401 215/215 275/275
f 257/257 284/284 58/58
f 276/276 215/215 274/274
f 402/402 41/41 9/9
f 402/402 9/9 403/403
f 404/404 405/405 406/406
f 404/404 406/406 407/407
f 408/408 409/409 25/25
f 408/408 25/25 410/410
f 411/411 412/412 402/402
f 411/411 402/402 403/403
f 413/413 414/414 5/5
f 413/413 5/5 4/4
f 415/415 416/416 9/9
f 415/415 9/9 8/8
f 40/40 402/402 417/417
f 40/40 417/417 4/4
f 418/418 411/411 403/403
f 418/418 403/403 419/419
f 13/13 14/14 409/409
f 13/13 409/409 408/408
f 409/409 14/14 24/24
f 409/409 24/24 35/35
f 35/35 24/24 36/36
f 35/35 36/36 34/34
f 409/409 35/35 26/26
f 409/409 26/26 25/25
f 30/30 27/27 38/38
f 30/30 38/38 31/31
f 16/16 22/22 27/27
f 16/16 27/27 30/30
f 420/420 421/421 422/422
f 420/420 422/422 423/423
f 424/424 31/31 38/38
f 424/424 38/38 425/425
f 410/410 25/25 22/22
f 410/410 22/22 174/174
f 38/38 39/39 426/426
f 38/38 426/426 425/425
f 34/34 36/36 421/421
f 34/34 421/421 420/420
f 420/420 423/423 426/426
f 420/420 426/426 39/39
f 37/37 427/427 422/422
f 37/37 422/422 421/421
f 32/32 37/37 421/421
f 32/32 421/421 36/36
f 34/34 420/420 39/39
f 34/34 39/39 29/29
f 423/423 422/422 428/428
f 423/423 428/428 429/429
f 430/430 424/424 425/425
f 430/430 425/425 431/431
f 432/432 433/433 434/434
f 432/432 434/434 435/435
f 20/20 436/436 437/437
f 20/20 437/437 173/173
f 416/416 419/419 403/403
f 416/416 403/403 9/9
f 438/438 439/439 440/440
f 438/438 440/440 441/441
f 438/438 441/441 442/442
f 438/438 442/442 443/443
f 4/4 417/417 444/444
f 4/4 444/444 413/413
f 445/445 446/446 444/444
f 445/445 444/444 417/417
f 447/447 448/448 449/449
f 447/447 449/449 450/450
f 425/425 426/426 451/451
f 425/425 451/451 431/431
f 452/452 453/453 454/454
f 452/452 454/454 455/455
f 422/422 427/427 456/456
f 422/422 456/456 428/428
f 426/426 423/423 429/429
f 426/426 429/429 451/451
f 453/453 457/457 458/458
f 453/453 458/458 454/454
f 449/449 459/459 460/460
f 449/449 460/460 450/450
f 414/414 436/436 20/20
f 414/414 20/20 5/5
f 461/461 462/462 463/463
f 461/461 463/463 464/464
f 465/465 452/452 455/455
f 465/465 455/455 466/466
f 467/467 21/21 173/173
f 467/467 173/173 468/468
f 433/433 404/404 407/407
f 433/433 407/407 434/434
f 469/469 19/19 18/18
f 469/469 18/18 470/470
f 405/405 471/471 472/472
f 405/405 472/472 406/406
f 473/473 474/474 475/475
f 473/473 475/475 476/476
f 477/477 478/478 479/479
f 477/477 479/479 480/480
f 478/478 481/481 482/482
f 478/478 482/482 479/479
f 481/481 483/483 484/484
f 481/481 484/484 482/482
f 472/472 471/471 485/485
f 472/472 485/485 486/486
f 439/439 487/487 488/488
f 439/439 488/488 440/440
f 489/489 490/490 491/491
f 489/489 491/491 492/492
f 493/493 443/443 442/442
f 493/493 442/442 494/494
f 67/67 495/495 56/56
f 67/67 56/56 3/3
f 206/206 496/496 49/49
f 206/206 49/49 48/48
f 76/76 134/134 78/78
f 76/76 78/78 118/118
f 157/157 497/497 498/498
f 157/157 498/498 158/158
f 499/499 500/500 78/78
f 499/499 78/78 77/77
f 68/68 42/42 44/44
f 68/68 44/44 69/69
f 62/62 501/501 502/502
f 62/62 502/502 63/63
f 86/86 85/85 62/62
f 86/86 62/62 61/61
f 92/92 91/91 503/503
f 92/92 503/503 504/504
f 65/65 64/64 51/51
f 65/65 51/51 80/80
f 44/44 49/49 67/67
f 44/44 67/67 69/69
f 45/45 50/50 99/99
f 45/45 99/99 46/46
f 505/505 506/506 507/507
f 505/505 507/507 508/508
f 78/78 500/500 119/119
f 78/78 119/119 118/118
f 509/509 510/510 511/511
f 509/509 511/511 512/512
f 90/90 89/89 152/152
f 90/90 152/152 513/513
f 514/514 515/515 500/500
f 514/514 500/500 499/499
f 61/61 516/516 510/510
f 61/61 510/510 86/86
f 86/86 510/510 509/509
f 86/86 509/509 87/87
f 513/513 152/152 517/517
f 513/513 517/517 518/518
f 518/518 497/497 157/157
f 518/518 157/157 513/513
f 136/136 519/519 83/83
f 136/136 83/83 82/82
f 151/151 520/520 517/517
f 151/151 517/517 152/152
f 500/500 515/515 521/521
f 500/500 521/521 119/119
f 522/522 175/175 83/83
f 522/522 83/83 519/519
f 521/521 523/523 125/125
f 521/521 125/125 119/119
f 18/18 17/17 467/467
f 18/18 467/467 524/524
f 108/108 525/525 153/153
f 108/108 153/153 109/109
f 8/8 19/19 469/469
f 8/8 469/469 415/415
f 156/156 143/143 526/526
f 156/156 526/526 527/527
f 528/528 150/150 529/529
f 528/528 529/529 530/530
f 531/531 527/527 526/526
f 531/531 526/526 532/532
f 533/533 149/149 534/534
f 533/533 534/534 535/535
f 535/535 534/534 536/536
f 535/535 536/536 537/537
f 148/148 538/538 537/537
f 148/148 537/537 536/536
f 539/539 540/540 541/541
f 539/539 541/541 542/542
f 543/543 163/163 115/115
f 543/543 115/115 544/544
f 115/115 178/178 545/545
f 115/115 545/545 544/544
f 124/124 170/170 121/121
f 124/124 121/121 543/543
f 111/111 544/544 545/545
f 111/111 545/545 546/546
f 126/126 168/168 170/170
f 126/126 170/170 124/124
f 123/123 122/122 129/129
f 123/123 129/129 128/128
f 129/129 122/122 131/131
f 129/129 131/131 132/132
f 124/124 543/543 544/544
f 124/124 544/544 111/111
f 131/131 121/121 547/547
f 131/131 547/547 548/548
f 549/549 130/130 132/132
f 549/549 132/132 550/550
f 128/128 116/116 163/163
f 128/128 163/163 123/123
f 121/121 171/171 551/551
f 121/121 551/551 547/547
f 171/171 170/170 168/168
f 171/171 168/168 169/169
f 132/132 131/131 548/548
f 132/132 548/548 550/550
f 121/121 123/123 163/163
f 121/121 163/163 543/543
f 135/135 93/93 92/92
f 135/135 92/92 552/552
f 154/154 553/553 540/540
f 154/154 540/540 539/539
f 554/554 528/528 141/141
f 554/554 141/141 142/142
f 525/525 108/108 555/555
f 525/525 555/555 556/556
f 541/541 531/531 532/532
f 541/541 532/532 542/542
f 553/553 156/156 527/527
f 553/553 527/527 540/540
f 554/554 525/525 556/556
f 554/554 556/556 557/557
f 555/555 558/558 559/559
f 555/555 559/559 556/556
f 154/154 539/539 526/526
f 154/154 526/526 143/143
f 107/107 554/554 557/557
f 107/107 557/557 560/560
f 108/108 107/107 560/560
f 108/108 560/560 555/555
f 554/554 142/142 153/153
f 554/554 153/153 525/525
f 561/561 562/562 138/138
f 561/561 138/138 140/140
f 94/94 561/561 140/140
f 94/94 140/140 95/95
f 553/553 145/145 141/141
f 553/553 141/141 528/528
f 137/137 145/145 553/553
f 137/137 553/553 154/154
f 148/148 144/144 105/105
f 148/148 105/105 538/538
f 533/533 104/104 102/102
f 533/533 102/102 149/149
f 138/138 146/146 110/110
f 138/138 110/110 139/139
f 149/149 148/148 536/536
f 149/149 536/536 534/534
f 538/538 533/533 535/535
f 538/538 535/535 537/537
f 533/533 538/538 105/105
f 533/533 105/105 104/104
f 560/560 557/557 563/563
f 560/560 563/563 564/564
f 557/557 556/556 559/559
f 557/557 559/559 563/563
f 558/558 564/564 563/563
f 558/558 563/563 559/559
f 555/555 560/560 564/564
f 555/555 564/564 558/558
f 156/156 553/553 565/565
f 156/156 565/565 566/566
f 553/553 528/528 530/530
f 553/553 530/530 565/565
f 528/528 567/567 568/568
f 528/528 568/568 150/150
f 107/107 569/569 570/570
f 107/107 570/570 554/554
f 531/531 541/541 540/540
f 531/531 540/540 527/527
f 107/107 150/150 568/568
f 107/107 568/568 569/569
f 570/570 569/569 571/571
f 570/570 571/571 572/572
f 150/150 156/156 566/566
f 150/150 566/566 529/529
f 528/528 554/554 570/570
f 528/528 570/570 567/567
f 568/568 567/567 573/573
f 568/568 573/573 574/574
f 565/565 530/530 575/575
f 565/565 575/575 576/576
f 530/530 529/529 577/577
f 530/530 577/577 575/575
f 565/565 576/576 578/578
f 565/565 578/578 566/566
f 567/567 570/570 572/572
f 567/567 572/572 573/573
f 569/569 568/568 574/574
f 569/569 574/574 571/571
f 577/577 578/578 576/576
f 577/577 576/576 575/575
f 529/529 566/566 578/578
f 529/529 578/578 577/577
f 571/571 574/574 573/573
f 571/571 573/573 572/572
f 31/31 424/424 427/427
f 31/31 427/427 37/37
f 456/456 427/427 424/424
f 456/456 424/424 430/430
f 447/447 458/458 457/457
f 447/447 457/457 448/448
f 579/579 580/580 147/147
f 579/579 147/147 146/146
f 96/96 147/147 580/580
f 96/96 580/580 155/155
f 139/139 110/110 109/109
f 139/139 109/109 153/153
f 562/562 579/579 146/146
f 562/562 146/146 138/138
f 154/154 144/144 101/101
f 154/154 101/101 137/137
f 526/526 539/539 542/542
f 526/526 542/542 532/532
f 581/581 582/582 583/583
f 581/581 583/583 584/584
f 585/585 581/581 584/584
f 585/585 584/584 586/586
f 159/159 90/90 513/513
f 159/159 513/513 157/157
f 504/504 503/503 159/159
f 504/504 159/159 158/158
f 587/587 66/66 161/161
f 587/587 161/161 588/588
f 496/496 495/495 67/67
f 496/496 67/67 49/49
f 551/551 171/171 169/169
f 551/551 169/169 589/589
f 546/546 590/590 112/112
f 546/546 112/112 111/111
f 165/165 591/591 589/589
f 165/165 589/589 169/169
f 412/412 445/445 417/417
f 412/412 417/417 402/402
f 592/592 593/593 594/594
f 592/592 594/594 595/595
f 596/596 597/597 598/598
f 596/596 598/598 599/599
f 600/600 198/198 197/197
f 600/600 197/197 601/601
f 592/592 595/595 602/602
f 592/592 602/602 186/186
f 599/599 593/593 603/603
f 599/599 603/603 604/604
f 605/605 606/606 600/600
f 605/605 600/600 601/601
f 190/190 189/189 607/607
f 190/190 607/607 608/608
f 193/193 609/609 610/610
f 193/193 610/610 196/196
f 602/602 609/609 193/193
f 602/602 193/193 186/186
f 606/606 605/605 203/203
f 606/606 203/203 202/202
f 611/611 612/612 604/604
f 611/611 604/604 603/603
f 196/196 610/610 607/607
f 196/196 607/607 189/189
f 613/613 614/614 615/615
f 613/613 615/615 188/188
f 612/612 616/616 617/617
f 612/612 617/617 604/604
f 614/614 611/611 603/603
f 614/614 603/603 615/615
f 616/616 618/618 200/200
f 616/616 200/200 617/617
f 596/596 205/205 619/619
f 596/596 619/619 597/597
f 617/617 596/596 599/599
f 617/617 599/599 604/604
f 618/618 613/613 188/188
f 618/618 188/188 200/200
f 205/205 190/190 608/608
f 205/205 608/608 619/619
f 617/617 192/192 205/205
f 617/617 205/205 596/596
f 615/615 603/603 593/593
f 615/615 593/593 592/592
f 599/599 598/598 594/594
f 599/599 594/594 593/593
f 617/617 200/200 201/201
f 617/617 201/201 192/192
f 592/592 186/186 188/188
f 592/592 188/188 615/615
f 60/60 73/73 65/65
f 60/60 65/65 80/80
f 53/53 620/620 621/621
f 53/53 621/621 54/54
f 622/622 511/511 510/510
f 622/622 510/510 516/516
f 71/71 53/53 55/55
f 71/71 55/55 623/623
f 624/624 210/210 507/507
f 624/624 507/507 625/625
f 50/50 45/45 80/80
f 50/50 80/80 51/51
f 626/626 627/627 220/220
f 626/626 220/220 253/253
f 628/628 629/629 630/630
f 628/628 630/630 631/631
f 632/632 633/633 238/238
f 632/632 238/238 634/634
f 635/635 627/627 626/626
f 635/635 626/626 636/636
f 637/637 216/216 218/218
f 637/637 218/218 638/638
f 415/415 221/221 220/220
f 415/415 220/220 416/416
f 252/252 216/216 639/639
f 252/252 639/639 626/626
f 418/418 419/419 627/627
f 418/418 627/627 635/635
f 225/225 632/632 634/634
f 225/225 634/634 226/226
f 634/634 247/247 236/236
f 634/634 236/236 226/226
f 247/247 246/246 248/248
f 247/247 248/248 236/236
f 634/634 238/238 237/237
f 634/634 237/237 247/247
f 242/242 244/244 250/250
f 242/242 250/250 239/239
f 228/228 242/242 239/239
f 228/228 239/239 234/234
f 640/640 641/641 642/642
f 640/640 642/642 643/643
f 644/644 645/645 250/250
f 644/644 250/250 244/244
f 633/633 366/366 234/234
f 633/633 234/234 238/238
f 250/250 645/645 646/646
f 250/250 646/646 251/251
f 246/246 640/640 643/643
f 246/246 643/643 248/248
f 640/640 251/251 646/646
f 640/640 646/646 641/641
f 249/249 643/643 642/642
f 249/249 642/642 647/647
f 243/243 248/248 643/643
f 243/243 643/643 249/249
f 246/246 240/240 251/251
f 246/246 251/251 640/640
f 641/641 648/648 649/649
f 641/641 649/649 642/642
f 650/650 651/651 645/645
f 650/650 645/645 644/644
f 432/432 435/435 652/652
f 432/432 652/652 653/653
f 233/233 365/365 654/654
f 233/233 654/654 655/655
f 416/416 220/220 627/627
f 416/416 627/627 419/419
f 656/656 657/657 658/658
f 656/656 658/658 659/659
f 656/656 660/660 661/661
f 656/656 661/661 657/657
f 216/216 637/637 662/662
f 216/216 662/662 639/639
f 663/663 639/639 662/662
f 663/663 662/662 664/664
f 665/665 666/666 667/667
f 665/665 667/667 668/668
f 645/645 651/651 669/669
f 645/645 669/669 646/646
f 670/670 671/671 672/672
f 670/670 672/672 673/673
f 642/642 649/649 674/674
f 642/642 674/674 647/647
f 646/646 669/669 648/648
f 646/646 648/648 641/641
f 673/673 672/672 675/675
f 673/673 675/675 676/676
f 667/667 666/666 677/677
f 667/667 677/677 678/678
f 638/638 218/218 233/233
f 638/638 233/233 655/655
f 679/679 680/680 681/681
f 679/679 681/681 682/682
f 683/683 684/684 671/671
f 683/683 671/671 670/670
f 685/685 686/686 365/365
f 685/685 365/365 232/232
f 653/653 652/652 629/629
f 653/653 629/629 628/628
f 469/469 470/470 231/231
f 469/469 231/231 230/230
f 631/631 630/630 687/687
f 631/631 687/687 688/688
f 689/689 690/690 691/691
f 689/689 691/691 692/692
f 693/693 694/694 695/695
f 693/693 695/695 696/696
f 696/696 695/695 697/697
f 696/696 697/697 698/698
f 698/698 697/697 699/699
f 698/698 699/699 700/700
f 687/687 701/701 702/702
f 687/687 702/702 688/688
f 659/659 658/658 488/488
f 659/659 488/488 487/487
f 703/703 704/704 705/705
f 703/703 705/705 706/706
f 707/707 708/708 661/661
f 707/707 661/661 660/660
f 274/274 214/214 56/56
f 274/274 56/56 495/495
f 206/206 259/259 260/260
f 206/206 260/260 496/496
f 76/76 319/319 283/283
f 76/76 283/283 134/134
f 351/351 353/353 498/498
f 351/351 498/498 497/497
f 709/709 281/281 283/283
f 709/709 283/283 710/710
f 275/275 276/276 255/255
f 275/275 255/255 254/254
f 270/270 269/269 711/711
f 270/270 711/711 712/712
f 291/291 268/268 270/270
f 291/291 270/270 289/289
f 296/296 713/713 714/714
f 296/296 714/714 294/294
f 273/273 284/284 263/263
f 273/273 263/263 271/271
f 255/255 276/276 274/274
f 255/255 274/274 260/260
f 257/257 258/258 301/301
f 257/257 301/301 261/261
f 715/715 716/716 717/717
f 715/715 717/717 718/718
f 283/283 319/319 318/318
f 283/283 318/318 710/710
f 719/719 512/512 511/511
f 719/719 511/511 720/720
f 293/293 721/721 346/346
f 293/293 346/346 292/292
f 514/514 709/709 710/710
f 514/514 710/710 515/515
f 268/268 291/291 720/720
f 268/268 720/720 722/722
f 291/291 290/290 719/719
f 291/291 719/719 720/720
f 721/721 518/518 517/517
f 721/721 517/517 346/346
f 518/518 721/721 351/351
f 518/518 351/351 497/497
f 136/136 286/286 288/288
f 136/136 288/288 519/519
f 345/345 346/346 517/517
f 345/345 517/517 520/520
f 710/710 318/318 521/521
f 710/710 521/521 515/515
f 522/522 519/519 288/288
f 522/522 288/288 367/367
f 521/521 318/318 324/324
f 521/521 324/324 523/523
f 231/231 723/723 685/685
f 231/231 685/685 229/229
f 310/310 312/312 347/347
f 310/310 347/347 724/724
f 221/221 415/415 469/469
f 221/221 469/469 230/230
f 350/350 725/725 726/726
f 350/350 726/726 337/337
f 727/727 728/728 729/729
f 727/727 729/729 344/344
f 730/730 731/731 726/726
f 730/730 726/726 725/725
f 732/732 733/733 734/734
f 732/732 734/734 343/343
f 733/733 735/735 736/736
f 733/733 736/736 734/734
f 342/342 736/736 735/735
f 342/342 735/735 737/737
f 738/738 739/739 740/740
f 738/738 740/740 741/741
f 742/742 743/743 316/316
f 742/742 316/316 356/356
f 316/316 743/743 744/744
f 316/316 744/744 369/369
f 323/323 742/742 320/320
f 323/323 320/320 362/362
f 314/314 745/745 744/744
f 314/314 744/744 743/743
f 325/325 323/323 362/362
f 325/325 362/362 360/360
f 321/321 326/326 328/328
f 321/321 328/328 322/322
f 328/328 330/330 329/329
f 328/328 329/329 322/322
f 323/323 314/314 743/743
f 323/323 743/743 742/742
f 329/329 746/746 747/747
f 329/329 747/747 320/320
f 748/748 749/749 330/330
f 748/748 330/330 327/327
f 326/326 321/321 356/356
f 326/326 356/356 315/315
f 320/320 747/747 750/750
f 320/320 750/750 363/363
f 363/363 361/361 360/360
f 363/363 360/360 362/362
f 330/330 749/749 746/746
f 330/330 746/746 329/329
f 320/320 742/742 356/356
f 320/320 356/356 321/321
f 135/135 552/552 296/296
f 135/135 296/296 295/295
f 348/348 738/738 741/741
f 348/348 741/741 751/751
f 752/752 336/336 335/335
f 752/752 335/335 727/727
f 724/724 753/753 754/754
f 724/724 754/754 310/310
f 740/740 739/739 731/731
f 740/740 731/731 730/730
f 751/751 741/741 725/725
f 751/751 725/725 350/350
f 752/752 755/755 753/753
f 752/752 753/753 724/724
f 754/754 753/753 756/756
f 754/754 756/756 757/757
f 348/348 337/337 726/726
f 348/348 726/726 738/738
f 311/311 758/758 755/755
f 311/311 755/755 752/752
f 310/310 754/754 758/758
f 310/310 758/758 311/311
f 752/752 724/724 347/347
f 752/752 347/347 336/336
f 759/759 333/333 332/332
f 759/759 332/332 760/760
f 297/297 299/299 333/333
f 297/297 333/333 759/759
f 751/751 727/727 335/335
f 751/751 335/335 339/339
f 331/331 348/348 751/751
f 331/331 751/751 339/339
f 342/342 737/737 307/307
f 342/342 307/307 338/338
f 732/732 343/343 304/304
f 732/732 304/304 308/308
f 332/332 334/334 313/313
f 332/332 313/313 341/341
f 343/343 734/734 736/736
f 343/343 736/736 342/342
f 737/737 735/735 733/733
f 737/737 733/733 732/732
f 732/732 308/308 307/307
f 732/732 307/307 737/737
f 758/758 761/761 762/762
f 758/758 762/762 755/755
f 755/755 762/762 756/756
f 755/755 756/756 753/753
f 757/757 756/756 762/762
f 757/757 762/762 761/761
f 754/754 757/757 761/761
f 754/754 761/761 758/758
f 350/350 763/763 764/764
f 350/350 764/764 751/751
f 751/751 764/764 728/728
f 751/751 728/728 727/727
f 727/727 344/344 765/765
f 727/727 765/765 766/766
f 311/311 752/752 767/767
f 311/311 767/767 768/768
f 730/730 725/725 741/741
f 730/730 741/741 740/740
f 311/311 768/768 765/765
f 311/311 765/765 344/344
f 767/767 769/769 770/770
f 767/767 770/770 768/768
f 344/344 729/729 763/763
f 344/344 763/763 350/350
f 727/727 766/766 767/767
f 727/727 767/767 752/752
f 765/765 771/771 772/772
f 765/765 772/772 766/766
f 764/764 773/773 774/774
f 764/764 774/774 728/728
f 728/728 774/774 775/775
f 728/728 775/775 729/729
f 764/764 763/763 776/776
f 764/764 776/776 773/773
f 766/766 772/772 769/769
f 766/766 769/769 767/767
f 768/768 770/770 771/771
f 768/768 771/771 765/765
f 775/775 774/774 773/773
f 775/775 773/773 776/776
f 729/729 775/775 776/776
f 729/729 776/776 763/763
f 770/770 769/769 772/772
f 770/770 772/772 771/771
f 244/244 249/249 647/647
f 244/244 647/647 644/644
f 674/674 650/650 644/644
f 674/674 644/644 647/647
f 665/665 668/668 676/676
f 665/665 676/676 675/675
f 777/777 341/341 340/340
f 777/777 340/340 778/778
f 298/298 349/349 778/778
f 298/298 778/778 340/340
f 334/334 347/347 312/312
f 334/334 312/312 313/313
f 760/760 332/332 341/341
f 760/760 341/341 777/777
f 348/348 331/331 305/305
f 348/348 305/305 338/338
f 726/726 731/731 739/739
f 726/726 739/739 738/738
f 779/779 780/780 781/781
f 779/779 781/781 782/782
f 783/783 784/784 780/780
f 783/783 780/780 779/779
f 352/352 351/351 721/721
f 352/352 721/721 293/293
f 713/713 353/353 352/352
f 713/713 352/352 714/714
f 785/785 588/588 161/161
f 785/785 161/161 272/272
f 496/496 260/260 274/274
f 496/496 274/274 495/495
f 750/750 786/786 361/361
f 750/750 361/361 363/363
f 745/745 314/314 112/112
f 745/745 112/112 590/590
f 357/357 361/361 786/786
f 357/357 786/786 787/787
f 636/636 626/626 639/639
f 636/636 639/639 663/663
f 788/788 789/789 790/790
f 788/788 790/790 791/791
f 792/792 793/793 794/794
f 792/792 794/794 795/795
f 796/796 797/797 388/388
f 796/796 388/388 390/390
f 788/788 377/377 798/798
f 788/788 798/798 789/789
f 793/793 799/799 800/800
f 793/793 800/800 791/791
f 801/801 797/797 796/796
f 801/801 796/796 802/802
f 382/382 803/803 804/804
f 382/382 804/804 380/380
f 384/384 387/387 805/805
f 384/384 805/805 806/806
f 798/798 377/377 384/384
f 798/798 384/384 806/806
f 802/802 393/393 395/395
f 802/802 395/395 801/801
f 807/807 800/800 799/799
f 807/807 799/799 808/808
f 387/387 380/380 804/804
f 387/387 804/804 805/805
f 809/809 378/378 810/810
f 809/809 810/810 811/811
f 808/808 799/799 812/812
f 808/808 812/812 813/813
f 811/811 810/810 800/800
f 811/811 800/800 807/807
f 813/813 812/812 391/391
f 813/813 391/391 814/814
f 792/792 795/795 815/815
f 792/792 815/815 396/396
f 812/812 799/799 793/793
f 812/812 793/793 792/792
f 814/814 391/391 378/378
f 814/814 378/378 809/809
f 396/396 815/815 803/803
f 396/396 803/803 382/382
f 812/812 792/792 396/396
f 812/812 396/396 383/383
f 810/810 788/788 791/791
f 810/810 791/791 800/800
f 793/793 791/791 790/790
f 793/793 790/790 794/794
f 812/812 383/383 392/392
f 812/812 392/392 391/391
f 788/788 810/810 378/378
f 788/788 378/378 377/377
f 267/267 284/284 273/273
f 267/267 273/273 73/73
f 264/264 266/266 816/816
f 264/264 816/816 817/817
f 622/622 722/722 720/720
f 622/622 720/720 511/511
f 279/279 818/818 265/265
f 279/279 265/265 264/264
f 819/819 820/820 717/717
f 819/819 717/717 400/400
f 261/261 263/263 284/284
f 261/261 284/284 257/257
f 821/821 66/66 587/587
f 66/66 821/821 64/64
f 64/64 821/821 822/822
f 272/272 824/824 785/785
f 824/824 272/272 271/271
f 824/824 271/271 823/823
