# Blender 5.2.0 LTS
# www.blender.org
mtllib villagerMODEL2.mtl
o Object_6
v 0.090639 1.698061 -0.118320
v -0.002107 1.711470 -0.156877
v 0.073620 1.783402 -0.112917
v 0.073620 1.783402 -0.112917
v -0.002107 1.848914 -0.047703
v 0.080017 1.826096 -0.047703
v 0.060641 1.810397 0.032447
v -0.002107 1.806677 0.050460
v -0.002107 1.802114 -0.130931
v -0.002107 1.802114 -0.130931
v -0.094853 1.698061 -0.118320
v -0.077833 1.783402 -0.112917
v -0.077833 1.783402 -0.112917
v -0.084230 1.826096 -0.047703
v -0.064855 1.810397 0.032447
v 0.073528 1.645147 -0.093910
v -0.002107 1.629656 -0.114954
v -0.002107 1.547804 0.050461
v 0.036288 1.570994 0.032447
v 0.060887 1.728397 0.050460
v -0.002107 1.705444 0.091121
v 0.060641 1.810397 0.032447
v -0.002107 1.806677 0.050460
v 0.036288 1.570994 0.032447
v 0.057608 1.587726 0.007284
v 0.096676 1.702269 -0.047703
v 0.060887 1.728397 0.050460
v 0.073528 1.645147 -0.093910
v 0.090639 1.698061 -0.118320
v 0.080017 1.826096 -0.047703
v 0.060641 1.810397 0.032447
v 0.073620 1.783402 -0.112917
v 0.036288 1.570994 0.032447
v -0.002107 1.547804 0.050461
v -0.001986 1.545870 0.013064
v 0.057608 1.587726 0.007284
v -0.002107 1.629656 -0.114954
v 0.073528 1.645147 -0.093910
v 0.044883 1.550566 -0.047703
v 0.046752 1.643783 -0.046951
v 0.039622 1.639756 -0.096511
v 0.055288 1.547917 -0.094380
v -0.002107 1.551973 -0.008555
v -0.002107 1.626797 0.007839
v 0.049417 1.622800 0.002071
v 0.036033 1.547203 -0.017295
v 0.002834 1.682821 -0.047293
v 0.046752 1.643783 -0.046951
v 0.049417 1.622800 0.002071
v -0.002107 1.626797 0.007839
v -0.049856 1.657573 -0.047570
v 0.002834 1.682821 -0.047293
v -0.002107 1.626797 0.007839
v -0.053630 1.622800 0.002071
v -0.049636 1.648912 -0.097155
v -0.002908 1.672117 -0.101518
v -0.002908 1.672117 -0.101518
v 0.039622 1.639756 -0.096511
v 0.055583 1.474155 -0.047703
v -0.002107 1.463085 -0.047703
v -0.002107 1.475168 0.003365
v 0.049098 1.477941 -0.002533
v 0.049417 1.476956 -0.106618
v -0.002107 1.473387 -0.112640
v -0.002107 1.475168 0.003365
v 0.049098 1.477941 -0.002533
v 0.049417 1.476956 -0.106618
v 0.055288 1.547917 -0.094380
v -0.002107 1.550674 -0.104088
v -0.002107 1.473387 -0.112640
v 0.039622 1.639756 -0.096511
v -0.002908 1.672117 -0.101518
v 0.055583 1.474155 -0.047703
v 0.049417 1.476956 -0.106618
v 0.049098 1.477941 -0.002533
v 0.036033 1.547203 -0.017295
v 0.049417 1.622800 0.002071
v -0.077742 1.645147 -0.093910
v -0.065101 1.728397 0.050460
v -0.040502 1.570994 0.032447
v -0.064855 1.810397 0.032447
v -0.040502 1.570994 0.032447
v -0.065101 1.728397 0.050460
v -0.100889 1.702269 -0.047703
v -0.061822 1.587726 0.007284
v -0.094853 1.698061 -0.118320
v -0.077742 1.645147 -0.093910
v -0.064855 1.810397 0.032447
v -0.084230 1.826096 -0.047703
v -0.077833 1.783402 -0.112917
v -0.040502 1.570994 0.032447
v -0.061822 1.587726 0.007284
v -0.002228 1.545870 0.013064
v -0.077742 1.645147 -0.093910
v -0.049096 1.550566 -0.047703
v -0.059501 1.547917 -0.094380
v -0.043835 1.639756 -0.096511
v -0.050966 1.643783 -0.046951
v -0.040247 1.547203 -0.017295
v -0.053630 1.622800 0.002071
v -0.007048 1.682821 -0.047293
v -0.053630 1.622800 0.002071
v -0.050966 1.643783 -0.046951
v 0.045642 1.657573 -0.047570
v 0.049417 1.622800 0.002071
v -0.007048 1.682821 -0.047293
v 0.045422 1.648912 -0.097155
v -0.001305 1.672117 -0.101518
v -0.001305 1.672117 -0.101518
v -0.043835 1.639756 -0.096511
v -0.059796 1.474156 -0.047703
v -0.053312 1.477941 -0.002533
v -0.053630 1.476956 -0.106618
v -0.053312 1.477941 -0.002533
v -0.053630 1.476956 -0.106618
v -0.059501 1.547917 -0.094380
v -0.001305 1.672117 -0.101518
v -0.043835 1.639756 -0.096511
v -0.059796 1.474156 -0.047703
v -0.053630 1.476956 -0.106618
v -0.053312 1.477941 -0.002533
v -0.040247 1.547203 -0.017295
v -0.053630 1.622800 0.002071
vn 0.7570 -0.1748 -0.6296
vn -0.0000 -0.1092 -0.9940
vn 0.6216 0.4756 -0.6225
vn -0.0000 0.9950 -0.1003
vn 0.6783 0.7321 -0.0628
vn 0.5533 0.6048 0.5728
vn -0.0000 0.6590 0.7522
vn -0.0000 0.6499 -0.7600
vn -0.7570 -0.1748 -0.6296
vn -0.6216 0.4756 -0.6225
vn -0.6783 0.7321 -0.0628
vn -0.5533 0.6048 0.5727
vn 0.6271 -0.6195 -0.4723
vn -0.0000 -0.7120 -0.7022
vn -0.0000 -0.8045 0.5939
vn 0.6593 -0.6112 0.4379
vn 0.6997 0.0585 0.7120
vn -0.0000 -0.0078 1.0000
vn 0.5533 0.6049 0.5728
vn 0.6593 -0.6112 0.4380
vn 0.7782 -0.6269 0.0373
vn 0.9894 -0.0931 0.1112
vn 0.6998 0.0585 0.7120
vn 0.6270 -0.6195 -0.4723
vn 0.5532 0.6049 0.5728
vn 0.6215 0.4756 -0.6225
vn 0.4298 -0.8801 -0.2017
vn 0.7783 -0.6268 0.0373
vn -0.9949 -0.0527 -0.0861
vn -0.8149 -0.5524 -0.1755
vn -0.6762 -0.3819 0.6300
vn -0.7868 -0.0957 0.6097
vn -0.0000 0.0445 -0.9990
vn -0.0000 -0.5380 -0.8430
vn -0.6758 -0.2050 -0.7080
vn -0.6974 -0.0284 -0.7162
vn -0.0993 -0.9747 -0.2004
vn -0.6757 -0.2049 -0.7081
vn 0.3113 -0.9095 -0.2754
vn -0.0000 -0.5379 -0.8430
vn 0.2102 -0.7717 -0.6002
vn 0.3748 -0.9171 0.1362
vn -0.1056 -0.8809 0.4615
vn -0.1055 -0.8809 0.4614
vn -0.6762 -0.3818 0.6300
vn -0.7587 0.6423 -0.1087
vn -0.0000 0.9996 -0.0274
vn -0.0000 0.5737 -0.8191
vn -0.5952 0.4294 -0.6792
vn -0.5966 0.5143 0.6161
vn -0.0000 0.6228 0.7824
vn -0.0000 0.5738 -0.8190
vn -0.5952 0.4294 -0.6793
vn -0.7869 -0.0958 0.6096
vn -0.0000 -0.0784 0.9969
vn -0.0000 0.6229 0.7823
vn -0.6763 -0.3818 0.6299
vn -0.1055 -0.8809 0.4615
vn -0.7587 0.6424 -0.1087
vn -0.5951 0.4294 -0.6793
vn -0.6973 -0.0283 -0.7162
vn -0.6757 -0.2050 -0.7081
vn -0.6270 -0.6195 -0.4723
vn -0.6997 0.0585 0.7120
vn -0.6593 -0.6112 0.4379
vn -0.5533 0.6048 0.5728
vn -0.6593 -0.6112 0.4380
vn -0.6998 0.0586 0.7120
vn -0.9894 -0.0931 0.1112
vn -0.7783 -0.6268 0.0373
vn -0.5532 0.6049 0.5728
vn -0.6215 0.4756 -0.6225
vn -0.6592 -0.6112 0.4380
vn -0.4298 -0.8801 -0.2017
vn -0.0000 -0.8045 0.5940
vn -0.0000 -0.7120 -0.7021
vn 0.9949 -0.0527 -0.0861
vn 0.7868 -0.0957 0.6097
vn 0.6762 -0.3819 0.6300
vn 0.8149 -0.5524 -0.1755
vn 0.6974 -0.0283 -0.7162
vn 0.6758 -0.2050 -0.7080
vn 0.0993 -0.9747 -0.2004
vn 0.6758 -0.2049 -0.7081
vn -0.3113 -0.9095 -0.2754
vn -0.2102 -0.7717 -0.6002
vn -0.3748 -0.9171 0.1362
vn 0.1056 -0.8809 0.4614
vn 0.1055 -0.8809 0.4615
vn 0.6762 -0.3818 0.6300
vn 0.7587 0.6423 -0.1088
vn 0.5952 0.4294 -0.6793
vn 0.5966 0.5143 0.6161
vn 0.5952 0.4294 -0.6792
vn 0.7869 -0.0958 0.6096
vn 0.7587 0.6424 -0.1087
vn 0.6973 -0.0284 -0.7162
vn 0.6757 -0.2050 -0.7081
vt 0.974136 0.224096
vt 0.842749 0.206819
vt 0.950026 0.114134
vt 0.568943 0.448713
vt 0.461666 0.535999
vt 0.578006 0.535999
vt 0.550558 0.643276
vt 0.461666 0.667386
vt 0.461666 0.424603
vt 0.842749 0.090024
vt 0.949897 0.292277
vt 0.842755 0.312237
vt 0.426893 0.410965
vt 0.481621 0.381084
vt 0.516468 0.178269
vt 0.426893 0.207844
vt 0.516120 0.072611
vt 0.426893 0.077404
vt 0.573519 0.399190
vt 0.607199 0.377630
vt 0.680796 0.230040
vt 0.549409 0.196375
vt 0.742642 0.303643
vt 0.775313 0.235462
vt 0.680796 0.070488
vt 0.573519 0.090717
vt 0.768082 0.125499
vt 0.089669 0.488499
vt 0.035277 0.512609
vt 0.035449 0.462556
vt 0.119872 0.454819
vt 0.035284 0.291209
vt 0.142425 0.319376
vt 0.714867 0.504402
vt 0.713860 0.384292
vt 0.780194 0.389481
vt 0.777342 0.507817
vt 0.154714 0.163494
vt 0.154714 0.067083
vt 0.227705 0.072232
vt 0.208745 0.169640
vt 0.183830 0.355788
vt 0.244314 0.355788
vt 0.244314 0.295304
vt 0.183830 0.295304
vt 0.056131 0.162310
vt 0.130774 0.162682
vt 0.123774 0.236473
vt 0.050784 0.228753
vt 0.056443 0.095944
vt 0.122639 0.090105
vt 0.183830 0.416272
vt 0.244314 0.416272
vt 0.244991 0.155164
vt 0.305475 0.155164
vt 0.305475 0.094680
vt 0.244991 0.094680
vt 0.244991 0.215648
vt 0.305475 0.215648
vt 0.154714 0.262457
vt 0.227254 0.258885
vt 0.345695 0.570099
vt 0.354012 0.478665
vt 0.272704 0.475111
vt 0.272704 0.574697
vt 0.331819 0.360329
vt 0.271569 0.318631
vt 0.714867 0.602859
vt 0.793721 0.599251
vt 0.654409 0.597981
vt 0.674167 0.508736
vt 0.648247 0.411329
vt 0.337317 0.178269
vt 0.372165 0.381084
vt 0.337665 0.072611
s 1
usemtl Person1_head
f 1/1/1 2/2/2 3/3/3
f 4/4/3 5/5/4 6/6/5
f 6/6/5 5/5/4 7/7/6
f 7/7/6 5/5/4 8/8/7
f 5/5/4 4/4/3 9/9/8
f 3/3/3 2/2/2 10/10/8
f 11/1/9 12/3/10 2/2/2
f 13/4/10 14/6/11 5/5/4
f 14/6/11 15/7/12 5/5/4
f 15/7/12 8/8/7 5/5/4
f 5/5/4 9/9/8 13/4/10
f 12/3/10 10/10/8 2/2/2
f 16/11/13 17/12/14 2/2/2
f 16/11/13 2/2/2 1/1/1
f 18/13/15 19/14/16 20/15/17
f 18/13/15 20/15/17 21/16/18
f 21/16/18 20/15/17 22/17/19
f 21/16/18 22/17/19 23/18/7
f 24/19/20 25/20/21 26/21/22
f 24/19/20 26/21/22 27/22/23
f 25/20/21 28/23/24 29/24/1
f 25/20/21 29/24/1 26/21/22
f 27/22/23 26/21/22 30/25/5
f 27/22/23 30/25/5 31/26/25
f 26/21/22 29/24/1 32/27/26
f 26/21/22 32/27/26 30/25/5
f 33/28/20 34/29/15 35/30/27
f 33/28/20 35/30/27 36/31/28
f 36/31/28 35/30/27 37/32/14
f 36/31/28 37/32/14 38/33/24
f 39/34/29 40/35/30 41/36/31
f 39/34/29 41/36/31 42/37/32
f 43/38/33 44/39/34 45/40/35
f 43/38/33 45/40/35 46/41/36
f 47/42/37 48/43/30 49/44/38
f 47/42/37 49/44/38 50/45/34
f 51/46/39 52/47/37 53/48/40
f 51/46/39 53/48/40 54/49/41
f 55/50/42 56/51/43 52/47/37
f 55/50/42 52/47/37 51/46/39
f 57/52/44 58/53/45 48/43/30
f 57/52/44 48/43/30 47/42/37
f 59/54/46 60/55/47 61/56/48
f 59/54/46 61/56/48 62/57/49
f 63/58/50 64/59/51 60/55/47
f 63/58/50 60/55/47 59/54/46
f 65/60/52 43/38/33 46/41/36
f 65/60/52 46/41/36 66/61/53
f 67/62/50 68/63/54 69/64/55
f 67/62/50 69/64/55 70/65/56
f 68/63/54 71/66/57 72/67/58
f 68/63/54 72/67/58 69/64/55
f 73/68/59 39/34/29 42/37/32
f 73/68/59 42/37/32 74/69/50
f 75/70/60 76/71/61 39/34/29
f 75/70/60 39/34/29 73/68/59
f 76/71/61 77/72/62 40/35/30
f 76/71/61 40/35/30 39/34/29
f 78/11/63 11/1/9 2/2/2
f 78/11/63 2/2/2 17/12/14
f 18/13/15 21/16/18 79/73/64
f 18/13/15 79/73/64 80/74/65
f 21/16/18 23/18/7 81/75/66
f 21/16/18 81/75/66 79/73/64
f 82/19/67 83/22/68 84/21/69
f 82/19/67 84/21/69 85/20/70
f 85/20/70 84/21/69 86/24/9
f 85/20/70 86/24/9 87/23/63
f 83/22/68 88/26/71 89/25/11
f 83/22/68 89/25/11 84/21/69
f 84/21/69 89/25/11 90/27/72
f 84/21/69 90/27/72 86/24/9
f 91/28/73 92/31/70 93/30/74
f 91/28/73 93/30/74 34/29/75
f 92/31/70 94/33/63 37/32/76
f 92/31/70 37/32/76 93/30/74
f 95/34/77 96/37/78 97/36/79
f 95/34/77 97/36/79 98/35/80
f 43/38/33 99/41/81 100/40/82
f 43/38/33 100/40/82 44/39/34
f 101/42/83 50/45/34 102/44/84
f 101/42/83 102/44/84 103/43/80
f 104/46/85 105/49/86 53/48/40
f 104/46/85 53/48/40 106/47/83
f 107/50/87 104/46/85 106/47/83
f 107/50/87 106/47/83 108/51/88
f 109/52/89 101/42/83 103/43/80
f 109/52/89 103/43/80 110/53/90
f 111/54/91 112/57/92 61/56/48
f 111/54/91 61/56/48 60/55/47
f 113/58/93 111/54/91 60/55/47
f 113/58/93 60/55/47 64/59/51
f 65/60/52 114/61/94 99/41/81
f 65/60/52 99/41/81 43/38/33
f 115/62/93 70/65/56 69/64/55
f 115/62/93 69/64/55 116/63/95
f 116/63/95 69/64/55 117/67/89
f 116/63/95 117/67/89 118/66/79
f 119/68/96 120/69/93 96/37/78
f 119/68/96 96/37/78 95/34/77
f 121/70/94 119/68/96 95/34/77
f 121/70/94 95/34/77 122/71/97
f 122/71/97 95/34/77 98/35/80
f 122/71/97 98/35/80 123/72/98
o Object_7
v 0.000889 1.255800 -0.161835
v 0.000889 1.515800 -0.147360
v 0.176377 1.522880 -0.129842
v 0.226906 1.487785 -0.103564
v 0.226906 1.487785 -0.103564
v 0.176377 1.522880 -0.129842
v 0.131164 1.534584 -0.020715
v 0.212826 1.477831 0.025908
v 0.212826 1.477831 0.025908
v -0.002213 1.353212 0.059460
v 0.000889 1.197006 0.086554
v 0.195522 1.380933 0.026896
v 0.000889 1.515800 -0.147360
v 0.000889 1.539392 -0.006537
v -0.002213 1.353212 0.059460
v 0.000889 1.539392 -0.006537
v 0.000889 1.515800 -0.147360
v 0.000889 1.255800 -0.161835
v -0.002213 1.353212 0.059460
v 0.000889 1.052577 -0.139161
v 0.190983 1.299530 -0.101647
v 0.185368 1.127566 -0.102907
v 0.000889 0.912428 -0.185207
v 0.226906 1.487785 -0.103564
v 0.212826 1.477831 0.025908
v 0.195522 1.380933 0.026896
v 0.190983 1.299530 -0.101647
v 0.139069 0.937687 0.021910
v 0.185368 1.127566 -0.102907
v 0.000889 0.863193 0.059030
v 0.139069 0.937687 0.021910
v 0.000889 0.749918 -0.189636
v 0.189239 0.816268 -0.138750
v 0.221198 0.443925 -0.084669
v 0.090205 0.471995 -0.130514
v 0.000889 0.701008 0.034257
v 0.208111 0.767950 0.020241
v 0.208111 0.767950 0.020241
v 0.189239 0.816268 -0.138750
v 0.235572 0.355520 -0.092561
v 0.087078 0.370790 -0.144479
v 0.206934 0.471493 0.030143
v 0.221198 0.443925 -0.084669
v 0.000889 0.701008 0.034257
v 0.000889 0.749918 -0.189636
v 0.090205 0.471995 -0.130514
v 0.077069 0.470196 0.030324
v 0.077069 0.470196 0.030324
v 0.206934 0.471493 0.030143
v 0.079087 0.376377 0.026847
v 0.087078 0.370790 -0.144479
v 0.078656 -0.023460 -0.138723
v 0.097670 -0.026188 0.046888
v 0.208111 0.377655 0.026645
v 0.235572 0.355520 -0.092561
v 0.079087 0.376377 0.026847
v 0.208111 0.377655 0.026645
v 0.078656 -0.023460 -0.138723
v 0.241260 -0.029137 -0.104173
v 0.230657 -0.030314 0.029711
v 0.097670 -0.026188 0.046888
v 0.097670 -0.026188 0.046888
v 0.230657 -0.030314 0.029711
v 0.241260 -0.029137 -0.104173
v 0.078656 -0.023460 -0.138723
v 0.230657 -0.030314 0.029711
v 0.241260 -0.029137 -0.104173
v 0.113492 -0.022357 0.111425
v 0.113492 -0.062113 0.111425
v 0.103940 -0.066059 -0.119387
v 0.103940 -0.018411 -0.119387
v 0.103940 -0.018411 -0.119387
v 0.103940 -0.066059 -0.119387
v 0.218060 -0.058674 -0.119387
v 0.218060 -0.025796 -0.119387
v 0.218060 -0.025796 -0.119387
v 0.218060 -0.058674 -0.119387
v 0.221223 -0.062113 0.111425
v 0.221223 -0.022357 0.111425
v 0.221223 -0.022357 0.111425
v 0.221223 -0.062113 0.111425
v 0.113492 -0.062113 0.111425
v 0.113492 -0.022357 0.111425
v 0.103940 -0.018411 -0.119387
v 0.218060 -0.025796 -0.119387
v 0.221223 -0.022357 0.111425
v 0.113492 -0.022357 0.111425
v 0.218060 -0.058674 -0.119387
v 0.103940 -0.066059 -0.119387
v 0.113492 -0.062113 0.111425
v 0.221223 -0.062113 0.111425
v 0.003990 1.353212 0.059460
v 0.000889 1.197006 0.086554
v 0.000889 1.052577 -0.139161
v 0.000889 1.255800 -0.161835
v 0.244504 1.347633 0.010011
v 0.151367 1.455413 0.029481
v 0.200787 1.505453 -0.123968
v 0.275894 1.409008 -0.154132
v 0.300122 1.489737 0.015015
v 0.161306 1.535228 -0.002645
v 0.175412 1.434203 0.034787
v 0.264608 1.354413 0.040768
v 0.593228 0.836583 -0.102271
v 0.574490 0.833931 -0.058291
v 0.593228 0.836583 -0.102271
v 0.650108 0.867310 -0.084484
v 0.616887 0.855486 -0.029642
v 0.574490 0.833931 -0.058291
v 0.310883 1.300619 0.020345
v 0.616887 0.855486 -0.029642
v 0.275894 1.409008 -0.154132
v 0.384109 1.352614 -0.109617
v 0.650108 0.867310 -0.084484
v 0.593228 0.836583 -0.102271
v 0.605320 0.858793 -0.090454
v 0.599296 0.848802 -0.088630
v 0.595009 0.846423 -0.048089
v 0.601876 0.854741 -0.046020
v 0.650085 0.773853 -0.100916
v 0.649411 0.764335 -0.050005
v 0.634251 0.767119 -0.052647
v 0.636349 0.773899 -0.097610
v 0.626806 0.806587 -0.040846
v 0.612007 0.803841 -0.047176
v 0.634251 0.767119 -0.052647
v 0.649411 0.764335 -0.050005
v 0.624858 0.822835 -0.102381
v 0.638947 0.825814 -0.095985
v 0.657949 0.785387 -0.097792
v 0.650085 0.773853 -0.100916
v 0.612007 0.803841 -0.047176
v 0.613218 0.813214 -0.096446
v 0.636349 0.773899 -0.097610
v 0.634251 0.767119 -0.052647
v 0.638947 0.825814 -0.095985
v 0.637834 0.816685 -0.047124
v 0.655850 0.778607 -0.052829
v 0.657949 0.785387 -0.097792
v 0.617904 0.855409 -0.088777
v 0.613616 0.853029 -0.048236
v 0.624858 0.822835 -0.102381
v 0.650085 0.773853 -0.100916
v 0.605320 0.858793 -0.090454
v 0.617904 0.855409 -0.088777
v 0.638947 0.825814 -0.095985
v 0.624858 0.822835 -0.102381
v 0.637834 0.816685 -0.047124
v 0.655850 0.778607 -0.052829
v 0.613616 0.853029 -0.048236
v 0.601876 0.854741 -0.046020
v 0.595009 0.846423 -0.048089
v 0.649411 0.764335 -0.050005
v 0.650085 0.773853 -0.100916
v 0.601876 0.854741 -0.046020
v 0.613616 0.853029 -0.048236
v 0.393385 1.328621 -0.013923
v 0.310883 1.300619 0.020345
v 0.384109 1.352614 -0.109617
v 0.328750 1.477732 -0.080669
v 0.300122 1.489737 0.015015
v 0.393385 1.328621 -0.013923
v 0.328750 1.477732 -0.080669
v 0.232294 1.529268 -0.091438
v 0.161306 1.535228 -0.002645
v 0.300122 1.489737 0.015015
v -0.225129 1.487785 -0.103564
v -0.174600 1.522880 -0.129842
v -0.225129 1.487785 -0.103564
v -0.211049 1.477831 0.025908
v -0.129387 1.534584 -0.020715
v -0.174600 1.522880 -0.129842
v -0.211049 1.477831 0.025908
v -0.193745 1.380932 0.026896
v 0.003990 1.353212 0.059460
v 0.003990 1.353212 0.059460
v 0.003990 1.353212 0.059460
v -0.183591 1.127566 -0.102907
v -0.189206 1.299530 -0.101647
v -0.225129 1.487785 -0.103564
v -0.189206 1.299530 -0.101647
v -0.193745 1.380932 0.026896
v -0.211049 1.477831 0.025908
v -0.183591 1.127566 -0.102907
v -0.137292 0.937687 0.021910
v -0.137292 0.937687 0.021910
v -0.088427 0.471995 -0.130514
v -0.219420 0.443925 -0.084669
v -0.187461 0.816268 -0.138750
v -0.206334 0.767950 0.020241
v -0.187461 0.816268 -0.138750
v -0.206334 0.767950 0.020241
v -0.085301 0.370790 -0.144479
v -0.233795 0.355520 -0.092561
v -0.219420 0.443925 -0.084669
v -0.205157 0.471493 0.030143
v -0.075292 0.470196 0.030324
v -0.088427 0.471995 -0.130514
v -0.205157 0.471493 0.030143
v -0.075292 0.470196 0.030324
v -0.077310 0.376377 0.026847
v -0.095892 -0.026188 0.046888
v -0.076879 -0.023460 -0.138723
v -0.085301 0.370790 -0.144479
v -0.233795 0.355520 -0.092561
v -0.206334 0.377655 0.026645
v -0.206334 0.377655 0.026645
v -0.077310 0.376377 0.026847
v -0.076879 -0.023460 -0.138723
v -0.095892 -0.026188 0.046888
v -0.228880 -0.030314 0.029711
v -0.239483 -0.029136 -0.104173
v -0.228880 -0.030314 0.029711
v -0.095892 -0.026188 0.046888
v -0.076879 -0.023460 -0.138723
v -0.239483 -0.029136 -0.104173
v -0.239483 -0.029136 -0.104173
v -0.228880 -0.030314 0.029711
v -0.111715 -0.022357 0.111425
v -0.102162 -0.018411 -0.119387
v -0.102162 -0.066058 -0.119387
v -0.111715 -0.062113 0.111425
v -0.102162 -0.018411 -0.119387
v -0.216282 -0.025796 -0.119387
v -0.216282 -0.058674 -0.119387
v -0.102162 -0.066058 -0.119387
v -0.216282 -0.025796 -0.119387
v -0.219446 -0.022357 0.111425
v -0.219446 -0.062113 0.111425
v -0.216282 -0.058674 -0.119387
v -0.219446 -0.022357 0.111425
v -0.111715 -0.022357 0.111425
v -0.111715 -0.062113 0.111425
v -0.219446 -0.062113 0.111425
v -0.102162 -0.018411 -0.119387
v -0.111715 -0.022357 0.111425
v -0.219446 -0.022357 0.111425
v -0.216282 -0.025796 -0.119387
v -0.216282 -0.058674 -0.119387
v -0.219446 -0.062113 0.111425
v -0.111715 -0.062113 0.111425
v -0.102162 -0.066058 -0.119387
v -0.002213 1.353212 0.059460
v -0.242727 1.347633 0.010011
v -0.274116 1.409008 -0.154132
v -0.199010 1.505453 -0.123968
v -0.149590 1.455413 0.029481
v -0.298344 1.489736 0.015015
v -0.262831 1.354413 0.040768
v -0.173634 1.434203 0.034787
v -0.159529 1.535228 -0.002645
v -0.572713 0.833931 -0.058291
v -0.591451 0.836582 -0.102271
v -0.591451 0.836582 -0.102271
v -0.572713 0.833931 -0.058291
v -0.615110 0.855486 -0.029642
v -0.648330 0.867310 -0.084484
v -0.309105 1.300619 0.020345
v -0.615110 0.855486 -0.029642
v -0.274116 1.409008 -0.154132
v -0.591451 0.836582 -0.102271
v -0.648330 0.867310 -0.084484
v -0.382332 1.352614 -0.109617
v -0.603543 0.858794 -0.090454
v -0.600099 0.854741 -0.046020
v -0.593231 0.846423 -0.048088
v -0.597519 0.848802 -0.088630
v -0.648307 0.773853 -0.100916
v -0.634572 0.773899 -0.097610
v -0.632473 0.767119 -0.052647
v -0.647633 0.764334 -0.050005
v -0.625028 0.806587 -0.040845
v -0.647633 0.764334 -0.050005
v -0.632473 0.767119 -0.052647
v -0.610230 0.803841 -0.047176
v -0.623080 0.822835 -0.102381
v -0.648307 0.773853 -0.100916
v -0.656172 0.785387 -0.097792
v -0.637169 0.825814 -0.095985
v -0.610230 0.803841 -0.047176
v -0.632473 0.767119 -0.052647
v -0.634572 0.773899 -0.097610
v -0.611441 0.813214 -0.096446
v -0.637169 0.825814 -0.095985
v -0.656172 0.785387 -0.097792
v -0.654073 0.778606 -0.052829
v -0.636056 0.816685 -0.047124
v -0.616126 0.855409 -0.088777
v -0.611838 0.853029 -0.048235
v -0.648307 0.773853 -0.100916
v -0.623080 0.822835 -0.102381
v -0.603543 0.858794 -0.090454
v -0.623080 0.822835 -0.102381
v -0.637169 0.825814 -0.095985
v -0.616126 0.855409 -0.088777
v -0.636056 0.816685 -0.047124
v -0.654073 0.778606 -0.052829
v -0.611838 0.853029 -0.048235
v -0.600099 0.854741 -0.046020
v -0.593231 0.846423 -0.048088
v -0.648307 0.773853 -0.100916
v -0.647633 0.764334 -0.050005
v -0.611838 0.853029 -0.048235
v -0.600099 0.854741 -0.046020
v -0.391607 1.328620 -0.013923
v -0.309105 1.300619 0.020345
v -0.382332 1.352614 -0.109617
v -0.391607 1.328620 -0.013923
v -0.298344 1.489736 0.015015
v -0.326972 1.477732 -0.080669
v -0.326972 1.477732 -0.080669
v -0.298344 1.489736 0.015015
v -0.159529 1.535228 -0.002645
v -0.230516 1.529268 -0.091438
v 0.275894 1.409008 -0.154132
v 0.200787 1.505453 -0.123968
v 0.384109 1.352614 -0.109617
v 0.264608 1.354413 0.040768
v 0.175412 1.434203 0.034787
v 0.232294 1.529268 -0.091438
v 0.161306 1.535228 -0.002645
v 0.310883 1.300619 0.020345
v 0.616887 0.855486 -0.029642
v 0.650108 0.867310 -0.084484
v -0.274116 1.409008 -0.154132
v -0.382332 1.352614 -0.109617
v -0.199010 1.505453 -0.123968
v -0.173634 1.434203 0.034787
v -0.262831 1.354413 0.040768
v -0.230516 1.529268 -0.091438
v -0.159529 1.535228 -0.002645
v -0.648330 0.867310 -0.084484
v -0.615110 0.855486 -0.029642
v -0.309105 1.300619 0.020345
v 0.162310 1.456360 0.026577
v -0.160533 1.456360 0.026577
vn -0.0000 -0.0789 -0.9969
vn -0.0000 0.6427 -0.7661
vn 0.2993 0.7091 -0.6384
vn 0.7945 0.4064 -0.4513
vn 0.7945 0.4063 -0.4513
vn 0.2993 0.7091 -0.6385
vn 0.1323 0.9050 0.4044
vn 0.6435 0.3966 0.6547
vn -0.3877 0.2137 0.8967
vn -0.0000 -0.0263 0.9997
vn 0.7033 -0.0691 0.7076
vn -0.0000 0.6426 -0.7662
vn -0.0000 0.8771 0.4803
vn -0.0000 0.8772 0.4802
vn -0.0000 -0.0790 -0.9969
vn -0.3878 0.2137 0.8966
vn -0.0000 0.0970 -0.9953
vn 0.7972 -0.1280 -0.5900
vn 0.8019 0.0614 -0.5943
vn -0.0000 0.1095 -0.9940
vn 0.7971 -0.1280 -0.5901
vn 0.6457 0.0090 0.7635
vn 0.8018 0.0614 -0.5944
vn -0.0000 -0.0569 0.9984
vn -0.0000 -0.1733 -0.9849
vn 0.7803 0.0718 -0.6213
vn 0.8362 0.0716 -0.5438
vn -0.4970 -0.1529 -0.8542
vn -0.0000 -0.2410 0.9705
vn 0.7347 0.0552 0.6761
vn 0.7347 0.0552 0.6762
vn 0.7802 0.0719 -0.6214
vn 0.8350 0.0852 -0.5437
vn -0.5505 0.0634 -0.8325
vn 0.6576 0.0372 0.7524
vn 0.8361 0.0715 -0.5438
vn -0.0000 -0.2411 0.9705
vn 0.0001 -0.1733 -0.9849
vn -0.6491 -0.1344 0.7487
vn -0.6492 -0.1344 0.7487
vn 0.6577 0.0371 0.7524
vn -0.6955 -0.0026 0.7185
vn -0.5505 0.0633 -0.8325
vn -0.5040 -0.5733 -0.6460
vn -0.5096 -0.5914 0.6249
vn 0.6360 0.0410 0.7706
vn 0.8349 0.0853 -0.5438
vn -0.6956 -0.0026 0.7184
vn 0.6361 0.0410 0.7706
vn -0.5039 -0.5733 -0.6461
vn 0.6431 -0.6127 -0.4593
vn 0.5239 -0.6078 0.5967
vn -0.5096 -0.5914 0.6250
vn 0.5240 -0.6078 0.5966
vn -0.5040 -0.5732 -0.6460
vn 0.5264 -0.6077 -0.5947
vn 0.5264 0.6077 -0.5947
vn 0.5532 0.6157 0.5611
vn 0.5532 -0.6158 0.5610
vn 0.5532 0.6158 0.5610
vn -0.5519 0.5884 0.5910
vn -0.5518 -0.5884 0.5910
vn -0.5518 0.5884 0.5910
vn -0.5605 0.5979 -0.5730
vn -0.5605 -0.5979 -0.5729
vn -0.5606 -0.5979 -0.5730
vn 0.5263 -0.6077 -0.5947
vn 0.5532 -0.6158 0.5611
vn -0.5519 -0.5884 0.5910
vn -0.5605 -0.5979 -0.5730
vn 0.5263 0.6077 -0.5947
vn -0.5606 0.5979 -0.5730
vn 0.9999 -0.0108 -0.0024
vn -0.0000 -0.0264 0.9997
vn -0.0000 0.0969 -0.9953
vn -0.7064 -0.6999 0.1055
vn -0.9484 -0.1106 -0.2973
vn -0.5865 0.1528 -0.7954
vn -0.2340 -0.0577 -0.9705
vn 0.4405 0.6431 0.6264
vn -0.4203 0.8495 0.3189
vn -0.4891 -0.2535 0.8345
vn -0.1506 -0.3206 0.9352
vn 0.0359 -0.7480 -0.6627
vn -0.3687 -0.8944 0.2532
vn 0.9635 -0.1765 -0.2011
vn 0.4431 -0.4434 0.7791
vn -0.3687 -0.8944 0.2531
vn 0.0735 -0.1509 0.9858
vn 0.4432 -0.4433 0.7791
vn 0.7516 0.4742 -0.4584
vn 0.9635 -0.1765 -0.2012
vn 0.0359 -0.7481 -0.6626
vn -0.2792 0.8144 -0.5087
vn -0.8600 0.1266 -0.4944
vn -0.8859 0.0605 0.4600
vn -0.3005 0.7077 0.6395
vn 0.3311 -0.6264 -0.7057
vn 0.3450 -0.7898 0.5071
vn -0.4615 -0.8045 0.3740
vn -0.4425 -0.7005 -0.5599
vn 0.0266 -0.0606 0.9978
vn -0.7128 -0.4443 0.5427
vn -0.4615 -0.8045 0.3739
vn 0.3452 -0.7898 0.5070
vn -0.0397 0.1492 -0.9880
vn 0.6729 0.5260 -0.5202
vn 0.8700 0.0572 -0.4897
vn 0.3312 -0.6265 -0.7056
vn -0.7128 -0.4442 0.5428
vn -0.6940 -0.3305 -0.6396
vn -0.4614 -0.8045 0.3739
vn 0.6728 0.5259 -0.5203
vn 0.6574 0.4101 0.6322
vn 0.8748 -0.0428 0.4827
vn 0.8700 0.0571 -0.4897
vn 0.4677 0.8059 -0.3630
vn 0.4380 0.7213 0.5365
vn 0.3311 -0.6265 -0.7056
vn -0.2792 0.8144 -0.5088
vn 0.6729 0.5259 -0.5203
vn 0.6574 0.4101 0.6321
vn 0.8748 -0.0428 0.4826
vn 0.4381 0.7214 0.5364
vn -0.3005 0.7077 0.6394
vn -0.8859 0.0605 0.4599
vn 0.3451 -0.7898 0.5070
vn 0.3310 -0.6265 -0.7056
vn -0.3005 0.7076 0.6396
vn 0.4381 0.7213 0.5365
vn 0.7174 0.3764 0.5862
vn 0.7516 0.4742 -0.4585
vn 0.6212 0.7252 -0.2970
vn 0.4404 0.6431 0.6265
vn 0.0299 0.9150 -0.4024
vn -0.4203 0.8495 0.3190
vn 0.4405 0.6430 0.6265
vn -0.7945 0.4063 -0.4513
vn -0.2993 0.7091 -0.6384
vn -0.7945 0.4063 -0.4514
vn -0.6435 0.3966 0.6547
vn -0.1323 0.9050 0.4044
vn -0.2993 0.7091 -0.6385
vn -0.6435 0.3965 0.6547
vn -0.7033 -0.0691 0.7076
vn 0.3877 0.2138 0.8967
vn 0.3877 0.2137 0.8967
vn 0.3878 0.2138 0.8966
vn -0.8019 0.0614 -0.5943
vn -0.7972 -0.1281 -0.5900
vn -0.7971 -0.1280 -0.5901
vn -0.8018 0.0614 -0.5944
vn -0.6457 0.0090 0.7635
vn -0.6457 0.0089 0.7635
vn 0.4970 -0.1529 -0.8541
vn -0.8362 0.0716 -0.5438
vn -0.7803 0.0719 -0.6213
vn -0.7347 0.0553 0.6761
vn -0.7802 0.0719 -0.6214
vn -0.7347 0.0552 0.6762
vn 0.5505 0.0634 -0.8325
vn -0.8349 0.0853 -0.5437
vn -0.8361 0.0716 -0.5438
vn -0.6576 0.0372 0.7524
vn 0.6491 -0.1344 0.7487
vn 0.4970 -0.1529 -0.8542
vn -0.6577 0.0371 0.7524
vn 0.6492 -0.1345 0.7487
vn 0.6955 -0.0026 0.7185
vn 0.5096 -0.5914 0.6249
vn 0.5040 -0.5733 -0.6460
vn 0.5505 0.0634 -0.8324
vn -0.8349 0.0852 -0.5438
vn -0.6360 0.0410 0.7706
vn -0.6361 0.0410 0.7706
vn 0.6956 -0.0026 0.7184
vn 0.5096 -0.5914 0.6250
vn -0.5239 -0.6078 0.5967
vn -0.6431 -0.6127 -0.4594
vn -0.5239 -0.6079 0.5967
vn 0.5096 -0.5913 0.6250
vn 0.5039 -0.5733 -0.6460
vn -0.6431 -0.6127 -0.4593
vn -0.6431 -0.6128 -0.4593
vn -0.5264 -0.6077 -0.5947
vn -0.5532 -0.6157 0.5611
vn -0.5532 0.6158 0.5610
vn -0.5264 0.6077 -0.5947
vn -0.5532 -0.6158 0.5610
vn 0.5519 -0.5884 0.5910
vn 0.5518 0.5884 0.5910
vn 0.5518 -0.5884 0.5910
vn 0.5605 -0.5979 -0.5730
vn 0.5605 0.5979 -0.5729
vn -0.5263 0.6077 -0.5947
vn 0.5606 0.5979 -0.5730
vn 0.5606 -0.5979 -0.5730
vn 0.5519 0.5884 0.5910
vn 0.5605 0.5979 -0.5730
vn -0.5532 0.6158 0.5611
vn -0.9999 -0.0108 -0.0024
vn 0.7064 -0.6999 0.1055
vn 0.2340 -0.0576 -0.9705
vn 0.5865 0.1528 -0.7954
vn 0.9484 -0.1106 -0.2973
vn -0.4405 0.6431 0.6264
vn 0.1506 -0.3206 0.9352
vn 0.4891 -0.2536 0.8346
vn 0.4202 0.8496 0.3189
vn 0.3686 -0.8944 0.2532
vn -0.0359 -0.7480 -0.6627
vn -0.0358 -0.7481 -0.6627
vn 0.3687 -0.8944 0.2532
vn -0.4432 -0.4433 0.7791
vn -0.9635 -0.1765 -0.2011
vn -0.0734 -0.1509 0.9858
vn -0.4432 -0.4434 0.7791
vn 0.2340 -0.0577 -0.9705
vn -0.0359 -0.7481 -0.6627
vn -0.7517 0.4742 -0.4584
vn 0.2792 0.8144 -0.5087
vn 0.3005 0.7076 0.6395
vn 0.8859 0.0605 0.4600
vn 0.8600 0.1266 -0.4944
vn -0.3311 -0.6264 -0.7057
vn 0.4426 -0.7005 -0.5598
vn 0.4615 -0.8045 0.3740
vn -0.3451 -0.7898 0.5070
vn -0.0266 -0.0606 0.9978
vn -0.3452 -0.7898 0.5071
vn 0.4615 -0.8045 0.3739
vn 0.7128 -0.4443 0.5427
vn 0.0397 0.1492 -0.9880
vn -0.3311 -0.6265 -0.7056
vn -0.8700 0.0571 -0.4897
vn -0.6729 0.5260 -0.5202
vn 0.7128 -0.4443 0.5428
vn 0.4614 -0.8045 0.3740
vn 0.4425 -0.7005 -0.5599
vn 0.6940 -0.3306 -0.6396
vn -0.6728 0.5259 -0.5203
vn -0.8700 0.0572 -0.4897
vn -0.8748 -0.0428 0.4827
vn -0.6574 0.4101 0.6322
vn -0.4677 0.8059 -0.3630
vn -0.4380 0.7213 0.5365
vn -0.3311 -0.6266 -0.7056
vn -0.6728 0.5260 -0.5202
vn -0.8748 -0.0428 0.4826
vn -0.4380 0.7214 0.5364
vn 0.3005 0.7077 0.6394
vn 0.8859 0.0605 0.4599
vn -0.3310 -0.6265 -0.7056
vn -0.3451 -0.7898 0.5071
vn -0.4381 0.7213 0.5365
vn -0.7174 0.3764 0.5862
vn -0.0735 -0.1508 0.9858
vn -0.7516 0.4742 -0.4585
vn -0.4404 0.6431 0.6265
vn -0.6212 0.7252 -0.2970
vn -0.4405 0.6430 0.6265
vn 0.4202 0.8495 0.3190
vn -0.0299 0.9150 -0.4024
vn -0.2340 -0.0576 -0.9705
vn -0.4891 -0.2535 0.8346
vn -0.1506 -0.3205 0.9352
vn -0.9526 -0.0743 0.2950
vn 0.0298 0.9150 -0.4024
vn -0.9526 -0.0743 0.2949
vn -0.4891 -0.2536 0.8346
vn -0.9483 -0.1107 -0.2973
vn 0.4432 -0.4434 0.7791
vn 0.0734 -0.1509 0.9858
vn 0.5865 0.1529 -0.7954
vn 0.1505 -0.3205 0.9352
vn 0.4891 -0.2535 0.8346
vn 0.4203 0.8495 0.3190
vn 0.9526 -0.0743 0.2950
vn -0.0298 0.9150 -0.4024
vn 0.9545 -0.0654 0.2909
vn 0.9483 -0.1107 -0.2973
vn -0.4431 -0.4433 0.7792
vn -0.0735 -0.1509 0.9858
vt 0.211439 0.868616
vt 0.217357 0.997909
vt 0.309753 1.000000
vt 0.342266 0.984935
vt 0.729429 0.350307
vt 0.758854 0.381539
vt 0.780821 0.250499
vt 0.733190 0.195048
vt 0.729429 0.255855
vt 0.613554 0.316621
vt 0.609128 0.394476
vt 0.719951 0.303545
vt 0.846342 0.400902
vt 0.846342 0.232376
vt 0.827370 0.152178
vt 0.748028 0.463224
vt 0.729429 0.631042
vt 0.851329 0.669759
vt 0.851329 0.400902
vt 0.216666 0.771639
vt 0.323710 0.893522
vt 0.319414 0.809117
vt 0.202390 0.697353
vt 0.043457 1.000000
vt 0.198669 0.993545
vt 0.200030 0.947786
vt 0.046174 0.911291
vt 0.194167 0.736787
vt 0.044183 0.828063
vt 0.612508 0.558336
vt 0.689886 0.521594
vt 0.200030 0.617094
vt 0.308886 0.652015
vt 0.337991 0.475206
vt 0.259744 0.486073
vt 0.616311 0.637620
vt 0.724209 0.605806
vt 0.189299 0.648452
vt 0.000000 0.676955
vt 0.342266 0.430601
vt 0.253471 0.434807
vt 0.200030 0.504007
vt 0.062195 0.491864
vt 0.609128 0.637459
vt 0.342266 0.602277
vt 0.405810 0.747561
vt 0.598437 0.755583
vt 0.654339 0.751946
vt 0.720104 0.752310
vt 0.592606 0.801302
vt 0.387447 0.795959
vt 0.387741 0.987826
vt 0.609128 1.000000
vt 0.195447 0.458299
vt 0.051956 0.447800
vt 0.655503 0.798138
vt 0.720846 0.798504
vt 0.932439 0.447179
vt 0.851329 0.492199
vt 0.863729 0.652200
vt 0.932439 0.669758
vt 0.658892 0.997427
vt 0.729429 1.000000
vt 0.339181 0.240384
vt 0.248340 0.242249
vt 0.196811 0.257740
vt 0.036402 0.260306
vt 0.589772 0.602162
vt 0.609128 0.602277
vt 0.609128 0.326580
vt 0.585930 0.326442
vt 0.196354 0.199979
vt 0.172851 0.199979
vt 0.176252 0.257740
vt 0.192469 0.257740
vt 0.605326 0.050263
vt 0.589286 0.050290
vt 0.585930 0.326442
vt 0.605326 0.326409
vt 0.252947 0.186766
vt 0.233448 0.186251
vt 0.233448 0.239868
vt 0.252947 0.240384
vt 0.885457 1.000000
vt 0.943585 0.999567
vt 0.943585 0.723076
vt 0.888485 0.723454
vt 1.000000 0.723494
vt 0.943585 0.723346
vt 0.946019 0.999803
vt 1.000000 1.000000
vt 0.867438 0.387879
vt 0.949170 0.400902
vt 0.949170 0.122663
vt 0.846342 0.120474
vt 0.381416 0.491910
vt 0.345795 0.546050
vt 0.523824 0.600237
vt 0.570385 0.555177
vt 0.107133 0.192759
vt 0.135376 0.257740
vt 0.172851 0.223114
vt 0.172229 0.163822
vt 0.570385 0.246224
vt 0.518184 0.236634
vt 0.233448 0.157179
vt 0.200030 0.172585
vt 0.205253 0.240384
vt 0.233448 0.210751
vt 0.375753 0.462318
vt 0.484182 0.237661
vt 0.993397 0.069480
vt 0.949170 0.124657
vt 0.956277 0.400902
vt 0.993397 0.397331
vt 0.609307 0.241937
vt 0.613631 0.239427
vt 0.612735 0.190803
vt 0.609128 0.188640
vt 0.578083 0.551431
vt 0.578083 0.490395
vt 0.570385 0.493496
vt 0.571102 0.547400
vt 0.576242 0.577823
vt 0.570385 0.575262
vt 0.570602 0.597052
vt 0.575738 0.602277
vt 0.579165 0.462953
vt 0.570385 0.465314
vt 0.572114 0.487434
vt 0.579165 0.490395
vt 0.634775 0.189176
vt 0.632393 0.248322
vt 0.653405 0.249370
vt 0.654637 0.195411
vt 0.674286 0.197186
vt 0.674243 0.255855
vt 0.694770 0.250189
vt 0.695688 0.196242
vt 0.657481 0.205069
vt 0.654637 0.253615
vt 0.628861 0.255855
vt 0.654637 0.253602
vt 0.700889 0.204120
vt 0.707841 0.204314
vt 0.718766 0.192587
vt 0.710253 0.187012
vt 0.584734 0.577304
vt 0.582846 0.598472
vt 0.584734 0.555633
vt 0.579891 0.551431
vt 0.575090 0.553062
vt 0.700889 0.254302
vt 0.700889 0.193183
vt 0.713617 0.255855
vt 0.718766 0.251696
vt 0.129344 0.100630
vt 0.172851 0.126136
vt 0.729429 0.937308
vt 0.769927 1.000000
vt 0.885457 0.999606
vt 0.842444 0.916350
vt 0.081044 0.138604
vt 0.026192 0.145389
vt 0.030137 0.257740
vt 0.107133 0.251251
vt 0.031947 0.063769
vt 0.107133 0.092519
vt 0.000000 0.113903
vt 0.342266 0.532980
vt 0.345387 0.486974
vt 0.377075 0.590719
vt 0.349532 0.546360
vt 0.484660 0.602277
vt 0.800573 0.669759
vt 0.885457 0.906375
vt 0.734328 0.677708
s 1
usemtl ps1_body
f 124/76/99 125/77/100 126/78/101
f 124/76/99 126/78/101 127/79/102
f 128/80/103 129/81/104 130/82/105
f 128/80/103 130/82/105 131/83/106
f 132/84/106 133/85/107 134/86/108
f 132/84/106 134/86/108 135/87/109
f 129/81/104 136/88/110 137/89/111
f 129/81/104 137/89/111 130/82/105
f 131/83/106 130/82/105 137/89/111
f 131/83/106 137/89/111 138/90/107
f 139/91/112 140/92/110 141/93/113
f 139/91/111 141/93/99 142/94/114
f 143/95/115 144/96/116 145/97/117
f 143/95/115 145/97/117 146/98/118
f 124/76/99 127/79/102 144/96/116
f 124/76/99 144/96/116 143/95/115
f 147/99/102 148/100/106 149/101/109
f 147/99/102 149/101/109 150/102/119
f 150/102/119 149/101/109 151/103/120
f 150/102/119 151/103/120 152/104/121
f 135/87/109 134/86/108 153/105/122
f 135/87/109 153/105/122 154/106/120
f 155/107/123 156/108/124 157/109/125
f 155/107/123 157/109/125 158/110/126
f 154/106/120 153/105/122 159/111/127
f 154/106/120 159/111/127 160/112/128
f 146/98/118 145/97/117 156/108/124
f 146/98/118 156/108/124 155/107/123
f 152/104/121 151/103/120 161/113/129
f 152/104/121 161/113/129 162/114/130
f 158/110/126 157/109/125 163/115/131
f 158/110/126 163/115/131 164/116/132
f 162/114/130 161/113/129 165/117/133
f 162/114/130 165/117/133 166/118/134
f 167/119/135 168/120/136 169/121/126
f 167/119/135 169/121/126 170/122/137
f 160/112/128 159/111/127 171/123/138
f 160/112/128 171/123/138 172/124/139
f 173/125/140 174/126/141 175/127/142
f 173/125/140 175/127/142 176/128/143
f 166/118/134 165/117/133 177/129/144
f 166/118/134 177/129/144 178/130/145
f 170/122/137 169/121/126 174/126/141
f 170/122/137 174/126/141 173/125/140
f 172/124/139 171/123/138 179/131/146
f 172/124/139 179/131/146 180/132/147
f 181/133/148 182/134/149 183/135/150
f 181/133/148 183/135/150 184/136/151
f 180/132/147 179/131/146 185/137/151
f 180/132/147 185/137/151 186/138/152
f 164/116/132 163/115/131 187/139/149
f 164/116/132 187/139/149 188/140/153
f 178/130/145 177/129/144 189/141/150
f 178/130/145 189/141/150 190/142/149
f 191/143/154 192/144/155 193/145/156
f 191/143/154 193/145/156 194/146/157
f 195/147/157 196/148/158 197/149/159
f 195/147/157 197/149/159 198/150/160
f 199/151/160 200/152/161 201/153/162
f 199/151/160 201/153/162 202/154/163
f 203/155/164 204/156/162 205/157/155
f 203/155/164 205/157/155 206/158/165
f 207/159/166 208/160/167 209/161/168
f 207/159/166 209/161/168 210/162/154
f 211/163/161 212/164/158 213/165/169
f 211/163/161 213/165/169 214/166/170
f 215/167/171 216/168/172 217/169/173
f 215/167/171 217/169/173 218/170/113
f 219/171/174 220/172/175 221/173/176
f 219/171/174 221/173/176 222/174/177
f 223/175/178 224/176/179 225/177/180
f 223/175/178 225/177/180 226/178/181
f 219/171/174 222/174/177 227/179/182
f 219/171/174 227/179/182 228/180/183
f 229/181/182 230/182/184 231/183/185
f 229/181/182 231/183/185 232/184/186
f 233/185/187 219/171/174 228/180/183
f 233/185/187 228/180/183 234/186/188
f 235/187/177 236/188/189 237/189/190
f 235/187/177 237/189/190 238/190/191
f 239/191/192 240/192/193 241/193/194
f 239/191/192 241/193/194 242/194/195
f 243/195/196 244/196/197 245/197/198
f 243/195/196 245/197/198 246/198/199
f 247/199/200 248/200/201 249/201/202
f 247/199/200 249/201/202 250/202/203
f 251/203/204 252/204/205 253/205/206
f 251/203/204 253/205/206 254/206/207
f 255/207/208 256/208/209 257/209/199
f 255/207/208 257/209/199 258/210/210
f 259/211/211 260/212/212 261/213/213
f 259/211/211 261/213/213 262/214/214
f 263/215/215 264/216/216 260/212/212
f 263/215/215 260/212/212 259/211/211
f 241/193/194 240/192/193 256/208/209
f 241/193/194 256/208/209 255/207/208
f 256/208/209 265/217/204 266/218/217
f 256/208/209 266/218/217 257/209/199
f 240/192/193 239/191/192 265/217/204
f 240/192/193 265/217/204 256/208/209
f 267/219/218 268/220/215 269/221/219
f 267/219/218 269/221/219 270/222/204
f 271/223/220 247/199/200 250/202/203
f 271/223/220 250/202/203 272/224/221
f 273/225/222 274/226/223 247/199/200
f 273/225/222 247/199/200 271/223/220
f 274/226/223 275/227/224 248/200/201
f 274/226/223 248/200/201 247/199/200
f 262/214/214 261/213/213 276/228/225
f 262/214/214 276/228/225 277/229/226
f 268/220/215 267/219/218 278/230/227
f 268/220/215 278/230/227 279/231/228
f 280/232/229 223/175/178 226/178/181
f 280/232/229 226/178/181 281/233/187
f 282/234/230 283/235/231 284/236/232
f 282/234/230 284/236/232 285/237/229
f 286/238/231 287/239/233 288/240/234
f 286/238/231 288/240/234 289/241/235
f 124/76/99 290/79/236 291/78/237
f 124/76/99 291/78/237 125/77/100
f 292/80/238 293/83/239 294/82/240
f 292/80/238 294/82/240 295/81/241
f 296/84/242 297/87/243 134/86/108
f 296/84/242 134/86/108 298/85/244
f 295/81/241 294/82/240 137/89/111
f 295/81/241 137/89/111 136/88/110
f 293/83/239 299/90/245 137/89/111
f 293/83/239 137/89/111 294/82/240
f 139/91/111 300/94/246 141/93/99
f 143/95/115 146/98/118 301/97/247
f 143/95/115 301/97/247 302/96/248
f 124/76/99 143/95/115 302/96/248
f 124/76/99 302/96/248 290/79/236
f 303/99/236 304/102/249 305/101/243
f 303/99/236 305/101/243 306/100/239
f 304/102/249 307/104/250 308/103/251
f 304/102/249 308/103/251 305/101/243
f 297/87/243 309/106/252 153/105/122
f 297/87/243 153/105/122 134/86/108
f 155/107/123 310/110/253 311/109/254
f 155/107/123 311/109/254 312/108/255
f 309/106/252 313/112/256 159/111/127
f 309/106/252 159/111/127 153/105/122
f 146/98/118 155/107/123 312/108/255
f 146/98/118 312/108/255 301/97/247
f 307/104/250 314/114/257 315/113/258
f 307/104/250 315/113/258 308/103/251
f 310/110/253 316/116/259 317/115/260
f 310/110/253 317/115/260 311/109/254
f 314/114/257 318/118/261 319/117/262
f 314/114/257 319/117/262 315/113/258
f 167/119/135 320/122/263 321/121/264
f 167/119/135 321/121/264 168/120/136
f 313/112/256 322/124/265 323/123/266
f 313/112/256 323/123/266 159/111/127
f 324/125/267 325/128/268 326/127/269
f 324/125/267 326/127/269 327/126/270
f 318/118/261 328/130/271 329/129/272
f 318/118/261 329/129/272 319/117/262
f 320/122/263 324/125/267 327/126/270
f 320/122/263 327/126/270 321/121/264
f 322/124/265 330/132/273 331/131/274
f 322/124/265 331/131/274 323/123/266
f 332/133/269 333/136/275 334/135/276
f 332/133/269 334/135/276 335/134/277
f 330/132/273 336/138/278 337/137/279
f 330/132/273 337/137/279 331/131/274
f 316/116/259 338/140/280 339/139/281
f 316/116/259 339/139/281 317/115/260
f 328/130/271 340/142/282 341/141/276
f 328/130/271 341/141/276 329/129/272
f 342/143/283 343/146/284 344/145/285
f 342/143/283 344/145/285 345/144/286
f 346/147/287 347/150/288 348/149/289
f 346/147/287 348/149/289 349/148/285
f 350/151/290 351/154/291 352/153/292
f 350/151/290 352/153/292 353/152/289
f 354/155/291 355/158/283 356/157/293
f 354/155/291 356/157/293 357/156/294
f 358/159/287 359/162/283 360/161/295
f 358/159/287 360/161/295 361/160/290
f 362/163/296 363/166/297 364/165/286
f 362/163/296 364/165/286 365/164/298
f 366/167/299 218/170/113 217/169/173
f 366/167/299 217/169/173 216/168/172
f 367/171/300 368/174/301 369/173/302
f 367/171/300 369/173/302 370/172/303
f 371/175/304 372/178/305 373/177/306
f 371/175/304 373/177/306 374/176/307
f 367/171/300 375/180/308 376/179/309
f 367/171/300 376/179/309 368/174/301
f 377/181/310 378/184/311 379/183/312
f 377/181/310 379/183/312 380/182/313
f 381/185/314 382/186/315 375/180/308
f 381/185/314 375/180/308 367/171/300
f 383/187/316 384/190/317 385/189/313
f 383/187/316 385/189/313 386/188/318
f 387/191/319 388/194/320 389/193/321
f 387/191/319 389/193/321 390/192/322
f 391/195/323 392/198/324 393/197/325
f 391/195/323 393/197/325 394/196/326
f 395/199/327 396/202/328 397/201/329
f 395/199/327 397/201/329 398/200/330
f 399/203/331 400/206/332 401/205/333
f 399/203/331 401/205/333 402/204/334
f 403/207/335 404/210/336 405/209/337
f 403/207/335 405/209/337 406/208/338
f 407/211/339 408/214/340 409/213/341
f 407/211/339 409/213/341 410/212/342
f 411/215/343 407/211/339 410/212/342
f 411/215/343 410/212/342 412/216/344
f 389/193/321 403/207/335 406/208/338
f 389/193/321 406/208/338 390/192/322
f 406/208/338 405/209/337 413/218/345
f 406/208/338 413/218/345 414/217/331
f 390/192/322 406/208/338 414/217/331
f 390/192/322 414/217/331 387/191/319
f 415/219/319 416/222/331 417/221/346
f 415/219/319 417/221/346 418/220/343
f 419/223/342 420/224/347 396/202/328
f 419/223/342 396/202/328 395/199/327
f 421/225/348 419/223/342 395/199/327
f 421/225/348 395/199/327 422/226/349
f 422/226/349 395/199/327 398/200/330
f 422/226/349 398/200/330 423/227/350
f 408/214/340 424/229/351 425/228/352
f 408/214/340 425/228/352 409/213/341
f 418/220/343 426/231/353 427/230/320
f 418/220/343 427/230/320 415/219/319
f 428/232/354 429/233/355 372/178/305
f 428/232/354 372/178/305 371/175/304
f 430/234/356 431/237/354 432/236/357
f 430/234/356 432/236/357 433/235/358
f 434/238/358 435/241/359 436/240/360
f 434/238/358 436/240/360 437/239/361
f 438/242/362 286/238/231 440/243/189
f 286/238/231 438/242/362 439/244/176
f 286/238/231 439/244/176 287/239/233
f 219/171/174 442/245/363 220/172/175
f 442/245/363 219/171/174 441/246/364
f 441/246/364 219/171/174 233/185/187
f 444/247/234 221/173/176 458/248/365
f 221/173/176 444/247/234 443/249/366
f 458/248/367 442/245/368 220/172/369
f 446/250/370 285/237/229 445/251/371
f 285/237/229 446/250/370 282/234/230
f 282/234/230 446/250/370 447/252/184
f 434/238/358 448/242/316 449/243/356
f 448/242/316 434/238/358 450/244/372
f 450/244/372 434/238/358 437/239/361
f 367/171/300 452/246/373 381/185/314
f 452/246/373 367/171/300 451/245/374
f 451/245/374 367/171/300 370/172/303
f 369/173/302 454/247/375 459/248/376
f 454/247/375 369/173/302 453/249/377
f 459/248/378 370/172/379 451/245/374
f 431/237/354 456/250/380 457/251/381
f 456/250/380 431/237/354 430/234/356
f 456/250/380 430/234/356 455/252/313
